<svg xmlns="http://www.w3.org/2000/svg" viewBox="0 0 500 500"><g id="freepik--background-complete--inject-7"><rect x="305.1" y="48.18" width="145.8" height="185.89" style="fill:#ebebeb"></rect><rect x="313" y="55.63" width="61.63" height="82.68" style="fill:#fff"></rect><rect x="381.37" y="55.63" width="61.63" height="82.68" style="fill:#fff"></rect><rect x="313" y="143.95" width="61.63" height="82.68" style="fill:#fff"></rect><rect x="381.37" y="143.95" width="61.63" height="82.68" style="fill:#fff"></rect><polygon points="394.65 48.18 450.89 48.18 450.89 314.13 418.34 314.13 441.06 178.81 394.65 48.18" style="fill:#dbdbdb"></polygon><polygon points="404.39 55.37 413.79 86.16 423.05 117 441.54 178.66 441.57 178.77 441.56 178.87 432.82 243.37 428.45 275.62 423.92 307.84 427.96 275.55 432.16 243.28 440.57 178.74 440.59 178.95 422.41 117.18 413.33 86.3 404.39 55.37" style="fill:#ebebeb"></polygon><polygon points="447.55 60.83 447.79 87.5 447.93 114.17 448.05 167.51 447.93 220.86 447.79 247.53 447.55 274.2 447.3 247.53 447.16 220.86 447.05 167.51 447.17 114.17 447.3 87.5 447.55 60.83" style="fill:#ebebeb"></polygon><polygon points="437.04 65.83 439.26 94.15 441.39 122.47 445.5 179.14 445.5 179.17 445.5 179.19 443.43 242.35 442.3 273.92 441.06 305.49 441.8 273.91 442.64 242.32 444.52 179.16 444.52 179.21 440.65 122.53 438.8 94.18 437.04 65.83" style="fill:#ebebeb"></polygon><path d="M429.72,301.4l3.13-30.65,3.25-30.64c2.25-20.41,4.41-40.84,6.74-61.24V179l-10.17-47.71-5-23.87-4.94-23.88,5.35,23.79,5.28,23.82,10.42,47.65,0,.07V179c-2.21,20.42-4.58,40.82-6.86,61.24l-3.55,30.6Z" style="fill:#ebebeb"></path><rect x="438.19" y="176.58" width="12.7" height="6.2" style="fill:#dbdbdb"></rect><polygon points="361.47 48.18 305.23 48.18 305.23 314.13 337.78 314.13 315.06 178.81 361.47 48.18" style="fill:#dbdbdb"></polygon><polygon points="351.73 55.37 342.79 86.3 333.71 117.18 315.54 178.95 315.55 178.74 323.96 243.28 328.17 275.55 332.21 307.84 327.68 275.62 323.3 243.37 314.57 178.87 314.55 178.77 314.58 178.66 333.08 117 342.33 86.16 351.73 55.37" style="fill:#ebebeb"></polygon><polygon points="308.58 60.83 308.82 87.5 308.96 114.17 309.08 167.51 308.96 220.86 308.82 247.53 308.58 274.2 308.33 247.53 308.19 220.86 308.08 167.51 308.19 114.17 308.33 87.5 308.58 60.83" style="fill:#ebebeb"></polygon><polygon points="319.08 65.83 317.32 94.18 315.47 122.53 311.61 179.21 311.61 179.16 313.49 242.32 314.33 273.91 315.06 305.49 313.82 273.92 312.69 242.35 310.63 179.19 310.63 179.17 310.63 179.14 314.73 122.47 316.86 94.15 319.08 65.83" style="fill:#ebebeb"></polygon><path d="M326.41,301.4l-3.67-30.59-3.55-30.6c-2.28-20.42-4.65-40.82-6.85-61.24v-.15l10.42-47.65L328,107.35l5.35-23.79-4.93,23.88-5,23.87L313.27,179v-.15c2.33,20.4,4.49,40.83,6.75,61.24l3.24,30.64Z" style="fill:#ebebeb"></path><rect x="305.23" y="176.58" width="12.7" height="6.2" transform="translate(623.16 359.35) rotate(180)" style="fill:#dbdbdb"></rect><rect x="164.35" y="48.18" width="51.1" height="61.98" style="fill:#ebebeb"></rect><rect x="170.19" y="53.84" width="39.42" height="50.67" style="fill:#fff"></rect><rect x="170.19" y="53.84" width="1.54" height="50.67" style="fill:#dbdbdb"></rect><rect x="215.45" y="48.18" width="1.54" height="61.98" style="fill:#dbdbdb"></rect><rect x="183.4" y="60.83" width="9.29" height="27.69" style="fill:#dbdbdb"></rect><path d="M204.63,93.75H178.84V79.18h25.79Zm-24.79-1h23.79V80.18H179.84Z" style="fill:#ebebeb"></path><rect x="230.07" y="113.67" width="51.1" height="61.98" style="fill:#ebebeb"></rect><rect x="235.91" y="119.33" width="39.42" height="50.66" style="fill:#fff"></rect><rect x="235.91" y="119.33" width="1.54" height="50.66" style="fill:#dbdbdb"></rect><rect x="281.17" y="113.67" width="1.54" height="61.98" style="fill:#dbdbdb"></rect><rect x="251.81" y="132.42" width="7.96" height="20.13" style="fill:#ebebeb"></rect><path d="M268.65,159H246.26V144.16h22.39Zm-21.39-1h20.39V145.16H247.26Z" style="fill:#dbdbdb"></path><polygon points="111.42 252.78 77.22 252.78 57.65 155.21 88.96 140.82 111.42 252.78" style="fill:#dbdbdb"></polygon><polygon points="209.29 252.78 111.42 252.78 88.96 140.82 186.83 140.82 209.29 252.78" style="fill:#ebebeb"></polygon><rect x="41.45" y="200.43" width="52.41" height="107.53" style="fill:#dbdbdb"></rect><polygon points="234.44 307.96 220.12 307.96 198.79 200.43 234.44 200.43 234.44 307.96" style="fill:#dbdbdb"></polygon><rect x="93.86" y="200.43" width="28.8" height="107.53" style="fill:#ebebeb"></rect><rect x="234.44" y="200.43" width="28.8" height="107.53" style="fill:#ebebeb"></rect><rect x="122.65" y="252.78" width="111.79" height="55.18" style="fill:#ebebeb"></rect><rect x="122.65" y="228.92" width="111.79" height="24.08" style="fill:#ebebeb"></rect><path d="M100.91,200.43l10.87-.18,10.87-.12H123v.31l.11,12.58,0,12.59c0,8.39.06,16.78,0,25.17s0,16.77-.13,25.16-.17,16.78-.34,25.17q-.24-12.59-.33-25.17c-.1-8.39-.11-16.77-.13-25.16s0-16.78,0-25.17l0-12.59.11-12.58.3.3-10.87-.12Z" style="fill:#dbdbdb"></path><path d="M234.44,200.43c.21,8.42.3,16.84.38,25.26l.12,25.26-.11,25.26-.14,12.63-.25,12.64-.24-12.64-.14-12.63L233.94,251l.12-25.26C234.14,217.27,234.24,208.85,234.44,200.43Z" style="fill:#dbdbdb"></path><path d="M234.44,252.78c-9.31.21-18.63.3-27.95.38l-27.94.12-28-.12-14-.14-14-.24,14-.25,14-.14,28-.11,27.94.12C215.81,252.48,225.13,252.57,234.44,252.78Z" style="fill:#dbdbdb"></path><path d="M234.44,228.92c-9.31.21-18.63.31-27.95.39l-27.94.11-28-.11-14-.14-14-.25,14-.24,14-.14,28-.12,27.94.12C215.81,228.62,225.13,228.72,234.44,228.92Z" style="fill:#dbdbdb"></path><polygon points="61.37 307.96 60.66 316.67 59 336.8 51.42 336.8 49.76 316.67 49.05 307.96 61.37 307.96" style="fill:#c7c7c7"></polygon><polygon points="49.05 307.96 61.37 307.96 60.66 316.67 49.76 316.67 49.05 307.96" style="fill:#a6a6a6"></polygon><polygon points="114.42 307.96 113.7 316.67 112.05 336.8 104.46 336.8 102.81 316.67 102.1 307.96 114.42 307.96" style="fill:#c7c7c7"></polygon><polygon points="102.1 307.96 114.42 307.96 113.7 316.67 102.81 316.67 102.1 307.96" style="fill:#a6a6a6"></polygon><polygon points="202.4 307.96 201.69 316.67 200.04 336.8 192.45 336.8 190.79 316.67 190.08 307.96 202.4 307.96" style="fill:#c7c7c7"></polygon><polygon points="190.08 307.96 202.4 307.96 201.69 316.67 190.79 316.67 190.08 307.96" style="fill:#a6a6a6"></polygon><polygon points="255.46 307.96 254.75 316.67 253.09 336.8 245.51 336.8 243.85 316.67 243.14 307.96 255.46 307.96" style="fill:#c7c7c7"></polygon><polygon points="255.46 307.96 254.75 316.67 243.85 316.67 243.14 307.96 255.46 307.96" style="fill:#a6a6a6"></polygon></g><g id="freepik--Floor--inject-7"><polygon points="41.45 336.8 93.59 336.56 145.73 336.47 250 336.3 354.27 336.47 406.41 336.56 458.55 336.8 406.41 337.04 354.27 337.13 250 337.3 145.73 337.13 93.59 337.04 41.45 336.8" style="fill:#263238"></polygon></g><g id="freepik--Shadow--inject-7"><ellipse cx="250" cy="391.9" rx="198.49" ry="35.12" style="fill:#ebebeb"></ellipse></g><g id="freepik--Hearts--inject-7"><path d="M129.15,194.74c1,5.86,6.19,10.66,6.19,10.66s6.92-1.28,10.95-5.65c3.35-3.65,3.36-8.65.32-10.63-4.35-2.85-8,5.12-8,5.12s1.2-8.68-4-8.63C131,185.64,128.28,189.86,129.15,194.74Z" style="fill:#90CAF9"></path><path d="M110.22,235.65c3.62,2.46,8.8,2.21,8.8,2.21s2.88-4.3,2.65-8.67c-.2-3.64-2.83-6.22-5.44-5.63-3.73.83-1.42,6.85-1.42,6.85s-4-5.09-6.6-2.33C106.36,230,107.21,233.6,110.22,235.65Z" style="fill:#90CAF9"></path><path d="M238.35,228.82c-.31,4.36,2.51,8.71,2.51,8.71s5.16.33,8.82-2.07c3-2,4-5.57,2.14-7.53-2.6-2.81-6.64,2.22-6.64,2.22s2.42-6-1.3-6.88C241.28,222.64,238.61,225.18,238.35,228.82Z" style="fill:#90CAF9"></path><path d="M118.54,171.18a10.87,10.87,0,0,0,4.62,3.82,10.83,10.83,0,0,0,4-4.42c.92-2.23.08-4.52-1.64-4.91-2.47-.57-2.8,3.69-2.8,3.69s-.91-4.17-3.28-3.28C117.84,166.71,117.32,169.09,118.54,171.18Z" style="fill:#90CAF9"></path><path d="M251,214a10.93,10.93,0,0,0,4.62,3.83,10.89,10.89,0,0,0,4.05-4.43c.92-2.23.09-4.52-1.64-4.91-2.47-.57-2.8,3.69-2.8,3.69s-.91-4.17-3.28-3.27C250.31,209.55,249.79,211.93,251,214Z" style="fill:#90CAF9"></path></g><g id="freepik--Cushion--inject-7"><path d="M76.46,369c1.89,1-3.53,9-.78,9s10.4-4.55,11.18-4.44,5.8,3,22,1,59.16-2.93,77.25-5.68,33.75-10,36.08-11,8.12.48,9.68,0-4.77-4.53-5.38-7.87c-4.93-26.73-24.28-44-34.44-60.18S176.6,251,171.52,245.19s1.46,2.35,0,0,3.15-6.6,1.95-8.33-7.43,3.55-9.64,3.39-33.62,5.54-44.22,9.73-41,1.31-46.71,2.05c-2.35.3-9.81-4.4-11.77-1.39s2.87,7.45,2.87,9.8-2.4,31.24-2.74,44.82C60.41,338.71,72.93,367.21,76.46,369Z" style="fill:#90CAF9"></path><path d="M143.07,243.86a2.38,2.38,0,0,1-4.26.91C140.23,244.46,141.66,244.15,143.07,243.86ZM162.84,241a2.38,2.38,0,1,0,2.38,2.38A2.38,2.38,0,0,0,162.84,241Zm-44.2,33.25a2.38,2.38,0,1,0,2.38,2.38A2.39,2.39,0,0,0,118.64,274.24Zm22.1,0a2.38,2.38,0,1,0,2.38,2.38A2.38,2.38,0,0,0,140.74,274.24Zm22.1,0a2.38,2.38,0,1,0,2.38,2.38A2.39,2.39,0,0,0,162.84,274.24Zm21.37.12A2.38,2.38,0,0,0,185,279a2.27,2.27,0,0,0,1.18-.32Q185.13,276.52,184.21,274.36Zm-76.63-17a2.39,2.39,0,1,0,2.39,2.39A2.39,2.39,0,0,0,107.58,257.34Zm22.11,0a2.39,2.39,0,1,0,2.38,2.39A2.38,2.38,0,0,0,129.69,257.34Zm22.1,0a2.39,2.39,0,1,0,2.38,2.39A2.39,2.39,0,0,0,151.79,257.34Zm22.1,0a2.39,2.39,0,1,0,2.39,2.39A2.39,2.39,0,0,0,173.89,257.34Zm-55.25,50.15a2.39,2.39,0,1,0,2.38,2.38A2.39,2.39,0,0,0,118.64,307.49Zm22.1,0a2.39,2.39,0,1,0,2.38,2.38A2.38,2.38,0,0,0,140.74,307.49Zm22.1,0a2.39,2.39,0,1,0,2.38,2.38A2.39,2.39,0,0,0,162.84,307.49Zm22.11,0a2.39,2.39,0,1,0,2.38,2.38A2.39,2.39,0,0,0,185,307.49Zm20.54.59a2.35,2.35,0,0,0-.82,1.79,2.38,2.38,0,0,0,2.38,2.39,2.35,2.35,0,0,0,1.28-.38Q206.9,309.94,205.49,308.08ZM107.58,290.6A2.38,2.38,0,1,0,110,293,2.38,2.38,0,0,0,107.58,290.6Zm22.11,0a2.38,2.38,0,1,0,2.38,2.38A2.37,2.37,0,0,0,129.69,290.6Zm22.1,0a2.38,2.38,0,1,0,2.38,2.38A2.38,2.38,0,0,0,151.79,290.6Zm22.1,0a2.38,2.38,0,1,0,2.39,2.38A2.38,2.38,0,0,0,173.89,290.6Zm19.82,1.73a2.32,2.32,0,0,0-.09.65,2.38,2.38,0,0,0,2.21,2.37C195.09,294.34,194.38,293.33,193.71,292.33Zm-75.07,48.41a2.39,2.39,0,1,0,2.38,2.39A2.39,2.39,0,0,0,118.64,340.74Zm22.1,0a2.39,2.39,0,1,0,2.38,2.39A2.38,2.38,0,0,0,140.74,340.74Zm22.1,0a2.39,2.39,0,1,0,2.38,2.39A2.39,2.39,0,0,0,162.84,340.74Zm22.11,0a2.39,2.39,0,1,0,2.38,2.39A2.39,2.39,0,0,0,185,340.74Zm22.1,0a2.39,2.39,0,1,0,2.38,2.39A2.38,2.38,0,0,0,207.05,340.74Zm-99.47-16.89a2.38,2.38,0,1,0,2.39,2.38A2.39,2.39,0,0,0,107.58,323.85Zm22.11,0a2.38,2.38,0,1,0,2.38,2.38A2.38,2.38,0,0,0,129.69,323.85Zm22.1,0a2.38,2.38,0,1,0,2.38,2.38A2.39,2.39,0,0,0,151.79,323.85Zm22.1,0a2.38,2.38,0,1,0,2.39,2.38A2.39,2.39,0,0,0,173.89,323.85Zm22.11,0a2.38,2.38,0,1,0,2.38,2.38A2.38,2.38,0,0,0,196,323.85Zm20.64.51a2.35,2.35,0,0,0-.92,1.87,2.38,2.38,0,0,0,2.38,2.38,2.2,2.2,0,0,0,.81-.15Q217.83,326.38,216.64,324.36Zm-141,50c-.71,2-1.22,3.75.07,3.75a2.42,2.42,0,0,0,.45,0h0a2.37,2.37,0,0,0,.67-1.65A2.34,2.34,0,0,0,75.61,374.32ZM96.53,374a2.36,2.36,0,0,0-2,1.17c1.21.09,2.59.15,4.16.14A2.35,2.35,0,0,0,96.53,374Zm11-16.9a2.39,2.39,0,1,0,2.39,2.38A2.39,2.39,0,0,0,107.58,357.1Zm22.11,0a2.39,2.39,0,1,0,2.38,2.38A2.38,2.38,0,0,0,129.69,357.1Zm22.1,0a2.39,2.39,0,1,0,2.38,2.38A2.39,2.39,0,0,0,151.79,357.1Zm22.1,0a2.39,2.39,0,1,0,2.39,2.38A2.39,2.39,0,0,0,173.89,357.1Zm22.11,0a2.39,2.39,0,1,0,2.38,2.38A2.38,2.38,0,0,0,196,357.1Zm22.1,0a2.38,2.38,0,0,0-2.14,3.42c1.8-.72,3.28-1.35,4.38-1.83A2.37,2.37,0,0,0,218.1,357.1ZM74.43,274.24a2.36,2.36,0,0,0-2,1.05c.39,1.15.79,2.35,1.2,3.58a2.19,2.19,0,0,0,.77.13,2.38,2.38,0,0,0,0-4.76Zm22.1,0a2.38,2.38,0,1,0,2.38,2.38A2.39,2.39,0,0,0,96.53,274.24Zm-33.15-16.9a2.11,2.11,0,0,0-.62.09,7.28,7.28,0,0,1,1.24,3c0,.25,0,.8-.08,1.6a2.38,2.38,0,0,0-.54-4.7Zm22.1,0a2.39,2.39,0,1,0,2.38,2.39A2.38,2.38,0,0,0,85.48,257.34Zm11,50.15a2.39,2.39,0,1,0,2.38,2.38A2.39,2.39,0,0,0,96.53,307.49ZM63.38,290.6a2.37,2.37,0,0,0-1.44.48h0c-.07,1.22-.14,2.41-.21,3.59h0a2.35,2.35,0,0,0,1.65.67,2.2,2.2,0,0,0,.81-.15q.09-2.22.21-4.38A2.31,2.31,0,0,0,63.38,290.6Zm22.1,0A2.38,2.38,0,1,0,87.86,293,2.37,2.37,0,0,0,85.48,290.6Zm11,50.14a2.39,2.39,0,1,0,2.38,2.39A2.39,2.39,0,0,0,96.53,340.74ZM63.38,323.85a2.36,2.36,0,0,0-1.24.35c.16,1.46.35,2.9.56,4.31a2.15,2.15,0,0,0,.68.1,2.38,2.38,0,1,0,0-4.76Zm22.1,0a2.33,2.33,0,0,0-.7.11c.38,1.51.76,3.05,1.11,4.61a2.38,2.38,0,0,0-.41-4.72Zm1.44,33.74a21.21,21.21,0,0,1-1.86,4.24,1.93,1.93,0,0,0,.42,0,2.38,2.38,0,0,0,1.44-4.28Z" style="fill:#fff"></path><path d="M67.66,262.12S79,291,80.11,305c.82,10.33,17.26,47.15,1.33,61.34,0,0-12.63-16.22-16.36-45.17C61.68,294.79,67.66,262.12,67.66,262.12Z" style="opacity:0.2"></path><path d="M143.3,288.35c-10.41,1.4-28.6-25.12-34.42-26.67-4.89-1.3-12-6.2-16.39-9.41,10.17.16,21.47-.06,27.12-2.29,5.15-2,15.23-4.43,24.47-6.34a11,11,0,0,1,2.42,2.51c5.87,8.63,5.22,17.3,2.62,21.44S153.71,287,143.3,288.35Z" style="opacity:0.1"></path><path d="M111.78,280.51c3.12-4.58,28.58,11.61,25.06,14.78S114.11,298,113,292.8,110.42,282.5,111.78,280.51Z" style="opacity:0.1"></path></g><g id="freepik--Plant--inject-7"><path d="M413.7,184.39s-21.42-3-16.41-28.86C397.29,155.53,421.22,160.91,413.7,184.39Z" style="fill:#90CAF9"></path><path d="M413.7,184.39s-21.42-3-16.41-28.86C397.29,155.53,421.22,160.91,413.7,184.39Z" style="opacity:0.1"></path><path d="M412.62,179c-.42-1.31-.92-2.59-1.46-3.85l-.06-.49-.09-1.07c-.06-.77-.1-1.54-.15-2.31-.09-1.55-.19-3.09-.21-4.64a.07.07,0,0,0-.13,0c0,1.55,0,3.1,0,4.64,0,.78.07,1.55.12,2.32,0,.17,0,.34,0,.51a46.46,46.46,0,0,0-4.29-7.34,37.36,37.36,0,0,0-2.35-3c-.85-1-1.75-1.91-2.62-2.87-.05-.07-.14,0-.09.09a37.54,37.54,0,0,1,4.13,5.49c.65,1,1.27,2,1.85,3l-.2-.08c-.25-.1-.5-.21-.76-.3l-1.75-.67c-1.15-.42-2.3-.84-3.44-1.28-.07,0-.12.1-.05.12,1.14.46,2.26.94,3.39,1.42l1.66.72.84.34a2.35,2.35,0,0,0,.56.2c.44.78.86,1.56,1.26,2.35a55.62,55.62,0,0,1,2.61,6.17c.06.15.11.3.16.44a12.31,12.31,0,0,0-1.76-.84l-2.21-1c-1.5-.69-3-1.39-4.44-2.2-.07-.05-.13.07-.06.11,1.47.8,2.91,1.66,4.39,2.46.74.4,1.48.79,2.23,1.15a7.13,7.13,0,0,0,2,.81,25.35,25.35,0,0,1,1.41,6.08c.24,2.92.21,5.87.28,8.8,0,.05.07,0,.07,0,.22-2.66.34-5.35.35-8A23.34,23.34,0,0,0,412.62,179Z" style="fill:#263238"></path><path d="M409.32,163.79a24.8,24.8,0,0,0-.21,4.56,0,0,0,0,0,.06,0c.09-1.52.1-3,.28-4.53C409.46,163.74,409.33,163.7,409.32,163.79Z" style="fill:#263238"></path><path d="M403.19,165.08a16.69,16.69,0,0,1-2.75-1.35c-.07,0-.13.07-.06.11a10.31,10.31,0,0,0,2.78,1.33S403.25,165.1,403.19,165.08Z" style="fill:#263238"></path><path d="M414.38,225.44c0-2.37-.06-4.73-.09-7.1,0-7.86-.11-15.72-.25-23.58q-.17-9.36-.43-18.72s0-.06-.06-.08c0-1.7,0-3.41,0-5.11,0,0,0-.07-.11-.06s-.1,0-.1.06l0,5.12a.09.09,0,0,0-.05.08c-.31,11.1-.6,22.21-.66,33.32,0,2.26,0,4.52,0,6.77q-.12,10.88-.09,21.73c0,1.15,0,2.31,0,3.46,0,6.63.07,13.25.07,19.88,0,.35.4.53.82.55s1-.17,1-.58c0-7.31.05-14.62.05-21.92C414.4,234.65,414.42,230.05,414.38,225.44Z" style="fill:#263238"></path><path d="M405.44,218.25s-10.3-7.63-20.08-2.48-11.31,25-11.31,25,14.35,2.06,23.4-6.55C406.16,226,405.44,218.25,405.44,218.25Z" style="fill:#90CAF9"></path><path d="M405.44,218.25s-10.3-7.63-20.08-2.48-11.31,25-11.31,25,14.35,2.06,23.4-6.55C406.16,226,405.44,218.25,405.44,218.25Z" style="opacity:0.1"></path><path d="M408.25,218.72a12.36,12.36,0,0,0-6-.78,9,9,0,0,0-1.26-.12l-1.46-.11c-1-.08-2-.14-3-.21-2-.15-4.07-.28-6.1-.48-.07,0-.09.12,0,.13,2,.25,4,.54,6,.74,1,.11,2.07.21,3.11.29.24,0,.49,0,.75.07-.31.07-.62.14-.92.23a24.09,24.09,0,0,0-4.66,1.89c-.82.15-1.62.38-2.42.56-1.27.3-2.54.63-3.81,1-2.5.65-5,1.39-7.46,2.11-.08,0,0,.15,0,.13,2.48-.61,5-1.17,7.46-1.76,1.21-.29,2.42-.57,3.62-.87l.95-.22a30,30,0,0,0-7.32,6.37,39.55,39.55,0,0,0-5.09,8c0,.08.06.15.11.08a38.82,38.82,0,0,1,6.16-8.09c-.05.14-.09.28-.14.41l-.57,1.82c-.38,1.22-.77,2.43-1.13,3.65,0,.08.1.11.13,0,.43-1.18.84-2.36,1.26-3.54.2-.58.4-1.16.61-1.74.1-.3.21-.6.31-.91l.1-.27a36,36,0,0,1,3.65-3.12,28,28,0,0,1,5.47-3.13c0,.18-.07.36-.1.53-.11.46-.21.93-.31,1.4-.2,1-.39,2-.58,2.94-.39,2-.63,4-1,6a.07.07,0,0,0,.13,0c.46-2,1.05-4,1.5-6,.22-1,.45-2,.66-3,.1-.47.19-.94.29-1.41.05-.27.11-.53.14-.79l.56-.23a16.28,16.28,0,0,1,8.57-1.18,8.42,8.42,0,0,1,6.2,5c.1.22.45.08.4-.14A8,8,0,0,0,408.25,218.72Z" style="fill:#263238"></path><path d="M392.47,227.21c-.29,1.31-.58,2.61-.86,3.92a27.23,27.23,0,0,0-.72,3.81c0,.05.06.05.08,0a29.62,29.62,0,0,0,.87-3.84c.26-1.29.51-2.58.76-3.87C392.62,227.16,392.49,227.13,392.47,227.21Z" style="fill:#263238"></path><path d="M382.51,230.53c-1.31.66-2.58,1.42-3.95,2a.06.06,0,1,0,.05.11,41.7,41.7,0,0,0,3.93-2S382.54,230.51,382.51,230.53Z" style="fill:#263238"></path><path d="M407.75,204.23s-12.59.81-18.44-7.5-4.55-20.16-4.55-20.16,13.23,1.61,18.48,7.57S407.75,204.23,407.75,204.23Z" style="fill:#90CAF9"></path><path d="M413.66,216.66c-.43-1.35-1-2.68-1.48-4s-1-2.52-1.57-3.77a79.49,79.49,0,0,0-3.77-7.42c-.89-1.53-1.84-3-2.82-4.48,0-.22-.07-.44-.1-.67l-.18-1.17c-.12-.79-.26-1.59-.39-2.38-.29-1.74-.65-3.47-.93-5.21,0-.08-.14-.08-.13,0,.25,1.72.43,3.45.67,5.17.12.84.23,1.69.35,2.53l.15.92a91.86,91.86,0,0,0-6.23-8.08c-.3-.35-.61-.69-.92-1,0-.1-.08-.19-.12-.29l-.27-.72c-.19-.5-.37-1-.55-1.5-.35-1-.67-2-.93-3a.07.07,0,0,0-.13,0c.25,1,.52,2.07.83,3.09.14.49.3,1,.48,1.46l.09.24c-1.61-1.75-3.29-3.44-5-5.11a.06.06,0,0,0-.09.09,89.94,89.94,0,0,1,8.92,10.93,7.43,7.43,0,0,0-.93-.23c-1-.19-1.94-.33-2.92-.45-2.06-.26-4.1-.52-6.14-.85-.09,0-.12.11,0,.13,2,.39,3.89.82,5.83,1.27.91.21,1.83.39,2.75.57a18.07,18.07,0,0,1,2.21.63l.61.87q1.4,2,2.68,4.1l-1.28-.25c-1-.19-1.95-.36-2.93-.52-1.92-.32-3.84-.65-5.74-1.09-.08,0-.11.11,0,.13,1.93.45,3.83,1,5.75,1.49.92.24,1.85.47,2.78.67l1.4.31a3.09,3.09,0,0,0,.56.09q2.76,4.49,5.17,9.15c.7,1.37,1.38,2.76,2,4.15s1.25,2.89,1.87,4.34C413.31,217.09,413.77,217,413.66,216.66Z" style="fill:#263238"></path><path d="M400.78,187.72c-.24-1.2-.5-2.4-.76-3.6,0-.08-.15,0-.13,0,.24,1.18.47,2.36.68,3.55a32.29,32.29,0,0,0,.72,3.52s0,0,0,0A24.39,24.39,0,0,0,400.78,187.72Z" style="fill:#263238"></path><path d="M393.43,187.37c-.58-.29-1.2-.53-1.81-.77l-.95-.37-.49-.19a2.53,2.53,0,0,1-.53-.24c-.1-.07-.16.1-.06.11a3.07,3.07,0,0,1,.54.22l.47.22.92.41a16.29,16.29,0,0,0,1.86.73A.07.07,0,0,0,393.43,187.37Z" style="fill:#263238"></path><path d="M420.64,194.33s7.62-14.23,19.22-16.44,18.69,9.73,18.69,9.73-8.46,10.79-19.1,12.68S420.64,194.33,420.64,194.33Z" style="fill:#90CAF9"></path><path d="M447.63,184.27a31.54,31.54,0,0,0-9.1.11l.52-.28c.86-.43,1.72-.88,2.57-1.32,1.78-.93,3.58-1.91,5.45-2.66A.07.07,0,1,0,447,180c-1.81.85-3.69,1.55-5.51,2.39-.91.42-1.8.85-2.69,1.32-.57.31-1.2.59-1.77,1a32.13,32.13,0,0,0-7.36,2.44l1.44-1.57c1.09-1.19,2.15-2.43,3.34-3.51.06-.05,0-.14-.1-.09-1.21,1.1-2.49,2.12-3.67,3.27-.57.56-1.12,1.13-1.65,1.72-.26.3-.53.61-.78.92a30.61,30.61,0,0,0-15.55,21,.07.07,0,0,0,.13,0,35,35,0,0,1,8.52-14.42,33.56,33.56,0,0,1,15.53-9,34,34,0,0,1,10.72-1A.12.12,0,0,0,447.63,184.27Z" style="fill:#263238"></path><path d="M458.55,187.62s-8.46,10.8-19.1,12.68c-8.12,1.44-14.79-2.79-17.5-4.88l-.59-1s5.49-4.63,15.87-7.29S458.55,187.62,458.55,187.62Z" style="opacity:0.1"></path><path d="M440.89,179.2a27.19,27.19,0,0,0-2.57,1.7,16.05,16.05,0,0,0-2.24,2c-.06.07,0,.15.1.1.77-.67,1.55-1.34,2.34-2a24.29,24.29,0,0,1,2.44-1.76A.07.07,0,1,0,440.89,179.2Z" style="fill:#263238"></path><path d="M447.26,181.61c-.43.17-.87.33-1.3.51l-1.29.53c-.09,0-.05.19,0,.15l1.3-.52,1.28-.55C447.37,181.7,447.33,181.57,447.26,181.61Z" style="fill:#263238"></path><path d="M419.12,212.24s2,14.13,12.66,19.06,23.56,0,23.56,0S450.25,200.75,419.12,212.24Z" style="fill:#90CAF9"></path><path d="M419.12,212.24s2,14.13,12.66,19.06,23.56,0,23.56,0S450.25,200.75,419.12,212.24Z" style="opacity:0.1"></path><path d="M448,222.12c-1-.11-1.95-.28-2.92-.46-.48-.08-1-.17-1.43-.27l-.74-.14-.86-.8a43.06,43.06,0,0,0-6.5-4.71,36.57,36.57,0,0,0-3.89-2h.2l3.5.15c2.33.11,4.66.16,7,.31.08,0,.08-.12,0-.13-2.33-.16-4.66-.41-7-.61l-3.4-.31-1.75-.15-.45,0c-.6-.22-1.21-.44-1.83-.63a16.48,16.48,0,0,0-9-.49c-2.67.68-5.34,2.43-6,5.25,0,.09.13.16.17.06,1-2.35,3.61-3.53,6-4a14.39,14.39,0,0,1,4.81-.1,11.56,11.56,0,0,0,.54,2.14c.29,1,.58,2,.88,3,.6,2,1.27,3.94,1.85,5.93a.07.07,0,0,0,.13,0c-.49-2-.91-4-1.39-6-.23-1-.48-2-.72-2.92a15.74,15.74,0,0,0-.53-2,23.38,23.38,0,0,1,2.75.65,40.18,40.18,0,0,1,4.81,1.76c.16,1,.38,2,.62,3,.29,1.24.61,2.48,1,3.7a.06.06,0,0,0,.12,0c0-.08,0-.15,0-.23h0c-.23-1.16-.49-2.31-.73-3.46-.2-.93-.38-1.87-.58-2.79,1.32.59,2.61,1.24,3.87,2a7.36,7.36,0,0,0,.14.84c.07.48.16,1,.25,1.45.2,1.09.42,2.17.68,3.25a50.31,50.31,0,0,0,1.82,6.14s0,.06,0,.08l.06.07c.05.06.13,0,.11-.06-.49-2.09-1.05-4.17-1.51-6.27-.23-1-.46-2.1-.67-3.15-.11-.53-.2-1.05-.3-1.58,0-.15-.05-.31-.08-.47a45,45,0,0,1,4.14,2.75,45.61,45.61,0,0,1,6.33,5.78c.07.09.22,0,.15-.12a37.43,37.43,0,0,0-2.53-3.09c-.53-.57-1.09-1.13-1.65-1.67l.17,0c.5.09,1,.16,1.5.23,1,.13,2,.22,2.95.34C448.07,222.26,448.11,222.13,448,222.12Z" style="fill:#263238"></path><path d="M440.56,226.91h0l-.06-.37c0-.16-.11-.3-.13-.46h0c-.22-.94-.4-1.89-.57-2.84a.06.06,0,0,0-.12,0,11.68,11.68,0,0,0,.81,3.69s.08,0,.07,0Z" style="fill:#263238"></path><path d="M431.67,226.68a.06.06,0,0,0-.06-.06c-.3-1.25-.58-2.5-.84-3.76-.14-.66-.28-1.32-.4-2-.07-.35-.14-.71-.2-1.07a2.89,2.89,0,0,0-.23-.92.07.07,0,0,0-.12,0,6.24,6.24,0,0,0,.27,1.9c.13.69.26,1.37.41,2.06.31,1.39.66,2.78,1.05,4.15a.08.08,0,0,0,.15,0Z" style="fill:#263238"></path><path d="M447.06,218.05c-1.94-.26-3.88-.54-5.82-.78-.09,0-.12.12,0,.13,1.94.28,3.88.52,5.82.78C447.11,218.19,447.14,218.06,447.06,218.05Z" style="fill:#263238"></path><path d="M413.68,179.13s-6.49-28.51,24.13-40C437.81,139.09,446.3,176.61,413.68,179.13Z" style="fill:#90CAF9"></path><path d="M420.29,163l.33-.2c.58-.32,1.16-.64,1.73-1l3.56-2c2.33-1.31,4.64-2.67,7-3.95.08,0,0-.15-.06-.11-2.36,1.28-4.76,2.48-7.13,3.74l-3.51,1.85-1.44.76c1-1.94,2.12-3.84,3.31-5.67,1.61-2.44,3.36-4.76,5.19-7a.11.11,0,0,0-.16-.14,48.49,48.49,0,0,0-7.08,8.68c0-.1,0-.2,0-.3,0-.71.05-1.42.07-2.13,0-1.39-.05-2.78,0-4.17a.07.07,0,0,0-.13,0c-.06,1.37-.22,2.74-.3,4.1,0,.69-.07,1.37-.09,2,0,.37,0,.79,0,1.2-.63,1-1.24,2-1.81,3a55,55,0,0,0-2.74,5.74c0-.71-.07-1.42-.11-2.12-.09-1.57-.28-3.12-.35-4.68a.07.07,0,0,0-.13,0c0,1.56,0,3.12,0,4.69,0,.78,0,1.56.1,2.34,0,.28,0,.57.05.87a50.81,50.81,0,0,0-2.31,7.83,82.78,82.78,0,0,0-1.14,8.61s0,0,0,0a46.83,46.83,0,0,1,1.62-7.68c.38-1.34.78-2.68,1.21-4,1.28-.6,2.5-1.35,3.73-2l3.84-2.1c2.56-1.41,5.11-2.83,7.74-4.07.08,0,0-.15-.06-.11-2.67,1.21-5.37,2.36-8,3.68-1.3.65-2.59,1.35-3.86,2.07-1.06.6-2.15,1.2-3.17,1.89.3-.89.61-1.77.95-2.65A73.67,73.67,0,0,1,420.29,163Z" style="fill:#263238"></path><path d="M417.71,156.45a.07.07,0,1,0-.13,0c.11,1.62.17,3.25.34,4.87,0,.09.15.09.14,0C418,159.69,417.83,158.07,417.71,156.45Z" style="fill:#263238"></path><path d="M432.4,161.89c-1.92.77-3.86,1.5-5.76,2.3-.06,0,0,.11,0,.09,1.94-.72,3.85-1.51,5.77-2.27C432.51,162,432.47,161.86,432.4,161.89Z" style="fill:#263238"></path><path d="M435.31,148.74a50,50,0,0,0-5.45,2.92.08.08,0,1,0,.09.14c1.77-1,3.58-2,5.42-3C435.45,148.82,435.38,148.71,435.31,148.74Z" style="fill:#263238"></path><rect x="390.68" y="240.77" width="44.17" height="46.56" style="fill:#455a64"></rect><rect x="387.64" y="257.24" width="2.26" height="79.74" style="fill:#263238"></rect><rect x="435.39" y="257.24" width="2.26" height="79.74" style="fill:#263238"></rect><rect x="412.71" y="257.24" width="2.26" height="79.74" style="fill:#263238"></rect><rect x="388.77" y="284.34" width="47.75" height="6.45" style="fill:#263238"></rect></g><g id="freepik--character-1--inject-7"><path d="M419.53,389.51c-2.89,1.1-86.63,2.63-89.9.75-.36-.21-.26-3.9-1.49-13.46-.07-.46-2-2.23-5-4.73-11.2-9.39-37.51-29.18-37.51-29.18l41.79-36.31L368,346.39l10.54,10.35s34.21,18.47,37.6,20.91S422.41,388.4,419.53,389.51Z" style="fill:#ad6359"></path><path d="M419.53,389.5c-2.89,1.12-86.63,2.63-89.9.77-.36-.21-.26-3.91-1.5-13.47-.05-.46-2-2.23-4.95-4.74-3.89-3.26-5.74-4.75-11.54-9.26l53.13-19.54,3.19,3.13,10.53,10.36s34.21,18.46,37.6,20.91S422.41,388.4,419.53,389.5Z" style="fill:#ebebeb"></path><path d="M425.3,390.66c-2.91,1-92.13,2-95.35,0-.75-.46-1.44-5.65-2-12.74-.07-.89-9.1-8.12-10.34-9.46l54.67-18.41,6.91,6.5s40.23,18.72,43.52,21.27S428.21,389.65,425.3,390.66Z" style="fill:#90CAF9"></path><path d="M424.06,387.33c-14-.18-76.2.42-90.07,1.3-.11,0-.11.09,0,.09,13.89.48,76.07-.57,90.07-1.16C424.36,387.55,424.35,387.33,424.06,387.33Z" style="fill:#263238"></path><path d="M383.65,357.15c-5.53-1-12.26,0-16.43,3.93-.16.16.06.39.24.33a77.61,77.61,0,0,1,16.17-3.57A.35.35,0,0,0,383.65,357.15Z" style="fill:#263238"></path><path d="M387.66,359.5c-5.53-1-12.27,0-16.43,3.94-.17.15.06.38.23.32a77.84,77.84,0,0,1,16.18-3.57A.35.35,0,0,0,387.66,359.5Z" style="fill:#263238"></path><path d="M391.66,361.85c-5.52-1-12.26,0-16.42,3.94-.17.15.05.38.23.32a77,77,0,0,1,16.18-3.56A.35.35,0,0,0,391.66,361.85Z" style="fill:#263238"></path><path d="M395.67,364.2c-5.52-1-12.26,0-16.43,3.94-.16.16.06.38.24.32a78.32,78.32,0,0,1,16.18-3.56A.35.35,0,0,0,395.67,364.2Z" style="fill:#263238"></path><path d="M393.68,344.27c-2.2-2.95-6.22-1.57-8.5.4a29.38,29.38,0,0,0-8.34,12.73.14.14,0,0,0,.13.19.68.68,0,0,0,.87.68c4.54-1.74,9.6-3,13.46-6.11C393.56,350.36,395.77,347.07,393.68,344.27Zm-9.5,10c-2.21.91-4.45,1.71-6.63,2.7,1.64-2.48,3.16-5,5-7.33a30.14,30.14,0,0,1,2.89-3.19c1.62-1.52,8.08-4.77,7.18,1.29C392.16,351.05,386.81,353.15,384.18,354.23Z" style="fill:#263238"></path><path d="M362.8,356.12c4.57,1.89,9.8,1.73,14.63,2.14a.68.68,0,0,0,.65-.9.14.14,0,0,0,.08-.22,29.52,29.52,0,0,0-11.56-9.92c-2.73-1.25-7-1.46-8.27,2C357.11,352.48,360.14,355,362.8,356.12Zm-2.53-3.9c-2.55-5.57,4.56-4.24,6.54-3.24a31.19,31.19,0,0,1,3.65,2.26,88.9,88.9,0,0,1,6.88,5.64c-2.37-.34-4.74-.49-7.11-.75C367.4,355.82,361.67,355.29,360.27,352.22Z" style="fill:#263238"></path><path d="M368.53,344.17l-51.66,26.77s-53.81-48.72-58.74-49.08-77.33,48.77-113.78,48.92c-37.75.16-39.66-39.39-39.66-39.39l55.07-12.65c39.7-19.56,81.05-54.7,108.09-51.42C297.22,270.88,368.53,344.17,368.53,344.17Z" style="fill:#263238"></path><path d="M355.91,337.35c-8.72,4.31-6.27,3-15,7.36-4.24,2.16-25.6,12.93-29.23,15.6-.08.06,0,.2.09.17,4.27-1.43,25.39-12.67,29.6-14.9,8.59-4.56,6.07-3.34,14.62-8A.14.14,0,1,0,355.91,337.35Z" style="fill:#37474f"></path><path d="M307.73,358.6c-10.1-8.91-43.19-37.9-44.54-39a18.35,18.35,0,0,0-3.44-2.59,3.67,3.67,0,0,0-3.19.26c-1.53.71-3,1.5-4.54,2.24l-9,4.37c-11.57,5.65-23.08,11.44-34.74,16.9-11.21,5.26-19.22,10.2-30.93,14.24a175.56,175.56,0,0,1-35.93,8.57c-1.51.18-3,.34-4.54.48-.11,0-.11.18,0,.18a145,145,0,0,0,35.37-6.58c11.6-3.57,19.48-8.2,30.5-13.27,11.42-5.26,22.68-10.88,33.93-16.48,5.95-2.95,11.88-5.93,17.84-8.85,1.35-.66,3.28-2.1,4.82-1.39a8.79,8.79,0,0,1,1.78,1.31l2,1.65c2.56,2.13,43.12,37.06,44.45,38.07C307.69,358.82,307.82,358.68,307.73,358.6Z" style="fill:#37474f"></path><path d="M104.59,331.39s-6.18,35.71,11.68,49.74S265,393.47,284.81,387.05s20.47-38.45-1.23-45.87c-20.64-7.06-108.45-10.49-110.62-11.35-.54-.22,7.79-5.21,7.75-5.52l-20-6.1Z" style="fill:#263238"></path><path d="M131.69,330.49c0-.16-.26-.11-.26,0a17.62,17.62,0,0,1-4.13,11.34c-3,3.51-7.52,5.48-11.58,7.53-.39.2-.1.81.31.69A35.76,35.76,0,0,0,123.2,347a17.35,17.35,0,0,0,5.4-4.49A15.42,15.42,0,0,0,131.69,330.49Z" style="fill:#37474f"></path><path d="M171.52,326.06c-.9-1.16-1.89-2.26-2.84-3.38-2.23-2.67-4.48-5.34-6.82-7.91-.23-.24-.66.11-.46.37,1.58,2.07,3.25,4.06,4.9,6.08.84,1,1.68,2.06,2.54,3.08a19.62,19.62,0,0,1,2.37,3c.61,1.14-.2,2.12-1.38,2.25A4.14,4.14,0,0,1,167,328.5a37.65,37.65,0,0,1-4.84-5.17c-.94-1.06-1.89-2.12-2.84-3.17s-2.1-2.17-3.12-3.28c-.06-.07-.19,0-.13.11.89,1.21,1.7,2.49,2.59,3.7s1.79,2.42,2.71,3.62,1.76,2.24,2.68,3.32a10.93,10.93,0,0,0,2.73,2.44c1.7,1,4.65,1.22,5.55-1A3.07,3.07,0,0,0,171.52,326.06Z" style="fill:#37474f"></path><path d="M282.09,387.17c-6.83.13-13.66.53-20.5.67S248,388,241.25,388q-20.43-.19-40.82-1.58c-13.74-.95-28.54-2.32-42.18-4.21-6.53-.9-13.15-1.66-19.6-3a31,31,0,0,1-15.45-7.9c-8.83-8.57-12.27-21.16-13.68-33.2-.19-1.61-.34-3.23-.47-4.85,0-.11-.18-.11-.17,0,.8,12.34,2.72,25.21,10.48,35.13A30.89,30.89,0,0,0,132,378.13c6.11,2.44,12.89,3,19.34,3.89,13.69,1.86,28.56,3.29,42.33,4.36s27.76,1.75,41.66,1.95,27.8,0,41.69-.67c1.69-.08,3.38-.18,5.08-.33A.08.08,0,0,0,282.09,387.17Z" style="fill:#37474f"></path><path d="M239,334.67c-4.3-.63-8.6-1.24-12.92-1.69s-8.75-.85-13.12-1.22c-8.66-.73-17.34-1.39-26-1.8-4.93-.23-9.86-.25-14.8-.19-.15,0-.14.23,0,.24,8.68.79,17.36,1.33,26.05,1.91s17.33,1.34,26,2.16c4.9.47,9.82.83,14.73,1.23C239.29,335.34,239.36,334.73,239,334.67Z" style="fill:#37474f"></path><path d="M181.73,323.88a66.65,66.65,0,0,0-10,5.33,80.59,80.59,0,0,0-9.22,6.45c-.08.07,0,.17.11.13,3.38-1.56,6.63-3.52,9.85-5.39a93.28,93.28,0,0,0,9.43-6.06C182.15,324.18,182,323.76,181.73,323.88Z" style="fill:#37474f"></path><path d="M151.42,255.93c11,20.73,28.67,44.39,34.31,47.48,7.14,3.91,41.85-.64,43.78-.94,4.76-.79,5.35-31.19.22-30.58-7.8.94-30.32,5.77-32.41,4.53s-17.62-12.74-33.9-26C152.17,241.31,144.57,243.07,151.42,255.93Z" style="fill:#ad6359"></path><path d="M229.51,302.47a94.4,94.4,0,0,0,13,1.81c3.44.07,13.34,0,13.79-3.79.31-2.58-5.52-3.22-9.63-3.76-2.17-.29-5.12-1.68-4.89-3.09.42-2.46,6-1.61,9.84-.59,7.38,2,17.67,6.37,20.7,2.09,1.14-1.62-1.17-3.39-4.26-4.9,4.74,1.45,9.64,2.37,11,.62.78-1,.55-2-.3-3a3,3,0,0,0,3-1.33c.95-1.74-.25-3.6-2.25-5.3a1.63,1.63,0,0,0,1-1.11c1.65-5-15.63-13.48-20.78-13.32a126.81,126.81,0,0,0-30,5.12C225.35,277.87,229.49,302.46,229.51,302.47Z" style="fill:#ad6359"></path><path d="M246.9,283.73a25,25,0,0,1,10.48,1.09c4.25,1.41,7.39,3.55,11.18,5.54a.09.09,0,0,1-.08.16c-1.8-.95-9.13-4.35-11-5.08a23.83,23.83,0,0,0-10.59-1.65S246.86,283.73,246.9,283.73Z" style="fill:#263238"></path><path d="M247.93,277a60.24,60.24,0,0,1,12.07.85c4.32.91,8.15,3.27,11.89,5.52q3.36,2,6.65,4.2c.09.06,0,.21-.08.15q-5.71-3.49-11.64-6.66A31.64,31.64,0,0,0,255,277.39c-2.36-.23-4.73-.29-7.1-.35C247.89,277,247.88,277,247.93,277Z" style="fill:#263238"></path><path d="M250.5,270.61c3.83-.23,7.18-.44,10.92.64,4.95,1.42,10.24,4.66,12.09,5.81,2.06,1.27,4.06,2.61,6.05,4,.08.06,0,.2-.1.14a125.37,125.37,0,0,0-14-8,24.94,24.94,0,0,0-7.28-2.36,45.34,45.34,0,0,0-7.64-.19S250.48,270.62,250.5,270.61Z" style="fill:#263238"></path><path d="M228.09,270.75l-1.68,39.67s-33.65-.5-41-5.12-26.48-33.57-33.73-48.15.64-16.29,10.42-8.5,34,26.53,35.09,26.77S228.09,270.75,228.09,270.75Z" style="fill:#455a64"></path><path d="M219,295c.24-4.69.51-9.38.57-14.07,0-2.67.09-5.34.1-8,0-.1-.18-.11-.18,0-.43,4.69-.84,9.4-1.05,14.12s-.45,9.37-.6,14.07c-.08,2.67-.08,5.33,0,8,0,.05.09.06.1,0C218.54,304.41,218.79,299.71,219,295Z" style="fill:#263238"></path><path d="M203.26,309.13c-7.61-.77-14.89-1.95-17.87-3.83-7.37-4.61-26.47-33.57-33.73-48.14-3.55-7.12-3.47-11.17-1.33-12.55C166.38,263.64,189.36,292.33,203.26,309.13Z" style="fill:#37474f"></path><path d="M180.21,328.13,103,332.61c.1-1.57,11.58-47.53,20.27-64.38,11.13-21.62,16.67-23.25,20-24.36,4.23-1.41,11.68-.49,13.44.38,2,1,8.14,12.31,10.25,20.56C171.16,281.38,181.26,327.15,180.21,328.13Z" style="fill:#455a64"></path><path d="M131.28,253c-21.89,22.51-40.22,58.56-30.92,66.92,9.11,8.17,39.92,4.91,58.91-8.32,3.07-2.14-10.05-27.41-13.76-25.91-5.17,2.09-11.94,5.13-12.43,5.09-1-.08,9.35-23.93,13-36C151.23,238,139.5,244.51,131.28,253Z" style="fill:#ad6359"></path><path d="M111.33,306.08a28.78,28.78,0,0,1,3.46-4,34.24,34.24,0,0,1,3.9-3.52,58.07,58.07,0,0,1,14.61-7.93c.07,0,.1.06,0,.09a152.1,152.1,0,0,0-13.63,8c-1.4,1-2.69,2.18-4,3.34-.74.66-1.46,1.33-2.17,2s-1.36,1.44-2.08,2.11C111.4,306.26,111.27,306.17,111.33,306.08Z" style="fill:#263238"></path><path d="M139,290.14s5.78-9.84,9.86-16.1c2.28-3.5,6.72-9.13,9.56-10.94,4.26-2.69,23.78-11.23,26-6.54,2,4.24-5.07,6.06-5.07,6.06s7.5-2.71,8.16,2.1-8.73,6.33-8.73,6.33,7.77-3.43,8,1.77c.18,4.52-10.45,7.39-10.45,7.39s7.76-4.49,8.4.12c.71,5.09-14.69,11.39-14.69,11.39-2.08,12.25-6.72,17.49-10.77,19.88C158.09,312.26,139,290.14,139,290.14Z" style="fill:#ad6359"></path><path d="M181.19,270.29c-.73.14-1.46.31-2.19.46a35.8,35.8,0,0,0-4.23,1.05c-1.35.44-2.67.94-4,1.49s-2.72,1.29-4.11,1.83a.08.08,0,1,0,.06.15,40.72,40.72,0,0,1,4.21-1.4c1.38-.43,2.78-.84,4.17-1.25s2.68-.9,4-1.34c.67-.22,1.35-.4,2-.59a11.64,11.64,0,0,0,1.93-.59c.06,0,0-.11,0-.11A8.76,8.76,0,0,0,181.19,270.29Z" style="fill:#263238"></path><path d="M180.9,262.08a58,58,0,0,0-7.9,1.77,40.58,40.58,0,0,0-7.47,3.17c-.08,0,0,.18.07.15,2.59-.8,5.17-1.64,7.75-2.47,1.26-.41,7-2.09,7.62-2.34C181.11,262.3,181,262.08,180.9,262.08Z" style="fill:#263238"></path><path d="M181.67,278a56.33,56.33,0,0,0-7.39,1.8,51.52,51.52,0,0,0-6.94,3.52c-.08.06,0,.19.06.15,2.39-1,4.76-2,7.2-2.9,1.19-.43,6-1.86,7.13-2.37C181.83,278.15,181.78,278,181.67,278Z" style="fill:#263238"></path><path d="M141.72,284.41l14.65,32.13S136.14,324.7,119.45,327c-8.26,1.12-16.15-1.55-19.69-5.46-10.71-11.79,17.29-55.82,29.55-67.73s22.9-15.66,16.26,5.22-10.52,29.41-10.52,29.41Z" style="fill:#455a64"></path><path d="M150.32,316.64c-.41-.93-.74-1.89-1.17-2.82s-.83-1.79-1.27-2.67c-.88-1.81-1.78-3.6-2.67-5.39-1.8-3.6-3.61-7.18-5.53-10.71-.55-1-1.1-2-1.64-3a22.1,22.1,0,0,0-1.65-2.82.06.06,0,0,0-.11.06,21,21,0,0,0,1.2,2.81c.42.89.83,1.78,1.25,2.68.85,1.81,1.73,3.62,2.62,5.41,1.76,3.54,3.53,7.08,5.36,10.58.52,1,1.06,2,1.61,3s1.18,2,1.76,3C150.16,316.88,150.39,316.8,150.32,316.64Z" style="fill:#263238"></path><path d="M113.17,303.82a28.14,28.14,0,0,1,3.46-4,34.15,34.15,0,0,1,3.9-3.52,57.42,57.42,0,0,1,14.61-7.93c.07,0,.1.05,0,.08a152.75,152.75,0,0,0-13.63,8,50.62,50.62,0,0,0-4,3.33c-.73.66-1.46,1.33-2.16,2s-1.36,1.43-2.08,2.1A.09.09,0,0,1,113.17,303.82Z" style="fill:#263238"></path><path d="M142.38,285.38a4.45,4.45,0,0,0-.67-1.3,65.5,65.5,0,0,0-6.4,4.05c.66-1.33,1.29-2.8,1.85-4.18s1.2-3,1.79-4.53c.94-2.42,1.86-4.85,2.7-7.3.73-1.21,1.4-2.47,2-3.72a0,0,0,0,0-.08,0c-.53.85-1.07,1.71-1.59,2.58.08-.23.16-.46.23-.69.56-1.77,1.13-3.54,1.6-5.33a.06.06,0,0,0-.11,0c-2.4,6-4.45,12.17-6.77,18.22-.65,1.71-2,5.38-2,5.38s6.38-3.87,6.55-3.92a6.11,6.11,0,0,1,.66.88A.1.1,0,0,0,142.38,285.38Z" style="fill:#263238"></path><path d="M154.68,312.33c-.15-.23-.34-.12-.21.13.67,1.32,1.19,2.61,1.78,3.91-5.11,1.7-10.23,3.39-15.4,4.91s-10.59,3.05-16,4.22c-12.83,2.8-18.46-.49-20-.5-.06,0,0,.06,0,.09,1.11.52,6.77,3.7,18.86,1.41,5.41-1,18.91-4.86,24.2-6.56,3-1,6.28-2,9.16-3.2A33.66,33.66,0,0,0,154.68,312.33Z" style="fill:#263238"></path><path d="M156.28,261.92c-4.52.16-10.59-7.92-12.44-13.85-.12-.4,1.21-4.15,2.62-8.77.85-2.82,1.72-6,2.31-8.9.12-.6,17.49,8.17,17.49,8.17a47.81,47.81,0,0,0-4,10.9,6.61,6.61,0,0,0-.11,1.23c0,.06,0,.13,0,.2C162,253.26,160.64,261.77,156.28,261.92Z" style="fill:#ad6359"></path><path d="M149.89,230.7c-.15,5.13.53,17.73,10.3,19.93a11.57,11.57,0,0,0,1.9.27.7.7,0,0,0,0-.2,7.64,7.64,0,0,1,.12-1.23,48,48,0,0,1,4-10.91S153.73,232.24,149.89,230.7Z" style="fill:#263238"></path><path d="M152.66,207c-3.93,5.74-6.33,25.12-3.1,30.63,4.68,8,15.21,11.91,22.72,5.62,7.27-6.09,10-31.41,6.09-36.7C172.66,198.74,158.47,198.52,152.66,207Z" style="fill:#ad6359"></path><path d="M167.1,223.84c0-.06-.11,0-.12.1-.07,1.32-.38,2.81-1.61,3.14a0,0,0,0,0,0,.07C166.84,227.08,167.23,225.09,167.1,223.84Z" style="fill:#263238"></path><path d="M166.05,222.36c-2.09-.35-2.64,3.86-.7,4.19S167.8,222.65,166.05,222.36Z" style="fill:#263238"></path><path d="M174.39,224.83c0-.05.1.07.09.12-.21,1.3-.24,2.83.89,3.41,0,0,0,.09,0,.08C173.93,228.05,174,226,174.39,224.83Z" style="fill:#263238"></path><path d="M175.74,223.62c2.11.11,1.73,4.34-.23,4.23S174,223.52,175.74,223.62Z" style="fill:#263238"></path><path d="M164,218.73a16.67,16.67,0,0,1,1.68-.45,2.89,2.89,0,0,1,1.81-.13.91.91,0,0,1,.49,1,2.22,2.22,0,0,1-1.73,1.46,3.29,3.29,0,0,1-2.35-.11A1,1,0,0,1,164,218.73Z" style="fill:#263238"></path><path d="M178.83,220.55a17.39,17.39,0,0,0-1.41-1,2.83,2.83,0,0,0-1.64-.78.89.89,0,0,0-.81.73,2.2,2.2,0,0,0,1.08,2,3.26,3.26,0,0,0,2.23.76A1,1,0,0,0,178.83,220.55Z" style="fill:#263238"></path><path d="M163.34,235.67c.27.35.53.81,1,.91a3.41,3.41,0,0,0,1.45-.14s.08,0,.05.07a1.79,1.79,0,0,1-1.75.5,1.42,1.42,0,0,1-.88-1.29C163.19,235.64,163.3,235.62,163.34,235.67Z" style="fill:#263238"></path><path d="M165.22,232a4.49,4.49,0,0,0,2.7,2.36,5.71,5.71,0,0,0,1.59.28,1.63,1.63,0,0,0,.31,0h.29a.32.32,0,0,0,.3-.26h0a.57.57,0,0,0,0-.13h0v-.12c.16-1,.26-2.54.26-2.54.35.23,2.11,1.32,2.15.79.3-4.38.65-9.25,0-13.67a.13.13,0,0,0-.25,0c-.46,4.2-.18,8.45-.57,12.67a8.11,8.11,0,0,0-2-.91c-.15,0-.14,3-.25,3.43a.1.1,0,0,1,0,0,6.22,6.22,0,0,1-4.42-2C165.27,231.76,165.15,231.83,165.22,232Z" style="fill:#263238"></path><path d="M180.13,215.52c-.06-.65-.49-4.34-1.89-5.48s-3-.35-6-.32c-3.5,0-6.2-3.53-9.93-1.73s-4.35,7.72-6.68,10.95-5.07,5.37-7.33,5.16l.3-2.86c.74-5.86,2.25-11.55,4.1-14.24,5.8-8.48,20-8.25,25.71-.46C179.52,208.12,180.09,211.44,180.13,215.52Z" style="fill:#263238"></path><path d="M151.89,223.17s-2.43-7.18-5.57-6.49-2.53,10.26.3,12.37a3.37,3.37,0,0,0,4.84-.47Z" style="fill:#ad6359"></path><path d="M146.56,219.42c-.05,0-.08.05,0,.08,2,1.55,2.53,4,2.73,6.34a1.86,1.86,0,0,0-2.53-1.26c-.07,0,0,.13,0,.13a2.07,2.07,0,0,1,2,1.34,9.12,9.12,0,0,1,.53,2.07c.05.23.44.23.43,0V228C150.58,225.22,149.53,220.6,146.56,219.42Z" style="fill:#263238"></path></g><g id="freepik--character-2--inject-7"><path d="M199,219.74c-15.41,7.27-25,37.12-17.27,61.38,8.38,26.21,35.23,31.22,50.66,25.62,16.38-5.94,21.34-24.05,13.89-34.88-7.19-10.45-19-13.55-22.22-23.11-1.53-4.57-1.32-13-3.3-19.88C218.54,221.21,208.28,215.34,199,219.74Z" style="fill:#263238"></path><path d="M193,223.9a65.62,65.62,0,0,0-13.75,22.46,52.76,52.76,0,0,0-2.89,13,51.07,51.07,0,0,0-.14,6.66,60.89,60.89,0,0,0,.72,6.62c1.48,8.72,5,17.3,11.19,23.79a37.59,37.59,0,0,0,10.65,7.89A38.36,38.36,0,0,0,211.48,308a38.53,38.53,0,0,1-22.79-12.05c-5.91-6.46-9.41-14.85-10.8-23.45a65.19,65.19,0,0,1-.75-6.51,52.84,52.84,0,0,1,.1-6.54A55,55,0,0,1,180,246.6a65.34,65.34,0,0,1,5.45-11.95A67.84,67.84,0,0,1,193,223.9Z" style="fill:#263238"></path><path d="M222.32,237.6a41.65,41.65,0,0,0,1,7.26,23.57,23.57,0,0,0,2.88,6.8,19.61,19.61,0,0,0,5.13,5.38c2,1.41,4,2.8,5.88,4.31A36.36,36.36,0,0,1,246.93,272a21.78,21.78,0,0,1,2.54,14,21.12,21.12,0,0,0,.35-7.31,20.12,20.12,0,0,0-.83-3.61,21.35,21.35,0,0,0-1.44-3.42c-2.29-4.42-5.91-8-9.72-11-1.92-1.53-4-2.91-6-4.29a20,20,0,0,1-5-5.08C224.1,247.28,223,242.41,222.32,237.6Z" style="fill:#263238"></path><path d="M213.74,222.82c-1.48-.55-2.87-8.78,2.53-12.69s12.34.55,9.43,7.29C223.87,221.68,216.85,224,213.74,222.82Z" style="fill:#263238"></path><path d="M223.83,209.64a9.15,9.15,0,0,1,3.12,5.22,5.56,5.56,0,0,1-1.64,5.3,11.25,11.25,0,0,1-5.37,2.62,16.84,16.84,0,0,1-3.09.38,8.42,8.42,0,0,1-3.11-.34,7.5,7.5,0,0,0,3.09.92,14.32,14.32,0,0,0,3.27-.05,10.88,10.88,0,0,0,6-2.69,6.4,6.4,0,0,0,1.78-2.95,6.53,6.53,0,0,0-.06-3.4A8.1,8.1,0,0,0,223.83,209.64Z" style="fill:#263238"></path><path d="M204.57,283.91c10.13,15.81,27.55,33.54,37.67,38.86,6.93,3.65,26.47,6.54,37.35,7.5,3.3.29,5-29.87,1.43-30.07-8.83-.51-31.43-3.08-34.26-4.66-3.84-2.15-24-16-34.47-23.44C198.37,262.14,197.66,273.13,204.57,283.91Z" style="fill:#eb9481"></path><path d="M300.72,324.59c-1.78.94-1.3,1.88,2.22,2.52s18,.18,17.73,5.24-20.7,5.42-26.48,3.9-14.6-6-14.6-6C283.55,329.4,293,326.38,300.72,324.59Z" style="fill:#eb9481"></path><path d="M276.45,300.56c11.25-2,25.14-5.24,37.24-.78a6.43,6.43,0,0,1,3.3,2.57c5.46,1.91,6.2,5.06,6.2,5.06,4.54,3.33,4.86,6.65,4.86,6.65s6.38,2.31,5.63,6.4c-.83,4.59-9.64.46-15.87,1.14-14.28,1.57-34.15,7.81-38.22,8.67Z" style="fill:#eb9481"></path><path d="M301.68,312.73a92.85,92.85,0,0,1,12.59-.67,92.48,92.48,0,0,1,13.64,2.09.11.11,0,0,0,.06-.22,48.93,48.93,0,0,0-26.31-1.39C301.46,312.58,301.47,312.75,301.68,312.73Z" style="fill:#263238"></path><path d="M299.48,304.25c4.12-.14,11.36-.35,23.67,3.29,0,0,.08-.05,0-.07a43.82,43.82,0,0,0-23.71-3.42C299.22,304.08,299.21,304.26,299.48,304.25Z" style="fill:#263238"></path><path d="M298.38,299.67c7,0,11.44.93,18.57,2.7a0,0,0,0,0,0-.07c-7.9-2.87-11.09-3-18.63-2.88C298.09,299.43,298.11,299.66,298.38,299.67Z" style="fill:#263238"></path><path d="M218.66,307.67l10.5-27.14A187.58,187.58,0,0,0,210,268.89c-11.17-5.94-16.15-1.9-8.64,13.42A108.54,108.54,0,0,0,218.66,307.67Z" style="fill:#90CAF9"></path><path d="M224.87,278.38c-1,1.93-1.74,4-2.59,6s-1.61,3.81-2.35,5.74c-1.55,4-3,8-4.38,12.12,0,.07.09.12.12.05q2.51-5.87,4.85-11.79c.78-2,1.5-3.95,2.23-5.93s1.65-4.05,2.24-6.14C225,278.36,224.9,278.32,224.87,278.38Z" style="fill:#263238"></path><path d="M226.85,286.51l-8.19,21.16a108.54,108.54,0,0,1-17.26-25.36c-3.78-7.7-4.39-12.56-2.65-14.72Z" style="fill:#263238"></path><path d="M165,354.08c2.42.6,68.66-23.61,68.66-23.61l-9.59-22.91s3.42-7.82,1.09-14.95c-3.11-9.53-22.16-24.24-23.64-25.08-5.92-3.36-11-3.55-15.47-.74C167.21,278.52,165,354.08,165,354.08Z" style="fill:#90CAF9"></path><path d="M198.92,266.24l-18.27,6.19c.23-.36.47-.71.71-1l16.47-5.58C198.19,265.94,198.55,266.08,198.92,266.24Zm4.52,2.69-25.63,8.7c-.15.31-.29.62-.43.93l26.78-9.08Zm4.38,3.54-32.36,11c-.11.3-.21.6-.31.9L208.49,273ZM212,276.1l-38.28,13c-.08.29-.16.58-.25.88l39.16-13.28Zm3.88,3.71L172.22,294.6l-.21.86,44.4-15.06C216.21,280.21,216,280,215.83,279.81Zm3.55,3.82L171,300c-.06.29-.11.57-.17.86l49.08-16.65Zm3.12,4L170,305.42l-.15.84,53.12-18Zm2.36,4.22-55.8,18.92c0,.28-.08.57-.13.85l56.19-19.06C225.05,292.3,225,292.06,224.86,291.82Zm1,4.67L168.28,316l-.12.83L226,297.27C225.94,297,225.92,296.75,225.9,296.49Zm-58.3,24.8c0,.28-.07.55-.1.83l58-19.69c.05-.27.1-.55.14-.83Zm56.65-14.19L167,326.52c0,.28-.05.55-.08.83l57.3-19.44-.15-.35Zm1.51,4.52-59.29,20.11c0,.27-.05.54-.08.81l59.66-20.23Zm1.84,4.4L166,336.9c0,.27-.05.55-.07.82l61.94-21Zm1.84,4.4-63.81,21.64q0,.42-.06.81l64.16-21.75Zm1.84,4.4-66,22.37c0,.28,0,.55,0,.81l66.3-22.49Zm1.85,4.4-68.07,23.09c0,.3,0,.57,0,.8l68.39-23.19Z" style="opacity:0.1"></path><path d="M212.67,307.57a65.27,65.27,0,0,0-8.58,4.37c-1.35.85-2.66,1.76-4,2.69-.64.47-1.3.91-2,1.35a10.29,10.29,0,0,1-2.19,1.18.06.06,0,0,0,0,.11,13.47,13.47,0,0,0,4.24-1.84c1.38-.85,2.72-1.76,4.09-2.62,2.77-1.73,5.54-3.47,8.42-5C212.92,307.74,212.81,307.51,212.67,307.57Z" style="fill:#263238"></path><path d="M221.06,307.87a70.67,70.67,0,0,0-7.68,2.05c-1.25.41-2.48.9-3.7,1.42-.58.25-1.16.51-1.73.78s-1.23.67-1.86,1a.06.06,0,0,0,0,.11c.6-.25,1.25-.4,1.88-.62l1.87-.65c1.24-.43,2.5-.85,3.74-1.29,2.5-.89,5-1.75,7.51-2.55A.11.11,0,0,0,221.06,307.87Z" style="fill:#263238"></path><path d="M257.08,381.18a115,115,0,0,1-13.9,8.87l-21.85-27.36Z" style="fill:#263238"></path><path d="M384.07,392.15c-1.66.65-3.29,1.42-4.91,2.15l-4.81,2.18c-3.26,1.51-6.5,3.08-9.75,4.63-6.51,3.12-13,6.32-19.45,9.52-3.63,1.79-7.22,3.65-10.83,5.46-.07,0,0,.15.05.12,6.53-2.89,13-5.82,19.52-8.84S367,401.2,373.41,398q2.68-1.35,5.35-2.76c1.79-.94,3.64-1.86,5.38-2.9A.08.08,0,0,0,384.07,392.15Z" style="fill:#263238"></path><path d="M357.31,370.72c-1.38-1.14-30.73-18.79-37-22.38s-12.68-7-19.13-10.33-13-6.41-19.61-9.27-13.24-5.49-20.06-7.65c-.88-.28-1.75-.55-2.61-.85-.09,0-.12.1,0,.13,3.45,1.18,6.82,2.62,10.2,4s6.62,2.78,9.9,4.24q9.85,4.41,19.45,9.36t18.92,10.28q9.42,5.37,18.7,11c3.1,1.86,20.32,11.41,21.13,11.77C357.28,371,357.46,370.84,357.31,370.72Z" style="fill:#263238"></path><path d="M305.64,404.9c-3.09-1.69-6.25-3.28-9.38-4.91s-6.3-3.2-9.46-4.76q-9.41-4.65-18.88-9.17c-3.57-1.7-7.16-3.43-10.83-4.91-.08,0-.14.07-.06.11,3,1.78,6.2,3.39,9.34,5l9.48,4.74c6.26,3.11,12.52,6.24,18.86,9.19,3.6,1.67,7.18,3.38,10.81,5C305.66,405.18,305.78,405,305.64,404.9Z" style="fill:#263238"></path><path d="M180.76,452.36c.82-2.71,45.45-65.24,48.66-66.55,1.21-.5,3.58-2.39,14.83,5.14L268,370.13l13.48,44-58.76,25s-27.79,16.3-31.47,17.36S179.93,455.06,180.76,452.36Z" style="fill:#eb9481"></path><path d="M180.76,452.36c.82-2.71,45.45-65.24,48.66-66.55,1.21-.5,3.58-2.39,14.83,5.14L268,370.13l13.48,44-58.76,25s-27.79,16.3-31.47,17.36S179.93,455.06,180.76,452.36Z" style="fill:#eb9481"></path><path d="M246.66,429l-23.93,10.21s-27.8,16.29-31.47,17.35-11.33-1.51-10.5-4.21,45.45-65.24,48.66-66.55c1.21-.51,3.57-2.39,14.83,5.14l2.51-2.2Z" style="fill:#90CAF9"></path><path d="M241.4,429.18a14.34,14.34,0,0,1,2.12-2.4,13.85,13.85,0,0,1,2.55-1.92,14.27,14.27,0,0,1-2.12,2.39A13.9,13.9,0,0,1,241.4,429.18Z" style="fill:#263238"></path><path d="M241.35,425a14.68,14.68,0,0,1,2.12-2.39,14.36,14.36,0,0,1,2.55-1.93,14.34,14.34,0,0,1-2.12,2.4A13.85,13.85,0,0,1,241.35,425Z" style="fill:#263238"></path><path d="M241.3,420.83a14.34,14.34,0,0,1,2.12-2.4,13.85,13.85,0,0,1,2.55-1.92,14.27,14.27,0,0,1-2.12,2.39A13.9,13.9,0,0,1,241.3,420.83Z" style="fill:#263238"></path><path d="M241.25,416.65a16.23,16.23,0,0,1,4.67-4.32,14.34,14.34,0,0,1-2.12,2.4A14.19,14.19,0,0,1,241.25,416.65Z" style="fill:#263238"></path><path d="M241.2,412.48a15.54,15.54,0,0,1,4.67-4.32,13.89,13.89,0,0,1-2.12,2.39A14.24,14.24,0,0,1,241.2,412.48Z" style="fill:#263238"></path><path d="M241.15,408.3a14.16,14.16,0,0,1,2.11-2.39,14.73,14.73,0,0,1,2.55-1.93,13.85,13.85,0,0,1-2.11,2.4A14.19,14.19,0,0,1,241.15,408.3Z" style="fill:#263238"></path><path d="M241.1,404.13a16,16,0,0,1,4.66-4.32,13.43,13.43,0,0,1-2.11,2.39A14.61,14.61,0,0,1,241.1,404.13Z" style="fill:#263238"></path><path d="M241,400a16.23,16.23,0,0,1,4.67-4.32,13.85,13.85,0,0,1-2.11,2.4A14.27,14.27,0,0,1,241,400Z" style="fill:#263238"></path><path d="M241,395.78a14.27,14.27,0,0,1,2.12-2.39,13.46,13.46,0,0,1,2.55-1.93,13.1,13.1,0,0,1-2.12,2.39A13.9,13.9,0,0,1,241,395.78Z" style="fill:#263238"></path><path d="M359.86,366.16c-7.21,19.81-107.3,65.51-107.3,65.51l-16.95-52.62,45.95-19.59-97.35-14.28,49.68-18.54s9.42,4,16.38,2c3.09-.9,68.68-10,81.43-6.8C359.86,328.83,366.47,348,359.86,366.16Z" style="fill:#37474f"></path><path d="M304.47,347.44a50.2,50.2,0,0,0-5.66,2.77l-5.87,2.92-.06,0,1.31-1.06c1.51-1.19,2.89-2.51,4.51-3.56a.09.09,0,1,0-.1-.15c-1.63,1-3.38,1.91-4.92,3.09-.72.55-1.43,1.12-2.13,1.72-.37.32-.76.64-1.12,1a4.7,4.7,0,0,0-.51.49c-.89.47-1.77.94-2.65,1.43-1.94,1.09-3.79,2.34-5.73,3.41-.11.06,0,.21.1.16,1.91-1,3.91-1.76,5.84-2.71s3.88-2,5.79-3.06l5.57-3.11a52,52,0,0,0,5.68-3.23C304.58,347.52,304.54,347.42,304.47,347.44Z" style="fill:#263238"></path><path d="M258.07,419c-.42-1.49-.86-3-1.31-4.48-.89-3-1.78-6-2.69-8.94-1.82-5.91-3.63-11.83-5.58-17.71-1.1-3.32-2.19-6.66-3.44-9.93a.16.16,0,0,0-.3.09c1.51,6,3.39,12,5.26,17.92s3.77,11.79,5.7,17.67c.55,1.65,1.08,3.3,1.65,4.94s1.23,3.32,1.8,5c0,.08.15.05.12,0C258.85,422.06,258.5,420.54,258.07,419Z" style="fill:#263238"></path><path d="M447.54,428c-2.51,1.29-78.46,12.85-81.64,11.46-1.2-.52-4.21-.9-6.65-14.22-.52-2.88-51.15-28.33-51.15-28.33l55.7-19.36,45.07,29.51s31.06,8.57,34.38,10.47S450.06,426.73,447.54,428Z" style="fill:#eb9481"></path><path d="M447.54,428c-2.52,1.3-78.46,12.86-81.64,11.47-1.2-.52-4.21-.9-6.64-14.23-.15-.78-4-3.25-9.62-6.43l50.55-17.44,8.68,5.69s31.06,8.59,34.38,10.48S450.06,426.72,447.54,428Z" style="fill:#90CAF9"></path><path d="M353.2,419.11a14.73,14.73,0,0,1,2.91,1.32,14.24,14.24,0,0,1,2.59,1.88,14.73,14.73,0,0,1-2.91-1.32A14.24,14.24,0,0,1,353.2,419.11Z" style="fill:#263238"></path><path d="M357.18,417.84a14.42,14.42,0,0,1,2.91,1.32,14.19,14.19,0,0,1,2.59,1.87,13.44,13.44,0,0,1-2.91-1.32A13.85,13.85,0,0,1,357.18,417.84Z" style="fill:#263238"></path><path d="M361.15,416.57a13.44,13.44,0,0,1,2.91,1.32,14.19,14.19,0,0,1,2.59,1.87,16,16,0,0,1-5.5-3.19Z" style="fill:#263238"></path><path d="M365.13,415.29a14.73,14.73,0,0,1,2.91,1.32,14.24,14.24,0,0,1,2.59,1.88,14.47,14.47,0,0,1-2.91-1.32A14.74,14.74,0,0,1,365.13,415.29Z" style="fill:#263238"></path><path d="M369.1,414a16,16,0,0,1,5.5,3.19,13.66,13.66,0,0,1-2.91-1.32A14.54,14.54,0,0,1,369.1,414Z" style="fill:#263238"></path><path d="M373.08,412.75a13.66,13.66,0,0,1,2.91,1.32,14.19,14.19,0,0,1,2.59,1.87,16,16,0,0,1-5.5-3.19Z" style="fill:#263238"></path><path d="M377.06,411.47a14.73,14.73,0,0,1,2.91,1.32,14.24,14.24,0,0,1,2.59,1.88,15.86,15.86,0,0,1-5.5-3.2Z" style="fill:#263238"></path><path d="M381,410.2a16,16,0,0,1,5.5,3.19,13.66,13.66,0,0,1-2.91-1.32A14.19,14.19,0,0,1,381,410.2Z" style="fill:#263238"></path><path d="M385,408.92a16.28,16.28,0,0,1,5.5,3.2,15.86,15.86,0,0,1-5.5-3.2Z" style="fill:#263238"></path><path d="M389,407.65A15,15,0,0,1,391.9,409a14.24,14.24,0,0,1,2.59,1.88,14.82,14.82,0,0,1-2.92-1.32A14.67,14.67,0,0,1,389,407.65Z" style="fill:#263238"></path><path d="M393,406.38a16,16,0,0,1,5.5,3.19,13.66,13.66,0,0,1-2.91-1.32A14.19,14.19,0,0,1,393,406.38Z" style="fill:#263238"></path><path d="M396.94,405.1a16.28,16.28,0,0,1,5.5,3.2,13.94,13.94,0,0,1-2.91-1.32A14.24,14.24,0,0,1,396.94,405.1Z" style="fill:#263238"></path><path d="M400.91,403.83a14.47,14.47,0,0,1,2.91,1.32,13.47,13.47,0,0,1,2.59,1.88,16.28,16.28,0,0,1-5.5-3.2Z" style="fill:#263238"></path><path d="M396.19,396.06l-56.12,26.13-83-41s-19,14.74-39.45,18.57c-13.91,2.61-37.4.63-48.67-15.52-9.49-13.59-3.88-29.59-3.88-29.59L181,347.41s37.46-26.79,60.9-29.23C277.65,314.45,396.19,396.06,396.19,396.06Z" style="fill:#37474f"></path><path d="M195,338.14c-2.27,1.36-4.47,2.82-6.72,4.22s-4.47,2.66-6.59,4.18-4.19,3.23-6.23,4.91c-1,.82-2,1.64-2.92,2.49a24.31,24.31,0,0,0-2.8,2.66c-.08.09.05.21.15.16a28.24,28.24,0,0,0,3.06-2.17c1.08-.78,2.14-1.58,3.21-2.37,2.06-1.53,4.16-3,6.21-4.53s4-3.21,6-4.75,4.44-3.18,6.68-4.73C195,338.18,195,338.11,195,338.14Z" style="fill:#263238"></path><path d="M257.08,381.18a115,115,0,0,1-13.9,8.87l-21.85-27.36Z" style="fill:#263238"></path><path d="M384.07,392.15c-1.66.65-3.29,1.42-4.91,2.15l-4.81,2.18c-3.26,1.51-6.5,3.08-9.75,4.63-6.51,3.12-13,6.32-19.45,9.52-3.63,1.79-7.22,3.65-10.83,5.46-.07,0,0,.15.05.12,6.53-2.89,13-5.82,19.52-8.84S367,401.2,373.41,398q2.68-1.35,5.35-2.76c1.79-.94,3.64-1.86,5.38-2.9A.08.08,0,0,0,384.07,392.15Z" style="fill:#263238"></path><path d="M357.31,370.72c-1.38-1.14-30.73-18.79-37-22.38s-12.68-7-19.13-10.33-13-6.41-19.61-9.27-13.24-5.49-20.06-7.65c-.88-.28-1.75-.55-2.61-.85-.09,0-.12.1,0,.13,3.45,1.18,6.82,2.62,10.2,4s6.62,2.78,9.9,4.24q9.85,4.41,19.45,9.36t18.92,10.28q9.42,5.37,18.7,11c3.1,1.86,20.32,11.41,21.13,11.77C357.28,371,357.46,370.84,357.31,370.72Z" style="fill:#263238"></path><path d="M305.64,404.9c-3.09-1.69-6.25-3.28-9.38-4.91s-6.3-3.2-9.46-4.76q-9.41-4.65-18.88-9.17c-3.57-1.7-7.16-3.43-10.83-4.91-.08,0-.14.07-.06.11,3,1.78,6.2,3.39,9.34,5l9.48,4.74c6.26,3.11,12.52,6.24,18.86,9.19,3.6,1.67,7.18,3.38,10.81,5C305.66,405.18,305.78,405,305.64,404.9Z" style="fill:#263238"></path><path d="M179,274.57c-14.85,25.62-37.05,84.41-41.06,92.82-2.72,5.71,27.12,20.75,28.38,16.6,1.63-5.31,22.34-73.79,23.69-104.34C190.6,265.48,183.72,266.37,179,274.57Z" style="fill:#eb9481"></path><path d="M167.1,381.13c-.69,5.17-4.21,15.59-6.83,17.18s-16.35,1.25-23.27,1.25-8.28-1.93-8.17-4.31,14.64-2.84,14.64-2.84-19.4,5.56-24.28,6.47-16.12,3.75-17.75-.3c-.73-1.83,2.35-3.67,2.35-3.67s-4.72,1.38-5.47-1c-.85-2.67,2.9-4.14,2.9-4.14s-3,.6-3-1.58c-.15-4.86,18.3-7.25,18.3-7.25s-14.13,6.88-14.58,2.91c-.63-5.49,28.32-11.51,31.34-13.91a56.3,56.3,0,0,0,6.13-6Z" style="fill:#eb9481"></path><path d="M128.93,396.46a2.15,2.15,0,0,1,.66-1.86,6.2,6.2,0,0,1,1.69-1.09,22.75,22.75,0,0,1,4-1.29c2.72-.69,5.52-1.18,8.3-1.9a34.22,34.22,0,0,0-8.54,1,15.7,15.7,0,0,0-4.08,1.56,5.58,5.58,0,0,0-1.71,1.47A2.23,2.23,0,0,0,128.93,396.46Z" style="fill:#263238"></path><path d="M103.79,394.91c2-.49,4-1.05,5.93-1.62s3.91-1.17,5.87-1.76l5.84-1.83c1.95-.61,3.9-1.22,5.86-1.8a46,46,0,0,0-6.06,1.08c-2,.46-4,1-5.93,1.62s-3.9,1.26-5.82,2S105.65,394,103.79,394.91Z" style="fill:#263238"></path><path d="M122.61,383.05a37.73,37.73,0,0,0-5.6.78,54.58,54.58,0,0,0-10.77,3.38,41,41,0,0,0-5,2.59c1.78-.61,3.52-1.3,5.29-1.89s3.53-1.2,5.32-1.75,3.57-1.08,5.36-1.61S120.79,383.55,122.61,383.05Z" style="fill:#263238"></path><path d="M119.76,378.42a37.59,37.59,0,0,0-17.11,5.85c2.87-1,5.66-2.1,8.51-3S116.86,379.35,119.76,378.42Z" style="fill:#263238"></path><path d="M160.52,300.2l29.09-.9a186.74,186.74,0,0,0,3.27-22.14c1.13-12.6-4.53-15.61-15.72-2.73A108.42,108.42,0,0,0,160.52,300.2Z" style="fill:#90CAF9"></path><path d="M189.48,295.05c-2.16-.18-4.36,0-6.53,0s-4.14,0-6.21.07q-6.45.23-12.86.71a.07.07,0,0,0,0,.13q6.38,0,12.74-.15c2.11,0,4.22-.15,6.33-.26s4.38-.07,6.53-.34C189.56,295.17,189.56,295.05,189.48,295.05Z" style="fill:#263238"></path><path d="M190.57,296.45c.22-1,.41-2.08.58-3.13,0-.21.07-.43.1-.65a37.93,37.93,0,0,0,1.3-3.76,0,0,0,0,0-.07,0,29.75,29.75,0,0,0-1.08,2.85,46.05,46.05,0,0,0,.55-4.83,0,0,0,1,0-.07,0c-.49,2.07-.82,4.17-1.23,6.26-.19,1-1,6-1.1,6a6.25,6.25,0,0,0-.9.1c-.17.06-.07.08,0,.09l1.3.13S190.38,297.34,190.57,296.45Z" style="fill:#263238"></path><path d="M191.81,268.64c.38,1.2,6.8,8.69,12.36,8,1.82-.22,1-10.16,1-10.16l.11-.75,1.53-10.46-14.49-7.74S191.66,268.13,191.81,268.64Z" style="fill:#eb9481"></path><path d="M206.84,255.27l-1,6.89c-5.15,1.59-10.81,1.14-13.94.68.16-6.25.46-15.3.46-15.3Z" style="fill:#263238"></path><path d="M182.27,234.92c-7.56,16.94,1.73,23.38,5.39,25,3.31,1.47,14.8,6.08,24.07-10s3.78-24.95-3.63-28.72S189.83,218,182.27,234.92Z" style="fill:#eb9481"></path><path d="M185.21,232.54a9.1,9.1,0,0,1,1.28-.13,2.06,2.06,0,0,1,1.32.11.67.67,0,0,1,.25.77,1.64,1.64,0,0,1-1.42.85,2.37,2.37,0,0,1-1.7-.35A.7.7,0,0,1,185.21,232.54Z" style="fill:#263238"></path><path d="M197.8,237.67c-.31-.31-.65-.54-1-.82a2.07,2.07,0,0,0-1.16-.64.64.64,0,0,0-.63.5,1.6,1.6,0,0,0,.7,1.5,2.4,2.4,0,0,0,1.6.66A.71.71,0,0,0,197.8,237.67Z" style="fill:#263238"></path><path d="M193.26,240.36c0-.05.07.09.05.13-.5,1.17-.88,2.58,0,3.39,0,0,0,.08,0,.06C192.08,243.25,192.6,241.38,193.26,240.36Z" style="fill:#263238"></path><path d="M194.79,239.54c1.94.6.61,4.45-1.2,3.89S193.15,239,194.79,239.54Z" style="fill:#263238"></path><path d="M195.47,240c.26.34.46.84.85,1s1-.07,1.39-.35c0,0,.07,0,0,.06-.24.75-.79,1.4-1.62,1.24s-1-1-1-1.79C195.18,240,195.37,239.87,195.47,240Z" style="fill:#263238"></path><path d="M186.8,237.79s-.11,0-.12.08c-.37,1.21-1,2.53-2.21,2.56,0,0-.06.06,0,.07C185.84,240.76,186.65,239,186.8,237.79Z" style="fill:#263238"></path><path d="M186.16,236.18c-1.88-.8-3.33,3-1.6,3.75S187.73,236.85,186.16,236.18Z" style="fill:#263238"></path><path d="M185.27,236.13c-.38.09-.82.34-1.19.22s-.57-.66-.69-1.15c0-.06,0,0-.07,0-.3.72-.35,1.58.29,2s1.3-.07,1.75-.73C185.44,236.34,185.42,236.09,185.27,236.13Z" style="fill:#263238"></path><path d="M189.88,250.93a1.92,1.92,0,0,1-1.23.41,3.4,3.4,0,0,1-1.21-.69,0,0,0,0,0-.07,0,1.71,1.71,0,0,0,1.34,1.12A1.34,1.34,0,0,0,190,251C190,251,189.94,250.9,189.88,250.93Z" style="fill:#263238"></path><path d="M186.36,244.67s-.89,1.69-1.19,2.52c0,.08.16.19.44.31,0,0,0,0,0,0a4.22,4.22,0,0,0,4.4-.09.09.09,0,0,0-.08-.16,6.4,6.4,0,0,1-4-.27c0-.25,1.61-2.84,1.48-2.89a7.56,7.56,0,0,0-2.05-.26c1.74-3.57,4-6.82,5.72-10.4.05-.13-.12-.24-.2-.13a63.84,63.84,0,0,0-6.64,10.94C184,244.7,186,244.69,186.36,244.67Z" style="fill:#263238"></path><path d="M186.19,247.37a4.86,4.86,0,0,0,1.25,2.07,2.12,2.12,0,0,0,1.19.55c1,.11,1.3-.69,1.41-1.45a4.94,4.94,0,0,0,0-1.21A6.16,6.16,0,0,1,186.19,247.37Z" style="fill:#263238"></path><path d="M187.44,249.44a2.12,2.12,0,0,0,1.19.55c1,.11,1.3-.69,1.41-1.45A2.25,2.25,0,0,0,187.44,249.44Z" style="fill:#ff9bbc"></path><path d="M211.39,250.89a7.67,7.67,0,0,1-2.46-7.17,19.88,19.88,0,0,1-6.09-8.51c0,.4.14,3.31.25,4.79-10.78-5.29-11.88-15-11.88-15a20.42,20.42,0,0,0-7,5.83s1.86-7,6.74-10.67a11.68,11.68,0,0,1,11.67-1.75,16.68,16.68,0,0,1,14.35,9.2C222.16,237.74,211.39,250.89,211.39,250.89Z" style="fill:#263238"></path><path d="M195,235.71a21.54,21.54,0,0,0,5.24,3.77s0,0,0,0a18.51,18.51,0,0,1-6.94-7.37,17.39,17.39,0,0,1-1.5-4.12,12.1,12.1,0,0,1-.31-4.75.09.09,0,0,0-.18,0,14.28,14.28,0,0,0-.34,4.74,12.83,12.83,0,0,0,1.48,4.46,14.41,14.41,0,0,0,2.54,3.33" style="fill:#263238"></path><path d="M208.46,250s5.72-4.14,7.73-1.92-3.61,9.16-6.9,9.24a3.14,3.14,0,0,1-3.42-3Z" style="fill:#eb9481"></path><path d="M214.53,250.06c.05,0,0,.08,0,.08-2.33.12-4.07,1.65-5.5,3.35a1.73,1.73,0,0,1,2.6.4c0,.06,0,.12-.09.09a1.94,1.94,0,0,0-2.23-.06,9.79,9.79,0,0,0-1.52,1.29c-.16.15-.46-.06-.31-.25l0,0C208.35,252.3,211.64,249.35,214.53,250.06Z" style="fill:#263238"></path></g><g id="freepik--Mug--inject-7"><path d="M147.92,390.26s15.78-7.27,15.78-17-20.46-16-20.46-23.62,8.92-12.1,8.92-12.1-14.09,4.82-14.09,14.45,13.48,16.15,14.77,22.28C154.64,382.77,147.92,390.26,147.92,390.26Z" style="fill:#dbdbdb;opacity:0.6000000000000001"></path><path d="M148.7,390.26s-15.77-5.72-15.77-13.37,20.45-12.59,20.45-18.58-8.92-9.51-8.92-9.51,14.09,3.79,14.09,11.36S143.07,372.94,142,379.09,148.7,390.26,148.7,390.26Z" style="fill:#dbdbdb;opacity:0.6000000000000001"></path><rect x="140.59" y="414.75" width="15" height="2.34" style="fill:#90CAF9"></rect><rect x="140.59" y="414.75" width="15" height="1.54" style="opacity:0.1"></rect><path d="M122.78,408.46a8.5,8.5,0,0,0,8.45,3.61,9.24,9.24,0,0,0,1.52-.44,10.82,10.82,0,0,0,2.12-1.11L133,407.69a6.88,6.88,0,0,1-1.12.64,5,5,0,0,1-6.28-1.84c-2.06-2.89-2.8-9.49-.71-12,.14-.19.74-.49,3.15,0,.45.1,1,.21,1.53.37a5.79,5.79,0,0,0,1.37.29l.06-1.69.17-1.7c-.16,0-.4-.1-.72-.19a22.34,22.34,0,0,0-3.41-.7c-1.78-.19-3.64,0-4.79,1.43C118.83,396.45,120.2,404.83,122.78,408.46Z" style="fill:#90CAF9"></path><path d="M133,407.69a6.88,6.88,0,0,1-1.12.64l.91,3.3a10.82,10.82,0,0,0,2.12-1.11Z" style="opacity:0.1"></path><path d="M127,390.87l1,3.62c.45.1,1,.21,1.53.37a5.79,5.79,0,0,0,1.37.29l.06-1.69.17-1.7c-.16,0-.4-.1-.72-.19A22.34,22.34,0,0,0,127,390.87Z" style="opacity:0.1"></path><path d="M168.05,386.44s-1.8,15.29-4.91,21.73-7.45,7.15-10.15,7.15h-9.81c-2.69,0-7-.72-10.14-7.15s-4.91-21.73-4.91-21.73Z" style="fill:#90CAF9"></path></g></svg>