<svg xmlns="http://www.w3.org/2000/svg" viewBox="0 0 500 500"><g id="freepik--Shadow--inject-14"><ellipse cx="250" cy="451.87" rx="189.14" ry="20.55" style="fill:#ebebeb"></ellipse></g><g id="freepik--Floor--inject-14"><polygon points="34.56 343.47 88.42 343.23 142.28 343.14 250 342.97 357.72 343.14 411.58 343.23 465.44 343.47 411.58 343.71 357.72 343.8 250 343.97 142.28 343.8 88.42 343.71 34.56 343.47" style="fill:#263238"></polygon><rect x="39.63" y="336.67" width="420.74" height="6.8" style="fill:#c7c7c7"></rect><path d="M69.13,336.67a11.81,11.81,0,0,1,0,6.8,11.81,11.81,0,0,1,0-6.8Z" style="fill:#263238"></path><path d="M102,336.67a11.81,11.81,0,0,1,0,6.8,11.81,11.81,0,0,1,0-6.8Z" style="fill:#263238"></path><path d="M134.9,336.67a11.81,11.81,0,0,1,0,6.8,11.81,11.81,0,0,1,0-6.8Z" style="fill:#263238"></path><path d="M167.78,336.67a11.81,11.81,0,0,1,0,6.8,11.81,11.81,0,0,1,0-6.8Z" style="fill:#263238"></path><path d="M200.67,336.67a10.5,10.5,0,0,1,.5,3.4,10.27,10.27,0,0,1-.5,3.4,10.54,10.54,0,0,1-.5-3.4A10.78,10.78,0,0,1,200.67,336.67Z" style="fill:#263238"></path><path d="M233.56,336.67a11.81,11.81,0,0,1,0,6.8,11.81,11.81,0,0,1,0-6.8Z" style="fill:#263238"></path><path d="M266.44,336.67a11.81,11.81,0,0,1,0,6.8,11.81,11.81,0,0,1,0-6.8Z" style="fill:#263238"></path><path d="M299.33,336.67a10.78,10.78,0,0,1,.5,3.4,10.54,10.54,0,0,1-.5,3.4,10.27,10.27,0,0,1-.5-3.4A10.5,10.5,0,0,1,299.33,336.67Z" style="fill:#263238"></path><path d="M332.22,336.67a11.81,11.81,0,0,1,0,6.8,11.81,11.81,0,0,1,0-6.8Z" style="fill:#263238"></path><path d="M365.1,336.67a10.5,10.5,0,0,1,.5,3.4,10.27,10.27,0,0,1-.5,3.4,11.81,11.81,0,0,1,0-6.8Z" style="fill:#263238"></path><path d="M398,336.67a11.81,11.81,0,0,1,0,6.8,11.81,11.81,0,0,1,0-6.8Z" style="fill:#263238"></path><path d="M430.87,336.67a11.81,11.81,0,0,1,0,6.8,11.81,11.81,0,0,1,0-6.8Z" style="fill:#263238"></path></g><g id="freepik--Plants--inject-14"><path d="M215,336.67H167.4s.11-7.1,4.79-9a6.39,6.39,0,0,1,7.47,1.79s1.91-13,10.63-13,12.91,11.24,12.91,11.24,2-3.4,6.8-2.76S215,336.67,215,336.67Z" style="fill:#37474f"></path><path d="M460,336.67s-1.46-6.82-4.38-7.87-4.69,2-4.69,2-.68-6.51-4.82-8.46-7.24,2-7.24,2-3.17-8.26-8.84-8.26-8.53,12.09-8.53,12.09-3.35-3.6-6.78-1.57-3.43,10-3.43,10Z" style="fill:#37474f"></path><path d="M84.64,336.67H40.71s1.44-6.2,4.36-6.64,4.26,2.44,4.26,2.44-.13-8.64,5.31-10.11,10,6.16,10,6.16,3.41-4.35,8.06-4.07,5.82,7.46,5.82,7.46S82.77,329.42,84.64,336.67Z" style="fill:#455a64"></path><path d="M414.42,336.67h-27s.06-4,2.72-5.09a3.62,3.62,0,0,1,4.23,1s1.08-7.39,6-7.39,7.32,6.37,7.32,6.37a3.79,3.79,0,0,1,3.85-1.57C414.31,330.37,414.42,336.67,414.42,336.67Z" style="fill:#455a64"></path><path d="M145.63,336.67h27s-.06-4-2.71-5.09a3.62,3.62,0,0,0-4.23,1s-1.08-7.39-6-7.39-7.31,6.37-7.31,6.37a3.81,3.81,0,0,0-3.85-1.57C145.73,330.37,145.63,336.67,145.63,336.67Z" style="fill:#455a64"></path></g><g id="freepik--character-1--inject-14"><path d="M186,224.21c-2.48,8-4.1,18-10.12,24.31-4.73,4.91-11.66,6.87-18.27,7.35-14.54,1-32.37-4.55-36.69-20.16-1.72-6.24,1.41-16.82,8.59-18.52,3.69-.87,7.41,0,11.11.26a15.32,15.32,0,0,0,12.56-4.35c6.93-6.63,7.2-13.41,12.16-21.31a10.76,10.76,0,0,1,10-4.84,11.69,11.69,0,0,1,5.62,1c3.73,1.79,6.17,6.7,8.36,10a10.87,10.87,0,0,1,1.64,10.09C189.35,213.47,187.62,218.83,186,224.21Z" style="fill:#263238"></path><path d="M185.6,228.28c1.8-7.49,3.44-15,5.14-22.52,0,0-.06-.07-.07,0-1.58,6.14-3.23,12.25-4.73,18.41s-2.56,12.35-4.55,18.24c-4.47,13.22-19.89,13.71-30.83,9.06-.49-.21-.78.6-.27.8,9.73,3.78,22.66,4.64,29.46-5C183.46,242,184.13,234.4,185.6,228.28Z" style="fill:#263238"></path><path d="M166.18,191.33a.11.11,0,0,0-.21-.08c-2.93,7.1-5.67,15.66-12,20.47a19.41,19.41,0,0,1-10.85,3.91c-3.11.13-6-.81-9.05-1.27-11.87-1.8-17.35,13.13-11.4,21.86.13.18.45,0,.33-.22-4-6.55-3-15.43,3.83-19.8,5.44-3.51,12,.59,18-.21C157.24,214.35,162.64,201.89,166.18,191.33Z" style="fill:#263238"></path><path d="M186.22,471.21c-1.84.29-51.67-8-53.37-9.51-.65-.57.14-7.9,1.34-16.73.26-1.9.53-3.87.83-5.87,1.89-13,4.21-26.66,4.21-26.66l33.2,5.12-5,26.84-1.12,5.82s17.66,11.71,19.34,13.57S188.06,470.92,186.22,471.21Z" style="fill:#f7a9a0"></path><path d="M186.22,471.21c-1.84.29-51.66-8-53.37-9.51-.64-.58.13-7.9,1.34-16.73.25-1.9.53-3.87.83-5.86s.62-4.13.92-6.17L168.68,438l-1.23,6.37-1.12,5.82s17.66,11.71,19.34,13.57S188.05,470.91,186.22,471.21Z" style="fill:#ebebeb"></path><path d="M186.36,471.31c-1.85.29-52-8-53.67-9.57-.79-.7.54-11.43,2.18-22.72l32.61,5.33-1.12,5.85s17.75,11.77,19.45,13.65S188.21,471,186.36,471.31Z" style="fill:#90CAF9"></path><path d="M186,469.18c-8.36-1.6-42.25-7.28-50.64-8.23-.07,0-.08,0,0,.06,8.25,1.77,42.19,7.17,50.63,8.31C186.13,469.34,186.15,469.22,186,469.18Z" style="fill:#263238"></path><path d="M167.85,448.53c-3.2-1.16-7.33-1.33-10.25.61-.11.07,0,.23.11.21a47.65,47.65,0,0,1,10.06-.4A.22.22,0,0,0,167.85,448.53Z" style="fill:#263238"></path><path d="M170,450.37c-3.21-1.17-7.33-1.33-10.25.6-.11.08,0,.23.11.22a46.91,46.91,0,0,1,10-.41A.21.21,0,0,0,170,450.37Z" style="fill:#263238"></path><path d="M172.14,452.2c-3.2-1.17-7.33-1.33-10.24.6-.12.08,0,.24.1.22a47,47,0,0,1,10.06-.4A.22.22,0,0,0,172.14,452.2Z" style="fill:#263238"></path><path d="M174.29,454c-3.2-1.17-7.33-1.34-10.25.6-.11.07,0,.23.11.22a47,47,0,0,1,10.06-.41A.21.21,0,0,0,174.29,454Z" style="fill:#263238"></path><path d="M175.23,441.9c-1-2-3.56-1.6-5.13-.67a17.84,17.84,0,0,0-6.35,6.73.09.09,0,0,0,.06.13.42.42,0,0,0,.45.5c2.9-.56,6.06-.8,8.7-2.22C174.5,445.53,176.17,443.8,175.23,441.9Zm-6.75,4.94c-1.42.31-2.84.55-4.25.91a52.81,52.81,0,0,1,3.79-3.84,18.83,18.83,0,0,1,2.07-1.61c1.13-.73,5.34-2,4.16,1.55C173.59,445.79,170.17,446.48,168.48,446.84Z" style="fill:#263238"></path><path d="M155.49,445.7c2.53,1.61,5.68,2.07,8.53,2.83.29.08.49-.21.48-.46.05,0,.1-.06.07-.13a17.88,17.88,0,0,0-5.85-7.16c-1.51-1-4-1.62-5.17.3S154,444.75,155.49,445.7Zm-1.1-2.61c-.93-3.6,3.18-2,4.26-1.24a20.14,20.14,0,0,1,1.95,1.75c1.28,1.27,2.36,2.71,3.51,4.1-1.38-.46-2.79-.8-4.18-1.21C158.27,446,154.91,445.08,154.39,443.09Z" style="fill:#263238"></path><path d="M151.41,268s-3,83.5-3,84.64c0,.15-11.82,76-11.82,76l33,4.68S181.35,369,182,355.8c.85-16.8,0-83.05,0-83.05Z" style="fill:#f7a9a0"></path><path d="M181.36,272.64,142.24,392.48v0c3-19.55,6.19-39.74,6.18-39.82,0-1.14,3-84.64,3-84.64l29.95,4.66Z" style="fill:#263238"></path><path d="M98.87,455.91c-1.69-.79-38.3-35.6-38.85-37.81-.22-.83,4.54-6.46,10.48-13.1,1.29-1.43,2.62-2.9,4-4.39,8.84-9.67,18.44-19.72,18.44-19.72l24.56,23.22L98.36,423.19l-4.19,4.19s8,19.59,8.4,22.08S100.55,456.7,98.87,455.91Z" style="fill:#f7a9a0"></path><path d="M98.87,455.91c-1.69-.79-38.29-35.6-38.85-37.8-.21-.85,4.54-6.47,10.49-13.1,1.27-1.44,2.61-2.91,4-4.39L78.7,396,103,418.6l-4.59,4.59-4.2,4.18s8,19.61,8.41,22.09S100.55,456.69,98.87,455.91Z" style="fill:#ebebeb"></path><path d="M98.93,456.07c-1.7-.8-38.51-35.8-39.07-38-.26-1,6.86-9.17,14.55-17.59l24,22.7-4.22,4.22s8.1,19.7,8.46,22.2S100.62,456.86,98.93,456.07Z" style="fill:#90CAF9"></path><path d="M99.8,454.09c-6-6-30.9-29.72-37.32-35.22,0,0-.08,0,0,0,5.84,6.1,30.91,29.6,37.25,35.28C99.84,454.31,99.93,454.22,99.8,454.09Z" style="fill:#263238"></path><path d="M96.38,426.83c-2-2.76-5.32-5.21-8.82-5.25-.14,0-.14.2,0,.25a46.94,46.94,0,0,1,8.56,5.3A.21.21,0,0,0,96.38,426.83Z" style="fill:#263238"></path><path d="M97.13,429.55c-2-2.76-5.33-5.21-8.83-5.24-.13,0-.13.19,0,.24a46.86,46.86,0,0,1,8.55,5.3A.22.22,0,0,0,97.13,429.55Z" style="fill:#263238"></path><path d="M97.87,432.28c-2-2.76-5.32-5.22-8.82-5.25-.13,0-.13.19,0,.24a46.91,46.91,0,0,1,8.55,5.31A.21.21,0,0,0,97.87,432.28Z" style="fill:#263238"></path><path d="M98.62,435c-2-2.76-5.32-5.21-8.82-5.25-.14,0-.14.19,0,.24a47.46,47.46,0,0,1,8.55,5.31A.21.21,0,0,0,98.62,435Z" style="fill:#263238"></path><path d="M106.2,425.48c.3-2.22-2-3.32-3.87-3.43a17.87,17.87,0,0,0-9,2c-.07,0-.06.09,0,.14a.41.41,0,0,0,.09.66c2.71,1.17,5.47,2.75,8.45,3C103.57,428.08,105.92,427.58,106.2,425.48Zm-8.36.31c-1.34-.54-2.66-1.15-4-1.64,1.76-.38,3.5-.84,5.3-1a18.82,18.82,0,0,1,2.6-.17c1.35,0,5.54,1.35,2.58,3.61C102.67,427.78,99.45,426.43,97.84,425.79Z" style="fill:#263238"></path><path d="M87.74,417.55c1.19,2.76,3.53,4.9,5.46,7.13a.41.41,0,0,0,.66-.11.09.09,0,0,0,.13-.07,17.84,17.84,0,0,0-.83-9.21c-.66-1.7-2.42-3.6-4.44-2.64S87,415.94,87.74,417.55Zm.55-2.77c1.25-3.51,3.78.08,4.22,1.36a20,20,0,0,1,.63,2.54,50.79,50.79,0,0,1,.6,5.36c-.88-1.15-1.85-2.22-2.78-3.34C89.86,419.37,87.6,416.71,88.29,414.78Z" style="fill:#263238"></path><path d="M182.05,272.75s-8.38,16.59-16.16,24.41c0,0-11.72,64.34-15.49,71.36-6.23,11.62-44,46.65-44,46.65L82.21,392.26s32.57-35.4,34.94-39.6c1.59-2.79,12.81-53.5,12.54-54.85-3.24-16.38,7.91-32,7.91-32Z" style="fill:#f7a9a0"></path><path d="M137.6,265.83l44.45,6.92s3.36,64.92,2.5,82.51c-.31,6.26-3.19,20.8-3.19,20.8s-19.73-2.07-29.16-1.12-38.84,1.49-53.54-8.09c0,0,12.33-13,15.31-18.11,8.3-14.41,14-51.19,14-51.19S123.79,282.62,137.6,265.83Z" style="fill:#263238"></path><path d="M176.4,229.36c7.06,12.85,18.47,25.21,24.21,26.1,6.63,1,24.26-9.1,36.77-15.58,2.74-1.41-13.73-18.48-15.54-17.28-6.2,4.09-19.25,11.76-20.42,11.92-1.34.2-11.1-6.45-17-11.49C175,215.1,171.4,220.25,176.4,229.36Z" style="fill:#f7a9a0"></path><path d="M223.28,222.14l6.7,10.37,0,0,.15.23,5.07,7.86a17.09,17.09,0,0,0,2.16-.76h0A79.51,79.51,0,0,0,253,231.17c2.93-2.19,10.7-9.38,9.18-11.76s-4-.49-4-.49,2.82-3.53,1.09-5.78c-1.43-1.85-4.18-.12-5.14.56l-.15.12h0l-.16.14s2.64-3.84.75-6c-1.7-1.9-4.45.88-5,1.48l-.07.08a.43.43,0,0,0,0-.07c.42-.58,2.25-3.4.19-4.38-2.76-1.32-6.8,5.48-10.17,7.73-.16.11-1,.62-2.31,1.36l-5.42,3.1Z" style="fill:#f7a9a0"></path><path d="M239.15,219a31.75,31.75,0,0,0,4.76-2.24,13.08,13.08,0,0,0,5.68-7c.06-.16,0-.25-.06-.27h0c-.05,0-.11,0-.16.13a20.05,20.05,0,0,1-5.42,6.4,32.83,32.83,0,0,1-4.84,2.84C239,218.9,239,219.06,239.15,219Z" style="fill:#263238"></path><path d="M243,223.78c5.31-2.63,8.29-4.39,11.19-9.76.09-.17,0-.32-.08-.32a.18.18,0,0,0-.14.1s0,0,0,0h0c-3.53,4.89-5.87,6.73-11,9.82C242.88,223.68,243,223.81,243,223.78Z" style="fill:#263238"></path><path d="M257.87,219.31c-3.79,4.51-6.26,6.63-11.64,9a.11.11,0,0,0,.07.2c5.73-1.88,8.83-4.5,11.69-9.07C258.18,219.13,258.1,219,257.87,219.31Z" style="fill:#263238"></path><path d="M233.91,228.34a5.27,5.27,0,0,0,.45-.8,2.56,2.56,0,0,0,.11-.24,0,0,0,0,0,0,0c1.89-4.56-2.36-10.41-2.36-10.41a27.93,27.93,0,0,0,3.68-3.23c1.62-1.71,3-3.65,3.21-5.33h0a2.81,2.81,0,0,0-.13-1.3,2.46,2.46,0,0,0-.33-.62.1.1,0,0,0,0,0c-.85-1-3.74,0-6.75,1.69-3.31,1.81-6.75,4.36-7.79,5.71-1.31,1.75-3.92,10.4-3.92,10.4S230.78,233,233.91,228.34Z" style="fill:#f7a9a0"></path><path d="M238.87,207.39c0,4.09-4.17,6.77-7,9.17a.33.33,0,0,0,0,.55c1.88,3,3.66,7.76,2.2,11.19a.09.09,0,0,0,.15.08c2.06-3.47.69-8.3-1.57-11.44,2.9-2.41,7-5.29,6.19-9.55A0,0,0,1,0,238.87,207.39Z" style="fill:#263238"></path><path d="M184.76,255.47l-2.71,17.28-44.45-6.92s14.53-34.8,27.71-44.54c6.59-4.87,13-4.43,16.25.49.83,1.25,9.1,15.92,9.2,22.39C190.84,249.88,184.76,255.47,184.76,255.47Z" style="fill:#90CAF9"></path><path d="M189.94,239.77a106.43,106.43,0,0,1-6,9.54,18.73,18.73,0,0,1-2.72,2.91,8.9,8.9,0,0,1-3.51,1.9,5.88,5.88,0,0,1-4-.28,8.33,8.33,0,0,1-3.05-2.56,23.89,23.89,0,0,1-2.62-4.54,1.89,1.89,0,0,1-.11-.25c-.34-.74-.66-1.5-1-2.26-1-2.45-1.9-4.94-3-7.37a32.33,32.33,0,0,0-1.75-3.54,12,12,0,0,0-2.44-3.08,6,6,0,0,0-1.66-1l-.26-.08-.11,0,.08-.11a.13.13,0,0,0,0-.06l0,0a.83.83,0,0,1,.21.06l.11,0a6,6,0,0,1,1.71,1,12.1,12.1,0,0,1,2.49,3.12,32.76,32.76,0,0,1,1.77,3.56c1.07,2.43,2,4.92,3,7.37.34.81.68,1.62,1.05,2.41,0,.09.07.17.11.25a23.15,23.15,0,0,0,2.52,4.31,8.19,8.19,0,0,0,3,2.5,5.67,5.67,0,0,0,3.81.28c2.56-.66,4.51-2.67,6.12-4.71a108.32,108.32,0,0,0,6.13-9.64A1.87,1.87,0,0,0,189.94,239.77Zm-5.64,13.72a7.82,7.82,0,0,0-4-.06A10.14,10.14,0,0,0,176.7,255c-2.22,1.48-3.82,3.72-6.14,5a6.83,6.83,0,0,1-3.79.79,5.88,5.88,0,0,1-1.9-.41,5.63,5.63,0,0,1-1.62-1.07,11.76,11.76,0,0,1-2.33-3.16,33.25,33.25,0,0,1-1.62-3.6c-1-2.47-1.77-5-2.68-7.48a31.34,31.34,0,0,0-3.44-7.17,10.22,10.22,0,0,0-.78-1c0,.07-.09.14-.13.22.24.28.48.58.7.89a30.23,30.23,0,0,1,3.43,7.1c.92,2.48,1.73,5,2.7,7.47a33.91,33.91,0,0,0,1.65,3.63,12.37,12.37,0,0,0,2.37,3.2,5.47,5.47,0,0,0,3.64,1.52,7.08,7.08,0,0,0,3.88-.82c2.36-1.31,3.94-3.56,6.14-5a9.16,9.16,0,0,1,7.49-1.53,11.09,11.09,0,0,1,1.7.61l.08-.09A10.44,10.44,0,0,0,184.3,253.49Zm4.23-17.67c-4.47,3-8.31,7-13.1,9.43a13.74,13.74,0,0,1-4.21,1.4,8.88,8.88,0,0,1-3-.09l-.29-.07a7,7,0,0,1-1.07-.34,8.87,8.87,0,0,1-3.53-2.62,16.08,16.08,0,0,1-2.29-3.8,43.2,43.2,0,0,1-2.51-8.59c-.13-.64-.26-1.27-.37-1.91a.78.78,0,0,1,0-.21,1.28,1.28,0,0,1-.05-.27l-.16.21,0,0a.13.13,0,0,1,0,.06.4.4,0,0,1,0,.15c.13.68.26,1.36.4,2a43,43,0,0,0,2.52,8.64,16,16,0,0,0,2.33,3.86,9.07,9.07,0,0,0,3.63,2.67,7.94,7.94,0,0,0,1.26.38l.29.07a8.94,8.94,0,0,0,2.92.05,13.71,13.71,0,0,0,4.27-1.43c4.82-2.51,8.64-6.44,13.07-9.46A.47.47,0,0,0,188.53,235.82Z" style="fill:#fff"></path><path d="M171.64,251.69a43.76,43.76,0,0,1,6.47.52c1.06.18,2.11.41,3.16.66.52.12,1,.23,1.57.33a6.67,6.67,0,0,0,1.67.17s.05.08,0,.08a10.53,10.53,0,0,1-1.59.1,11.32,11.32,0,0,1-1.53-.15c-1.08-.18-2.15-.4-3.22-.58-2.17-.37-4.35-.74-6.54-.95C171.53,251.86,171.54,251.69,171.64,251.69Z" style="fill:#263238"></path><path d="M166.49,254a47.63,47.63,0,0,1,5.31-.7c.89-.06,1.78-.08,2.67-.07l1.28,0c.47,0,.94.11,1.41.12a0,0,0,0,1,0,.08c-.44,0-.88.07-1.33.1l-1.33.07c-.89.06-1.78.12-2.67.16-1.78.09-3.55.2-5.33.35C166.4,254.2,166.4,254.06,166.49,254Z" style="fill:#263238"></path><path d="M172.39,219.42c.16.82,3.9,6.25,7.64,6.18,1.22,0,1.4-6.67,1.4-6.67l.12-.49,1.75-6.84-7.93-5.43-1.15-.72s-.35,1.9-.77,4.27l-.06.34c0,.13,0,.26-.07.38-.07.36-.14.72-.2,1.08s-.09.54-.13.83-.08.58-.13.87A45.25,45.25,0,0,0,172.39,219.42Z" style="fill:#f7a9a0"></path><path d="M173.45,209.72a14.18,14.18,0,0,0,8.1,8.72l1.75-6.84-7.93-5.43-1.15-.72S173.87,207.35,173.45,209.72Z" style="fill:#263238"></path><path d="M192,198.22c4.08,11.7-2.46,15.46-5,16.34-2.29.79-10.18,3.21-15.45-8s-1.12-16.8,4-18.9S187.92,186.53,192,198.22Z" style="fill:#f7a9a0"></path><path d="M189.19,205.07a3.56,3.56,0,0,1-.89,1.58,1.58,1.58,0,0,1-.87.44c-.72.1-1-.49-1.09-1.05a3.89,3.89,0,0,1,0-.9A4.67,4.67,0,0,0,189.19,205.07Z" style="fill:#263238"></path><path d="M188.3,206.65a1.58,1.58,0,0,1-.87.44c-.72.1-1-.49-1.09-1.05A1.66,1.66,0,0,1,188.3,206.65Z" style="fill:#ff9bbc"></path><path d="M189.33,195.89c-.29.06-.56.07-.85.11a1.39,1.39,0,0,1-.88-.05.46.46,0,0,1-.18-.51,1.07,1.07,0,0,1,.93-.59,1.55,1.55,0,0,1,1.13.2A.47.47,0,0,1,189.33,195.89Z" style="fill:#263238"></path><path d="M181.7,199.17c.25-.14.47-.32.7-.48s.51-.31.63-.63a.42.42,0,0,0-.2-.49,1.08,1.08,0,0,0-1.09.17,1.64,1.64,0,0,0-.72.9A.47.47,0,0,0,181.7,199.17Z" style="fill:#263238"></path><path d="M184.33,201.09s-.05.06,0,.09c.32.78.56,1.72,0,2.25,0,0,0,.06,0,0C185.08,203,184.75,201.78,184.33,201.09Z" style="fill:#263238"></path><path d="M183.31,200.54c-1.3.38-.44,3,.77,2.6S184.4,200.22,183.31,200.54Z" style="fill:#263238"></path><path d="M182.85,200.84c-.17.22-.31.55-.57.67s-.63,0-.92-.24c0,0,0,0,0,0,.15.5.51.94,1.07.83s.7-.64.66-1.18C183.05,200.86,182.92,200.75,182.85,200.84Z" style="fill:#263238"></path><path d="M188.61,199.35s.08,0,.09.05c.23.81.64,1.69,1.44,1.72a0,0,0,0,1,0,0C189.23,201.33,188.7,200.15,188.61,199.35Z" style="fill:#263238"></path><path d="M189.05,198.28c1.26-.51,2.2,2,1,2.51S188,198.72,189.05,198.28Z" style="fill:#263238"></path><path d="M189.65,198.25c.25.07.54.24.78.16s.39-.43.47-.76c0,0,0,0,0,0,.19.48.22,1.05-.21,1.31s-.86-.05-1.16-.5C189.53,198.39,189.54,198.23,189.65,198.25Z" style="fill:#263238"></path><path d="M186.26,207.6a1.26,1.26,0,0,0,.82.28,2.1,2.1,0,0,0,.81-.45s.05,0,0,0a1.12,1.12,0,0,1-.9.73.9.9,0,0,1-.84-.53S186.23,207.58,186.26,207.6Z" style="fill:#263238"></path><path d="M188.79,203.36s.57,1.12.77,1.68c0,.06-.11.13-.3.2,0,0,0,0,0,0a2.83,2.83,0,0,1-2.93-.09.07.07,0,0,1,.06-.11,4.21,4.21,0,0,0,2.67-.15c0-.17-1-1.9-1-1.93a4.79,4.79,0,0,1,1.36-.16c-1.13-2.38-2.63-4.57-3.72-7,0-.09.08-.16.13-.09a42.77,42.77,0,0,1,4.33,7.33C190.34,203.39,189,203.37,188.79,203.36Z" style="fill:#263238"></path><path d="M181.72,188.66a5.55,5.55,0,0,1,.52,3.23c-.73,3-4.21,3-5.12,4.36s0,3.29-.77,4.52c-1,1.7-3,1.54-3,2.54s0,4.17-1.14,4.82-11-18.38,5-21.12c0,0,2-1.36,5.74-.37,4.13,1.09,7.06,6.89,7.06,6.89s-.09-.07-.74-.44c-.91-.51-1.34-1.07-2-1.39-1-.5-1.46-.14-2.52-.61A10.78,10.78,0,0,1,181.72,188.66Z" style="fill:#263238"></path><path d="M181.29,187.83a11.29,11.29,0,0,1,1,2.33,4.63,4.63,0,0,1,.16,2.44,3.4,3.4,0,0,1-1.52,1.81c-.7.44-1.52.69-2.26,1.19a2.51,2.51,0,0,0-.9,1,3.41,3.41,0,0,0-.21,1.32,4.45,4.45,0,0,1-.41,2.39,2.84,2.84,0,0,1-1.94,1.35,5.91,5.91,0,0,0-2.44.65,5.84,5.84,0,0,1,2.47-.46,3.05,3.05,0,0,0,2.17-1.38,4.58,4.58,0,0,0,.52-2.54,3.21,3.21,0,0,1,.19-1.18,2.18,2.18,0,0,1,.78-.85c.66-.46,1.48-.74,2.22-1.21a4.38,4.38,0,0,0,1-.87,2.72,2.72,0,0,0,.63-1.17,4.9,4.9,0,0,0-.27-2.58A11.34,11.34,0,0,0,181.29,187.83Z" style="fill:#263238"></path><path d="M181.74,188.49a9.21,9.21,0,0,0,1.24,2,4.2,4.2,0,0,0,2,1.41,6.58,6.58,0,0,0,1.19.2,1.82,1.82,0,0,1,1,.39,5.7,5.7,0,0,0,.89.79,2.6,2.6,0,0,0,1.13.37,2.79,2.79,0,0,1-1-.53,5.37,5.37,0,0,1-.79-.85,2.07,2.07,0,0,0-1.14-.55,6.16,6.16,0,0,1-1.13-.2,4.42,4.42,0,0,1-1.85-1.25A17.64,17.64,0,0,1,181.74,188.49Z" style="fill:#263238"></path><path d="M174.62,205.79s-3.57-3.08-5-1.71,1.89,6.3,4.07,6.53a2.1,2.1,0,0,0,2.45-1.78Z" style="fill:#f7a9a0"></path><path d="M170.59,205.47s0,.05,0,.05a5.36,5.36,0,0,1,3.47,2.54,1.16,1.16,0,0,0-1.76.12s0,.08.06.06a1.3,1.3,0,0,1,1.48.09,6,6,0,0,1,.94.95c.1.1.31,0,.23-.15l0,0C174.57,207.3,172.55,205.16,170.59,205.47Z" style="fill:#263238"></path><path d="M169.9,219.24c-4.74-.64-11.16,6-12.51,11.11-1.27,4.85,3.27,8.57,8.66,5.24C171.73,232.08,174.57,219.87,169.9,219.24Z" style="fill:#f7a9a0"></path><path d="M174.76,261.33s7.47,4.23,12.23,7.22c2.66,1.67,6.95,4.94,8.34,7.06,2.08,3.17,8.75,17.76,5.24,19.45-3.17,1.53-7.3-11.73-7.3-11.73s5.35,13,1.2,14.16S187.63,283,187.63,283s5.21,13.49.73,14c-3.38.38-6.6-13.62-6.6-13.62s4.39,11.63.93,12.17c-3.82.59-7.6-12.14-7.6-12.14-9-.11-13.28-3.85-16-6.87C158.45,275.82,174.76,261.33,174.76,261.33Z" style="fill:#f7a9a0"></path><path d="M191.71,278.72c.68,1.5,1.38,3,1.93,4.58s1,3.15,1.44,4.75a28.61,28.61,0,0,1,1,6.39,61.15,61.15,0,0,0-2.84-11c-.55-1.56-1-3.15-1.56-4.7C191.63,278.7,191.69,278.68,191.71,278.72Z" style="fill:#263238"></path><path d="M186,280.59c.79,2,1.65,3.88,2.35,5.88s1.2,3.93,1.76,6c0,.15-.06.12-.11,0-.64-2-1.39-3.81-2.05-5.81s-1.26-4-2-6C186,280.58,186,280.56,186,280.59Z" style="fill:#263238"></path><path d="M180.87,281.33a46.66,46.66,0,0,1,2.91,9.25c0,.16-.08.11-.13-.05-.91-3.09-1.6-5.53-2.88-9.15C180.75,281.32,180.85,281.27,180.87,281.33Z" style="fill:#263238"></path><path d="M164.71,220.57c-14.85,6.28-32.44,17.41-31.41,25,1.43,10.42,24.08,30,29.32,33.89,2.26,1.69,16.26-11.39,15.82-14.38s-24-19.87-23.25-21.57c.42-1,4.41-6.34,12.49-14.52C177,219.52,169.37,218.59,164.71,220.57Z" style="fill:#f7a9a0"></path><path d="M160.42,236.65a15.22,15.22,0,0,0,4.72-3.92c-.86.58-1.64,1.23-2.43,1.88S161.16,235.92,160.42,236.65Z" style="fill:#263238"></path><path d="M164.46,234.39a4.35,4.35,0,0,0-1.13.28,4.23,4.23,0,0,0-1,.54,3.89,3.89,0,0,0,1.14-.28A4.35,4.35,0,0,0,164.46,234.39Z" style="fill:#263238"></path></g><g id="freepik--character-2--inject-14"><path d="M272.63,381.35c-1.31-1.54-21.54-52.73-21.07-55.17.16-.93,7.45-4.31,16.37-8.15l.28-.11c1.84-.8,35.42-14.18,35.42-14.18l12.53,33.8-34.53,13.25-.56.21s-1,23.06-1.82,25.69S273.93,382.91,272.63,381.35Z" style="fill:#c95f50"></path><path d="M272.63,381.35c-1.31-1.54-21.54-52.74-21.07-55.17.16-.93,7.45-4.31,16.37-8.15l.28-.11c.32-.14,1.59-.66,3.49-1.42l13.8,32.81-3.86,1.48-.57.21s-1,23.06-1.82,25.69S273.93,382.91,272.63,381.35Z" style="fill:#ebebeb"></path><path d="M272.79,382.16c-1.34-1.55-22.8-54.47-22.36-56.94.16-.94,7-4.28,16.79-7l13.95,33.67s-1,22.82-1.75,25.48S274.13,383.71,272.79,382.16Z" style="fill:#90CAF9"></path><path d="M274.55,380.58C271.22,371.86,257,337,253,328.64c0-.07-.08-.05-.05,0,3.11,8.72,17.63,43.45,21.43,52C274.48,380.82,274.62,380.76,274.55,380.58Z" style="fill:#263238"></path><path d="M279.92,373.28a7.52,7.52,0,0,0-4.23-4.3,7.29,7.29,0,0,0-5.4,0c-.05,0,0,.12,0,.1a8.68,8.68,0,0,1,9.48,4.28A.06.06,0,0,0,279.92,373.28Z" style="fill:#263238"></path><path d="M281.44,355.06c-1.37-3.48-4.23-7-7.94-8-.14,0-.19.17-.1.25a51.78,51.78,0,0,1,7.64,8A.23.23,0,0,0,281.44,355.06Z" style="fill:#263238"></path><path d="M281.49,358.15c-1.37-3.47-4.23-7-7.93-8-.15,0-.2.17-.1.25a51.33,51.33,0,0,1,7.63,8A.24.24,0,0,0,281.49,358.15Z" style="fill:#263238"></path><path d="M281.55,361.25c-1.37-3.48-4.23-7-7.94-8-.14,0-.19.16-.1.24a51.85,51.85,0,0,1,7.64,8A.23.23,0,0,0,281.55,361.25Z" style="fill:#263238"></path><path d="M281.6,364.34c-1.37-3.48-4.23-7-7.94-8-.14,0-.19.17-.1.25a51.78,51.78,0,0,1,7.64,7.95A.23.23,0,0,0,281.6,364.34Z" style="fill:#263238"></path><path d="M262.12,327.48c-1.6-3.87-7.62-1.39-6,2.49S263.73,331.36,262.12,327.48Z" style="fill:#263238"></path><path d="M292.19,355c.73-2.34-1.59-4-3.54-4.42a19.53,19.53,0,0,0-10.12.48c-.07,0-.08.09,0,.15a.45.45,0,0,0,0,.73c2.71,1.77,5.39,4,8.56,4.86C288.86,357.33,291.5,357.23,292.19,355Zm-9.08-1.23c-1.35-.83-2.66-1.73-4-2.51a58.23,58.23,0,0,1,5.91-.15,20.86,20.86,0,0,1,2.85.3c1.45.29,5.73,2.49,2.11,4.38C288,356.84,284.72,354.78,283.11,353.78Z" style="fill:#263238"></path><path d="M273.73,343c.77,3.2,2.9,5.95,4.57,8.72a.46.46,0,0,0,.74,0,.1.1,0,0,0,.15-.05,19.59,19.59,0,0,0,.82-10.1c-.39-2-1.94-4.34-4.31-3.68S273.28,341.14,273.73,343Zm1.11-2.89c2-3.55,4.07.79,4.3,2.25a21.06,21.06,0,0,1,.22,2.86c0,2-.2,3.94-.35,5.91-.74-1.41-1.59-2.74-2.38-4.13C275.69,345.37,273.74,342.08,274.84,340.12Z" style="fill:#263238"></path><path d="M288,351.43l-14.1-37.57s48-20.47,48.7-23.69c.28-1.26-33.13-46.77-39.66-64.55-4.34-11.84,4.94-25.4,4.94-25.4l35.37,8.22s-1.52,10.07-.24,12c11.7,18,44.48,67.74,42.16,85.49C363,323,288,351.43,288,351.43Z" style="fill:#37474f"></path><path d="M295.43,346.26c-1.54-4.36-8-22-9.86-26.35-.52-1.25-1-2.51-1.57-3.75a35.15,35.15,0,0,0-1.67-3.7.07.07,0,0,0-.13.05,31.89,31.89,0,0,0,1.08,3.44c.38,1.15.79,2.28,1.18,3.42.79,2.25,1.61,4.48,2.43,6.71,1.6,4.37,6.88,18.05,8.16,20.33C295.16,346.6,295.51,346.48,295.43,346.26Z" style="fill:#263238"></path><path d="M328,291c-4.36-4.92-35.94-56.25-37.6-59.26a36.41,36.41,0,0,1-3.87-8.75c-1.67-6.77.24-13.95,3-20.17a.16.16,0,0,0-.29-.15c-2.75,5.42-4.6,11.54-4,17.67a24.85,24.85,0,0,0,2.82,8.9c1.55,3,3.25,6,4.88,8.94,3.37,6.15,31.94,50.23,34.27,53-5.12,3-10.26,6-15.48,8.77-5.39,2.9-10.86,5.66-16.36,8.34q-4.67,2.28-9.38,4.46c-.13.06-.06.28.08.22A295,295,0,0,0,319,296.81c3-1.71,6-3.45,8.95-5.28A.36.36,0,0,0,328,291Z" style="fill:#263238"></path><path d="M317.62,282.31c-9.51-14.06-29.75-43.27-34.68-56.69-4.34-11.84,4.94-25.4,4.94-25.4l13.62,3.16Z" style="fill:#263238"></path><path d="M235.51,414.9c-1.93-.65-45.82-33.86-46.68-36.19-.35-.87,4.12-7.55,9.75-15.46l.18-.25c1.15-1.63,22.88-30.52,22.88-30.52l28.28,22.36-22.61,29.27-.37.47s11.11,20.23,11.8,22.89S237.43,415.55,235.51,414.9Z" style="fill:#c95f50"></path><path d="M235.51,414.89c-1.92-.63-45.82-33.85-46.68-36.18-.35-.87,4.12-7.55,9.74-15.47l.19-.24c.2-.28,1-1.38,2.24-3l28.85,20.85-2.54,3.28-.37.47s11.12,20.23,11.8,22.89S237.43,415.55,235.51,414.89Z" style="fill:#ebebeb"></path><path d="M236.06,415.5c-1.95-.63-47.79-34.68-48.7-37-.35-.89,3.75-7.29,10.69-14.72l29.43,21.51s11,20,11.75,22.68S238,416.13,236.06,415.5Z" style="fill:#90CAF9"></path><path d="M236.74,413.24c-7.37-5.72-37.66-28.09-45.38-33.18-.07,0-.1,0,0,.05,7.19,5.82,37.65,27.95,45.33,33.25C236.81,413.47,236.9,413.36,236.74,413.24Z" style="fill:#263238"></path><path d="M237.54,404.21a7.55,7.55,0,0,0-5.85-1.48,7.28,7.28,0,0,0-4.63,2.78s.05.1.09.06a8.68,8.68,0,0,1,10.32-1.27A.06.06,0,0,0,237.54,404.21Z" style="fill:#263238"></path><path d="M229.37,387.85c-3-2.25-7.25-3.76-10.93-2.68-.14,0-.08.25.05.26a52.56,52.56,0,0,1,10.66,2.83A.24.24,0,0,0,229.37,387.85Z" style="fill:#263238"></path><path d="M231,390.47c-3-2.26-7.24-3.77-10.92-2.68-.15,0-.08.24,0,.26a51.28,51.28,0,0,1,10.66,2.83A.24.24,0,0,0,231,390.47Z" style="fill:#263238"></path><path d="M232.67,393.08c-3-2.25-7.24-3.76-10.92-2.68-.14,0-.08.24,0,.26a52.38,52.38,0,0,1,10.66,2.83A.24.24,0,0,0,232.67,393.08Z" style="fill:#263238"></path><path d="M234.33,395.7c-3-2.26-7.24-3.77-10.92-2.68-.15,0-.09.24,0,.26a51.28,51.28,0,0,1,10.66,2.83A.24.24,0,0,0,234.33,395.7Z" style="fill:#263238"></path><path d="M198.53,374.33c-3.38-2.47-7.24,2.78-3.85,5.26S201.91,376.81,198.53,374.33Z" style="fill:#263238"></path><path d="M238.53,382.22c-.6-2.38-3.42-2.56-5.33-1.94a19.58,19.58,0,0,0-8.39,5.68.09.09,0,0,0,0,.15.45.45,0,0,0,.36.64c3.23.1,6.67.6,9.84-.3C236.89,385.93,239.09,384.48,238.53,382.22Zm-8.4,3.68c-1.59,0-3.17-.1-4.76,0,1.64-1.1,3.22-2.27,5-3.21a21.13,21.13,0,0,1,2.6-1.21c1.38-.52,6.18-.85,4.07,2.64C235.85,386,232,385.91,230.13,385.9Z" style="fill:#263238"></path><path d="M216.52,381.57c2.32,2.33,5.57,3.57,8.43,5.07a.46.46,0,0,0,.63-.38c.06,0,.12-.05.11-.12a19.63,19.63,0,0,0-4.55-9.06c-1.36-1.47-3.91-2.7-5.59-.91S215.16,380.21,216.52,381.57Zm-.56-3.05c-.13-4.08,3.89-1.44,4.85-.31a20.17,20.17,0,0,1,1.67,2.33,58.07,58.07,0,0,1,2.77,5.23c-1.36-.82-2.79-1.52-4.18-2.29C219.41,382.56,216,380.77,216,378.52Z" style="fill:#263238"></path><path d="M323.25,208.44s-7.5,19.18-14,23.69c0,0-22.15,60.21-29.3,76.07-9.43,20.95-45.7,72.67-45.7,72.67L200,356.59s45-59.06,45.49-60.45c2.93-7.87,23.84-66.28,23.94-67.79,1.09-15.8,11.24-29.81,11.24-29.81Z" style="fill:#37474f"></path><path d="M309.06,232.18a4.09,4.09,0,0,0-.69,1.44c-.2.48-.38,1-.57,1.45-.37,1-.74,2-1.1,2.92q-1.12,3-2.27,6.06t-2.25,6.08c-.7,2-1.44,4-2,6,0,.08.1.12.14.05,1-1.89,1.85-3.89,2.68-5.86s1.62-4,2.38-6,1.49-4.05,2.22-6.08c.34-.95.66-1.9,1-2.85l.48-1.48a4.34,4.34,0,0,0,.37-1.57A.22.22,0,0,0,309.06,232.18Z" style="fill:#263238"></path><path d="M323,211.27c-2.53,4.51-4.95,9.06-7.74,13.42-.59.92-1.19,2.23-2.16,2.8a1.32,1.32,0,0,1-1.34.08c-.57-.37-.32-1.16-.1-1.67.53-1.19,1.2-2.34,1.79-3.51l1.86-3.71c1.38-2.75,2.61-5.57,4-8.31,0-.08-.08-.15-.12-.07-1.45,2.72-3.06,5.34-4.52,8q-1.12,2.07-2.24,4.16c-.36.66-.7,1.32-1.05,2a7.37,7.37,0,0,0-.8,1.79,1.77,1.77,0,0,0,1.27,2.28,2.72,2.72,0,0,0,2.64-1.18,34.53,34.53,0,0,0,2.19-3.4c.75-1.24,1.49-2.48,2.18-3.76a69.8,69.8,0,0,0,4.21-8.92A0,0,0,0,0,323,211.27Z" style="fill:#263238"></path><path d="M311.61,228c-.64.57-3.06,4-3.21,4.18s.37.4.45.32a41.46,41.46,0,0,0,3.08-4.42C312,228,311.67,227.9,311.61,228Z" style="fill:#263238"></path><path d="M314.44,230.8a37.44,37.44,0,0,0-6.7,1.31c-1.1.26-2.18.55-3.26.87a25.16,25.16,0,0,0-3.42,1.08.07.07,0,0,0,0,.14,26.22,26.22,0,0,0,3.53-.57c1.07-.19,2.13-.41,3.19-.65a38.71,38.71,0,0,0,6.7-1.87A.16.16,0,0,0,314.44,230.8Z" style="fill:#263238"></path><path d="M236.68,372.37c-3.73-2.72-19.09-13.55-23.06-16.11-1.14-.74-2.27-1.49-3.42-2.2a38.57,38.57,0,0,0-3.47-2.1.07.07,0,0,0-.08.12,32.3,32.3,0,0,0,2.84,2.22c1,.73,1.94,1.43,2.91,2.14,1.92,1.41,3.86,2.78,5.8,4.16,3.8,2.68,15.91,11,18.26,12.1C236.65,372.8,236.88,372.51,236.68,372.37Z" style="fill:#263238"></path><path d="M285,201.58c-2.7,3.87-7.67,15.34-8.16,23.19-.16,2.59-9.42,29.76-11.45,34.9q-6.12,15.46-12.23,31c-1,2.48-1.93,5-3.08,7.38a49.14,49.14,0,0,1-3.93,6.72c-3.1,4.5-6.44,8.86-9.65,13.28-6.47,8.92-15.81,20.89-22.12,29.91L212,351.34c-.05.08.05.17.11.1,6.7-8.79,16-20.78,22.58-29.69q4.91-6.69,9.78-13.4c1.46-2,2.92-4.06,4.2-6.19a52.31,52.31,0,0,0,3.5-7.08c4.22-10.2,8.13-20.53,12.18-30.8s13.23-36.69,13.42-39.23c.6-8.18,6.84-22.29,7.48-23.3C285.33,201.61,285.1,201.45,285,201.58Z" style="fill:#263238"></path><path d="M316.21,163c12.37,18.65,27,32.22,33.83,32.12,9.21-.14,28.27-7.66,37.78-13.85,2.79-1.82-9.23-25.09-12.22-23.15-3.61,2.35-24.48,14-24.9,14.09-.89.25-22.74-13-27.86-16.44C314.29,150.05,310.73,154.71,316.21,163Z" style="fill:#c95f50"></path><path d="M400.78,176.52c-4.56,3.15-16.42,5.94-19.54,5.51s-8.53-20.42-6.58-23,18.14-12,23.78-11.58S405.51,173.26,400.78,176.52Z" style="fill:#c95f50"></path><polygon points="384.9 211.13 384.2 211.05 393.29 79.47 394 79.52 385.05 209.1 384.9 211.13" style="fill:#263238"></polygon><path d="M417,57a35.61,35.61,0,0,1-10.31,13c-6,4.87-11.83,7.22-11.85,7.81,0,1.68,1.3,4.41,1.11,5s-1.62.93-2.76.8-2.44-.85-2.51-1.42,1.86-2.91,2.21-4.56c.26-1.16-20.78-14.62-16.74-35.92,2.08-10.93,9.56-14.58,15.67-15.68a27.93,27.93,0,0,1,5.15-.44,24.91,24.91,0,0,1,3,.17c3.14.36,20.25,3.13,19.46,21A28.49,28.49,0,0,1,417,57Z" style="fill:#90CAF9"></path><path d="M394.83,77.74c0,1.68,1.3,4.41,1.11,5s-1.62.93-2.76.8-2.44-.85-2.51-1.42,1.86-2.91,2.21-4.56c.26-1.16-20.78-14.62-16.74-35.92,2.08-10.93,9.56-14.58,15.67-15.68-5.76,3.87-13.24,11.93-10.24,26.82,2.77,13.75,15,19.15,25.11,17.2C400.7,74.8,394.85,77.15,394.83,77.74Z" style="opacity:0.1"></path><path d="M413.43,39.45a4.89,4.89,0,1,1-4.3-5.42A4.91,4.91,0,0,1,413.43,39.45Z" style="fill:#fff"></path><polygon points="409.94 102.22 385.07 206.41 384.34 206.38 409.25 102.06 409.94 102.22" style="fill:#263238"></polygon><path d="M434.42,80.93a35.55,35.55,0,0,1-11.22,12.2c-6.32,4.43-12.32,6.35-12.38,6.93-.15,1.68,1,4.5.75,5s-1.68.81-2.81.6-2.38-1-2.4-1.59,2.06-2.77,2.53-4.39c.34-1.14-19.67-16.08-14.1-37,2.86-10.75,10.58-13.85,16.76-14.51a28.36,28.36,0,0,1,5.17-.07,27.61,27.61,0,0,1,2.93.39c3.11.59,20,4.58,17.9,22.34A28.47,28.47,0,0,1,434.42,80.93Z" style="fill:#c7c7c7"></path><path d="M410.82,100.06c-.15,1.68,1,4.5.75,5s-1.68.81-2.81.6-2.38-1-2.4-1.59,2.06-2.77,2.53-4.39c.34-1.14-19.67-16.08-14.1-37,2.86-10.75,10.58-13.85,16.76-14.51-6,3.44-14.06,11-12.15,26,1.77,13.92,13.57,20.19,23.8,19C416.88,97.56,410.88,99.48,410.82,100.06Z" style="fill:#a6a6a6"></path><path d="M432.8,63.41a4.89,4.89,0,1,1-3.89-5.72A4.89,4.89,0,0,1,432.8,63.41Z" style="fill:#fff"></path><rect x="386.84" y="110.77" width="0.71" height="75.5" transform="matrix(1, -0.04, 0.04, 1, -5.01, 13.8)" style="fill:#263238"></rect><path d="M405.46,83.48A35.49,35.49,0,0,1,397.1,98c-5.14,5.62-10.46,8.76-10.38,9.34.22,1.67,1.94,4.17,1.83,4.73s-1.45,1.16-2.6,1.21-2.55-.47-2.7-1,1.4-3.17,1.5-4.85c.08-1.18-22.75-11.31-22-33,.41-11.2,7.35-15.93,13.26-17.92a29.1,29.1,0,0,1,5-1.18,27.78,27.78,0,0,1,2.85-.26c3.15-.11,20.49,0,22.4,17.82A28.33,28.33,0,0,1,405.46,83.48Z" style="fill:#455a64"></path><path d="M362.79,74.4c.41-11.2,7.35-15.93,13.26-17.92-5.15,4.64-11.56,13.79-6.28,28.25C374.56,97.86,387.4,101.38,397.1,98c-5.14,5.62-10.46,8.76-10.38,9.34.22,1.67,1.94,4.17,1.83,4.73s-1.45,1.16-2.6,1.21-2.55-.47-2.7-1,1.4-3.17,1.5-4.85C384.83,106.2,362,96.07,362.79,74.4Z" style="fill:#37474f"></path><path d="M399.41,66.56a4.89,4.89,0,1,1-5.07-4.71A4.9,4.9,0,0,1,399.41,66.56Z" style="fill:#fff"></path><rect x="357.8" y="165.54" width="75.5" height="0.71" transform="translate(130.8 503.37) rotate(-74.64)" style="fill:#263238"></rect><path d="M432.42,109.28a35.62,35.62,0,0,1-12.31,11.33c-6.58,3.83-12.6,5.24-12.7,5.82-.29,1.66.61,4.56.34,5.06s-1.74.68-2.85.37-2.29-1.2-2.26-1.78,2.27-2.6,2.87-4.17c.43-1.11-18.33-17.6-11.1-38,3.74-10.57,11.78-13,18-13.14a28.28,28.28,0,0,1,5.11.37,24.82,24.82,0,0,1,2.8.6c3.05.83,19.54,6.17,16.05,23.7A28.33,28.33,0,0,1,432.42,109.28Z" style="fill:#90CAF9"></path><path d="M394.41,87.87c3.74-10.57,11.78-13,18-13.14-6.3,2.89-15.15,9.7-14.44,25.08.65,14,11.86,21.16,22.13,20.8-6.58,3.83-12.6,5.24-12.7,5.82-.29,1.66.61,4.56.34,5.06s-1.74.68-2.85.37-2.29-1.2-2.26-1.78,2.27-2.6,2.87-4.17C405.94,124.8,387.18,108.31,394.41,87.87Z" style="opacity:0.1"></path><path d="M431.7,91.34a4.9,4.9,0,1,1-3.43-6A4.91,4.91,0,0,1,431.7,91.34Z" style="fill:#fff"></path><rect x="352.22" y="173.21" width="75.5" height="0.71" transform="translate(170.33 539.57) rotate(-83.02)" style="fill:#263238"></rect><path d="M418.2,112.18a35.69,35.69,0,0,1-10.53,13c-6,4.75-11.71,7-11.72,7.6,0,1.68,1.27,4.42,1.07,5s-1.62.92-2.76.78-2.44-.86-2.5-1.43,1.87-2.9,2.24-4.55c.26-1.16-20.7-14.74-16.53-36,2.15-11,9.75-14.58,15.9-15.62a28,28,0,0,1,5.11-.39,26.44,26.44,0,0,1,2.85.19c3.14.38,20.24,3.25,19.34,21.11A28.37,28.37,0,0,1,418.2,112.18Z" style="fill:#37474f"></path><path d="M377.47,96.54c2.15-11,9.75-14.58,15.9-15.62-5.81,3.77-13.58,11.8-10.63,26.91,2.68,13.73,14.82,19.21,24.93,17.36-6,4.75-11.71,7-11.72,7.6,0,1.68,1.27,4.42,1.07,5s-1.62.92-2.76.78-2.44-.86-2.5-1.43,1.87-2.9,2.24-4.55C394.26,131.39,373.3,117.81,377.47,96.54Z" style="fill:#263238"></path><path d="M414.86,94.53a4.89,4.89,0,1,1-4.26-5.45A4.89,4.89,0,0,1,414.86,94.53Z" style="fill:#fff"></path><path d="M389.64,148.58c-1.21,2.68,2.64,2.57,2.64,2.57s-5.5,1.49-5.67,4.74,4.48,2.83,4.81,2.81c-.29.08-5.31,1.59-5.15,4.87s4.78,2.31,5.08,2.24c-.25.16-3.52,2.38-2.83,4.84,1.18,4.23,9.69-1.2,13.13-.29,0,0-.88,6-.87,6.19,0,0,8.2-5,9.17-9.72a3.06,3.06,0,0,0-1.69-3.45s2.82-1.32,2.77-3.9c0-1.33-2.17-2.47-2.17-2.47a3.85,3.85,0,0,0,2-3.45c-.14-1.84-2.27-2.69-2.27-2.69s1.61-2.1.86-3.93C408,143.26,392.23,142.84,389.64,148.58Z" style="fill:#c95f50"></path><path d="M408.31,150.68c.05,0,.07-.07,0-.08a27.33,27.33,0,0,0-16.26.53c-.16.06-.13.36.06.32A55.93,55.93,0,0,1,408.31,150.68Z" style="fill:#263238"></path><path d="M408.94,157c.06,0,.07-.09,0-.11a25.57,25.57,0,0,0-17.7,1.68c-.19.1-.26.38,0,.28C395,157.2,403.88,156.41,408.94,157Z" style="fill:#263238"></path><path d="M391,166.14c5.41-2.55,11.09-3.1,17-2.83.08,0,.07-.1,0-.13-2.86-.92-6.65-.7-9.58-.27a15.74,15.74,0,0,0-7.53,3C390.86,166,390.92,166.19,391,166.14Z" style="fill:#263238"></path><path d="M392.28,151.15a18.32,18.32,0,0,0-3,1.42,6.1,6.1,0,0,0-2.27,2.18,2,2,0,0,0-.17,1.41,3,3,0,0,0,.72,1.27,3.53,3.53,0,0,0,2.73.85l2.41-.19-2.19,1a9.78,9.78,0,0,0-2.67,1.77,3.57,3.57,0,0,0-1.27,2.59,2,2,0,0,0,1.55,2,6.1,6.1,0,0,0,3-.12l2.76-.73-2.36,1.59a9.39,9.39,0,0,0-1.78,1.55,3.76,3.76,0,0,0-1,2,1.78,1.78,0,0,0,.78,1.74,3.89,3.89,0,0,0,2.21.37,32.21,32.21,0,0,0,4.87-.89c.81-.19,1.63-.38,2.46-.53a6,6,0,0,1,2.5-.06,6.37,6.37,0,0,0-2.45.29c-.81.21-1.6.46-2.4.7a26.85,26.85,0,0,1-4.93,1.18,4.67,4.67,0,0,1-2.67-.36,2.57,2.57,0,0,1-1.24-2.53,4.64,4.64,0,0,1,1.17-2.47,10,10,0,0,1,2-1.76l.4.85a7,7,0,0,1-3.6.18,2.92,2.92,0,0,1-1.65-1.1,3.33,3.33,0,0,1-.59-1.86,4.41,4.41,0,0,1,1.61-3.27,10.49,10.49,0,0,1,2.95-1.9l.21.82a4.2,4.2,0,0,1-3.32-1.22,3.65,3.65,0,0,1-.81-1.62,2.58,2.58,0,0,1,.3-1.79,6.18,6.18,0,0,1,2.59-2.18A14.52,14.52,0,0,1,392.28,151.15Z" style="fill:#263238"></path><path d="M377.14,157s12.54-19.91,17.92-11.19c1.6,2.58,5.07,15.13,2.56,15.87-3.23,1-5.66-4-6.69-7.36,0,0-3.31,7.37-9.13,6.6A5.83,5.83,0,0,1,377.14,157Z" style="fill:#c95f50"></path><path d="M394.57,145.06a12.58,12.58,0,0,1,1.79,3.1,25.85,25.85,0,0,1,1.19,3.4,40.82,40.82,0,0,1,1.43,7.07,6.94,6.94,0,0,1-.06,1.92,2.58,2.58,0,0,1-.43,1,1.75,1.75,0,0,1-.43.43,1.68,1.68,0,0,1-.54.26,3,3,0,0,1-2.09-.18,5.59,5.59,0,0,1-1.59-1.15,11,11,0,0,1-2-3.1,25.5,25.5,0,0,1-1.27-3.41l.79,0a15.17,15.17,0,0,1-1.46,2.35,12.57,12.57,0,0,1-1.85,2,9.13,9.13,0,0,1-2.3,1.48,7,7,0,0,1-2.62.63,8,8,0,0,0,2.49-.89,9.79,9.79,0,0,0,2.07-1.6,12.91,12.91,0,0,0,1.66-2,13.3,13.3,0,0,0,1.24-2.28l.41-1,.37,1a27.82,27.82,0,0,0,1.32,3.24,10.67,10.67,0,0,0,1.9,2.82,3,3,0,0,0,2.68,1.08c.79-.18.87-1.48.8-2.6a32.58,32.58,0,0,0-.43-3.49c-.19-1.17-.39-2.33-.65-3.48A23,23,0,0,0,394.57,145.06Z" style="fill:#263238"></path><path d="M334.1,188.41l5.62-23.08A135.08,135.08,0,0,0,320,153.59c-9.61-4.38-8.84,4.69-.46,16.23S334.1,188.41,334.1,188.41Z" style="fill:#90CAF9"></path><path d="M330.7,183.49c1-5,2.37-10,3.82-14.93.41-1.4.86-2.79,1.33-4.16,0,0,.08,0,.07,0-.56,2.5-1.22,5-1.86,7.47s-1.31,5-2,7.45c-.4,1.4-.8,2.79-1.23,4.18A.05.05,0,0,1,330.7,183.49Z" style="fill:#263238"></path><path d="M335.3,183.47l-1.2,4.94s-6.19-7-14.56-18.58c-6.44-8.87-8.39-16.27-4.6-17.25Z" style="fill:#263238"></path><path d="M272.52,210.69c.1.16,50.72,7.49,51.3,7,.82-.64,3.28-49.67-3.16-62.67-1.61-3.25-8.67-5.2-12.56-3.26C288.81,161.39,272.18,210.12,272.52,210.69Z" style="fill:#90CAF9"></path><path d="M315.78,151.64l-4.39-.6A13.16,13.16,0,0,1,315.78,151.64Zm4.88,3.42a2.33,2.33,0,0,0-.2-.34l-14.1-1.94-.44.28,14.75,2Zm1,2.6-18.52-2.54a2.34,2.34,0,0,0-.35.29l19,2.61Zm.78,2.88-21.92-3-.29.29,22.29,3.07C322.53,160.77,322.5,160.66,322.47,160.54Zm.58,2.85L298.27,160l-.26.3,25.1,3.46Zm.45,2.84-27.27-3.75a3.76,3.76,0,0,0-.25.31l27.57,3.79C323.53,166.46,323.52,166.34,323.5,166.23Zm.36,2.82L294.34,165l-.23.31,29.78,4.1Zm.28,2.81-31.56-4.34-.21.31,31.8,4.38Zm.23,2.81-33.44-4.6-.2.31L324.4,175Zm.19,2.8-35.2-4.84a3.21,3.21,0,0,1-.19.31l35.41,4.87C324.57,177.69,324.56,177.58,324.56,177.47Zm.14,2.79-36.82-5.07c-.07.11-.13.22-.19.33l37,5.09C324.71,180.49,324.7,180.38,324.7,180.26Zm.11,2.78-38.36-5.27-.18.32,38.55,5.3C324.82,183.28,324.81,183.16,324.81,183Zm.08,2.79-39.81-5.48-.16.33,40,5.49C324.89,186.05,324.89,185.94,324.89,185.83Zm0,2.78L283.77,183l-.16.32L324.94,189C324.94,188.84,324.94,188.72,324.93,188.61Zm-42.43-3.06-.15.32L325,191.73a1.93,1.93,0,0,0,0-.34Zm-1.22,2.6-.15.32,43.83,6c0-.11,0-.23,0-.34Zm-1.19,2.61-.14.33,45,6.19v-.35Zm-1.15,2.62a3.09,3.09,0,0,1-.14.32L324.9,200c0-.11,0-.23,0-.34Zm-1.1,2.62-.14.32,47.14,6.48c0-.11,0-.23,0-.34Zm-1.07,2.63c0,.11-.09.22-.13.32l48.11,6.61c0-.11,0-.22,0-.33Zm-1,2.63-.12.32,49,6.74c0-.11,0-.22,0-.33Zm-1,2.63a1.75,1.75,0,0,1-.12.32l49.89,6.87c0-.11,0-.23,0-.34Zm-1,2.64c0,.11-.07.22-.11.33l50.65,7c0-.11,0-.22,0-.34Zm-.88,2.66c0,.12-.07.23-.1.33l51.26,7c0-.11,0-.22,0-.34Z" style="fill:#263238"></path><path d="M307.83,159c-4.25,22.2-17.28,42.57-20.66,45.46-8.17,7-20.59,17.66-27.77,21.58-2.66,1.45-13.84-19.13-11-20.77,8.74-5.13,27.06-17.83,27.36-18.08,2.12-1.77,10-12.37,18.68-23.56S309.62,149.63,307.83,159Z" style="fill:#c95f50"></path><path d="M278.78,179.53l23.74.93a135.59,135.59,0,0,0,7.59-21.67c2.39-10.29-6.34-7.73-16,2.77S278.78,179.53,278.78,179.53Z" style="fill:#90CAF9"></path><path d="M282.93,175.22c5.13,0,10.27.33,15.4.78,1.45.13,2.89.29,4.34.48,0,0,0,.07,0,.07-2.57-.05-5.13-.2-7.69-.34s-5.14-.3-7.71-.51c-1.45-.12-2.9-.24-4.34-.39A0,0,0,1,1,282.93,175.22Z" style="fill:#263238"></path><path d="M307.91,169.58c0-.08,0-.13-.07-.05-.57,1-1.11,2-1.63,3,.77-2.19,1.46-4.39,2.11-6.62a.09.09,0,0,0-.16-.06c-1.07,2.62-2.14,5.24-3.12,7.89-.48,1.31-2.42,6.6-2.53,6.7s-1,0-1.35,0c-.1,0-.11.15,0,.15.38,0,1.46.2,1.67.14A47.7,47.7,0,0,0,305.3,175c.18-.47.35-.94.52-1.41h0C306.58,172.26,307.24,170.93,307.91,169.58Z" style="fill:#263238"></path><path d="M223.89,233.8a1.24,1.24,0,0,0,1.18.2c-.4,2.08-.21,3.85,1.26,4.46a2.37,2.37,0,0,0,2.55-.68,1.8,1.8,0,0,0,1.34,2.06c1.72.42,4.32-2.63,6.56-5.93-1.18,2.51-1.73,4.78-.2,5.21,4,1.16,8.29-6.78,11.91-11.74a19.78,19.78,0,0,1,3.89-4.18,4.49,4.49,0,0,1,.74-.44,1.56,1.56,0,0,1,1.82,0c.85.76-.29,3.13-1.49,4.4-2.31,2.41-3.09,7.49-1.6,8.94,2.19,2.15,6.74-4.08,8.86-5.86,2.84-2.37,5.6-8.65,5.9-9,0,0-.64-1.17-2.35-3.88-3.25-5.18-8.65-12.87-12.42-13.88A89.68,89.68,0,0,0,230.18,215C226.88,217.49,220.33,231.5,223.89,233.8Z" style="fill:#c95f50"></path><path d="M244.73,221.9a15,15,0,0,0-4.91,5c-1.75,2.73-2.11,4.53-3.33,7.38,0,.08.09.13.12.06.58-1.36,2.71-5.78,3.42-7a14.63,14.63,0,0,1,4.73-5.33S244.75,221.88,244.73,221.9Z" style="fill:#263238"></path><path d="M240.46,218.44a33.54,33.54,0,0,0-5.56,5.42c-2,2.48-3.08,5.56-4.16,8.53-.64,1.79-1.25,3.59-1.81,5.41,0,.08.08.13.11,0q1.62-4.59,3.5-9.07a22.72,22.72,0,0,1,5-7.42c1.22-1.21,1.69-1.77,3-2.88C240.51,218.46,240.48,218.42,240.46,218.44Z" style="fill:#263238"></path><path d="M236.45,215.32c-2.26,1.61-4.3,3-5.91,5.31a34.05,34.05,0,0,0-3.84,8.28c-.57,1.66-1.09,3.33-1.58,5,0,.07.1.11.12,0A92,92,0,0,1,229.48,223a14.41,14.41,0,0,1,2.79-4.12,31.18,31.18,0,0,1,4.19-3.58S236.46,215.32,236.45,215.32Z" style="fill:#263238"></path><path d="M317.37,161.09c-2.26.17-7.09-3.9-9-7.41a59,59,0,0,1,.51-5.89c.16-1.89.3-4,.29-5.93l12.13,2.86a31,31,0,0,0-1.12,7.43,3.35,3.35,0,0,0,.09.79s0,.08,0,.13C320.5,154.58,320.91,160.82,317.37,161.09Z" style="fill:#c95f50"></path><path d="M321.26,144.73a33.5,33.5,0,0,0-1.1,6.4c-4,1.49-8.59.35-11.58-.77.09-.78.18-1.65.25-2.58.17-1.88.31-4,.3-5.92Z" style="fill:#263238"></path><path d="M321.37,126.42c2,4,1.88,16.62-.67,19.87-3.68,4.7-10.77,6.3-15,1.63s-3.65-21-.71-24C309.29,119.4,318.39,120.49,321.37,126.42Z" style="fill:#c95f50"></path><path d="M311.3,135.16s.07,0,.06.08c0,.85.06,1.83.82,2.12,0,0,0,.06,0,0C311.24,137.26,311.12,136,311.3,135.16Z" style="fill:#263238"></path><path d="M312.08,134.29c1.36-.08,1.42,2.66.15,2.74S310.93,134.36,312.08,134.29Z" style="fill:#263238"></path><path d="M306.27,135.09s-.06,0-.06.08c0,.85,0,1.83-.81,2.12,0,0,0,.06,0,.05C306.34,137.19,306.45,135.89,306.27,135.09Z" style="fill:#263238"></path><path d="M305.5,134.22c-1.37-.08-1.42,2.67-.16,2.74S306.64,134.28,305.5,134.22Z" style="fill:#263238"></path><path d="M313.13,133a8.35,8.35,0,0,1-1.07-.35,1.8,1.8,0,0,1-1-.57.58.58,0,0,1,.08-.7,1.45,1.45,0,0,1,1.45-.18,2.14,2.14,0,0,1,1.23.89A.62.62,0,0,1,313.13,133Z" style="fill:#263238"></path><path d="M304.52,133.17c.38-.07.72-.2,1.08-.3a1.86,1.86,0,0,0,1-.53.56.56,0,0,0,0-.7,1.42,1.42,0,0,0-1.43-.24,2.1,2.1,0,0,0-1.28.83A.62.62,0,0,0,304.52,133.17Z" style="fill:#263238"></path><path d="M312.25,143c-.2.21-.4.48-.71.52a2.31,2.31,0,0,1-.92-.2s-.05,0,0,0a1.12,1.12,0,0,0,1.09.44.9.9,0,0,0,.65-.76A0,0,0,0,0,312.25,143Z" style="fill:#263238"></path><path d="M311.3,140.51a2.9,2.9,0,0,1-1.9,1.32,3.3,3.3,0,0,1-1,.07.65.65,0,0,1-.2,0l-.19,0c-.1,0-.15-.09-.17-.19h0v-.09h0v-.07c0-.66,0-1.65,0-1.65-.24.12-1.45.7-1.44.35a44,44,0,0,1,.95-8.77c0-.1.16-.08.15,0,0,2.73-.47,5.44-.52,8.18a5,5,0,0,1,1.36-.44c.09,0-.12,1.92-.08,2.21a.08.08,0,0,0,0,0,4,4,0,0,0,3-1C311.28,140.38,311.35,140.44,311.3,140.51Z" style="fill:#263238"></path><path d="M308.74,141.56a3.42,3.42,0,0,0,1.39,1,1.58,1.58,0,0,0,.94,0c.68-.19.68-.82.55-1.35a3.64,3.64,0,0,0-.33-.81A4.42,4.42,0,0,1,308.74,141.56Z" style="fill:#263238"></path><path d="M310.13,142.6a1.58,1.58,0,0,0,.94,0c.68-.19.68-.82.55-1.35A1.6,1.6,0,0,0,310.13,142.6Z" style="fill:#ff9bbc"></path><path d="M322.45,135.81s2.28-8,.82-11.79c-.65-1.74-3.41-2.28-3.41-2.28a4.16,4.16,0,0,0-2.37-3.7c-2.65-1.42-7.64.42-7.64.42s-4.61-3.89-8.78-.72.33,7.65.33,7.65-1.06,2.91,3.66,3.67,12.45-3.35,12.45-3.35a30.2,30.2,0,0,0,2.48,8.62A2.75,2.75,0,0,0,322.45,135.81Z" style="fill:#263238"></path><path d="M309.06,118.74a8.48,8.48,0,0,1,3.13-1.5,9.27,9.27,0,0,1,3.1-.34,5.12,5.12,0,0,1,4.47,2.75,3.6,3.6,0,0,1,.05,2.77,0,0,0,0,1-.06,0c.72-1.64-.42-3.57-1.84-4.39a7.68,7.68,0,0,0-5.44-.48,14.82,14.82,0,0,0-3.35,1.3A.05.05,0,0,1,309.06,118.74Z" style="fill:#263238"></path><path d="M298.34,120.91a4.15,4.15,0,0,1,2.08-3.31,7.09,7.09,0,0,1,4.47-1,9,9,0,0,1,4.36,1.7s0,.07,0,0a7.85,7.85,0,0,0-8-.72,4.31,4.31,0,0,0-2.44,2.86,4.24,4.24,0,0,0,1.05,3.45,8,8,0,0,0,3.83,2.2s0,.06,0,0a8.22,8.22,0,0,1-3.7-1.74A4.66,4.66,0,0,1,298.34,120.91Z" style="fill:#263238"></path><path d="M304.1,129.56a14.65,14.65,0,0,0,6.17-.58,30.15,30.15,0,0,0,6-2.53c1.11-.61,2.19-1.26,3.26-1.93,0,0,.06,0,0,.06a32.57,32.57,0,0,1-5.81,3.68,16.38,16.38,0,0,1-6.13,1.6,13.24,13.24,0,0,1-3.5-.26S304.08,129.56,304.1,129.56Z" style="fill:#263238"></path><path d="M320.46,136.83s2.18-4.38,4.13-3.67.73,6.79-1.26,7.89a2.17,2.17,0,0,1-3.06-.72Z" style="fill:#c95f50"></path><path d="M324.2,134.89a0,0,0,0,1,0,.06,5.5,5.5,0,0,0-2.3,3.82,1.21,1.21,0,0,1,1.73-.59s0,.09,0,.09a1.34,1.34,0,0,0-1.39.68,6.86,6.86,0,0,0-.52,1.28c0,.14-.29.11-.27,0v0C321.13,138.26,322.2,135.39,324.2,134.89Z" style="fill:#263238"></path></g><g id="freepik--Hearts--inject-14"><path d="M239.1,178.38c.92,5.17,5.46,9.4,5.46,9.4s6.1-1.12,9.66-5c3-3.22,3-7.63.28-9.38-3.84-2.51-7.06,4.52-7.06,4.52s1.06-7.66-3.53-7.62C240.71,170.35,238.34,174.07,239.1,178.38Z" style="fill:#90CAF9"></path><path d="M221.54,165.41c3.19,2.17,7.75,2,7.75,2s2.55-3.8,2.34-7.65c-.17-3.21-2.49-5.49-4.79-5-3.3.74-1.25,6.05-1.25,6.05s-3.49-4.5-5.83-2.06C218.13,160.44,218.88,163.6,221.54,165.41Z" style="fill:#90CAF9"></path><path d="M235.83,144.63a9.65,9.65,0,0,0,4.08,3.37,9.59,9.59,0,0,0,3.57-3.9c.82-2,.08-4-1.44-4.33-2.18-.5-2.47,3.25-2.47,3.25s-.81-3.68-2.9-2.88C235.22,140.69,234.76,142.79,235.83,144.63Z" style="fill:#90CAF9"></path></g></svg>