<svg xmlns="http://www.w3.org/2000/svg" viewBox="0 0 500 500"><g id="freepik--Character--inject-15"><path d="M288.57,341.78s-21,82.34-29.26,114.89h-84.4c9.48-33.36,32.33-114.89,32.33-114.89Z" style="fill:#37474f"></path><path d="M323.06,424.12s1.88,18.91,3.18,32.55H245.72c-.49-11.75-1.14-26.69-1.17-26.7l-.09-.05-3.53-1.77-12.7-6.31-.52-.26-6.46-3.21c0-.05-.13-.6-.31-1.58-.45-2.35-1.36-7.19-2.51-13.3-1.41-7.58-3.18-17.12-4.89-26.42-3.22-17.4-6.22-33.93-6.29-35,0-.14,0-.24,0-.29v0l108.92,0S334.74,388.51,323.06,424.12Z" style="fill:#37474f"></path><path d="M254.93,434.3c-3.71-2.57-7.72-4.74-11.65-7s-8.11-4.45-12.3-6.4c-8.18-3.81-16.81-6.56-25.42-9.23-.22-.07-.36.29-.15.38,8.29,3.56,16.32,7.64,24.57,11.3,4.15,1.84,8.33,3.6,12.48,5.43s8.2,3.9,12.38,5.64A.09.09,0,0,0,254.93,434.3Z" style="fill:#263238"></path><path d="M232.26,393.73c-.11-4.06-.39-8.12-.6-12.18-.47-9.59-.84-19.23-1.73-28.78a.3.3,0,0,0-.6,0c-.12,7.42.17,14.85.32,22.27.07,3.71.18,7.42.28,11.13a104.7,104.7,0,0,1,.08,10.63c-.2,2.67-.79,7.87-4.28,8.19-3.28.3-5.09-3.24-5.91-5.84-2.08-6.6-2.82-13.74-3.5-20.6-.4-4.06-1.67-20.61-1.45-24.72,0-.27-.39-.26-.41,0-.22,4.18-.46,21-.19,25.19.26,4,.6,8,1.2,12a42.78,42.78,0,0,0,2.58,10.6c1.21,2.81,2.65,5.31,5.81,5.92a6,6,0,0,0,1.17.12c0,.86.15,1.73.21,2.58.1,1.34.27,2.68.45,4a28.61,28.61,0,0,0,.82,3.89,14.37,14.37,0,0,0,1.36,3.71.21.21,0,0,0,.38-.11,18.24,18.24,0,0,0-.32-3.83c-.18-1.31-.36-2.63-.63-3.92s-.5-2.54-.76-3.81c-.17-.85-.29-1.73-.45-2.59a6.24,6.24,0,0,0,4.65-3.66C232.22,400.82,232.34,397.13,232.26,393.73Z" style="fill:#263238"></path><path d="M317.67,388.42c-5.82.4-11.56,1.15-17.39.46a30.3,30.3,0,0,1-15.15-5.94c-9.59-7.44-13.79-19.61-16.39-31a.21.21,0,0,0-.41.06c1.09,9.91,3.22,20.14,9.62,28.12a30.7,30.7,0,0,0,10.2,8.4,29.91,29.91,0,0,0,13.48,2.78,65.24,65.24,0,0,0,16.14-2.18A.34.34,0,0,0,317.67,388.42Z" style="fill:#263238"></path><path d="M246.7,456.67h-1.45c-.24-3.92-.44-7.85-.57-11.78-.08-2.61-.1-5.21-.13-7.81,0-2.39-.13-4.79-.09-7.16v-.2c0-.17,0-.32,0-.47a.13.13,0,0,1,.26,0c0,.21.05.43.07.64.33,2.74.49,5.52.73,8.27.46,5.25.76,10.49,1,15.76C246.61,454.83,246.65,455.75,246.7,456.67Z" style="fill:#263238"></path><path d="M225.06,133.65s18.23-8.2,32.92,2.71,20.11,35.27,15.82,55,10.86,34.2,11.4,49.15-9.75,21-13.65,28.5c-4.47,8.58,7.89,41.41-30.79,45.6-48.37,5.24-64.18-25.55-57.33-49.36,3.36-11.67,10.73-19.54,11.4-29.15s-5.49-17.81-1-29.69,9.09-9.83,12.6-28.78S207.94,135.51,225.06,133.65Z" style="fill:#263238"></path><path d="M254.73,135.63A59.19,59.19,0,0,1,275,164.57a55.14,55.14,0,0,1,2.61,17.67c-.16,7.83-1.95,15,.33,22.81,3.64,12.49,12.09,23.35,10.54,36.79A33.47,33.47,0,0,1,281.31,259c-4.62,5.75-10.87,10.07-14.85,16.31-.17.26-.57,0-.41-.27,3.34-5.56,8.36-9.6,12.67-14.47a34.05,34.05,0,0,0,8.78-20.61c.69-12.85-7.65-23.45-11-35.48-1.5-5.45-1.2-10.58-.57-16.1a58.27,58.27,0,0,0-.88-19.48c-2.87-12.76-10.28-24.18-20.5-33.08C254.49,135.7,254.63,135.56,254.73,135.63Z" style="fill:#263238"></path><path d="M262.77,282.81a0,0,0,0,1,0,.09A0,0,0,0,1,262.77,282.81Z" style="fill:#263238"></path><path d="M183.89,261.81c1.67-5.63,5.09-10.58,6.76-16.18,2-6.76.83-13.75.08-20.6-1.08-9.79-.12-18.86,4.88-27.58,3.23-5.63,7-10.84,9.58-16.84a72.31,72.31,0,0,0,5.34-20.39c0-.15.26-.13.25,0a66.16,66.16,0,0,1-8.81,29c-3,5.2-6.69,10-8.66,15.74-2.37,6.88-2.23,13.72-1.59,20.86.43,4.76,1,9.6.6,14.38-.45,5-2.38,9.25-4.52,13.75A49.47,49.47,0,0,0,185,290.3c.07.22-.31.34-.39.12A47.07,47.07,0,0,1,183.89,261.81Z" style="fill:#263238"></path><path d="M286.62,238.88c.44-10.58-6.32-18.36-10-27.87-2.8-7.2-4.48-14.76-2.74-22.29,0-.12.25-.07.23.05-1.48,11,2.33,21.36,7.67,31.09,3.55,6.47,6.42,12.65,5.85,20-.56,7.24-4,13.1-8.57,18.75-3.29,4-6.51,7.76-8.17,12.71s-1.81,10.21-2,15.32c0,.27-.44.23-.45,0,0-8,.47-15.63,5.05-22.52C279.09,255.65,286.16,249.64,286.62,238.88Z" style="fill:#263238"></path><path d="M182.68,254.17a64.76,64.76,0,0,1,6.91-9.72c4.52-5.6,5.59-10.36,4.83-17.52a.14.14,0,0,1,.27,0c1.46,6,1.52,10.82-2.36,15.88-5.42,7.07-10.68,13.47-12.4,22.3-3.06,15.66,4.65,31.13,18.47,40.32.19.13,0,.41-.22.29-11.65-7-19.27-18.51-20-31.42A37.83,37.83,0,0,1,182.68,254.17Z" style="fill:#263238"></path><path d="M224.3,227.56c-40.69,36.67-78.4,76.82-81.36,97.32-4.08,28.38,13.37,36.25,21.19,36.33,21.29.2,60-86.09,73.44-119C250.64,210.19,233.23,219.51,224.3,227.56Z" style="fill:#90CAF9"></path><g style="opacity:0.1"><path d="M224.3,227.56c-40.69,36.67-78.4,76.82-81.36,97.32-4.08,28.38,13.37,36.25,21.19,36.33,21.29.2,60-86.09,73.44-119C250.64,210.19,233.23,219.51,224.3,227.56Z"></path></g><path d="M224,305.81a117.68,117.68,0,0,1,17.09,3c2.78.74,5.51,1.6,8.24,2.53,1.35.46,2.72.87,4.09,1.28a18.45,18.45,0,0,0,4.4.87.1.1,0,1,1,0,.2,31.76,31.76,0,0,1-4.25-.11,31,31,0,0,1-4-.8c-2.83-.72-5.62-1.58-8.44-2.33-5.69-1.51-11.38-3-17.16-4.13A.24.24,0,0,1,224,305.81Z" style="fill:#263238"></path><path d="M209.72,310.79a126.44,126.44,0,0,1,14.3-.56c2.4,0,4.76.23,7.14.49,1.13.12,2.27.26,3.4.41s2.46.51,3.71.66c.13,0,.13.22,0,.2-1.18-.1-2.38,0-3.56-.05l-3.57-.13c-2.38-.08-4.76-.13-7.14-.23-4.76-.21-9.51-.36-14.28-.4C209.45,311.18,209.48,310.81,209.72,310.79Z" style="fill:#263238"></path><path d="M209.79,311.12,205,345.41l112,.06S301.73,255,271.85,223.82c-14.94-15.59-32.09-14.06-42.82-2.74C226.32,224,200.12,261,197,277.77,194.23,292.56,209.79,311.12,209.79,311.12Z" style="fill:#f7a9a0"></path><path d="M205,345.42l4.75-34.29S194.23,292.55,197,277.77c1.2-6.43,5.8-15.85,11.14-25.15,5.14,2.44,13.77,7.95,23.43,20.1,0,0,12.65-16.68,25.29-18.14s28.73,18.14,28.73,18.14,7.68,2.29,14,4.27C311.17,310.8,317,345.46,317,345.46Z" style="fill:#ebebeb"></path><path d="M255.44,213.05s-5,66.54-5,76.17,12.5,99.93,12.5,99.93l73.82-2.62s-37.95-118.66-50.37-142.77C272.59,217,255.44,213.05,255.44,213.05Z" style="fill:#90CAF9"></path><path d="M255.44,213.05s-5,66.54-5,76.17,12.5,99.93,12.5,99.93l73.82-2.62s-37.95-118.66-50.37-142.77C272.59,217,255.44,213.05,255.44,213.05Z" style="opacity:0.1"></path><path d="M256.81,343.73s-5.89-43.84-6.37-52.9,5-77.78,5-77.78l8.84,37.37-9.59,11.23,9.23,14.14Z" style="fill:#90CAF9"></path><path d="M230.65,218.57c.61-.51-15.17,45.88-15.83,66.18s.09,103,.09,103L194.8,382l13.95-70.45s-14.28-16.94-12.69-32.64S226.69,221.83,230.65,218.57Z" style="fill:#90CAF9"></path><path d="M230.65,218.57c.61-.51-15.17,45.88-15.83,66.18s.09,103,.09,103L194.8,382l13.95-70.45s-14.28-16.94-12.69-32.64S226.69,221.83,230.65,218.57Z" style="opacity:0.1"></path><path d="M204.57,305.83A46.91,46.91,0,0,1,197.5,289a29.91,29.91,0,0,1-.48-10.87,47.35,47.35,0,0,1,3.13-9.61c2.87-7.05,6.19-13.88,9.66-20.66a.08.08,0,0,0-.14-.08,145.56,145.56,0,0,0-7.29,13.32c.7-2.45,1.54-4.86,2.44-7.25,0-.07-.09-.12-.12-.05a48.6,48.6,0,0,0-3.13,9c-.49,1-1,2.08-1.46,3.12-2.73,6-5.42,12-4.81,18.76a48.72,48.72,0,0,0,5.36,17.86c1.43,2.67,6.89,9.25,6.89,9.25-.35,1.74-4.06,23.51-5.36,31.6,0,.22.28.3.33.09,1.59-6.93,3.22-13.85,4.6-20.83.34-1.75,2-9.85,1.85-11.41C208.94,310.91,205.47,307.17,204.57,305.83Z" style="fill:#263238"></path><path d="M214.62,345.08s-.92-47.89,1.33-65.3c3.63-28,14.7-61.21,14.7-61.21L211,250.72l4.47,8.46-9.84,12.57Z" style="fill:#90CAF9"></path><path d="M277.67,224.71c38.95,29.13,79.8,78.89,80.77,107.9.95,28.66-15.19,26-17.91,25.19C311.76,349.24,276.21,270.17,263,238,249.94,206,268,217.5,277.67,224.71Z" style="fill:#90CAF9"></path><g style="opacity:0.1"><path d="M277.67,224.71c38.95,29.13,79.8,78.89,80.77,107.9.95,28.66-15.19,26-17.91,25.19C311.76,349.24,276.21,270.17,263,238,249.94,206,268,217.5,277.67,224.71Z"></path></g><path d="M319.16,341.21c-2.82-3.19-5.4-6.57-8-10-1.26-1.71-2.51-3.43-3.72-5.17s-2.44-3.49-3.62-5.26c-4.75-7.07-9.14-14.36-13.34-21.77-1-1.85-2-3.75-3-5.62s-2-3.76-2.94-5.67l-2.86-5.7c-.93-1.91-1.81-3.85-2.7-5.78-1.82-3.85-3.43-7.79-5.12-11.69-.84-1.95-1.55-3.95-2.33-5.93s-1.52-4-2.26-6c3.51,7.74,7,15.49,10.75,23.08s7.67,15.14,11.79,22.54,8.47,14.7,13,21.87c1.12,1.8,2.26,3.59,3.44,5.35s2.35,3.53,3.54,5.29Q315.33,336.11,319.16,341.21Z" style="fill:#263238"></path><path d="M269.34,258.61a39.73,39.73,0,0,1,3.32,4.41c1,1.53,2,3.05,2.95,4.65a10.69,10.69,0,0,1-2.09-1.88,21.18,21.18,0,0,1-1.69-2.21,25.11,25.11,0,0,1-1.41-2.4A16.21,16.21,0,0,1,269.34,258.61Z" style="fill:#263238"></path><path d="M166.1,360.2c13.27-1.94,20.79-26.61,35.54-65.88,2.58-6.89-31.7-46.36-36.36-40-5.86,8-21.4,52.33-22.95,64.39C139.28,342.45,150.6,362.47,166.1,360.2Z" style="fill:#f7a9a0"></path><path d="M153.74,280.68l42,36.69s-15.3,45.62-33.23,43.2-23.23-21.72-20.19-41.87A156.92,156.92,0,0,1,153.74,280.68Z" style="fill:#90CAF9"></path><path d="M153.74,280.68l42,36.69s-15.3,45.62-33.23,43.2-23.23-21.72-20.19-41.87A156.92,156.92,0,0,1,153.74,280.68Z" style="opacity:0.1"></path><path d="M182.14,346.14c1-2.46,2.16-4.87,3.29-7.27s2.31-4.78,3.48-7.16l3.49-7.14c.55-1.2,1.16-2.38,1.67-3.59a29.6,29.6,0,0,0,1.42-3.65l.09.25c-.71-.71-1.4-1.44-2.09-2.18.83.58,1.64,1.17,2.44,1.77l.12.09,0,.16a34.41,34.41,0,0,1-2.42,7.69c-1,2.47-2.17,4.88-3.37,7.26s-2.48,4.71-3.82,7S183.67,344,182.14,346.14Z" style="fill:#263238"></path><path d="M187,326.14C181.09,320,164.47,304,152.26,295c-.07-.05-.31.21-.25.27,9,9.05,28.2,25.74,34.67,31.29C186.8,326.64,187.15,326.26,187,326.14Z" style="fill:#263238"></path><path d="M154.46,282.78c1.86-13.48,5.67-32.28,10.49-36.22,5.05-4.13,23.41-17.95,28.71-19.79s28.94-10.83,33.28-8.32c3.48,2-.64,11.15-11.88,15.54-9.89,3.85-15,7.44-17.81,8.66s-9.81,10.58-7.92,14.72c1.12,2.43,8.2,5.29,12.61,3.29s5.49-10.71,10.52-14.82,13.91-3.62,14.43-1.22-2.42,3.52-7,11.67c-2.92,5.24-3.12,17.81-9.74,26.83-3.33,4.53-9.13,16.58-9.13,16.58Z" style="fill:#f7a9a0"></path><path d="M217.16,242.12a8.73,8.73,0,0,0,4.4-2,3.62,3.62,0,0,0,1-1.8,3.57,3.57,0,0,0,0-1.13,1.63,1.63,0,0,0-.43-1.07c-.09-.07.05-.17.09-.08a4.17,4.17,0,0,0,.41.53,3,3,0,0,1,.25.51,2.78,2.78,0,0,1,.19,1.1,3.65,3.65,0,0,1-.88,2.24,6,6,0,0,1-5.05,1.82C217.09,242.25,217.09,242.14,217.16,242.12Z" style="fill:#263238"></path><path d="M165,246.56c4.28-6.73,15.23-18.86,26.09-23,7.34-2.82,32.6,9.46,31.87,14.29s-5,4.85-11.44,4.09c-2.32-.28-14.64-4.69-16.73-2.1-3,3.71-6.84,16.4-6.84,16.4Z" style="fill:#f7a9a0"></path><path d="M222.28,235.93c-3.12-5.16-10-7.91-16.81-10.09-.1,0-.16.13-.06.16,1.74.56,12.86,5.67,16.8,10C222.25,236.06,222.31,236,222.28,235.93Z" style="fill:#263238"></path><path d="M165,246.56c4.28-6.73,15.23-18.86,26.09-23,7.34-2.82,27.33,12.9,26.6,17.73s-6.94,5.22-13.79,2.84c-2.21-.77-9.64-6-11.74-3.41-3,3.71-10.35,12.93-10.35,12.93Z" style="fill:#f7a9a0"></path><path d="M186,247.91c.69-1.06.92-1.43,1.63-2.48s1.42-2.08,2.2-3.07a9.53,9.53,0,0,1,2.26-2.39,4.84,4.84,0,0,1,3-.6c2.38.22,4.53,1.73,6.54,2.88,2.25,1.29,6.92,3.38,10.5,3a6.94,6.94,0,0,0,2.82-.77,4.39,4.39,0,0,0,1.69-1.35c1.54-2.63-.4-5.63-2.38-7.75-3.69-4-8.65-6.83-13.47-9.18-1.18-.58-2.38-1.13-3.58-1.68a10.55,10.55,0,0,0-4.33-1.24c-2.49,0-6.55,2.51-7.82,3.28-.09.05-.16-.1-.07-.16,1.53-1,5.31-4.05,9.31-3.85a12.31,12.31,0,0,1,4.17,1.4c1.4.6,2.78,1.25,4.14,1.93a56.33,56.33,0,0,1,7.64,4.51,23.57,23.57,0,0,1,6.25,5.9,7,7,0,0,1,.44,7.14c-1.09,1.83-3.43,2.27-4.5,2.41a12.38,12.38,0,0,1-3.16,0,51.24,51.24,0,0,1-6.87-2c-2.17-.87-4.13-2.33-6.37-3a4.19,4.19,0,0,0-3.24.22,11,11,0,0,0-2.42,2.21,33.67,33.67,0,0,0-4,4.8C186,248.51,185.7,248.36,186,247.91Z" style="fill:#263238"></path><path d="M161.77,252.43c1.57-3.2,4.22-16.39,6.76-20.43s14.16-18.05,19.59-17.44c6.82.75-.28,13.05-3.85,18.11s-3,13.67-3,13.67Z" style="fill:#f7a9a0"></path><path d="M189.24,224.28c-1.26,1.6-2.39,3.38-3.49,5.1a41.45,41.45,0,0,0-3.05,5,17.8,17.8,0,0,0-1.32,5.62c-.09.95-.12,1.89-.13,2.85s.09,2.09.07,3.12c0,.11.17.13.17,0a43.18,43.18,0,0,1,.74-5.66,24.07,24.07,0,0,1,1.7-5.63c1.59-3.57,3.93-6.76,5.55-10.32C189.54,224.26,189.33,224.16,189.24,224.28Z" style="fill:#263238"></path><path d="M181.4,247.79a16.25,16.25,0,0,0,1,4.67,34.62,34.62,0,0,0,1.84,4.4,45.73,45.73,0,0,0,2.32,4.17,46.71,46.71,0,0,0,2.78,3.88,30.68,30.68,0,0,1,4.83,8.45,27.66,27.66,0,0,1,1.57,9.55,34.06,34.06,0,0,0-2.26-9.28,35.39,35.39,0,0,0-4.93-8.12,42.2,42.2,0,0,1-2.81-4,36.28,36.28,0,0,1-2.23-4.34C182.3,254.22,181.16,251,181.4,247.79Z" style="fill:#263238"></path><path d="M232.5,236.28l19.38,55.5c.75,1.61,0,3-1.6,3.18L221,297.58a4.76,4.76,0,0,1-4.34-2.65l-19.37-55.5c-.76-1.61,0-3,1.59-3.18l29.3-2.62A4.76,4.76,0,0,1,232.5,236.28Z" style="fill:#37474f"></path><path d="M229,236.56l19.38,55.5c.75,1.61,0,3-1.6,3.18l-29.29,2.62a4.76,4.76,0,0,1-4.34-2.65l-19.37-55.5c-.76-1.61,0-3,1.59-3.18l29.3-2.62A4.75,4.75,0,0,1,229,236.56Z" style="fill:#455a64"></path><path d="M221.22,239.88a2.5,2.5,0,1,0,2.21-2.76A2.49,2.49,0,0,0,221.22,239.88Z" style="fill:#263238"></path><path d="M346.77,358.24c-12.77,2.06-29-7.51-71.1-36.76-5.83-4.05,11.66-52.87,18.11-48.87,8.12,5,38.54,26.36,40.57,28.2C351.45,316.33,355.43,356.84,346.77,358.24Z" style="fill:#f7a9a0"></path><path d="M308.92,286.89s-12.19-16.27-21.24-22.83c-12.11-8.79-26.19-11.4-32.16-12.13-12.45-1.53-43.63,3.37-43.78,12.59-.14,8.35,31.47,1.73,31.47,1.73s-33.34,1.44-31.66,11.52,37.94.31,37.94.31-34.23,2.24-30.85,12.37c2.55,7.65,35.89.65,35.89.65s-29.41,2.13-27.12,10.11c2.53,8.82,33.71,4.29,33.71,4.29,9.22,19.31,21.52,24.73,30.72,27.55C294.07,333.73,308.92,286.89,308.92,286.89Z" style="fill:#f7a9a0"></path><path d="M254.71,265c-3.92,0-7.89,0-11.8.4s-7.8.89-11.66,1.62c-9.45,1.81-15.09,4.42-14.72,4.3,8.65-2.92,22.61-4.48,26.52-4.85s7.78-.95,11.68-1.32C254.83,265.16,254.8,265,254.71,265Z" style="fill:#263238"></path><path d="M256.32,279.1c-5,.25-10,.32-15,.79s-9.65,1.35-14.58,2.16c-.38.06-.22.25.16.2,5-.61,9.59-.8,14.55-1.35s9.91-1.31,14.87-1.68C256.42,279.21,256.4,279.1,256.32,279.1Z" style="fill:#263238"></path><path d="M259.88,290.94c-7.67,0-15.34,1.4-22.82,3-.38.08-.15.29.24.23,7.57-1.12,13.5-2.06,22.58-2.92C260,291.19,260,290.94,259.88,290.94Z" style="fill:#263238"></path><path d="M238.36,252.62s9.44-2.07,17.16-.69" style="fill:#263238"></path><path d="M308.86,282.5l5.4,74.53s28.22,4.72,33.94.54,4.58-39.05-11.63-55.09A123.84,123.84,0,0,0,308.86,282.5Z" style="fill:#90CAF9"></path><path d="M308.86,282.5l5.4,74.53s28.22,4.72,33.94.54,4.58-39.05-11.63-55.09A123.84,123.84,0,0,0,308.86,282.5Z" style="opacity:0.1"></path><path d="M325.92,351.28c-.38-10.27-2.08-38.12-5.2-56.11,0-.11-.37-.08-.37,0,.69,15.37,3.91,45.9,5,56.12C325.41,351.51,325.93,351.47,325.92,351.28Z" style="fill:#263238"></path><path d="M308.86,282.5A129.36,129.36,0,0,1,324.58,292a89.14,89.14,0,0,1,14.1,11.87l1.55,1.73c.52.58,1,1.21,1.48,1.82a34.61,34.61,0,0,1,2.52,3.94,47.77,47.77,0,0,1,3.66,8.52A73.21,73.21,0,0,1,351.11,338a103.63,103.63,0,0,0-4.44-17.69c-2.08-5.67-4.85-11.1-9.05-15.44a81.06,81.06,0,0,0-6.54-6.3c-1.13-1-2.33-2-3.48-2.94s-2.38-1.9-3.61-2.81Q316.69,287.31,308.86,282.5Z" style="fill:#263238"></path><path d="M313.51,346.63c.38,1.71.65,3.43.89,5.16.11.86.24,1.72.32,2.59s.2,1.73.26,2.59l-.61-.66c4.86.68,9.67,1.48,14.5,2.54a46.86,46.86,0,0,1-7.4-.15c-2.46-.22-4.89-.54-7.32-1l-.57-.1,0-.56c-.07-.87-.08-1.74-.12-2.61s0-1.74-.06-2.61C313.36,350.12,313.37,348.38,313.51,346.63Z" style="fill:#263238"></path><path d="M347.87,321.89a10.25,10.25,0,0,1,1.8,2,14.37,14.37,0,0,1,1.32,2.36,12.27,12.27,0,0,1,1.17,5.26c-.39-.82-.69-1.65-1-2.45s-.67-1.61-1-2.4C349.38,325.1,348.61,323.55,347.87,321.89Z" style="fill:#263238"></path><path d="M254,216.72c-.32,2.19-9.39,17.19-21.36,16.43-7-.44-2.18-14.31-2.18-14.31l-6-19,23-17.48S254.11,215.79,254,216.72Z" style="fill:#f7a9a0"></path><path d="M249.9,194.86a38,38,0,0,1-19.79,22.92l-5.64-17.94,23-17.48Z" style="fill:#263238"></path><path d="M196,176c2.31,32.55,22.06,34.84,29.07,34.33,6.37-.46,28-2.83,29.07-35.44s-14.8-41.81-29.42-41.53S193.73,143.43,196,176Z" style="fill:#f7a9a0"></path><path d="M202.68,173.51a19.75,19.75,0,0,0,2.09-.83,3.68,3.68,0,0,0,2-1.25,1.17,1.17,0,0,0-.24-1.4,2.86,2.86,0,0,0-2.91-.18,4.19,4.19,0,0,0-2.37,1.92A1.24,1.24,0,0,0,202.68,173.51Z" style="fill:#263238"></path><path d="M225.3,173.39c-.77.05-1.49,0-2.26,0a3.65,3.65,0,0,1-2.29-.48,1.16,1.16,0,0,1-.26-1.39,2.88,2.88,0,0,1,2.66-1.2,4.22,4.22,0,0,1,2.89,1A1.24,1.24,0,0,1,225.3,173.39Z" style="fill:#263238"></path><path d="M221.51,178.63c0-.09.19.08.2.17.25,2.21.92,4.69,3,5.13.07,0,.08.13,0,.13C222.24,184.07,221.4,180.76,221.51,178.63Z" style="fill:#263238"></path><path d="M223.14,176.05c3.49-.79,4.81,6.26,1.57,7S220.21,176.71,223.14,176.05Z" style="fill:#263238"></path><path d="M224.59,176.16c.69.28,1.43.87,2.18.81s1.39-.94,1.81-1.75c0-.09.12,0,.14.05.27,1.35,0,2.83-1.4,3.31s-2.46-.59-3-1.88C224.16,176.46,224.31,176,224.59,176.16Z" style="fill:#263238"></path><path d="M208.29,180.8c0-.08-.15.14-.13.23.5,2.16.7,4.73-1.13,5.84-.06,0,0,.14,0,.12C209.41,186.18,209.11,182.78,208.29,180.8Z" style="fill:#263238"></path><path d="M205.9,178.91c-3.56.42-2.46,7.5.84,7.11S208.88,178.55,205.9,178.91Z" style="fill:#263238"></path><path d="M204.49,179.6c-.5.46-1,1.23-1.61,1.38s-1.46-.51-2.07-1.16c-.06-.07-.11,0-.1.09.18,1.36.84,2.7,2.19,2.76s1.91-1.24,2-2.64C205,179.77,204.7,179.42,204.49,179.6Z" style="fill:#263238"></path><path d="M223.28,196.28c-.4.63-.75,1.44-1.52,1.7a6.17,6.17,0,0,1-2.46,0,.07.07,0,0,0-.06.13,3,3,0,0,0,3,.53,2.36,2.36,0,0,0,1.25-2.31C223.51,196.19,223.34,196.19,223.28,196.28Z" style="fill:#263238"></path><path d="M212.74,190s.12,3.35.39,4.89c0,.15.41.15.94.09,0,0,.05,0,.06,0a7.42,7.42,0,0,0,6.64-4,.16.16,0,0,0-.26-.17,11.21,11.21,0,0,1-6.36,3.09c-.18-.41,0-5.74-.27-5.71a13.76,13.76,0,0,0-3.36,1.4c-.45-7,.21-13.95-.35-20.88a.21.21,0,0,0-.42,0c-1.21,7.27-.86,15.3-.58,22.51C209.2,192.06,212.17,190.34,212.74,190Z" style="fill:#263238"></path><path d="M215,193.94a8,8,0,0,0,3.51,2.05,3.6,3.6,0,0,0,2.19-.16c1.51-.62,1.36-2.06.91-3.26a8.83,8.83,0,0,0-.95-1.79A10.37,10.37,0,0,1,215,193.94Z" style="fill:#263238"></path><path d="M218.47,196a3.6,3.6,0,0,0,2.19-.16c1.51-.62,1.36-2.06.91-3.26C219.91,193,218.4,194.33,218.47,196Z" style="fill:#ff9abb"></path><path d="M252.44,178.32c-5.63,2.05-10.13-10.9-10.13-10.9S216.66,168.84,210,149.2c0,0-2.67,14-14.29,22.73,0,0-4.46-25.39,12-33.64,0,0,19.4-12.7,36.4,1.31C261.59,154,256.22,176.94,252.44,178.32Z" style="fill:#263238"></path><path d="M209.57,147.73a22.45,22.45,0,0,0,3.19,8.94,23.31,23.31,0,0,0,6.5,7.06,19,19,0,0,0,2.05,1.29l1,.62,1.1.49c.75.31,1.48.65,2.23.93s1.54.44,2.32.64c.38.1.77.22,1.16.3l1.18.17,2.36.34c1.59.08,3.18.08,4.75.05-1.56-.3-3.12-.43-4.65-.74l-2.27-.53L229.4,167c-.37-.11-.73-.25-1.1-.38-.72-.27-1.45-.52-2.18-.76s-1.39-.65-2.08-1l-1-.49-1-.6a20.28,20.28,0,0,1-1.92-1.24,28.19,28.19,0,0,1-8.78-10.49A27.07,27.07,0,0,1,209.57,147.73Z" style="fill:#263238"></path><path d="M247,176.2s4.51-11.58,9.6-10.21,3.37,17-1.42,20.23a5.52,5.52,0,0,1-7.88-1.13Z" style="fill:#f7a9a0"></path><path d="M256,170.45a.08.08,0,0,1,.07.14c-3.33,2.4-4.45,6.29-4.94,10.18.76-1.63,2.08-2.75,4.23-1.89.11.05.05.22-.06.23a3.37,3.37,0,0,0-3.34,2,16.14,16.14,0,0,0-1,3.36c-.09.37-.73.34-.7-.07a.34.34,0,0,0,0-.1C249,179.64,251,172.16,256,170.45Z" style="fill:#263238"></path><polygon points="235.7 202.01 245.2 196.47 252.04 185.46 250.34 184.41 243.76 195 234.69 200.28 235.7 202.01" style="fill:#fff"></polygon><path d="M236.57,200.28c-1.33-2.8-9.38-.73-7.36,3.51S237.91,203.09,236.57,200.28Z" style="fill:#263238"></path><path d="M250.34,184.41l1.7-4.15a10.78,10.78,0,0,1-.85-2.16c-.15-.83,1.6-4.66,2.11-5s2.73,1.94,3.22,3.22-.44,4.19-.77,5-3.71,4.13-3.71,4.13Z" style="fill:#fff"></path></g><g id="freepik--Rings--inject-15"><circle cx="132.2" cy="128.86" r="50.46" style="fill:#fff"></circle><path d="M182.65,128.86a50.71,50.71,0,0,1-101.41,0,50.71,50.71,0,0,1,86.69-35.73,50.53,50.53,0,0,1,14.72,35.73Zm0,0a50.36,50.36,0,0,0-14.83-35.63,50.2,50.2,0,1,0-35.62,85.83,50.25,50.25,0,0,0,50.45-50.2Z" style="fill:#263238"></path><path d="M158.63,103.72a1.19,1.19,0,0,0,1.47-1.39.63.63,0,0,0,0-.19,1.19,1.19,0,0,0-2-.47A1.25,1.25,0,0,0,158.63,103.72Z" style="fill:#90CAF9"></path><path d="M91.52,109.93a1.19,1.19,0,0,0-1.76,1,1.23,1.23,0,0,0,0,.2,1.2,1.2,0,0,0,1.83.91A1.24,1.24,0,0,0,91.52,109.93Z" style="fill:#90CAF9"></path><path d="M110.75,155.23a1.19,1.19,0,0,0-1.75,1,1.36,1.36,0,0,0,0,.2,1.19,1.19,0,0,0,1.83.91A1.23,1.23,0,0,0,110.75,155.23Z" style="fill:#90CAF9"></path><path d="M154.68,105.76a.75.75,0,0,0-.06-.84.86.86,0,1,0,.06.84Z" style="fill:#90CAF9"></path><path d="M161.16,106.67a.59.59,0,0,0-.27-1.14A.59.59,0,0,0,161.16,106.67Z" style="fill:#90CAF9"></path><path d="M96.55,107.24a.59.59,0,0,0,0,1.17A.59.59,0,0,0,96.55,107.24Z" style="fill:#90CAF9"></path><path d="M119.88,152.91a.59.59,0,0,0,0,1.17A.59.59,0,0,0,119.88,152.91Z" style="fill:#90CAF9"></path><path d="M176.21,138.64a.59.59,0,0,0,0,1.18A.59.59,0,0,0,176.21,138.64Z" style="fill:#90CAF9"></path><path d="M149.36,121.76l-1.12,4.83-.58-.12,1.13-4.83Z" style="fill:#fff;opacity:0.501961"></path><path d="M148.79,121.64l-1.13,4.83h0l1.13-4.82Z" style="fill:#fff;opacity:0.501961"></path><path d="M148.79,121.64h0l.59.12Z" style="fill:#fff;opacity:0.501961"></path><path d="M132,132.87a1.33,1.33,0,0,0-.19.14A1.33,1.33,0,0,1,132,132.87Z" style="fill:#90CAF9"></path><path d="M139.64,129.65c-4.55.07-8.56,1.44-10.76,3.95.37-1.61.75-3.22,1.12-4.83a12.08,12.08,0,0,1,6.57-3.48c-.38,1.61-.75,3.22-1.12,4.83.37-1.61.75-3.22,1.12-4.83a21.51,21.51,0,0,1,4.19-.46l-.13.56-.14.6-.15.62c0,.19-.1.44-.14.63s-.11.44-.15.63-.1.44-.14.62l-.14.6Z" style="fill:#90CAF9"></path><path d="M130.56,130.86c.05-.11.12-.22.18-.33C130.68,130.64,130.61,130.75,130.56,130.86Z" style="fill:#fff;opacity:0.501961"></path><path d="M130.37,131.24c0-.12.11-.23.17-.35C130.48,131,130.42,131.12,130.37,131.24Z" style="fill:#fff;opacity:0.501961"></path><path d="M128.19,134.5a6.39,6.39,0,0,0-.65,1.31l.27-1.16c.09-.42.19-.83.29-1.25,0-.19.1-.44.14-.63s.11-.44.15-.62l.14-.6.13-.57a6.44,6.44,0,0,1,.66-1.31c-.38,1.61-.75,3.22-1.12,4.83.37-1.61.74-3.22,1.12-4.83a8.17,8.17,0,0,1,.68-.9l-.13.56-.14.6-.14.62c-.05.19-.11.44-.15.63l-.15.63c0,.19-.1.44-.14.62l-.14.6-.13.57A7.65,7.65,0,0,0,128.19,134.5Z" style="fill:#90CAF9"></path><path d="M127.54,135.81a5.11,5.11,0,0,0-.23.76l1.12-4.83a7.32,7.32,0,0,1,.23-.76c-.19.81-.37,1.61-.56,2.42l-.08.31L128,134l-.07.31-.14.61-.07.3C127.63,135.42,127.59,135.65,127.54,135.81Z" style="fill:#90CAF9"></path><path d="M167.6,146.14a9,9,0,0,1-1.27,3l1.13-4.82a9.52,9.52,0,0,0,1.27-3Z" style="fill:#90CAF9"></path><path d="M128.74,140a1.29,1.29,0,0,1,0-.21c.05-.22.1-.44.16-.67s.13-.58.2-.87c.24-1,.48-2,.71-3.08a9,9,0,0,0,.55,1.89l-.13.57c0,.18-.1.42-.14.59s-.1.44-.14.62-.1.45-.15.64-.1.44-.14.63l-.15.62-.14.6-.13.56A8.43,8.43,0,0,1,128.74,140Z" style="fill:#fff;opacity:0.501961"></path><path d="M129.4,142.13l-.11-.26c.37-1.61.75-3.22,1.12-4.83l.12.26-1,4.37v.06l0,.05v.12l0,.06v.12Z" style="fill:#fff;opacity:0.501961"></path><path d="M129.4,142.13s0,0,0,0c.05-.22.1-.45.16-.68l1-4.12a11.71,11.71,0,0,0,1.66,2.62l-.14.57-.14.59-.14.62c0,.19-.1.45-.15.64l-.14.63-.15.62-.14.6c0,.16-.09.39-.13.56A12.08,12.08,0,0,1,129.4,142.13Z" style="fill:#fff;opacity:0.501961"></path><path d="M131.08,144.77l0,0c.38-1.61.75-3.22,1.13-4.83v0l-.13.55c0,.18-.1.42-.14.59l-.14.61-.14.62-.15.63-.14.61-.14.58-.13.56h0Z" style="fill:#fff;opacity:0.501961"></path><path d="M131.08,144.77c.37-1.61.74-3.22,1.12-4.83a16.72,16.72,0,0,0,2.78,2.63l-1.12,4.83A16.74,16.74,0,0,1,131.08,144.77Z" style="fill:#fff;opacity:0.501961"></path><path d="M127.31,136.57l1.12-4.83c-.85,3.69,1.68,7.86,6.5,10.8l-1.12,4.83C129,144.43,126.45,140.25,127.31,136.57Z" style="fill:#90CAF9"></path><path d="M136.28,153.56a34.23,34.23,0,0,1-4.83-2.28l1-4.26.13-.57a33.16,33.16,0,0,0,4.83,2.28c12.06,4.6,25.52,2.6,30.06-4.45l-1.13,4.82C161.8,156.15,148.34,158.15,136.28,153.56Z" style="fill:#90CAF9"></path><path d="M167.85,149.68c-4.61,7.15-18.25,9.18-30.48,4.52l-.34-.14a.58.58,0,0,1-.14-.05l-.21-.08a36.3,36.3,0,0,1-4-1.92l-.18-.1-.4-.24-.65-.39h0c-6.82-4.24-10.4-10.19-9.17-15.47L123.4,131c-1.27,5.44,2.56,11.6,9.82,15.87l.39.23.19.11a34.62,34.62,0,0,0,4,1.91l.2.09.13.05.36.13C150.72,154,164.37,152,169,144.85a9.41,9.41,0,0,0,1.29-3l-1.13,4.82A9.66,9.66,0,0,1,167.85,149.68Z" style="fill:#90CAF9"></path><path d="M137.81,149.1a35.62,35.62,0,0,1-4-1.92A35.62,35.62,0,0,0,137.81,149.1Z" style="fill:#fff;opacity:0.501961"></path><path d="M162.6,145.17c1.1-4.8-3.25-10.36-10.88-13.26a27.22,27.22,0,0,0-5.59-1.49c-5.64-.89-11.08.08-14.37,2.59l-.22.17a.79.79,0,0,1-.14.11s0,0-.05.05l-.14.12-.07.06-.07.07-.13.12-.06,0-.09.09,0,.06-.13.13,0,.05-.12.13,0,0-.11.13s0,0,0,0l-.12.16-.14.17-.13.19,0,.05c.36,2.63,2.17,5.32,5.09,7.54-5.77-3.5-8.25-8.77-5.62-12.87,2.81-4.36,10.49-6,18.08-4.06h0a26.38,26.38,0,0,1,5.45,1.47c7.62,2.89,12,8.46,10.87,13.25Z" style="fill:#90CAF9"></path><path d="M155.17,123.47l-.46-.18-.36-.13-.43-.15-.39-.13-.37-.12-.45-.14-.37-.11-.39-.12-.32-.08-.12,0-.37-.1-.32-.09a1,1,0,0,0-.17,0l-.19,0-.17,0-.16,0-.47-.11-.3-.06-.57-.12c-10.28-2-20.29.41-24.1,6.34s-.29,13.39,7.88,18.47l.05,0c.31.2.63.39,1,.6l.19.11a34.62,34.62,0,0,0,4,1.91l.2.09.13.05.36.13C150.72,154,164.37,152,169,144.85S167.39,128.12,155.17,123.47Zm-14.35,22.29a23.6,23.6,0,0,1-5.88-3.22c-5.77-3.5-8.25-8.77-5.62-12.87,2.81-4.36,10.49-6,18.08-4.06l-.25,0a27.37,27.37,0,0,1,5.69,1.51c8.81,3.35,13.26,10.26,9.95,15.41S149.63,149.11,140.82,145.76Z" style="fill:#90CAF9"></path><g style="opacity:0.1"><path d="M155.17,123.47l-.46-.18-.36-.13-.43-.15-.39-.13-.37-.12-.45-.14-.37-.11-.39-.12-.32-.08-.12,0-.37-.1-.32-.09a1,1,0,0,0-.17,0l-.19,0-.17,0-.16,0-.47-.11-.3-.06-.57-.12c-10.28-2-20.29.41-24.1,6.34s-.29,13.39,7.88,18.47l.05,0c.31.2.63.39,1,.6l.19.11a34.62,34.62,0,0,0,4,1.91l.2.09.13.05.36.13C150.72,154,164.37,152,169,144.85S167.39,128.12,155.17,123.47Zm-14.35,22.29a23.6,23.6,0,0,1-5.88-3.22c-5.77-3.5-8.25-8.77-5.62-12.87,2.81-4.36,10.49-6,18.08-4.06l-.25,0a27.37,27.37,0,0,1,5.69,1.51c8.81,3.35,13.26,10.26,9.95,15.41S149.63,149.11,140.82,145.76Z"></path></g><path d="M114.5,106.36l1.41,4.75-.56.18-1.41-4.75Z" style="fill:#fff;opacity:0.501961"></path><path d="M113.94,106.54l1.41,4.75h0l-1.41-4.75Z" style="fill:#fff;opacity:0.501961"></path><path d="M113.94,106.54h0l.58-.19Z" style="fill:#fff;opacity:0.501961"></path><path d="M104.85,124.63l-.09.21Z" style="fill:#90CAF9"></path><path d="M110,118c-3.92,2.31-6.73,5.48-7.4,8.75L101.14,122a12.09,12.09,0,0,1,4-6.27l1.41,4.75-1.41-4.75a20.76,20.76,0,0,1,3.41-2.48l.16.56.18.58.18.61.18.63.19.62.18.61.17.59Z" style="fill:#90CAF9"></path><path d="M102.65,123.57v0Z" style="fill:#fff;opacity:0.501961"></path><path d="M102.68,124l0-.38Z" style="fill:#fff;opacity:0.501961"></path><path d="M102.4,127.9a6.47,6.47,0,0,0,.08,1.47c-.12-.38-.23-.77-.34-1.15s-.25-.82-.37-1.23c0-.19-.13-.43-.18-.62s-.13-.43-.19-.61l-.17-.59c0-.17-.12-.39-.16-.55a6.47,6.47,0,0,1-.08-1.47l1.41,4.75L101,123.15a7,7,0,0,1,.15-1.12c0,.16.11.39.16.55l.18.59.18.61.18.62.19.62.18.61.17.59.17.56A7.17,7.17,0,0,0,102.4,127.9Z" style="fill:#90CAF9"></path><path d="M102.48,129.37a6.43,6.43,0,0,0,.17.76l-1.41-4.75a6.43,6.43,0,0,1-.17-.76c.23.79.47,1.58.7,2.37l.09.31.1.31.09.31c0,.18.12.42.18.6l.08.29C102.36,129,102.44,129.2,102.48,129.37Z" style="fill:#90CAF9"></path><path d="M142.41,118.53a9.44,9.44,0,0,1,.36,3.21L141.36,117a9.44,9.44,0,0,0-.36-3.21C141.42,115.21,142,117.11,142.41,118.53Z" style="fill:#90CAF9"></path><path d="M105.58,132.39a1.17,1.17,0,0,1-.06-.2c-.06-.22-.13-.44-.19-.66l-.26-.86-.9-3a8.46,8.46,0,0,0,1.42,1.38l.16.55.17.59c.06.18.13.43.19.61s.13.43.18.62l.19.62.18.61.17.59.17.56A8.46,8.46,0,0,1,105.58,132.39Z" style="fill:#fff;opacity:0.501961"></path><path d="M107.22,133.94l-.22-.17L105.59,129l.22.17c.43,1.43.85,2.86,1.28,4.3v0l0,.05,0,.06,0,.06v.06l0,.06,0,0Z" style="fill:#fff;opacity:0.501961"></path><path d="M107.22,133.94a0,0,0,0,0,0,0l-.19-.67c-.41-1.35-.81-2.7-1.21-4.05a11.84,11.84,0,0,0,2.74,1.45l.16.56.18.58.18.62c.06.18.13.43.18.62l.19.62.18.61.18.59c0,.16.11.39.16.55A11.84,11.84,0,0,1,107.22,133.94Z" style="fill:#fff;opacity:0.501961"></path><path d="M110,135.4h0l-1.41-4.75h0c.05.16.11.38.16.55l.17.57c.06.18.13.42.18.61l.18.61.18.61c.06.18.13.42.18.6s.12.41.18.58.11.38.16.54h0Z" style="fill:#fff;opacity:0.501961"></path><path d="M110,135.4l-1.41-4.75a17,17,0,0,0,3.72.91l1.41,4.75A17,17,0,0,1,110,135.4Z" style="fill:#fff;opacity:0.501961"></path><path d="M102.65,130.13l-1.41-4.75c1.08,3.63,5.35,6,11,6.18l1.41,4.75C108,136.14,103.73,133.76,102.65,130.13Z" style="fill:#90CAF9"></path><path d="M118.85,140.47a34.25,34.25,0,0,1-5.33.41c-.41-1.4-.83-2.8-1.24-4.2l-.17-.55a34.25,34.25,0,0,0,5.33-.41c12.75-2,23.46-10.36,23.92-18.73l1.41,4.75C142.31,130.11,131.6,138.5,118.85,140.47Z" style="fill:#90CAF9"></path><path d="M144.37,121.49c-.46,8.49-11.32,17-24.25,19l-.37,0-.15,0-.22,0a36,36,0,0,1-4.43.32h-.67l-.76,0h0c-8-.31-14.08-3.72-15.62-8.91l-1.41-4.75c1.59,5.36,8,8.81,16.38,8.94h.67a34.15,34.15,0,0,0,4.43-.33l.22,0,.14,0,.38-.06c12.93-2,23.79-10.49,24.25-19a9.4,9.4,0,0,0-.36-3.25l1.4,4.75A9.42,9.42,0,0,1,144.37,121.49Z" style="fill:#90CAF9"></path><g style="opacity:0.2"><path d="M144.37,121.49c-.46,8.49-11.32,17-24.25,19l-.37,0-.15,0-.22,0a36,36,0,0,1-4.43.32h-.67l-.76,0h0c-8-.31-14.08-3.72-15.62-8.91l-1.41-4.75c1.59,5.36,8,8.81,16.38,8.94h.67a34.15,34.15,0,0,0,4.43-.33l.22,0,.14,0,.38-.06c12.93-2,23.79-10.49,24.25-19a9.4,9.4,0,0,0-.36-3.25l1.4,4.75A9.42,9.42,0,0,1,144.37,121.49Z" style="fill:#fff"></path></g><path d="M118,135.84a34.1,34.1,0,0,1-4.43.32A36.09,36.09,0,0,0,118,135.84Z" style="fill:#fff;opacity:0.501961"></path><path d="M137.57,120.16c-1.4-4.71-7.94-7.39-16-6.14a26.69,26.69,0,0,0-5.59,1.47c-5.35,2-9.6,5.54-11.22,9.36a2,2,0,0,1-.11.25c0,.08,0,.13-.06.17s0,0,0,.06l-.06.18,0,.08,0,.1,0,.17a.14.14,0,0,1,0,.07l0,.13s0,0,0,.07,0,.11,0,.18,0,0,0,.06a.55.55,0,0,0,0,.17.43.43,0,0,1,0,0l0,.17a.43.43,0,0,1,0,0l0,.2c0,.1,0,.16,0,.22s0,.16,0,.23v.06c1.6,2.11,4.51,3.55,8.15,4-6.75-.2-11.51-3.55-11.25-8.41.28-5.18,6.17-10.37,13.71-12.47h0a27,27,0,0,1,5.46-1.42c8.06-1.25,14.6,1.43,16,6.14Z" style="fill:#90CAF9"></path><g style="opacity:0.2"><path d="M137.57,120.16c-1.4-4.71-7.94-7.39-16-6.14a26.69,26.69,0,0,0-5.59,1.47c-5.35,2-9.6,5.54-11.22,9.36a2,2,0,0,1-.11.25c0,.08,0,.13-.06.17s0,0,0,.06l-.06.18,0,.08,0,.1,0,.17a.14.14,0,0,1,0,.07l0,.13s0,0,0,.07,0,.11,0,.18,0,0,0,.06a.55.55,0,0,0,0,.17.43.43,0,0,1,0,0l0,.17a.43.43,0,0,1,0,0l0,.2c0,.1,0,.16,0,.22s0,.16,0,.23v.06c1.6,2.11,4.51,3.55,8.15,4-6.75-.2-11.51-3.55-11.25-8.41.28-5.18,6.17-10.37,13.71-12.47h0a27,27,0,0,1,5.46-1.42c8.06-1.25,14.6,1.43,16,6.14Z" style="fill:#fff"></path></g><path d="M120.39,105l-.48.08-.38.06-.45.08-.4.09-.38.07-.46.11-.38.08c-.13,0-.24,0-.4.1l-.32.08-.12,0-.37.1-.32.08-.16,0-.19,0-.17.06-.16,0-.46.14-.29.09c-.18.06-.37.13-.56.18C104,109.89,96.5,116.93,96.13,124s6.37,11.78,16,12.16h.07c.36,0,.73,0,1.15,0h.21a34.15,34.15,0,0,0,4.43-.33l.22,0,.14,0,.38-.06c12.93-2,23.79-10.49,24.25-19S133.32,103,120.39,105Zm-1.45,26.47a23.72,23.72,0,0,1-6.7.12c-6.75-.2-11.51-3.55-11.25-8.41.28-5.18,6.17-10.37,13.71-12.47l-.23.09a27.66,27.66,0,0,1,5.69-1.5c9.32-1.44,16.6,2.36,16.27,8.48S128.26,130,118.94,131.44Z" style="fill:#90CAF9"></path></g><g id="freepik--Bouquet--inject-15"><circle cx="250" cy="78.34" r="50.46" transform="translate(116.88 303.99) rotate(-76.86)" style="fill:#fff"></circle><path d="M300.46,78.34A50.53,50.53,0,1,1,296.65,59,50.79,50.79,0,0,1,300.46,78.34Zm0,0a50.52,50.52,0,0,0-14.83-35.63,50.29,50.29,0,1,0,10.95,54.93A50.92,50.92,0,0,0,300.46,78.34Z" style="fill:#263238"></path><path d="M284.83,86.47a1.19,1.19,0,0,0,1.75-1,1.23,1.23,0,0,0,0-.2,1.2,1.2,0,0,0-1.83-.91A1.24,1.24,0,0,0,284.83,86.47Z" style="fill:#90CAF9"></path><path d="M213.11,58.6a1.19,1.19,0,0,0,1.75-1,1.23,1.23,0,0,0,0-.2,1.19,1.19,0,0,0-1.83-.91A1.24,1.24,0,0,0,213.11,58.6Z" style="fill:#90CAF9"></path><path d="M227.1,113.8a1.19,1.19,0,0,0,1.75-1,1.36,1.36,0,0,0,0-.2,1.19,1.19,0,0,0-1.83-.91A1.23,1.23,0,0,0,227.1,113.8Z" style="fill:#90CAF9"></path><path d="M280.52,87.54a.75.75,0,0,0,.13-.83.84.84,0,0,0-1.51-.18A.86.86,0,0,0,280.52,87.54Z" style="fill:#90CAF9"></path><path d="M286.61,89.93a.59.59,0,0,0,0-1.18A.59.59,0,0,0,286.61,89.93Z" style="fill:#90CAF9"></path><path d="M292.14,51.64a.59.59,0,0,0,0-1.17A.59.59,0,0,0,292.14,51.64Z" style="fill:#90CAF9"></path><path d="M224.49,119a.59.59,0,0,0,0-1.17A.59.59,0,0,0,224.49,119Z" style="fill:#90CAF9"></path><path d="M209.26,68.59a.59.59,0,0,0,0-1.18A.59.59,0,0,0,209.26,68.59Z" style="fill:#90CAF9"></path><path d="M243.66,59.12c-.92,1.18-.88,3.74-5.5,3.69s-7.34-1.87-7.72-4.68c-.26-1.92-5.69-2-3.69-10.26.86-3.53,4.31-3.13,6.1-4.68,1.47-1.27,2.83-4.5,8.55-2.13,4.93,2,3.1,4.1,4.44,5.87s2.83,2.58,2.73,5.65C248.37,58.66,244.86,57.56,243.66,59.12Z" style="fill:#90CAF9"></path><path d="M243.66,59.12c-.92,1.18-.88,3.74-5.5,3.69s-7.34-1.87-7.72-4.68c-.26-1.92-5.69-2-3.69-10.26.86-3.53,4.31-3.13,6.1-4.68,1.47-1.27,2.83-4.5,8.55-2.13,4.93,2,3.1,4.1,4.44,5.87s2.83,2.58,2.73,5.65C248.37,58.66,244.86,57.56,243.66,59.12Z" style="opacity:0.1"></path><path d="M240.75,42.24c1.48.16,3.64-1.22,6,2.75s2.26,7.23.06,9c-1.5,1.23,1.26,5.91-6.8,8.52-3.46,1.12-4.93-2-7.18-2.74-1.86-.59-5.32-.06-6.29-6.17-.84-5.27,1.86-4.79,2.66-6.86s.72-3.75,3.39-5.28C237.89,38.46,238.79,42,240.75,42.24Z" style="fill:#90CAF9"></path><path d="M242.84,55s-4.28,5.08-10.07,1.8C232.77,56.83,238.67,63.72,242.84,55Z" style="fill:#90CAF9"></path><path d="M231.21,56.16s-1.72-8.64,6.46-11.91C237.67,44.25,225.66,44.65,231.21,56.16Z" style="fill:#90CAF9"></path><path d="M233.55,49.76s3.6-3.95,8.13-1.14C241.68,48.62,237.17,42.91,233.55,49.76Z" style="fill:#90CAF9"></path><path d="M238,56.52s-5.28-.73-5.53-6.06C232.49,50.46,230.33,57.41,238,56.52Z" style="fill:#90CAF9"></path><path d="M240,53.69a4.16,4.16,0,0,1-5.23-.67S236.56,57.32,240,53.69Z" style="fill:#90CAF9"></path><path d="M239.74,50.21a3.16,3.16,0,0,1-2.47,3.13S240.77,53.83,239.74,50.21Z" style="fill:#90CAF9"></path><path d="M236.44,53.46a3.16,3.16,0,0,1,2.51-3.1S235.46,49.83,236.44,53.46Z" style="fill:#90CAF9"></path><path d="M234.14,53a4.18,4.18,0,0,1,3.7-3.76S233.31,48.1,234.14,53Z" style="fill:#90CAF9"></path><path d="M239.3,48.18a4.17,4.17,0,0,1,1,5.18S243.81,50.29,239.3,48.18Z" style="fill:#90CAF9"></path><path d="M242.5,49.33s.37,5.32-4.79,6.66C237.71,56,245,56.68,242.5,49.33Z" style="fill:#90CAF9"></path><path d="M239.77,45.49s5,1.7,4.28,6.95C244.05,52.44,247.45,46.05,239.77,45.49Z" style="fill:#90CAF9"></path><g style="opacity:0.1"><path d="M242.84,55s-4.28,5.08-10.07,1.8C232.77,56.83,238.67,63.72,242.84,55Z"></path><path d="M231.21,56.16s-1.72-8.64,6.46-11.91C237.67,44.25,225.66,44.65,231.21,56.16Z"></path><path d="M233.55,49.76s3.6-3.95,8.13-1.14C241.68,48.62,237.17,42.91,233.55,49.76Z"></path><path d="M238,56.52s-5.28-.73-5.53-6.06C232.49,50.46,230.33,57.41,238,56.52Z"></path><path d="M240,53.69a4.16,4.16,0,0,1-5.23-.67S236.56,57.32,240,53.69Z"></path><path d="M239.74,50.21a3.16,3.16,0,0,1-2.47,3.13S240.77,53.83,239.74,50.21Z"></path><path d="M236.44,53.46a3.16,3.16,0,0,1,2.51-3.1S235.46,49.83,236.44,53.46Z"></path><path d="M234.14,53a4.18,4.18,0,0,1,3.7-3.76S233.31,48.1,234.14,53Z"></path><path d="M239.3,48.18a4.17,4.17,0,0,1,1,5.18S243.81,50.29,239.3,48.18Z"></path><path d="M242.5,49.33s.37,5.32-4.79,6.66C237.71,56,245,56.68,242.5,49.33Z"></path><path d="M239.77,45.49s5,1.7,4.28,6.95C244.05,52.44,247.45,46.05,239.77,45.49Z"></path></g><path d="M274.84,69c-1.43.4-2.93,2.48-6.61-.31s-4.78-5.87-3.41-8.36c.93-1.69-3.37-5,3.14-10.43,2.79-2.33,5.33,0,7.68-.14,1.94-.14,5-1.92,8.14,3.39,2.74,4.58.06,5.14.08,7.36s.73,3.75-1.18,6.16C278.91,71.42,276.74,68.46,274.84,69Z" style="fill:#90CAF9"></path><path d="M274.84,69c-1.43.4-2.93,2.48-6.61-.31s-4.78-5.87-3.41-8.36c.93-1.69-3.37-5,3.14-10.43,2.79-2.33,5.33,0,7.68-.14,1.94-.14,5-1.92,8.14,3.39,2.74,4.58.06,5.14.08,7.36s.73,3.75-1.18,6.16C278.91,71.42,276.74,68.46,274.84,69Z" style="opacity:0.1"></path><path d="M282.56,53.69c1.09,1,3.65,1.2,3.2,5.8s-2.49,7.15-5.33,7.29c-1.93.09-2.5,5.49-10.53,2.78-3.45-1.16-2.76-4.56-4.14-6.47-1.14-1.58-4.24-3.21-1.38-8.7,2.46-4.74,4.35-2.74,6.22-3.93s2.82-2.58,5.87-2.22C282.51,49,281.12,52.36,282.56,53.69Z" style="fill:#90CAF9"></path><path d="M276.62,65.21s-6.46,1.54-9.16-4.54C267.46,60.67,268.09,69.72,276.62,65.21Z" style="fill:#90CAF9"></path><path d="M266.6,59.2s3.76-8,12.29-5.73C278.89,53.47,269,46.64,266.6,59.2Z" style="fill:#90CAF9"></path><path d="M272.3,55.45s5.24-1,7.21,3.93C279.51,59.38,279.28,52.1,272.3,55.45Z" style="fill:#90CAF9"></path><path d="M271.86,63.54s-3.81-3.73-.83-8.16C271,55.38,265.16,59.68,271.86,63.54Z" style="fill:#90CAF9"></path><path d="M275.11,62.43a4.18,4.18,0,0,1-3.81-3.66S270.21,63.32,275.11,62.43Z" style="fill:#90CAF9"></path><path d="M277,59.5a3.15,3.15,0,0,1-3.85,1S275.67,63,277,59.5Z" style="fill:#90CAF9"></path><path d="M272.41,60.14a3.16,3.16,0,0,1,3.87-1S273.79,56.64,272.41,60.14Z" style="fill:#90CAF9"></path><path d="M270.84,58.41a4.18,4.18,0,0,1,5.21-.82S273.09,54,270.84,58.41Z" style="fill:#90CAF9"></path><path d="M277.86,57.6a4.17,4.17,0,0,1-2.3,4.75S280.22,62,277.86,57.6Z" style="fill:#90CAF9"></path><path d="M279.74,60.44s-2.87,4.49-7.81,2.49C271.93,62.93,277.34,67.8,279.74,60.44Z" style="fill:#90CAF9"></path><path d="M279.83,55.72s3,4.36-.7,8.14C279.13,63.86,285.67,60.74,279.83,55.72Z" style="fill:#90CAF9"></path><g style="opacity:0.1"><path d="M276.62,65.21s-6.46,1.54-9.16-4.54C267.46,60.67,268.09,69.72,276.62,65.21Z"></path><path d="M266.6,59.2s3.76-8,12.29-5.73C278.89,53.47,269,46.64,266.6,59.2Z"></path><path d="M272.3,55.45s5.24-1,7.21,3.93C279.51,59.38,279.28,52.1,272.3,55.45Z"></path><path d="M271.86,63.54s-3.81-3.73-.83-8.16C271,55.38,265.16,59.68,271.86,63.54Z"></path><path d="M275.11,62.43a4.18,4.18,0,0,1-3.81-3.66S270.21,63.32,275.11,62.43Z"></path><path d="M277,59.5a3.15,3.15,0,0,1-3.85,1S275.67,63,277,59.5Z"></path><path d="M272.41,60.14a3.16,3.16,0,0,1,3.87-1S273.79,56.64,272.41,60.14Z"></path><path d="M270.84,58.41a4.18,4.18,0,0,1,5.21-.82S273.09,54,270.84,58.41Z"></path><path d="M277.86,57.6a4.17,4.17,0,0,1-2.3,4.75S280.22,62,277.86,57.6Z"></path><path d="M279.74,60.44s-2.87,4.49-7.81,2.49C271.93,62.93,277.34,67.8,279.74,60.44Z"></path><path d="M279.83,55.72s3,4.36-.7,8.14C279.13,63.86,285.67,60.74,279.83,55.72Z"></path></g><path d="M239.88,92.55a35.4,35.4,0,0,0,.33-6.24,33.79,33.79,0,0,0-.76-6.18,25.48,25.48,0,0,0-2-5.88c-.47-.94-1-1.82-1.44-2.72l-.66-1.37-.61-1.4a26.31,26.31,0,0,1-1.62-5.85,22,22,0,0,1-.23-3c0-1,0-2.05,0-3.08a48.39,48.39,0,0,0-.71-6.12,27.59,27.59,0,0,0-.74-3A9.09,9.09,0,0,0,230,44.93a9.25,9.25,0,0,1,1.26,2.79,25.3,25.3,0,0,1,.66,3,48.05,48.05,0,0,1,.58,6.1c0,1-.06,2-.06,3.07a22.85,22.85,0,0,0,.16,3.09,26.42,26.42,0,0,0,1.52,6l.58,1.44.64,1.41c.45.93,1,1.84,1.38,2.74a25.2,25.2,0,0,1,1.84,5.75,32.85,32.85,0,0,1,.6,6,35.31,35.31,0,0,1-.45,6Z" style="fill:#455a64"></path><path d="M239.51,83.34l.57-1.52.54-1.53,1.08-3.05c.36-1,.73-2,1.11-3q.28-.75.6-1.5l.32-.74.35-.73c-.15.22-.3.45-.44.68l-.4.71c-.24.48-.48,1-.7,1.47-.45,1-.84,2-1.2,3s-.7,2-1,3.09S239.75,82.28,239.51,83.34Z" style="fill:#455a64"></path><path d="M235.38,71.09c0-.73.07-1.45.12-2.16s.09-1.44.15-2.16c.12-1.43.24-2.87.44-4.29s.39-2.85.68-4.25c.06-.36.15-.71.23-1.06l.12-.52.14-.52c.1-.35.17-.7.3-1s.23-.68.33-1a22.07,22.07,0,0,0-1.41,4.1,41.54,41.54,0,0,0-.77,4.27c-.17,1.44-.29,2.88-.35,4.32S235.29,69.64,235.38,71.09Z" style="fill:#455a64"></path><path d="M233.26,65.14c-.48-1.29-1-2.55-1.6-3.79s-1.2-2.47-1.87-3.67a35.25,35.25,0,0,0-2.2-3.49,11.18,11.18,0,0,0-2.89-2.93l.39.34a3.06,3.06,0,0,1,.37.35c.23.26.47.5.68.76l.62.81.58.84c.75,1.14,1.46,2.31,2.12,3.5s1.3,2.4,1.94,3.61S232.64,63.91,233.26,65.14Z" style="fill:#455a64"></path><path d="M244,71.62s5.2-5.74,3.6-7.18S244,71.62,244,71.62Z" style="fill:#455a64"></path><path d="M242.71,73.74s1.78-7.53-.32-8S242.71,73.74,242.71,73.74Z" style="fill:#455a64"></path><path d="M242.4,75.32s6.74-3.81,5.68-5.68S242.4,75.32,242.4,75.32Z" style="fill:#455a64"></path><path d="M240.43,79.88s1.24-7.64-.88-8S240.43,79.88,240.43,79.88Z" style="fill:#455a64"></path><path d="M240.32,81.25s7.28-2.65,6.54-4.67S240.32,81.25,240.32,81.25Z" style="fill:#455a64"></path><path d="M235.52,67.26s6.19-4.65,4.9-6.37S235.52,67.26,235.52,67.26Z" style="fill:#455a64"></path><path d="M236.16,62.41s5.49-4.13,4.34-5.66S236.16,62.41,236.16,62.41Z" style="fill:#455a64"></path><path d="M232.59,54.28s4.09-5.52,2.55-6.65S232.59,54.28,232.59,54.28Z" style="fill:#455a64"></path><path d="M235.81,62s1-6.81-.92-7.07S235.81,62,235.81,62Z" style="fill:#455a64"></path><path d="M237.73,54.39s4.44-4.88,3.08-6.11S237.73,54.39,237.73,54.39Z" style="fill:#455a64"></path><path d="M231.76,49.08s2.52-6.1.83-6.79S231.76,49.08,231.76,49.08Z" style="fill:#455a64"></path><path d="M232,50.86s-2-6.28-3.75-5.72S232,50.86,232,50.86Z" style="fill:#455a64"></path><path d="M231.46,61.47s-4.15-5.12-5.57-4S231.46,61.47,231.46,61.47Z" style="fill:#455a64"></path><path d="M228.6,56.11s-4.16-5.12-5.58-4S228.6,56.11,228.6,56.11Z" style="fill:#455a64"></path><path d="M231,60s.45-6.58-1.38-6.7S231,60,231,60Z" style="fill:#455a64"></path><path d="M228.39,55.35s-.4-6.58-2.23-6.47S228.39,55.35,228.39,55.35Z" style="fill:#455a64"></path><path d="M225.08,51.5s-4.41-4.91-5.77-3.68S225.08,51.5,225.08,51.5Z" style="fill:#455a64"></path><path d="M230.23,45.26s-2.12-5.73-3.71-5.13S230.23,45.26,230.23,45.26Z" style="fill:#455a64"></path><path d="M252.55,93a34.71,34.71,0,0,1,3.15-5.39,32.65,32.65,0,0,1,4-4.74A25.33,25.33,0,0,1,264.68,79c.91-.52,1.81-1,2.7-1.48l1.31-.78L270,76a26.39,26.39,0,0,0,4.58-4,24.15,24.15,0,0,0,1.86-2.41c.57-.84,1.08-1.74,1.7-2.57a48.14,48.14,0,0,1,4-4.71,28,28,0,0,1,2.26-2.09A9.79,9.79,0,0,1,287,58.6a9.42,9.42,0,0,0-2.58,1.64,24.58,24.58,0,0,0-2.2,2.13,47.43,47.43,0,0,0-3.83,4.78c-.6.83-1.08,1.73-1.64,2.6a24.59,24.59,0,0,1-1.84,2.49,26.67,26.67,0,0,1-4.57,4.18L269,77.3l-1.31.82c-.89.53-1.81,1-2.66,1.54a24.82,24.82,0,0,0-4.7,3.78,32.55,32.55,0,0,0-3.82,4.7,33.19,33.19,0,0,0-2.92,5.27Z" style="fill:#455a64"></path><path d="M257.91,85.47l.37-1.58.39-1.57.78-3.15c.26-1,.5-2.09.74-3.14.12-.53.22-1.06.32-1.59l.15-.79.1-.81c0,.27,0,.54,0,.82l-.06.81c-.06.54-.13,1.08-.22,1.61-.18,1.07-.41,2.13-.66,3.18s-.54,2.1-.87,3.13S258.3,84.46,257.91,85.47Z" style="fill:#455a64"></path><path d="M268.11,77.51c.36-.62.73-1.24,1.08-1.87s.72-1.25,1.06-1.88c.69-1.27,1.38-2.53,2-3.83S273.49,67.34,274,66c.15-.33.26-.67.39-1l.19-.5.16-.52c.11-.34.24-.67.33-1s.18-.7.28-1.05a20.87,20.87,0,0,1-1.07,4.2,40.16,40.16,0,0,1-1.7,4c-.65,1.3-1.35,2.57-2.09,3.8S269,76.35,268.11,77.51Z" style="fill:#455a64"></path><path d="M273.15,73.71c1.11-.81,2.26-1.56,3.42-2.29s2.36-1.4,3.58-2a36.25,36.25,0,0,1,3.76-1.69,11.14,11.14,0,0,1,4-.86l-.51.07a4,4,0,0,0-.5.08c-.33.09-.67.16-1,.27l-1,.33L284,68c-1.25.55-2.48,1.13-3.69,1.77s-2.41,1.28-3.61,2S274.34,73,273.15,73.71Z" style="fill:#455a64"></path><path d="M260.66,73.24s-1.19-7.65.93-8S260.66,73.24,260.66,73.24Z" style="fill:#455a64"></path><path d="M260.53,75.7s2.65-7.27,4.67-6.53S260.53,75.7,260.53,75.7Z" style="fill:#455a64"></path><path d="M259.91,77.18s-3.53-6.89-1.61-7.87S259.91,77.18,259.91,77.18Z" style="fill:#455a64"></path><path d="M259.06,82.08s3.16-7.07,5.12-6.19S259.06,82.08,259.06,82.08Z" style="fill:#455a64"></path><path d="M258.39,83.28s-4.62-6.21-2.89-7.49S258.39,83.28,258.39,83.28Z" style="fill:#455a64"></path><path d="M270.09,74.24s-2.61-7.29-.58-8S270.09,74.24,270.09,74.24Z" style="fill:#455a64"></path><path d="M272.23,69.83s-2.31-6.46-.51-7.1S272.23,69.83,272.23,69.83Z" style="fill:#455a64"></path><path d="M279.68,65s-.38-6.86,1.53-7S279.68,65,279.68,65Z" style="fill:#455a64"></path><path d="M272.73,69.71s2.93-6.22,4.65-5.4S272.73,69.71,272.73,69.71Z" style="fill:#455a64"></path><path d="M275.33,62.27s-1-6.51.78-6.79S275.33,62.27,275.33,62.27Z" style="fill:#455a64"></path><path d="M283.24,61.12s1.24-6.47,3-6.13S283.24,61.12,283.24,61.12Z" style="fill:#455a64"></path><path d="M282.07,62.49s5.14-4.14,6.28-2.71S282.07,62.49,282.07,62.49Z" style="fill:#455a64"></path><path d="M276.67,71.64s6.29-2,6.84-.25S276.67,71.64,276.67,71.64Z" style="fill:#455a64"></path><path d="M282,68.74s6.29-2,6.84-.25S282,68.74,282,68.74Z" style="fill:#455a64"></path><path d="M277.9,70.63s3.25-5.74,4.84-4.84S277.9,70.63,277.9,70.63Z" style="fill:#455a64"></path><path d="M282.6,68.21S286.55,62.93,288,64,282.6,68.21,282.6,68.21Z" style="fill:#455a64"></path><path d="M287.49,66.82s6.38-1.68,6.84.1S287.49,66.82,287.49,66.82Z" style="fill:#455a64"></path><path d="M286.61,58.77s4.92-3.61,5.92-2.25S286.61,58.77,286.61,58.77Z" style="fill:#455a64"></path><path d="M245.23,85.37c.1-.61-.84-.8-.94-.19q-2.58,15-5.15,30a.48.48,0,0,0,.94.19Q242.66,100.35,245.23,85.37Z" style="fill:#455a64"></path><path d="M243.34,94.51c.12-.6-.81-.83-.94-.23L236,124c-.13.6.81.83.94.23Z" style="fill:#455a64"></path><path d="M240.71,93.18c.13-.6-.81-.84-.94-.23l-6.36,29.72c-.13.61.81.84.94.23Z" style="fill:#455a64"></path><path d="M246.62,94.82c.22-.58-.67-1-.89-.38l-10.91,28.38c-.22.57.67,1,.89.37Q241.17,109,246.62,94.82Z" style="fill:#455a64"></path><path d="M247.81,94.87c.2-.59-.7-.93-.9-.34q-4.93,14.37-9.86,28.75c-.2.58.69.93.9.34Q242.87,109.25,247.81,94.87Z" style="fill:#455a64"></path><path d="M238.76,86.43c.08-.61-.87-.77-.95-.15q-2,15.06-4,30.13c-.08.62.87.78.95.16Q236.77,101.5,238.76,86.43Z" style="fill:#455a64"></path><path d="M243.66,90.53c.15-.6-.77-.88-.93-.28q-3.85,14.7-7.72,29.4a.48.48,0,0,0,.92.27Q239.79,105.22,243.66,90.53Z" style="fill:#455a64"></path><path d="M252.3,96.65c.34-.51-.44-1.07-.78-.56l-17,25.22c-.34.51.44,1.07.79.56Q243.8,109.26,252.3,96.65Z" style="fill:#455a64"></path><path d="M235.89,66.35s18.11-1.5,31.73,11.57l-22.08,28.84s-4.87.7-10.32-3.87Z" style="fill:#ebebeb"></path><path d="M235.29,99.4a32.28,32.28,0,0,1,3.14-3.78c1.14-1.19,2.34-2.31,3.58-3.38s2.53-2.1,3.84-3.08l1-.74,1-.69c.68-.46,1.35-.94,2-1.38a80.05,80.05,0,0,1,8.6-4.77c1.46-.74,3-1.34,4.49-2s3.06-1.15,4.62-1.67c-1.43.81-2.89,1.54-4.32,2.32l-2.14,1.17c-.71.39-1.43.76-2.13,1.18s-1.41.81-2.12,1.2-1.39.83-2.09,1.24-1.4.8-2.08,1.25l-2.05,1.3c-.69.42-1.35.88-2,1.32l-1,.67-1,.7c-1.35.91-2.64,1.88-3.94,2.84-.64.5-1.29,1-1.92,1.49s-1.27,1-1.88,1.54C237.67,97.18,236.45,98.26,235.29,99.4Z" style="fill:#dbdbdb"></path><path d="M245.46,67a30.8,30.8,0,0,1,2.88,4.06,42.87,42.87,0,0,1,2.37,4.37,34.86,34.86,0,0,1,1.84,4.63,18.27,18.27,0,0,1,1,4.91c-.64-1.54-1.33-3-2-4.5l-2.09-4.42c-.7-1.48-1.4-3-2.06-4.46S246,68.58,245.46,67Z" style="fill:#dbdbdb"></path><path d="M227.59,44.29c.38,0-1.18-7.32-3.42-6.21s2,4.92,2,4.92-5-3.24-5.58-1.34S224.3,44.71,227.59,44.29Z" style="fill:#90CAF9"></path><path d="M227.59,44.29c.38,0-1.18-7.32-3.42-6.21s2,4.92,2,4.92-5-3.24-5.58-1.34S224.3,44.71,227.59,44.29Z" style="opacity:0.1"></path><path d="M231,39.63c.31.22,4.1-6.17,1.7-6.88s-1.84,5-1.84,5S229.39,32,227.63,33,228.26,37.71,231,39.63Z" style="fill:#90CAF9"></path><path d="M285,73c-.38.06,1.49,7.27,3.69,6.07s-2.25-4.85-2.25-4.85,5.08,3,5.64,1.11S288.29,72.43,285,73Z" style="fill:#90CAF9"></path><path d="M289.3,65.43c-.21.32,6.34,3.86,7,1.43s-5.09-1.65-5.09-1.65,5.69-1.66,4.66-3.39S291.12,62.64,289.3,65.43Z" style="fill:#90CAF9"></path><path d="M289.3,65.43c-.21.32,6.34,3.86,7,1.43s-5.09-1.65-5.09-1.65,5.69-1.66,4.66-3.39S291.12,62.64,289.3,65.43Z" style="opacity:0.1"></path><path d="M260,61c-1.6.8-2.88,3.59-7.84,1.15s-7-5.81-5.92-9c.71-2.21-5.1-5.12,1.31-13,2.75-3.37,6.26-1.16,9-1.91,2.25-.61,5.38-3.39,10.33,2.12,4.27,4.75,1.24,6,1.78,8.63s1.71,4.24,0,7.5C265.36,62.93,262.14,59.94,260,61Z" style="fill:#90CAF9"></path><path d="M265.61,41.27c1.51.94,4.56.57,5.08,6.08s-1.3,9-4.59,9.77c-2.26.55-1.69,7-11.74,5.69-4.32-.58-4.28-4.73-6.34-6.66-1.71-1.6-5.72-2.81-3.61-9.91,1.81-6.13,4.48-4.21,6.41-6s2.72-3.68,6.39-4C264.46,35.72,263.6,40,265.61,41.27Z" style="fill:#90CAF9"></path><path d="M265.61,41.27c1.51.94,4.56.57,5.08,6.08s-1.3,9-4.59,9.77c-2.26.55-1.69,7-11.74,5.69-4.32-.58-4.28-4.73-6.34-6.66-1.71-1.6-5.72-2.81-3.61-9.91,1.81-6.13,4.48-4.21,6.41-6s2.72-3.68,6.39-4C264.46,35.72,263.6,40,265.61,41.27Z" style="opacity:0.1"></path><path d="M261.27,56.16s-7.25,3.28-11.81-3.25C249.46,52.91,252.27,63.4,261.27,56.16Z" style="fill:#90CAF9"></path><path d="M248.12,51.39s2.6-10.22,13.12-9.54C261.24,41.85,248.06,36.08,248.12,51.39Z" style="fill:#90CAF9"></path><path d="M254,45.68s5.91-2.41,9.36,3C263.32,48.64,261.39,40.15,254,45.68Z" style="fill:#90CAF9"></path><path d="M255.29,55.29s-5.33-3.52-2.85-9.4C252.44,45.89,246.53,52.28,255.29,55.29Z" style="fill:#90CAF9"></path><path d="M258.85,53.23a5,5,0,0,1-5.31-3.42S253.3,55.4,258.85,53.23Z" style="fill:#90CAF9"></path><path d="M260.4,49.36a3.78,3.78,0,0,1-4.28,2.11S259.65,53.8,260.4,49.36Z" style="fill:#90CAF9"></path><path d="M255.16,51.16a3.77,3.77,0,0,1,4.31-2S256,46.74,255.16,51.16Z" style="fill:#90CAF9"></path><path d="M252.92,49.49a5,5,0,0,1,5.93-2.15S254.55,43.76,252.92,49.49Z" style="fill:#90CAF9"></path><path d="M261,46.94a5,5,0,0,1-1.61,6.1S264.75,51.54,261,46.94Z" style="fill:#90CAF9"></path><path d="M263.84,49.84s-2.35,5.93-8.61,4.72C255.23,54.56,262.69,59,263.84,49.84Z" style="fill:#90CAF9"></path><path d="M262.86,44.28s4.56,4.42,1,9.71C263.9,54,270.87,48.84,262.86,44.28Z" style="fill:#90CAF9"></path><path d="M245,71.28c-.6,1.17-.14,3.38-4.15,4.11s-6.66-.4-7.46-2.77c-.54-1.62-5.26-.8-4.9-8.27.16-3.2,3.21-3.43,4.5-5.06,1.06-1.35,1.7-4.37,7.05-3.27,4.61.95,3.37,3,4.82,4.34s2.88,1.76,3.3,4.44C249,70.09,245.81,69.73,245,71.28Z" style="fill:#90CAF9"></path><path d="M239.69,57.15c1.31-.11,3-1.66,5.67,1.38s3.16,5.88,1.56,7.8c-1.1,1.31,2.07,4.91-4.48,8.5-2.81,1.55-4.6-.93-6.67-1.17-1.7-.2-4.61.84-6.47-4.3-1.61-4.42.81-4.45,1.16-6.38s0-3.37,2.06-5.13C236.58,54.36,238,57.29,239.69,57.15Z" style="fill:#90CAF9"></path><path d="M239.69,57.15c1.31-.11,3-1.66,5.67,1.38s3.16,5.88,1.56,7.8c-1.1,1.31,2.07,4.91-4.48,8.5-2.81,1.55-4.6-.93-6.67-1.17-1.7-.2-4.61.84-6.47-4.3-1.61-4.42.81-4.45,1.16-6.38s0-3.37,2.06-5.13C236.58,54.36,238,57.29,239.69,57.15Z" style="opacity:0.1"></path><path d="M243.63,67.87s-2.86,5.12-8.41,3.24C235.22,71.11,241.46,76.1,243.63,67.87Z" style="fill:#90CAF9"></path><path d="M233.75,70.79s-2.93-7.19,3.61-11.39C237.36,59.4,227,61.74,233.75,70.79Z" style="fill:#90CAF9"></path><path d="M234.71,64.85s2.46-4,6.85-2.33C241.56,62.52,236.7,58.33,234.71,64.85Z" style="fill:#90CAF9"></path><path d="M239.71,70s-4.7.24-5.8-4.33C233.91,65.64,233.2,72,239.71,70Z" style="fill:#90CAF9"></path><path d="M240.92,67.19a3.68,3.68,0,0,1-4.65.3S238.58,70.91,240.92,67.19Z" style="fill:#90CAF9"></path><path d="M240.15,64.22a2.79,2.79,0,0,1-1.62,3.12S241.64,67.18,240.15,64.22Z" style="fill:#90CAF9"></path><path d="M237.83,67.58a2.77,2.77,0,0,1,1.66-3.1S236.38,64.6,237.83,67.58Z" style="fill:#90CAF9"></path><path d="M235.76,67.57a3.67,3.67,0,0,1,2.58-3.87S234.22,63.46,235.76,67.57Z" style="fill:#90CAF9"></path><path d="M239.43,62.53a3.68,3.68,0,0,1,1.71,4.33S243.68,63.61,239.43,62.53Z" style="fill:#90CAF9"></path><path d="M242.39,63s1.21,4.54-3,6.56C239.35,69.56,245.73,69,242.39,63Z" style="fill:#90CAF9"></path><path d="M239.38,60.13s4.64.63,4.87,5.3C244.25,65.43,246.12,59.33,239.38,60.13Z" style="fill:#90CAF9"></path><path d="M275.84,79.44c-.59,1.17-.14,3.38-4.15,4.11s-6.66-.4-7.46-2.77c-.54-1.62-5.26-.8-4.9-8.26.16-3.2,3.21-3.43,4.5-5.07,1.06-1.35,1.7-4.37,7.05-3.26,4.61,1,3.37,3,4.82,4.33s2.88,1.77,3.3,4.44C279.85,78.26,276.63,77.89,275.84,79.44Z" style="fill:#90CAF9"></path><path d="M270.51,65.31c1.31-.11,3-1.66,5.68,1.38s3.15,5.88,1.55,7.8c-1.1,1.31,2.07,4.91-4.48,8.51-2.8,1.54-4.6-.94-6.67-1.18-1.7-.2-4.61.84-6.47-4.29-1.61-4.43.81-4.46,1.16-6.39s0-3.36,2.06-5.13C267.41,62.52,268.78,65.45,270.51,65.31Z" style="fill:#90CAF9"></path><path d="M270.51,65.31c1.31-.11,3-1.66,5.68,1.38s3.15,5.88,1.55,7.8c-1.1,1.31,2.07,4.91-4.48,8.51-2.8,1.54-4.6-.94-6.67-1.18-1.7-.2-4.61.84-6.47-4.29-1.61-4.43.81-4.46,1.16-6.39s0-3.36,2.06-5.13C267.41,62.52,268.78,65.45,270.51,65.31Z" style="opacity:0.1"></path><path d="M274.45,76s-2.86,5.12-8.41,3.24C266,79.27,272.29,84.26,274.45,76Z" style="fill:#90CAF9"></path><path d="M264.57,79s-2.93-7.2,3.61-11.4C268.18,67.56,257.84,69.91,264.57,79Z" style="fill:#90CAF9"></path><path d="M265.53,73s2.46-4,6.85-2.34C272.38,70.68,267.53,66.49,265.53,73Z" style="fill:#90CAF9"></path><path d="M270.53,78.13s-4.7.25-5.8-4.33C264.73,73.8,264,80.18,270.53,78.13Z" style="fill:#90CAF9"></path><path d="M271.74,75.36a3.68,3.68,0,0,1-4.64.29S269.4,79.07,271.74,75.36Z" style="fill:#90CAF9"></path><path d="M271,72.38a2.78,2.78,0,0,1-1.62,3.12S272.46,75.34,271,72.38Z" style="fill:#90CAF9"></path><path d="M268.65,75.74a2.76,2.76,0,0,1,1.66-3.09S267.2,72.76,268.65,75.74Z" style="fill:#90CAF9"></path><path d="M266.58,75.73a3.68,3.68,0,0,1,2.58-3.87S265.05,71.62,266.58,75.73Z" style="fill:#90CAF9"></path><path d="M270.25,70.7A3.67,3.67,0,0,1,272,75S274.5,71.77,270.25,70.7Z" style="fill:#90CAF9"></path><path d="M273.21,71.16s1.21,4.55-3,6.57C270.17,77.73,276.56,77.11,273.21,71.16Z" style="fill:#90CAF9"></path><path d="M270.2,68.29s4.64.63,4.87,5.31C275.07,73.6,277,67.5,270.2,68.29Z" style="fill:#90CAF9"></path><path d="M257.11,77.08c-1.7.85-3.06,3.83-8.36,1.22s-7.42-6.19-6.31-9.63c.76-2.35-5.44-5.46,1.4-13.84,2.93-3.59,6.68-1.24,9.58-2,2.4-.66,5.74-3.63,11,2.25,4.55,5.07,1.33,6.43,1.9,9.2s1.82,4.52,0,8C262.79,79.14,259.36,76,257.11,77.08Z" style="fill:#90CAF9"></path><path d="M257.11,77.08c-1.7.85-3.06,3.83-8.36,1.22s-7.42-6.19-6.31-9.63c.76-2.35-5.44-5.46,1.4-13.84,2.93-3.59,6.68-1.24,9.58-2,2.4-.66,5.74-3.63,11,2.25,4.55,5.07,1.33,6.43,1.9,9.2s1.82,4.52,0,8C262.79,79.14,259.36,76,257.11,77.08Z" style="opacity:0.1"></path><path d="M263.05,56c1.62,1,4.86.61,5.42,6.49s-1.38,9.56-4.9,10.42c-2.4.59-1.8,7.49-12.52,6.06-4.59-.62-4.55-5-6.75-7.1-1.82-1.7-6.1-3-3.85-10.57,1.93-6.53,4.78-4.49,6.84-6.43s2.89-3.93,6.81-4.21C261.83,50.13,260.92,54.72,263.05,56Z" style="fill:#90CAF9"></path><path d="M258.42,71.92s-7.73,3.5-12.58-3.46C245.84,68.46,248.83,79.64,258.42,71.92Z" style="fill:#90CAF9"></path><path d="M244.4,66.83s2.78-10.89,14-10.17C258.4,56.66,244.35,50.51,244.4,66.83Z" style="fill:#90CAF9"></path><path d="M250.63,60.74s6.3-2.56,10,3.17C260.61,63.91,258.56,54.85,250.63,60.74Z" style="fill:#90CAF9"></path><path d="M252.05,71s-5.68-3.75-3-10C249,61,242.71,67.78,252.05,71Z" style="fill:#90CAF9"></path><path d="M255.84,68.8s-4.34.52-5.65-3.65C250.19,65.15,249.93,71.11,255.84,68.8Z" style="fill:#90CAF9"></path><path d="M257.5,64.67a4,4,0,0,1-4.57,2.25S256.7,69.41,257.5,64.67Z" style="fill:#90CAF9"></path><path d="M251.91,66.59a4,4,0,0,1,4.6-2.17S252.79,61.87,251.91,66.59Z" style="fill:#90CAF9"></path><path d="M249.52,64.8s2.21-3.77,6.33-2.29C255.85,62.51,251.26,58.7,249.52,64.8Z" style="fill:#90CAF9"></path><path d="M258.11,62.09s1.84,4-1.72,6.51C256.39,68.6,262.14,67,258.11,62.09Z" style="fill:#90CAF9"></path><path d="M261.17,65.18s-2.51,6.33-9.19,5C252,70.21,260,75,261.17,65.18Z" style="fill:#90CAF9"></path><path d="M260.13,59.25S265,64,261.24,69.61C261.24,69.61,268.66,64.12,260.13,59.25Z" style="fill:#90CAF9"></path><g style="opacity:0.1"><path d="M258.42,71.92s-7.73,3.5-12.58-3.46C245.84,68.46,248.83,79.64,258.42,71.92Z"></path><path d="M244.4,66.83s2.78-10.89,14-10.17C258.4,56.66,244.35,50.51,244.4,66.83Z"></path><path d="M250.63,60.74s6.3-2.56,10,3.17C260.61,63.91,258.56,54.85,250.63,60.74Z"></path><path d="M252.05,71s-5.68-3.75-3-10C249,61,242.71,67.78,252.05,71Z"></path><path d="M255.84,68.8s-4.34.52-5.65-3.65C250.19,65.15,249.93,71.11,255.84,68.8Z"></path><path d="M257.5,64.67a4,4,0,0,1-4.57,2.25S256.7,69.41,257.5,64.67Z"></path><path d="M251.91,66.59a4,4,0,0,1,4.6-2.17S252.79,61.87,251.91,66.59Z"></path><path d="M249.52,64.8s2.21-3.77,6.33-2.29C255.85,62.51,251.26,58.7,249.52,64.8Z"></path><path d="M258.11,62.09s1.84,4-1.72,6.51C256.39,68.6,262.14,67,258.11,62.09Z"></path><path d="M261.17,65.18s-2.51,6.33-9.19,5C252,70.21,260,75,261.17,65.18Z"></path><path d="M260.13,59.25S265,64,261.24,69.61C261.24,69.61,268.66,64.12,260.13,59.25Z"></path></g></g><g id="freepik--Toast--inject-15"><circle cx="367.8" cy="128.86" r="50.46" style="fill:#fff"></circle><path d="M418.26,128.86a50.48,50.48,0,1,1-3.81-19.33A50.83,50.83,0,0,1,418.26,128.86Zm0,0a50.47,50.47,0,1,0-3.88,19.29A50.5,50.5,0,0,0,418.26,128.86Z" style="fill:#263238"></path><path d="M355.81,164.92a1.19,1.19,0,0,0,.65,1.91,1.52,1.52,0,0,0,.2.06,1.2,1.2,0,0,0,1.24-1.63A1.24,1.24,0,0,0,355.81,164.92Z" style="fill:#90CAF9"></path><path d="M396.75,99.77a1.19,1.19,0,0,0,.65,1.91l.2,0a1.19,1.19,0,0,0,1.24-1.62A1.24,1.24,0,0,0,396.75,99.77Z" style="fill:#90CAF9"></path><path d="M339.89,103.06a1.19,1.19,0,0,0,.66,1.91l.19,0A1.19,1.19,0,0,0,342,103.4,1.24,1.24,0,0,0,339.89,103.06Z" style="fill:#90CAF9"></path><path d="M355.57,160.49a.75.75,0,0,0,.79.28.85.85,0,0,0,.47-1.45A.86.86,0,0,0,355.57,160.49Z" style="fill:#90CAF9"></path><path d="M352.08,166a.59.59,0,0,0,1.15.22A.59.59,0,0,0,352.08,166Z" style="fill:#90CAF9"></path><path d="M407.56,143.93a.59.59,0,0,0,1.15.22A.59.59,0,0,0,407.56,143.93Z" style="fill:#90CAF9"></path><path d="M335.25,99.5a.59.59,0,0,0,1.15.23A.59.59,0,0,0,335.25,99.5Z" style="fill:#90CAF9"></path><path d="M395.9,108.06a.59.59,0,0,0,1.16.22A.59.59,0,0,0,395.9,108.06Z" style="fill:#90CAF9"></path><path d="M348.8,134l-9.62,33.2,11.32,7.29-27.23-7.89,13.46-.11,9.61-33.2c-7.19-3.13-4.18-13.55,4.74-44.37l17.43,5C359.57,124.84,356.55,135.24,348.8,134Z" style="fill:#ebebeb"></path><path d="M348.8,134l-9.49,33.23-.06-.14,11.33,7.27.87.55-1-.28-27.25-7.85-1.25-.36h1.3l13.47-.13-.2.15,9.58-33.21.14.29a6.62,6.62,0,0,1-2.45-1.77,6.89,6.89,0,0,1-1.34-2.71,17.4,17.4,0,0,1-.21-5.93,87,87,0,0,1,2.29-11.57c1.95-7.6,4.19-15.12,6.37-22.66l0-.17.17,0,17.42,5.08.14,0,0,.14c-2.21,7.53-4.34,15.09-6.81,22.54a85,85,0,0,1-4.29,11,17.1,17.1,0,0,1-3.33,4.82,6.56,6.56,0,0,1-2.5,1.51A6.27,6.27,0,0,1,348.8,134Zm0,0a6.36,6.36,0,0,0,2.91-.18,6.52,6.52,0,0,0,2.47-1.52,17,17,0,0,0,3.28-4.84,84.06,84.06,0,0,0,4.2-11c1.2-3.73,2.31-7.5,3.43-11.26L368.36,94l.11.18-17.44-5,.22-.12c-2.16,7.54-4.38,15.07-6.3,22.67a84,84,0,0,0-2.25,11.5,16.91,16.91,0,0,0,.22,5.77,5.79,5.79,0,0,0,3.52,4.16l.2.08-.06.21-9.65,33.19,0,.15h-.16l-13.46.09.05-.38,27.23,7.93-.13.27-11.31-7.3-.08-.06,0-.09Z" style="fill:#263238"></path><path d="M348.34,131.06c-3.36-1-5.32-4-.72-22.71a8.09,8.09,0,0,0,2.71,3.28c1.91,1,7.37-4.53,11.71-3.28C362,108.35,356.18,133.33,348.34,131.06Z" style="fill:#90CAF9"></path><path d="M386.3,166.56l10.86-7.83-11.32-32.5c-7.65,1.61-11.2-8.59-21.69-38.74l17-5.93c10.51,30.18,14.06,40.36,7.07,43.84l11.31,32.49,13.38-.61Z" style="fill:#ebebeb"></path><path d="M386.3,166.56l10.83-7.88,0,.07L385.7,126.28l.17.1a6.48,6.48,0,0,1-3,0,6.6,6.6,0,0,1-2.62-1.4,17.46,17.46,0,0,1-3.58-4.66,84.65,84.65,0,0,1-4.82-10.69c-2.82-7.29-5.35-14.67-7.94-22l-.07-.2.21-.07,17-6,.23-.08.07.23,3.84,11.07c1.26,3.69,2.5,7.4,3.65,11.13a83.86,83.86,0,0,1,2.87,11.38,17.19,17.19,0,0,1,.09,5.9,6.65,6.65,0,0,1-1.19,2.74,6.5,6.5,0,0,1-2.33,1.87l.1-.23,11.26,32.5-.14-.09,13.39-.59.8,0-.76.26Zm0,0,26.61-9.39,0,.23-13.39.63h-.1l0-.1-11.35-32.47-.06-.16.15-.07a5.92,5.92,0,0,0,2.19-1.77,6.2,6.2,0,0,0,1.11-2.58,16.9,16.9,0,0,0-.11-5.76,86,86,0,0,0-2.88-11.31c-2.34-7.44-5-14.79-7.52-22.18l.31.15-17,5.91.13-.27c2.57,7.37,5.08,14.76,7.87,22A84.76,84.76,0,0,0,377,120.12a17,17,0,0,0,3.5,4.59,6.38,6.38,0,0,0,2.49,1.35,6.15,6.15,0,0,0,2.83,0l.13,0,0,.13,11.23,32.53,0,0,0,0Z" style="fill:#263238"></path><path d="M386.17,123.26c-4.78,1.55-8.18-4.38-15.19-22.18a17.87,17.87,0,0,1,7,2c2.6,1.51,5.26,2.17,7.33-2.29C385.34,100.77,393.9,120.75,386.17,123.26Z" style="fill:#90CAF9"></path><path d="M370,94.45s1.85-9-1.14-13c-1.23-1.68-2.77-2.36-3.9-1.72s-1.51,3.34.52,5C368.58,87.34,369.84,89.62,370,94.45Z" style="fill:#90CAF9"></path><path d="M373.07,95.62s-2.5-4.93.06-5.14S373.07,95.62,373.07,95.62Z" style="fill:#90CAF9"></path></g><g id="freepik--Cake--inject-15"><circle cx="394.69" cy="247" r="50.46" transform="matrix(0.54, -0.84, 0.84, 0.54, -26.75, 444.94)" style="fill:#fff"></circle><path d="M445.15,247a50.71,50.71,0,0,1-50.46,50.71,50.71,50.71,0,1,1,35.73-86.44A50.53,50.53,0,0,1,445.15,247Zm0,0a50.52,50.52,0,1,0-3.88,19.29A50.54,50.54,0,0,0,445.15,247Z" style="fill:#263238"></path><path d="M362.83,235.56a1.19,1.19,0,0,0-1.76,1,1.36,1.36,0,0,0,0,.2,1.19,1.19,0,0,0,1.83.91A1.24,1.24,0,0,0,362.83,235.56Z" style="fill:#90CAF9"></path><path d="M434.55,263.43a1.2,1.2,0,0,0-1.76,1,.69.69,0,0,0,0,.2,1.19,1.19,0,0,0,1.83.91A1.24,1.24,0,0,0,434.55,263.43Z" style="fill:#90CAF9"></path><path d="M420.56,208.22a1.2,1.2,0,0,0-1.76,1,.66.66,0,0,0,0,.2,1.19,1.19,0,0,0,1.83.91A1.24,1.24,0,0,0,420.56,208.22Z" style="fill:#90CAF9"></path><path d="M367.13,234.48a.76.76,0,0,0-.13.83.85.85,0,0,0,1.51.19A.86.86,0,0,0,367.13,234.48Z" style="fill:#90CAF9"></path><path d="M361,232.1a.59.59,0,0,0,0,1.17A.59.59,0,0,0,361,232.1Z" style="fill:#90CAF9"></path><path d="M355.51,270.38a.59.59,0,0,0,0,1.18A.59.59,0,0,0,355.51,270.38Z" style="fill:#90CAF9"></path><path d="M423.17,203a.59.59,0,0,0,0,1.17A.59.59,0,0,0,423.17,203Z" style="fill:#90CAF9"></path><path d="M438.39,253.44a.59.59,0,0,0,0,1.17A.59.59,0,0,0,438.39,253.44Z" style="fill:#90CAF9"></path><path d="M383.47,221.33c6.84,4.21,16.3,3.33,16.3,3.33s4.93-8.11,4.14-16.1c-.66-6.66-5.69-11.16-10.42-9.88-6.77,1.84-2,12.68-2,12.68s-7.66-9-12.29-3.73C375.94,211.32,377.78,217.81,383.47,221.33Z" style="fill:#90CAF9"></path><path d="M383.47,221.33c6.84,4.21,16.3,3.33,16.3,3.33s4.93-8.11,4.14-16.1c-.66-6.66-5.69-11.16-10.42-9.88-6.77,1.84-2,12.68-2,12.68s-7.66-9-12.29-3.73C375.94,211.32,377.78,217.81,383.47,221.33Z" style="opacity:0.1"></path><path d="M394.11,214.72c1,5.51,5.82,10,5.82,10s6.51-1.2,10.29-5.31c3.16-3.43,3.17-8.13.31-10-4.1-2.67-7.53,4.82-7.53,4.82s1.13-8.16-3.76-8.11C395.82,206.17,393.3,210.13,394.11,214.72Z" style="fill:#90CAF9"></path><polygon points="427.94 268.88 362.28 268.88 365.36 292.52 424.85 292.52 427.94 268.88" style="fill:#90CAF9"></polygon><polygon points="427.94 268.88 362.28 268.88 365.36 292.52 424.85 292.52 427.94 268.88" style="fill:#fff;opacity:0.5"></polygon><polygon points="425.92 284.33 364.26 284.33 364.06 282.52 426.16 282.52 425.92 284.33" style="fill:#90CAF9"></polygon><path d="M396.39,267h31.55c3.07,0,5,7.09,1.66,7.86s-5.13-2.22-7.5-2.22-3,3.08-7.67,3.08c-4.1,0-6.58-4.79-11.28-4.79-8,0-13.59,7.95-20.77,7.95s-8.81-5.94-14-5.94c-2.73,0-5,3.55-8.43,1.84S358,267,362.28,267Z" style="fill:#90CAF9"></path><path d="M396.39,267h31.55c3.07,0,5,7.09,1.66,7.86s-5.13-2.22-7.5-2.22-3,3.08-7.67,3.08c-4.1,0-6.58-4.79-11.28-4.79-8,0-13.59,7.95-20.77,7.95s-8.81-5.94-14-5.94c-2.73,0-5,3.55-8.43,1.84S358,267,362.28,267Z" style="fill:#fff;opacity:0.7000000000000001"></path><polygon points="367.56 224.74 422.65 224.74 420.06 244.57 370.47 244.57 367.56 224.74" style="fill:#90CAF9"></polygon><polygon points="367.56 224.74 422.65 224.74 420.06 244.57 370.47 244.57 367.56 224.74" style="fill:#fff;opacity:0.5"></polygon><polygon points="420.82 238.77 369.62 238.77 369.36 236.95 421.06 236.95 420.82 238.77" style="fill:#90CAF9"></polygon><path d="M393.68,223.16H367.21c-2.58,0-4.22,6-1.39,6.6s4.3-1.87,6.29-1.87,2.49,2.59,6.44,2.59c3.44,0,5.52-4,9.46-4,6.75,0,11.41,6.67,17.43,6.67s7.39-5,11.77-5c2.29,0,4.18,3,7.07,1.54s1.63-6.53-2-6.53Z" style="fill:#90CAF9"></path><path d="M393.68,223.16H367.21c-2.58,0-4.22,6-1.39,6.6s4.3-1.87,6.29-1.87,2.49,2.59,6.44,2.59c3.44,0,5.52-4,9.46-4,6.75,0,11.41,6.67,17.43,6.67s7.39-5,11.77-5c2.29,0,4.18,3,7.07,1.54s1.63-6.53-2-6.53Z" style="fill:#fff;opacity:0.7000000000000001"></path><polygon points="364.26 246.22 425.95 246.22 423.05 267 367.22 267 364.26 246.22" style="fill:#90CAF9"></polygon><polygon points="364.26 246.22 425.95 246.22 423.05 267 367.22 267 364.26 246.22" style="fill:#fff;opacity:0.5"></polygon><path d="M393.1,244.57H363.46c-2.89,0-4.72,6.24-1.56,6.91s4.82-1.95,7.05-1.95,4.87,4.14,9.29,4.14c3.86,0,8.19-4,12.61-4,7.56,0,9.24,5.11,16,5.11s7.7-6.16,12.6-6.16c2.57,0,4.68,4.29,7.92,2.79s1.82-6.84-2.21-6.84Z" style="fill:#90CAF9"></path><path d="M393.1,244.57H363.46c-2.89,0-4.72,6.24-1.56,6.91s4.82-1.95,7.05-1.95,4.87,4.14,9.29,4.14c3.86,0,8.19-4,12.61-4,7.56,0,9.24,5.11,16,5.11s7.7-6.16,12.6-6.16c2.57,0,4.68,4.29,7.92,2.79s1.82-6.84-2.21-6.84Z" style="fill:#fff;opacity:0.7000000000000001"></path><polygon points="423.76 261.89 366.5 261.89 366.24 260.08 424.02 260.08 423.76 261.89" style="fill:#90CAF9"></polygon></g><g id="freepik--Table--inject-15"><polygon points="459.98 456.67 407.49 456.92 354.99 457 250 457.17 145.01 457 92.52 456.92 40.02 456.67 92.52 456.43 145.01 456.34 250 456.17 354.99 456.34 407.49 456.43 459.98 456.67" style="fill:#263238"></polygon></g><g id="freepik--Calendar--inject-15"><polygon points="51.4 461.54 63.27 456.96 133.27 461.54 149.67 393.41 60.6 393.41 51.4 461.54" style="fill:#90CAF9"></polygon><g style="opacity:0.2"><polygon points="51.4 461.54 63.27 456.96 133.27 461.54 149.67 393.41 60.6 393.41 51.4 461.54"></polygon></g><polygon points="166.35 461.54 77.28 461.54 60.87 393.41 149.95 393.41 166.35 461.54" style="fill:#90CAF9"></polygon><polygon points="166.35 461.54 77.28 461.54 60.87 393.41 149.95 393.41 166.35 461.54" style="fill:#fff;opacity:0.5"></polygon><polygon points="77.28 461.54 63.27 455.66 51.4 461.54 63.27 456.96 77.28 461.54" style="fill:#90CAF9"></polygon><polygon points="63.27 455.66 75.86 455.66 77.28 461.54 63.27 455.66" style="fill:#90CAF9"></polygon><polygon points="63.27 455.66 75.86 455.66 77.28 461.54 63.27 455.66" style="opacity:0.1"></polygon><path d="M75.51,393.42a4.65,4.65,0,0,1,.06,2.21,3,3,0,0,1-.59,1.19,2.23,2.23,0,0,1-1.64.81l-.21,0a.53.53,0,0,1-.46-.59.54.54,0,0,1,.6-.46,1.11,1.11,0,0,0,.9-.43,1.32,1.32,0,0,0,.29-.5,3.57,3.57,0,0,0,0-2.21l0-.07c-.4-1.31-1.26-1.9-1.86-1.78s-.83.77-.75,1.74a.2.2,0,0,1,0,.11h-1v0c-.16-1.87.76-2.72,1.6-2.87,1.09-.21,2.49.59,3.08,2.52C75.45,393.17,75.48,393.3,75.51,393.42Z" style="fill:#455a64"></path><path d="M69,393.42a4.52,4.52,0,0,1,.06,2.21,2.74,2.74,0,0,1-.59,1.19,2.2,2.2,0,0,1-1.63.81l-.22,0a.52.52,0,0,1-.45-.59.53.53,0,0,1,.59-.46,1.14,1.14,0,0,0,.91-.43,1.64,1.64,0,0,0,.29-.5,3.58,3.58,0,0,0-.06-2.21l0-.07c-.39-1.31-1.26-1.9-1.86-1.78s-.82.77-.74,1.74v.11H64.19v0c-.16-1.87.76-2.72,1.6-2.87,1.09-.21,2.5.59,3.08,2.52C68.91,393.17,68.94,393.3,69,393.42Z" style="fill:#455a64"></path><path d="M88.58,393.42a4.67,4.67,0,0,1,.07,2.21,3,3,0,0,1-.59,1.19,2.24,2.24,0,0,1-1.64.81l-.22,0a.52.52,0,0,1-.45-.59.54.54,0,0,1,.6-.46,1.11,1.11,0,0,0,.9-.43,1.64,1.64,0,0,0,.29-.5,3.51,3.51,0,0,0-.06-2.21v-.07c-.4-1.31-1.26-1.9-1.87-1.78s-.82.77-.74,1.74v.11H83.8v0c-.15-1.87.77-2.72,1.6-2.87,1.09-.21,2.5.59,3.08,2.52C88.52,393.17,88.55,393.3,88.58,393.42Z" style="fill:#455a64"></path><path d="M82,393.42a4.67,4.67,0,0,1,.07,2.21,3,3,0,0,1-.59,1.19,2.24,2.24,0,0,1-1.64.81l-.22,0a.53.53,0,0,1-.45-.59.54.54,0,0,1,.6-.46,1.11,1.11,0,0,0,.9-.43,1.46,1.46,0,0,0,.29-.5,3.57,3.57,0,0,0,0-2.21l0-.07c-.4-1.31-1.26-1.9-1.87-1.78s-.82.77-.74,1.74v.11h-1v0c-.16-1.87.76-2.72,1.6-2.87,1.08-.21,2.49.59,3.07,2.52C82,393.17,82,393.3,82,393.42Z" style="fill:#455a64"></path><path d="M95.12,393.42a4.52,4.52,0,0,1,.06,2.21,2.74,2.74,0,0,1-.59,1.19,2.2,2.2,0,0,1-1.63.81l-.22,0a.52.52,0,0,1-.45-.59.54.54,0,0,1,.6-.46,1.13,1.13,0,0,0,.9-.43,1.64,1.64,0,0,0,.29-.5,3.58,3.58,0,0,0-.06-2.21l0-.07c-.39-1.31-1.26-1.9-1.86-1.78s-.83.77-.74,1.74v.11H90.34v0c-.16-1.87.76-2.72,1.6-2.87,1.09-.21,2.5.59,3.08,2.52C95.06,393.17,95.09,393.3,95.12,393.42Z" style="fill:#455a64"></path><path d="M101.66,393.42a4.52,4.52,0,0,1,.06,2.21,3,3,0,0,1-.59,1.19,2.2,2.2,0,0,1-1.63.81l-.22,0a.53.53,0,0,1-.46-.59.54.54,0,0,1,.6-.46,1.11,1.11,0,0,0,.9-.43,1.48,1.48,0,0,0,.3-.5,3.65,3.65,0,0,0-.06-2.21l0-.07c-.4-1.31-1.26-1.9-1.86-1.78s-.83.77-.74,1.74a.37.37,0,0,1,0,.11H96.88v0c-.16-1.87.76-2.72,1.6-2.87,1.09-.21,2.49.59,3.08,2.52Z" style="fill:#455a64"></path><path d="M108.2,393.42a4.65,4.65,0,0,1,.06,2.21,3,3,0,0,1-.59,1.19,2.24,2.24,0,0,1-1.64.81l-.22,0a.52.52,0,0,1-.45-.59.54.54,0,0,1,.6-.46,1.11,1.11,0,0,0,.9-.43,1.64,1.64,0,0,0,.29-.5,3.57,3.57,0,0,0-.05-2.21l0-.07c-.4-1.31-1.26-1.9-1.87-1.78s-.82.77-.74,1.74a.4.4,0,0,1,0,.11h-1v0c-.15-1.87.77-2.72,1.6-2.87,1.09-.21,2.5.59,3.08,2.52C108.13,393.17,108.17,393.3,108.2,393.42Z" style="fill:#455a64"></path><path d="M121.27,393.42a4.52,4.52,0,0,1,.06,2.21,2.74,2.74,0,0,1-.59,1.19,2.2,2.2,0,0,1-1.63.81l-.22,0a.52.52,0,0,1-.45-.59.53.53,0,0,1,.59-.46,1.14,1.14,0,0,0,.91-.43,1.64,1.64,0,0,0,.29-.5,3.58,3.58,0,0,0-.06-2.21l0-.07c-.39-1.31-1.26-1.9-1.86-1.78s-.82.77-.74,1.74v.11h-1.06v0c-.16-1.87.76-2.72,1.6-2.87,1.09-.21,2.5.59,3.08,2.52C121.21,393.17,121.24,393.3,121.27,393.42Z" style="fill:#455a64"></path><path d="M114.73,393.42a4.52,4.52,0,0,1,.06,2.21,2.74,2.74,0,0,1-.59,1.19,2.2,2.2,0,0,1-1.63.81l-.22,0a.52.52,0,0,1-.45-.59.54.54,0,0,1,.6-.46,1.12,1.12,0,0,0,.9-.43,1.64,1.64,0,0,0,.29-.5,3.51,3.51,0,0,0-.06-2.21l0-.07c-.39-1.31-1.25-1.9-1.86-1.78s-.82.77-.74,1.74v.11H110v0c-.15-1.87.77-2.72,1.6-2.87,1.09-.21,2.5.59,3.08,2.52C114.67,393.17,114.7,393.3,114.73,393.42Z" style="fill:#455a64"></path><path d="M127.81,393.42a4.52,4.52,0,0,1,.06,2.21,3,3,0,0,1-.59,1.19,2.23,2.23,0,0,1-1.64.81l-.21,0A.54.54,0,0,1,125,397a.54.54,0,0,1,.6-.46,1.11,1.11,0,0,0,.9-.43,1.32,1.32,0,0,0,.29-.5,3.57,3.57,0,0,0-.05-2.21l0-.07c-.4-1.31-1.26-1.9-1.86-1.78s-.83.77-.75,1.74a.2.2,0,0,1,0,.11h-1v0c-.16-1.87.76-2.72,1.6-2.87,1.09-.21,2.49.59,3.08,2.52C127.75,393.17,127.78,393.3,127.81,393.42Z" style="fill:#455a64"></path><path d="M140.88,393.42a4.67,4.67,0,0,1,.07,2.21,3,3,0,0,1-.59,1.19,2.24,2.24,0,0,1-1.64.81l-.22,0a.52.52,0,0,1-.45-.59.54.54,0,0,1,.6-.46,1.11,1.11,0,0,0,.9-.43,1.64,1.64,0,0,0,.29-.5,3.51,3.51,0,0,0-.06-2.21v-.07c-.4-1.31-1.26-1.9-1.87-1.78s-.82.77-.74,1.74v.11H136.1v0c-.15-1.87.77-2.72,1.6-2.87,1.09-.21,2.5.59,3.08,2.52C140.82,393.17,140.85,393.3,140.88,393.42Z" style="fill:#455a64"></path><path d="M146.89,396.82a2.2,2.2,0,0,1-1.63.81l-.22,0a.52.52,0,0,1-.45-.59.54.54,0,0,1,.6-.46,1.13,1.13,0,0,0,.9-.43,3,3,0,0,0,.21-2.78c-.39-1.31-1.26-1.9-1.86-1.78s-.83.77-.74,1.74v.11h-1.06v0c-.16-1.87.76-2.72,1.6-2.87,1.09-.21,2.5.59,3.08,2.52C148,395.15,147.32,396.32,146.89,396.82Z" style="fill:#455a64"></path><path d="M134.34,393.42a4.67,4.67,0,0,1,.07,2.21,3,3,0,0,1-.59,1.19,2.23,2.23,0,0,1-1.64.81l-.22,0a.53.53,0,0,1-.45-.59.54.54,0,0,1,.6-.46,1.11,1.11,0,0,0,.9-.43,1.46,1.46,0,0,0,.29-.5,3.57,3.57,0,0,0-.05-2.21l0-.07c-.4-1.31-1.26-1.9-1.87-1.78s-.82.77-.74,1.74a.2.2,0,0,1,0,.11h-1.05v0c-.16-1.87.76-2.72,1.6-2.87,1.08-.21,2.49.59,3.07,2.52C134.28,393.17,134.31,393.3,134.34,393.42Z" style="fill:#455a64"></path><polygon points="83.32 413.76 74.09 413.76 71.88 404.53 81.11 404.53 83.32 413.76" style="fill:#455a64"></polygon><polygon points="93.99 413.76 84.76 413.76 82.55 404.53 91.78 404.53 93.99 413.76" style="fill:#fff"></polygon><polygon points="104.67 413.76 95.44 413.76 93.23 404.53 102.46 404.53 104.67 413.76" style="fill:#fff"></polygon><polygon points="115.34 413.76 106.12 413.76 103.91 404.53 113.13 404.53 115.34 413.76" style="fill:#fff"></polygon><polygon points="126.02 413.76 116.79 413.76 114.58 404.53 123.81 404.53 126.02 413.76" style="fill:#fff"></polygon><polygon points="136.69 413.76 127.46 413.76 125.25 404.53 134.48 404.53 136.69 413.76" style="fill:#fff"></polygon><polygon points="147.36 413.76 138.14 413.76 135.93 404.53 145.15 404.53 147.36 413.76" style="fill:#fff"></polygon><polygon points="85.82 424.19 76.59 424.19 74.38 414.96 83.61 414.96 85.82 424.19" style="fill:#455a64"></polygon><polygon points="96.49 424.19 87.27 424.19 85.06 414.96 94.28 414.96 96.49 424.19" style="fill:#fff"></polygon><polygon points="107.17 424.19 97.94 424.19 95.73 414.96 104.96 414.96 107.17 424.19" style="fill:#fff"></polygon><polygon points="117.84 424.19 108.62 424.19 106.41 414.96 115.63 414.96 117.84 424.19" style="fill:#fff"></polygon><polygon points="128.52 424.19 119.29 424.19 117.08 414.96 126.31 414.96 128.52 424.19" style="fill:#fff"></polygon><polygon points="139.19 424.19 129.96 424.19 127.75 414.96 136.98 414.96 139.19 424.19" style="fill:#fff"></polygon><polygon points="149.86 424.19 140.64 424.19 138.43 414.96 147.65 414.96 149.86 424.19" style="fill:#fff"></polygon><polygon points="88.32 434.63 79.09 434.63 76.88 425.4 86.11 425.4 88.32 434.63" style="fill:#455a64"></polygon><polygon points="98.99 434.63 89.77 434.63 87.56 425.4 96.78 425.4 98.99 434.63" style="fill:#fff"></polygon><polygon points="109.67 434.63 100.44 434.63 98.23 425.4 107.46 425.4 109.67 434.63" style="fill:#fff"></polygon><polygon points="120.34 434.63 111.12 434.63 108.91 425.4 118.13 425.4 120.34 434.63" style="fill:#fff"></polygon><polygon points="131.02 434.63 121.79 434.63 119.58 425.4 128.81 425.4 131.02 434.63" style="fill:#fff"></polygon><polygon points="141.69 434.63 132.46 434.63 130.25 425.4 139.48 425.4 141.69 434.63" style="fill:#fff"></polygon><polygon points="152.36 434.63 143.14 434.63 140.93 425.4 150.15 425.4 152.36 434.63" style="fill:#fff"></polygon><polygon points="90.82 445.06 81.59 445.06 79.38 435.83 88.61 435.83 90.82 445.06" style="fill:#455a64"></polygon><polygon points="101.49 445.06 92.27 445.06 90.06 435.83 99.28 435.83 101.49 445.06" style="fill:#fff"></polygon><polygon points="112.17 445.06 102.94 445.06 100.73 435.83 109.96 435.83 112.17 445.06" style="fill:#fff"></polygon><polygon points="122.84 445.06 113.62 445.06 111.41 435.83 120.63 435.83 122.84 445.06" style="fill:#fff"></polygon><polygon points="133.52 445.06 124.29 445.06 122.08 435.83 131.31 435.83 133.52 445.06" style="fill:#fff"></polygon><polygon points="144.19 445.06 134.96 445.06 132.75 435.83 141.98 435.83 144.19 445.06" style="fill:#fff"></polygon><polygon points="154.86 445.06 145.64 445.06 143.43 435.83 152.65 435.83 154.86 445.06" style="fill:#fff"></polygon><polygon points="93.32 455.49 84.09 455.49 81.88 446.27 91.11 446.27 93.32 455.49" style="fill:#455a64"></polygon><polygon points="103.99 455.49 94.77 455.49 92.56 446.27 101.78 446.27 103.99 455.49" style="fill:#fff"></polygon><polygon points="114.67 455.49 105.44 455.49 103.23 446.27 112.46 446.27 114.67 455.49" style="fill:#fff"></polygon><polygon points="125.34 455.49 116.12 455.49 113.91 446.27 123.13 446.27 125.34 455.49" style="fill:#fff"></polygon><polygon points="136.02 455.49 126.79 455.49 124.58 446.27 133.81 446.27 136.02 455.49" style="fill:#fff"></polygon><polygon points="146.69 455.49 137.46 455.49 135.25 446.27 144.48 446.27 146.69 455.49" style="fill:#fff"></polygon><polygon points="157.36 455.49 148.14 455.49 145.93 446.27 155.15 446.27 157.36 455.49" style="fill:#fff"></polygon><path d="M74.85,402.23a.52.52,0,0,0-.18-.1.59.59,0,0,0-.23-.05.37.37,0,0,0-.25.07.18.18,0,0,0,0,.19.16.16,0,0,0,0,.1.27.27,0,0,0,.08.07l.13.05.19.05.21.05.17.07.12.11a.52.52,0,0,1,.07.15.48.48,0,0,1,0,.17.23.23,0,0,1-.08.12.26.26,0,0,1-.14.06.54.54,0,0,1-.19,0,1,1,0,0,1-.6-.2l0-.11.1.07.13.06.15,0,.15,0a.42.42,0,0,0,.25-.06.16.16,0,0,0,0-.18.2.2,0,0,0-.06-.11.24.24,0,0,0-.09-.08l-.15-.05-.19,0-.2-.05-.16-.07a.32.32,0,0,1-.1-.1.46.46,0,0,1-.07-.14.48.48,0,0,1,0-.17.24.24,0,0,1,.07-.12.32.32,0,0,1,.14-.08.54.54,0,0,1,.19,0,.75.75,0,0,1,.26.05.65.65,0,0,1,.22.11Z" style="fill:#37474f"></path><path d="M76,403.24a.31.31,0,0,0,.2-.05.24.24,0,0,0,.11-.13.48.48,0,0,0,0-.18l0-.21-.17-.7h.14l.16.7a.84.84,0,0,1,0,.27.79.79,0,0,1-.05.22.36.36,0,0,1-.15.15.47.47,0,0,1-.25.05.65.65,0,0,1-.29-.05.73.73,0,0,1-.22-.16,1.07,1.07,0,0,1-.15-.22,1.34,1.34,0,0,1-.09-.26l-.17-.7h.14l.16.7a1.8,1.8,0,0,0,.08.21,1.18,1.18,0,0,0,.11.19.66.66,0,0,0,.17.12A.43.43,0,0,0,76,403.24Z" style="fill:#37474f"></path><path d="M76.83,402.23l.27,1.13H77L76.63,402h.11l1.19,1.15L77.65,402h.14l.33,1.38H78Z" style="fill:#37474f"></path><path d="M86,403.36l-.27-1.14-.29.88h-.08l-.72-.88.27,1.14h-.13L84.4,402h.14l.76.95.32-.95h.14l.33,1.39Z" style="fill:#37474f"></path><path d="M87,403.36a.69.69,0,0,1-.28-.05,1.25,1.25,0,0,1-.24-.16,1,1,0,0,1-.18-.23.66.66,0,0,1-.11-.26.59.59,0,0,1,0-.26.54.54,0,0,1,.09-.22.44.44,0,0,1,.17-.16.48.48,0,0,1,.24-.06.58.58,0,0,1,.28.07.78.78,0,0,1,.24.16,1,1,0,0,1,.18.22.66.66,0,0,1,.11.26.78.78,0,0,1,0,.26.49.49,0,0,1-.09.22.41.41,0,0,1-.16.16A.51.51,0,0,1,87,403.36Zm-.68-.7a.85.85,0,0,0,.09.22.9.9,0,0,0,.15.19.76.76,0,0,0,.19.12.44.44,0,0,0,.22.05.31.31,0,0,0,.2-.05.33.33,0,0,0,.13-.13.6.6,0,0,0,.06-.19.77.77,0,0,0,0-.21,1,1,0,0,0-.09-.21l-.15-.19a.82.82,0,0,0-.2-.12.41.41,0,0,0-.21-.05.39.39,0,0,0-.2.05.33.33,0,0,0-.13.13.55.55,0,0,0-.06.18A.74.74,0,0,0,86.31,402.66Z" style="fill:#37474f"></path><path d="M87.76,402.23l.27,1.13h-.14L87.56,402h.11l1.19,1.15L88.58,402h.14l.33,1.38h-.12Z" style="fill:#37474f"></path><path d="M96.49,402.09H96l.3,1.27h-.13l-.3-1.27h-.5l0-.12h1.12Z" style="fill:#37474f"></path><path d="M97.54,403.24a.31.31,0,0,0,.2-.05.24.24,0,0,0,.11-.13.48.48,0,0,0,0-.18l0-.21-.17-.7h.14l.16.7a1.26,1.26,0,0,1,0,.27.79.79,0,0,1,0,.22.36.36,0,0,1-.15.15.47.47,0,0,1-.25.05.65.65,0,0,1-.29-.05.73.73,0,0,1-.22-.16,1.07,1.07,0,0,1-.15-.22,1.34,1.34,0,0,1-.09-.26l-.17-.7h.14l.16.7a.9.9,0,0,0,.08.21,1.18,1.18,0,0,0,.11.19.66.66,0,0,0,.17.12A.43.43,0,0,0,97.54,403.24Z" style="fill:#37474f"></path><path d="M99.37,403.23l0,.13h-.93L98.14,402h.91l0,.12h-.77l.12.5h.67l0,.12h-.68l.13.52Z" style="fill:#37474f"></path><path d="M106.3,402h.12l.32.49.08-.49H107l-.1.59.41.63.21-1.23h.14l-.25,1.39h-.12l-.45-.69-.13.69h-.12l-.92-1.39h.15l.8,1.23.11-.63Z" style="fill:#37474f"></path><path d="M109,403.23l0,.13h-.93l-.33-1.39h.91l0,.12H108l.12.5h.68l0,.12h-.68l.13.52Z" style="fill:#37474f"></path><path d="M109.32,403.36,109,402h.47a.73.73,0,0,1,.3.06.58.58,0,0,1,.25.15.62.62,0,0,1,.17.22.85.85,0,0,1,.11.26,1,1,0,0,1,0,.29.53.53,0,0,1-.08.22.44.44,0,0,1-.18.14.67.67,0,0,1-.26.05Zm.83-.7a.92.92,0,0,0-.09-.23.86.86,0,0,0-.14-.18.52.52,0,0,0-.19-.11.64.64,0,0,0-.24-.05h-.33l.27,1.14h.33a.48.48,0,0,0,.22,0,.41.41,0,0,0,.14-.12.35.35,0,0,0,0-.18A.62.62,0,0,0,110.15,402.66Z" style="fill:#37474f"></path><path d="M117.72,402.09h-.5l.31,1.27h-.14l-.3-1.27h-.49l0-.12h1.12Z" style="fill:#37474f"></path><path d="M119,402l.33,1.39h-.13l-.15-.65h-.82l.15.65h-.13l-.34-1.39H118l.15.62H119l-.15-.62Z" style="fill:#37474f"></path><path d="M120.19,403.24a.33.33,0,0,0,.21-.05.28.28,0,0,0,.11-.13.35.35,0,0,0,0-.18.76.76,0,0,0,0-.21l-.16-.7h.13l.17.7a1.24,1.24,0,0,1,0,.27.54.54,0,0,1,0,.22.36.36,0,0,1-.15.15.47.47,0,0,1-.25.05.65.65,0,0,1-.29-.05.73.73,0,0,1-.22-.16,1.07,1.07,0,0,1-.15-.22,1.34,1.34,0,0,1-.09-.26l-.17-.7h.13l.17.7a1.72,1.72,0,0,0,.07.21.76.76,0,0,0,.12.19.52.52,0,0,0,.17.12A.4.4,0,0,0,120.19,403.24Z" style="fill:#37474f"></path><path d="M128.31,403.36,128,402h.9l0,.12h-.77l.12.51h.65l0,.12h-.65l.16.64Z" style="fill:#37474f"></path><path d="M129.45,403.36l-.33-1.39h.59a.53.53,0,0,1,.17,0,.56.56,0,0,1,.15.1.53.53,0,0,1,.12.14.46.46,0,0,1,.07.16.34.34,0,0,1,0,.14.28.28,0,0,1,0,.13.31.31,0,0,1-.07.09.26.26,0,0,1-.12.05l.47.54h-.16l-.44-.51h-.41l.12.51Zm0-.64h.45a.15.15,0,0,0,.1,0,.16.16,0,0,0,.07-.07.19.19,0,0,0,0-.1.25.25,0,0,0,0-.12.31.31,0,0,0-.05-.12.39.39,0,0,0-.08-.1.41.41,0,0,0-.11-.07.23.23,0,0,0-.11,0h-.44Z" style="fill:#37474f"></path><path d="M130.72,403.36l-.33-1.39h.14l.33,1.39Z" style="fill:#37474f"></path><path d="M139.24,402.23a.49.49,0,0,0-.19-.1.56.56,0,0,0-.23-.05.39.39,0,0,0-.25.07.24.24,0,0,0,0,.19.23.23,0,0,0,.05.1.22.22,0,0,0,.09.07l.13.05.18.05.21.05.17.07a.43.43,0,0,1,.12.11.35.35,0,0,1,.07.15.34.34,0,0,1,0,.17.32.32,0,0,1-.08.12.3.3,0,0,1-.14.06.6.6,0,0,1-.2,0,1.05,1.05,0,0,1-.6-.2l0-.11.11.07.13.06.14,0,.16,0a.38.38,0,0,0,.24-.06.16.16,0,0,0,0-.18.28.28,0,0,0,0-.11.27.27,0,0,0-.1-.08l-.14-.05-.19,0-.21-.05a.69.69,0,0,1-.15-.07.52.52,0,0,1-.11-.1.3.3,0,0,1-.06-.14.33.33,0,0,1,0-.17.25.25,0,0,1,.08-.12.29.29,0,0,1,.13-.08.6.6,0,0,1,.2,0,1,1,0,0,1,.48.16Z" style="fill:#37474f"></path><path d="M140,402h.12l.9,1.39h-.14l-.28-.44h-.62l-.08.44h-.14Zm.54.85-.44-.69-.12.69Z" style="fill:#37474f"></path><path d="M141.71,402.09h-.49l.3,1.27h-.13l-.31-1.27h-.49l0-.12h1.12Z" style="fill:#37474f"></path><polygon points="90.68 406.82 84.75 406.82 84.64 406.36 90.57 406.36 90.68 406.82" style="fill:#c7c7c7"></polygon><polygon points="88.35 407.83 84.99 407.83 84.88 407.37 88.23 407.37 88.35 407.83" style="fill:#c7c7c7"></polygon><polygon points="111.26 448.53 105.33 448.53 105.22 448.07 111.15 448.07 111.26 448.53" style="fill:#c7c7c7"></polygon><polygon points="108.92 449.54 105.57 449.54 105.46 449.08 108.81 449.08 108.92 449.54" style="fill:#c7c7c7"></polygon><polygon points="130.01 437.91 124.08 437.91 123.97 437.45 129.9 437.45 130.01 437.91" style="fill:#c7c7c7"></polygon><polygon points="127.67 439.94 124.57 439.94 124.46 439.47 127.56 439.47 127.67 439.94" style="fill:#c7c7c7"></polygon><polygon points="128.6 438.92 124.33 438.92 124.22 438.46 128.49 438.46 128.6 438.92" style="fill:#c7c7c7"></polygon><path d="M139.16,444.29a6.92,6.92,0,0,1-3.93-1.13,4.28,4.28,0,0,1-1.66-2.26,2.94,2.94,0,0,1,.23-2.58c.64-1,2-1.52,4-1.6a.31.31,0,0,1,.3.24.19.19,0,0,1-.17.25c-1.87.07-3.16.57-3.74,1.44a2.53,2.53,0,0,0-.19,2.22,3.49,3.49,0,0,0,1.41,1.91,6.65,6.65,0,0,0,4.51,1c2.58-.3,3.65-1.52,3-3.46a2.54,2.54,0,0,0-1-1.26,7.24,7.24,0,0,0-4.67-.89.32.32,0,0,1-.33-.21.19.19,0,0,1,.15-.27,7.8,7.8,0,0,1,5.06,1,3.2,3.2,0,0,1,1.31,1.6c.73,2.21-.47,3.66-3.31,4A8.18,8.18,0,0,1,139.16,444.29Z" style="fill:#90CAF9"></path><path d="M118.73,423.27H111a5.1,5.1,0,0,1-.74-1.54l-1.44-6.21h7.75s1.09,4.72,1.46,6.29A5.32,5.32,0,0,0,118.73,423.27Z" style="fill:#37474f"></path><path d="M110.56,417.35c.89-.07,1.8-.09,2.71-.09s1.83,0,2.76.09c-.9.08-1.8.09-2.71.1S111.49,417.43,110.56,417.35Z" style="fill:#fff"></path><path d="M110.8,418.37c.8-.07,1.61-.09,2.43-.09s1.65,0,2.48.09c-.8.08-1.61.1-2.43.1S111.63,418.45,110.8,418.37Z" style="fill:#fff"></path><path d="M111,419.39c.7-.07,1.41-.09,2.13-.09s1.44,0,2.17.09a18.76,18.76,0,0,1-2.13.1A20,20,0,0,1,111,419.39Z" style="fill:#fff"></path><path d="M111.27,420.42c.89-.08,1.8-.1,2.71-.1s1.83,0,2.76.1c-.9.07-1.81.09-2.72.09S112.2,420.49,111.27,420.42Z" style="fill:#fff"></path><path d="M147.59,454.67h-7.76a5.37,5.37,0,0,1-.74-1.54c-.35-1.56-1.43-6.21-1.43-6.21h7.75s1.09,4.71,1.45,6.29A5.55,5.55,0,0,0,147.59,454.67Z" style="fill:#a6a6a6"></path><path d="M139.42,448.75c.89-.07,1.8-.09,2.71-.1s1.83,0,2.76.1c-.9.08-1.81.09-2.72.1S140.35,448.82,139.42,448.75Z" style="fill:#fff"></path><path d="M139.65,449.77c.81-.07,1.62-.09,2.44-.09s1.64,0,2.48.09c-.8.08-1.62.09-2.44.1S140.49,449.85,139.65,449.77Z" style="fill:#fff"></path><path d="M139.89,450.79c.7-.07,1.41-.09,2.13-.09s1.44,0,2.17.09a18.76,18.76,0,0,1-2.13.1A19.81,19.81,0,0,1,139.89,450.79Z" style="fill:#fff"></path><path d="M140.12,451.82c.9-.08,1.81-.1,2.72-.1s1.82,0,2.75.1c-.89.07-1.8.09-2.71.09S141.05,451.89,140.12,451.82Z" style="fill:#fff"></path><path d="M100.55,445.05H94.39a11.64,11.64,0,0,1-.49-1.54l-1.43-6.21h7.75s1.09,4.71,1.45,6.29C101.82,444.22,100.55,445.05,100.55,445.05Z" style="fill:#90CAF9"></path><path d="M101.67,443.59c.14.61-1,1.41-1.12,1.46.2-.16-.12-1.37-.12-1.37A7.1,7.1,0,0,1,101.67,443.59Z" style="opacity:0.2"></path><path d="M94,439.13c.9-.07,1.8-.09,2.71-.1s1.83,0,2.76.1c-.89.08-1.8.09-2.71.1S95,439.2,94,439.13Z" style="fill:#fff"></path><path d="M94.27,440.15c.7-.07,1.41-.09,2.13-.09s1.44,0,2.17.09c-.7.08-1.41.09-2.13.1S95,440.23,94.27,440.15Z" style="fill:#fff"></path><path d="M94.5,441.17c.7-.07,1.42-.09,2.13-.09s1.44,0,2.18.09a18.87,18.87,0,0,1-2.13.1A20.11,20.11,0,0,1,94.5,441.17Z" style="fill:#fff"></path></g></svg>