<svg xmlns="http://www.w3.org/2000/svg" viewBox="0 0 500 500"><g id="freepik--Table--inject-18"><path d="M468.21,472.58c0,.14-97.7.26-218.2.26s-218.22-.12-218.22-.26,97.68-.26,218.22-.26S468.21,472.44,468.21,472.58Z" style="fill:#263238"></path></g><g id="freepik--Cake--inject-18"><circle cx="407.89" cy="201.78" r="66.64" transform="translate(142.11 571.17) rotate(-80.59)" style="fill:#fafafa"></circle><path d="M474.53,201.78s0-.37,0-1.08,0-1.78-.15-3.17a66.67,66.67,0,0,0-26.19-48.63,65.45,65.45,0,0,0-12.7-7.58,64.73,64.73,0,0,0-15.29-4.82,66,66,0,0,0-17.13-.94,67.07,67.07,0,0,0-8.9,1.25,70.67,70.67,0,0,0-8.88,2.53A66.71,66.71,0,0,0,349,171.21a62.07,62.07,0,0,0-4,9.6,66.4,66.4,0,0,0,0,41.92,61.7,61.7,0,0,0,4.06,9.6,64.55,64.55,0,0,0,5.41,8.72,66.6,66.6,0,0,0,30.87,23.16,71.21,71.21,0,0,0,8.88,2.54A65.35,65.35,0,0,0,403,268a66,66,0,0,0,17.13-.94,64.65,64.65,0,0,0,15.28-4.82,65.45,65.45,0,0,0,12.7-7.58A66.54,66.54,0,0,0,474.33,206c.13-1.38.1-2.45.15-3.16s0-1.08,0-1.08,0,1.46-.1,4.25a65.14,65.14,0,0,1-1.81,12.06,66.41,66.41,0,0,1-7.33,17.82,67.18,67.18,0,0,1-16.93,19,66.52,66.52,0,0,1-28.12,12.54,68.09,68.09,0,0,1-26.21-.27,71.31,71.31,0,0,1-8.95-2.55A67,67,0,0,1,354,241.35a65.52,65.52,0,0,1-5.46-8.78,62.71,62.71,0,0,1-4.09-9.68,66.92,66.92,0,0,1,0-42.24,62.23,62.23,0,0,1,4.1-9.67A65.52,65.52,0,0,1,354,162.2a67,67,0,0,1,31.11-23.31,71.25,71.25,0,0,1,8.95-2.54,68,68,0,0,1,9-1.25,66.39,66.39,0,0,1,17.24,1A64.68,64.68,0,0,1,435.6,141a65.6,65.6,0,0,1,12.76,7.66,67.49,67.49,0,0,1,16.93,19,66.74,66.74,0,0,1,7.33,17.82,65.14,65.14,0,0,1,1.81,12.06C474.57,200.31,474.53,201.78,474.53,201.78Z" style="fill:#263238"></path><path d="M410,174.11a14.88,14.88,0,0,1-8.58-4.23,6.44,6.44,0,0,1,1.65-9.78,4.85,4.85,0,0,1,5.35.5,4.58,4.58,0,0,1,4.33-2.5,5.63,5.63,0,0,1,4.35,2.68,7.34,7.34,0,0,1,.91,5.11,10.86,10.86,0,0,1-2.2,4.77,8.1,8.1,0,0,1-5.81,3.45" style="fill:#90CAF9"></path><path d="M390.12,188.68a1.42,1.42,0,1,0,1.41-1.41A1.41,1.41,0,0,0,390.12,188.68Z" style="fill:#90CAF9"></path><path d="M387.93,185.47a1.42,1.42,0,0,1,.67,0,3.24,3.24,0,0,1,1.5.62,3.19,3.19,0,0,1,1,1.28c.16.39.19.65.16.65a4.87,4.87,0,0,1-.28-.59,3.7,3.7,0,0,0-1-1.18,3.53,3.53,0,0,0-1.41-.64C388.18,185.5,387.93,185.5,387.93,185.47Z" style="fill:#263238"></path><path d="M390.87,188c0-.05.18,0,.33-.12s.23-.22.29-.21,0,.06,0,.14a.48.48,0,0,1-.21.25.47.47,0,0,1-.32,0C390.9,188.06,390.86,188,390.87,188Z" style="fill:#263238"></path><path d="M392.53,189.29a2.31,2.31,0,0,0,0-1,2.19,2.19,0,0,0-.65-.82s.14,0,.32.1a1.25,1.25,0,0,1,.51.65,1.27,1.27,0,0,1,0,.82C392.64,189.21,392.55,189.3,392.53,189.29Z" style="fill:#fff"></path><path d="M427.62,188.94a1.42,1.42,0,0,1-2.83,0,1.42,1.42,0,1,1,2.83,0Z" style="fill:#90CAF9"></path><path d="M429.82,185.72a1.47,1.47,0,0,0-.67,0,3.23,3.23,0,0,0-1.51.62,3.3,3.3,0,0,0-1,1.29,1.4,1.4,0,0,0-.16.65s.1-.24.29-.6a3.65,3.65,0,0,1,1-1.18,3.59,3.59,0,0,1,1.41-.64C429.56,185.75,429.82,185.75,429.82,185.72Z" style="fill:#263238"></path><path d="M426.87,188.25c0-.05-.18,0-.33-.12s-.23-.22-.28-.22-.05.06,0,.14a.4.4,0,0,0,.2.25.42.42,0,0,0,.32,0C426.85,188.32,426.88,188.27,426.87,188.25Z" style="fill:#263238"></path><path d="M425.21,189.54a2.39,2.39,0,0,1,0-1c.19-.55.68-.77.65-.82s-.15,0-.33.11a1.27,1.27,0,0,0-.51.64,1.3,1.3,0,0,0,0,.83C425.1,189.46,425.19,189.56,425.21,189.54Z" style="fill:#fff"></path><circle cx="396.33" cy="188.66" r="2" style="fill:#90CAF9"></circle><path d="M401.42,184.13s-.36,0-.92.14a4.88,4.88,0,0,0-2,.9,5,5,0,0,0-1.41,1.69c-.26.5-.35.85-.38.84a2.26,2.26,0,0,1,.26-.9,4.54,4.54,0,0,1,3.51-2.67A2.34,2.34,0,0,1,401.42,184.13Z" style="fill:#455a64"></path><path d="M397.26,187.69s0,.07-.15.1a.63.63,0,0,1-.43-.06.68.68,0,0,1-.29-.33c0-.11,0-.18,0-.18s.14.21.38.33S397.24,187.64,397.26,187.69Z" style="fill:#263238"></path><path d="M394.93,189.52s-.14-.13-.23-.41a1.82,1.82,0,0,1,0-1.15,1.84,1.84,0,0,1,.69-.9c.25-.16.44-.19.44-.17s-.14.1-.35.28a2.08,2.08,0,0,0-.6.86,2,2,0,0,0-.07,1C394.88,189.34,395,189.5,394.93,189.52Z" style="fill:#fff"></path><path d="M403.11,172.37h17a0,0,0,0,1,0,0v17.8a0,0,0,0,1,0,0h-20a0,0,0,0,1,0,0v-14.8A3,3,0,0,1,403.11,172.37Z" style="fill:#90CAF9"></path><g style="opacity:0.30000000000000004"><path d="M400.83,173.45c6.16.08,12.14-.31,18.29-.23l1,.67,0,2.93s-.43.17-.55-.15a2.49,2.49,0,0,1,0-1.12c-.36-.24-.57.08-.75.47a3.07,3.07,0,0,0-.14,1.28,1.49,1.49,0,0,1-.42,1.19,1.18,1.18,0,0,1-1.34-.05,3.45,3.45,0,0,1-.9-1.1,5,5,0,0,0-1.25-1.58,1.7,1.7,0,0,0-1.89-.15c-.6.42-.82,1.35-1.53,1.5s-1.5-.85-2.34-.79-1.12.8-1.42,1.45-.84,1.36-1.54,1.24c-.93-.16-1.17-1.66-2.1-1.76-.72-.07-1.19.75-1.86,1a1.64,1.64,0,0,1-1.92-.68,2.68,2.68,0,0,1-.26-2.13,8.28,8.28,0,0,1,.91-2"></path></g><path d="M420.19,172.3a2.73,2.73,0,0,0-1.14-.18c-6-.07-11.8.27-17.76.25a1.92,1.92,0,0,0-1.75,1.11,4.81,4.81,0,0,0-.35,1,2.8,2.8,0,0,0,.27,2.2,1.72,1.72,0,0,0,2,.71c.69-.29,1.18-1.13,1.92-1.06,1,.1,1.21,1.66,2.17,1.82s1.43-.84,1.71-1.55a2.17,2.17,0,0,1,.59-.89c1.26-1.08,2.1.72,3.18.48.74-.16,1-1.12,1.58-1.55a1.74,1.74,0,0,1,2,.15,5.18,5.18,0,0,1,1.3,1.63,3.44,3.44,0,0,0,.93,1.14,1.19,1.19,0,0,0,1.38,0,1.58,1.58,0,0,0,.44-1.23,3.26,3.26,0,0,1,.14-1.32c.19-.41.72-.7,1.09-.45a2,2,0,0,0,0,1,.69.69,0,0,0,.83.47c.35-.13.43-.59.45-1C421.2,174.07,421.14,172.76,420.19,172.3Z" style="fill:#90CAF9"></path><rect x="386.02" y="190.18" width="47.58" height="21.01" style="fill:#90CAF9"></rect><rect x="373.6" y="238.17" width="72.26" height="3.87" style="fill:#263238"></rect><g style="opacity:0.30000000000000004"><path d="M384.72,236.89c0,.05-.26,0-.54-.06s-.49-.2-.48-.25.26,0,.54.06S384.73,236.83,384.72,236.89Z"></path></g><g style="opacity:0.30000000000000004"><path d="M390.83,236.69s-.06.17-.2.28-.28.17-.31.13.05-.17.19-.28S390.79,236.65,390.83,236.69Z"></path></g><g style="opacity:0.30000000000000004"><path d="M398.16,236.87c-.05,0-.17-.08-.29-.24s-.17-.33-.12-.36.17.08.28.25S398.2,236.84,398.16,236.87Z"></path></g><g style="opacity:0.30000000000000004"><path d="M406.06,235.66s0,.23-.18.45-.29.39-.34.36,0-.24.18-.46S406,235.63,406.06,235.66Z"></path></g><g style="opacity:0.30000000000000004"><path d="M411.06,237.29s-.19,0-.33-.18-.22-.29-.18-.33.18.05.32.19S411.09,237.25,411.06,237.29Z"></path></g><g style="opacity:0.30000000000000004"><ellipse cx="417.87" cy="237.09" rx="0.3" ry="0.1"></ellipse></g><g style="opacity:0.30000000000000004"><path d="M425.29,236c0,.05-.11.18-.31.29s-.37.16-.4.12.11-.18.31-.29S425.26,235.92,425.29,236Z"></path></g><g style="opacity:0.30000000000000004"><path d="M434.14,237s0,.11-.12.14-.17,0-.19,0,0-.12.12-.14S434.12,236.94,434.14,237Z"></path></g><g style="opacity:0.30000000000000004"><path d="M436.88,235.86a.11.11,0,0,1-.06.14.1.1,0,0,1-.14,0,.11.11,0,0,1,.05-.14A.12.12,0,0,1,436.88,235.86Z"></path></g><path d="M387.15,210.68h49.77a2.7,2.7,0,0,1,2.7,2.7v22.1a2.7,2.7,0,0,1-2.7,2.7H382.55a2.7,2.7,0,0,1-2.7-2.7V218A7.29,7.29,0,0,1,387.15,210.68Z" style="fill:#90CAF9"></path><g style="opacity:0.30000000000000004"><path d="M439,233.7c-12.86-.51-25.75-1-38.59-.15-5.84.39-11.77,1.07-17.51-.07a4.89,4.89,0,0,0-2-.13,1.73,1.73,0,0,0-.64.31.73.73,0,0,0,.28,1.3c9.93,2,20.14-.65,30.31-.19,3.41.16,6.81.66,10.22.51,2.34-.1,4.66-.5,7-.64,3.64-.21,7.31.24,10.94-.12.29,0,.67-.16.64-.46S439.28,233.71,439,233.7Z"></path></g><g style="opacity:0.30000000000000004"><path d="M379.78,219.78a3.16,3.16,0,0,0,4.91-3.11A2.37,2.37,0,0,0,389,215a2.27,2.27,0,0,0,3.15-.09c.32-.34.54-.79.95-1a1.45,1.45,0,0,1,1.8.81,5.42,5.42,0,0,1,.35,2.16,3,3,0,0,0,.7,2,1.2,1.2,0,0,0,1.87-.16c.17-.39.13-1,.53-1.1s.61.17.73.47a8.78,8.78,0,0,0,.29.91,1.4,1.4,0,0,0,1.78.41,4.07,4.07,0,0,0,1.42-1.38,6.2,6.2,0,0,0,.1,2.61,2.13,2.13,0,0,0,1.88,1.57c1.13,0,1.88-1.19,2.11-2.29a13.82,13.82,0,0,1,.65-3.28c.3-.62,1-1.19,1.63-1s.86,1.23,1.52,1.6,1.72-.25,2.25-1,1-1.62,1.92-1.78a2.24,2.24,0,0,1,2.19,1.51c.39.87.5,1.86.93,2.71a2.09,2.09,0,0,0,2.29,1.29c.75-.24,1.13-1,1.6-1.67s1.34-1.2,2-.75.61,1.52,1.33,1.72c.88.25,1.34-1.16,2.22-1.41,1.23-.36,1.9,1.6,3.14,1.93,1,.27,1.95-.68,2.34-1.65a12,12,0,0,1,1.13-2.91c.63-.83,2.11-1.15,2.64-.25.2.35.2.79.38,1.15.43.94,2.36,1,2.77.07v-4.07H379.85Z"></path></g><path d="M439,232.92c-13-.51-26-1-39-.16-5.9.4-11.88,1.07-17.69-.06a4.78,4.78,0,0,0-2-.13,1.75,1.75,0,0,0-.65.3.73.73,0,0,0,.28,1.3c10,2,20.34-.65,30.62-.18,3.44.15,6.88.65,10.33.5,2.36-.1,4.71-.5,7.07-.63,3.68-.21,7.38.23,11.05-.12.3,0,.68-.17.65-.46S439.31,232.93,439,232.92Z" style="fill:#90CAF9"></path><g style="opacity:0.30000000000000004"><path d="M380.56,227.36l16.7.45a103.76,103.76,0,0,0,15.87-.39c5-.63,9.93-2,14.91-1.52,2.25.21,4.45.79,6.7,1,1.93.16,3,.53,4.87-.33v-1c-4.94,0-9.08-.55-13.93-.55-5.18,0-10.3.58-15.49.58h-28.5a3.25,3.25,0,0,0-1.61.27.87.87,0,0,0,.48,1.57"></path></g><g style="opacity:0.30000000000000004"><path d="M385.7,230.57c0,.05-.23,0-.43-.19s-.33-.3-.3-.34.22,0,.42.19S385.73,230.53,385.7,230.57Z"></path></g><g style="opacity:0.30000000000000004"><path d="M390.93,229.29s0-.13.06-.23.17-.14.21-.11,0,.14-.06.23S391,229.33,390.93,229.29Z"></path></g><g style="opacity:0.30000000000000004"><path d="M397.62,231s-.16,0-.3-.13-.25-.16-.24-.22.18,0,.35.06S397.66,231,397.62,231Z"></path></g><g style="opacity:0.30000000000000004"><path d="M401.12,228.73s-.07.17-.22.28-.3.17-.33.13.06-.17.21-.28S401.08,228.69,401.12,228.73Z"></path></g><g style="opacity:0.30000000000000004"><path d="M407.86,230.34c-.05,0-.14-.06-.2-.19s-.07-.25,0-.27.14.06.21.19S407.91,230.32,407.86,230.34Z"></path></g><g style="opacity:0.30000000000000004"><path d="M417.82,228.38s-.05.15-.18.23-.26.12-.29.08,0-.16.18-.24S417.79,228.33,417.82,228.38Z"></path></g><g style="opacity:0.30000000000000004"><path d="M425.39,230.48c-.05,0-.18-.17-.4-.36s-.43-.3-.41-.35.29,0,.54.2S425.44,230.46,425.39,230.48Z"></path></g><g style="opacity:0.30000000000000004"><path d="M432.3,227s-.11.27-.34.53-.44.42-.48.39.11-.27.34-.52S432.26,227,432.3,227Z"></path></g><g style="opacity:0.30000000000000004"><path d="M436.09,230.17s-.18-.13-.4-.2-.4,0-.43-.08.2-.2.5-.1S436.14,230.15,436.09,230.17Z"></path></g><g style="opacity:0.30000000000000004"><path d="M431.19,235.26c0,.05-.16.1-.36.1s-.35-.05-.35-.1.16-.1.35-.1S431.19,235.2,431.19,235.26Z"></path></g><path d="M379.62,226.49l16.69.45a103.73,103.73,0,0,0,15.87-.39c5-.63,9.93-2,14.92-1.52,2.24.21,4.45.79,6.7,1a14,14,0,0,0,6.46-.87.25.25,0,0,0-.1-.48c-4.94,0-10.52,0-15.36,0H380.74a3.25,3.25,0,0,0-1.61.27.87.87,0,0,0,.49,1.57" style="fill:#90CAF9"></path><g style="opacity:0.30000000000000004"><path d="M414.7,222.17s.12-.32.36-.65.47-.57.51-.54-.11.33-.35.65S414.75,222.2,414.7,222.17Z"></path></g><g style="opacity:0.30000000000000004"><path d="M421.75,222.33s-.17-.16-.28-.4-.16-.45-.11-.47.18.15.29.39S421.8,222.31,421.75,222.33Z"></path></g><g style="opacity:0.30000000000000004"><path d="M427.3,221.22s-.1.19-.3.32-.38.2-.41.15.1-.18.3-.31S427.27,221.17,427.3,221.22Z"></path></g><g style="opacity:0.30000000000000004"><path d="M435.87,221.76s-.23-.11-.43-.33-.33-.42-.28-.46.23.11.42.33S435.91,221.73,435.87,221.76Z"></path></g><g style="opacity:0.30000000000000004"><path d="M397.27,223.2s.06-.19.21-.35.31-.24.35-.2-.06.19-.21.34S397.31,223.24,397.27,223.2Z"></path></g><g style="opacity:0.30000000000000004"><path d="M392.29,221.55s.11-.19.3-.32.38-.2.41-.16-.1.19-.3.32S392.32,221.6,392.29,221.55Z"></path></g><g style="opacity:0.30000000000000004"><path d="M384,222.8s-.22,0-.34-.22-.11-.41-.05-.41.11.15.21.3S384,222.76,384,222.8Z"></path></g><g style="opacity:0.30000000000000004"><path d="M389,218.6s0,.19-.16.35-.27.24-.31.21,0-.19.16-.34S388.91,218.57,389,218.6Z"></path></g><path d="M379.78,218.25a3.16,3.16,0,0,0,4.91-3.11,2.37,2.37,0,0,0,4.35-1.69,2.28,2.28,0,0,0,3.15-.08c.43-.47.68-1.14,1.49-1.12a1.33,1.33,0,0,1,1,.51,4,4,0,0,1,.62,2.57,3,3,0,0,0,.7,2,1.2,1.2,0,0,0,1.87-.16c.17-.39.13-1,.53-1.1s.61.17.73.47a8.78,8.78,0,0,0,.29.91,1.4,1.4,0,0,0,1.78.41,4.07,4.07,0,0,0,1.42-1.38,5.28,5.28,0,0,0,.3,3.1,2,2,0,0,0,1.38,1c1.29.23,2.16-1.06,2.41-2.25s.14-2.63.91-3.73a1.26,1.26,0,0,1,1.08-.57c1,.06,1.07,1.25,1.81,1.66s1.72-.25,2.25-1,1.17-1.86,2.28-1.8a1.88,1.88,0,0,1,1.32.71c1.06,1.26.82,3,1.93,4.26a1.82,1.82,0,0,0,1.33.64c1.08,0,1.52-1,2.07-1.75s1.34-1.2,2-.75.61,1.52,1.33,1.72c.88.25,1.34-1.16,2.22-1.41,1.23-.36,1.9,1.61,3.14,1.93,1,.27,1.95-.68,2.34-1.65.46-1.13.53-2.44,1.49-3.3a1.67,1.67,0,0,1,1.68-.34c.85.33.71,1.06,1,1.64.43.93,2.36,1,2.77.07l.25-3.31a.9.9,0,0,0-.9-1l-57.72-.15a1.65,1.65,0,0,0-1.66,1.7Z" style="fill:#90CAF9"></path><g style="opacity:0.6000000000000001"><path d="M379.62,226.49l16.69.45a103.73,103.73,0,0,0,15.87-.39c5-.63,9.93-2,14.92-1.52,2.24.21,4.45.79,6.7,1a14,14,0,0,0,6.46-.87.25.25,0,0,0-.1-.48c-4.94,0-10.52,0-15.36,0H380.74a3.25,3.25,0,0,0-1.61.27.87.87,0,0,0,.49,1.57" style="fill:#fff"></path></g><g style="opacity:0.6000000000000001"><path d="M439,232.92c-13-.51-26-1-39-.16-5.9.4-11.88,1.07-17.69-.06a4.78,4.78,0,0,0-2-.13,1.75,1.75,0,0,0-.65.3.73.73,0,0,0,.28,1.3c10,2,20.34-.65,30.62-.18,3.44.15,6.88.65,10.33.5,2.36-.1,4.71-.5,7.07-.63,3.68-.21,7.38.23,11.05-.12.3,0,.68-.17.65-.46S439.31,232.93,439,232.92Z" style="fill:#fff"></path></g><g style="opacity:0.30000000000000004"><path d="M433.05,201.12c-10.27-.41-20.57-.82-30.83-.13-4.67.32-9.4.86-14-.05a3.77,3.77,0,0,0-1.6-.1,1.41,1.41,0,0,0-.51.24.58.58,0,0,0,.22,1c7.93,1.63,16.09-.52,24.21-.15,2.73.13,5.45.52,8.17.41,1.87-.08,3.72-.4,5.59-.51,2.91-.17,5.84.19,8.74-.1.24,0,.54-.13.52-.37S433.27,201.12,433.05,201.12Z"></path></g><path d="M433.08,200.49c-10.38-.41-20.79-.82-31.15-.12-4.72.31-9.5.85-14.13-.06a4.05,4.05,0,0,0-1.62-.1,1.38,1.38,0,0,0-.52.24.58.58,0,0,0,.22,1c8,1.63,16.26-.52,24.47-.15,2.75.13,5.5.53,8.25.41,1.89-.08,3.76-.4,5.65-.51,2.94-.17,5.9.19,8.83-.1.24,0,.54-.13.52-.36S433.3,200.5,433.08,200.49Z" style="fill:#90CAF9"></path><g style="opacity:0.30000000000000004"><path d="M386,190.18a7,7,0,0,0,3.84,5.92,7.61,7.61,0,0,0,6,.06c1.63-.69,3.24-2,4.95-1.53a7.25,7.25,0,0,1,2.36,1.51,2.91,2.91,0,0,0,2.6.73c1.39-.48,1.8-2.57,3.25-2.82s2.77,1.74,4.23,1.32c1-.3,1.46-1.68,2.5-2s2,.52,3.08.43c.85-.07,1.58-.75,2.43-.79a2.77,2.77,0,0,1,2.19,1.34,17.55,17.55,0,0,0,1.52,2.2,2.12,2.12,0,0,0,2.42.57c.73-.43.93-1.36,1.18-2.16s.82-1.7,1.66-1.65,1.48,1.19,2.37,1.13a1.34,1.34,0,0,0,1.1-1.18,4,4,0,0,0-.26-1.7Z"></path></g><path d="M386,190.08a7.83,7.83,0,0,0,3.84,4.72,7.66,7.66,0,0,0,6,0c1.63-.69,3.24-2,4.95-1.53a7.25,7.25,0,0,1,2.36,1.51,3,3,0,0,0,2.6.74c1.39-.49,1.8-2.57,3.25-2.82s2.77,1.73,4.23,1.31c1-.3,1.46-1.67,2.5-2s2,.52,3.08.43c.85-.07,1.58-.74,2.43-.78a2.73,2.73,0,0,1,2.19,1.33,16.2,16.2,0,0,0,1.52,2.2,2.1,2.1,0,0,0,2.42.57c.73-.42.93-1.36,1.18-2.16s.82-1.7,1.66-1.64,1.48,1.18,2.37,1.12a1.33,1.33,0,0,0,1.1-1.18,5.6,5.6,0,0,0,0-2Z" style="fill:#90CAF9"></path><g style="opacity:0.30000000000000004"><path d="M392.71,206.85a2.83,2.83,0,0,1,.53-.89,2.91,2.91,0,0,1,.68-.78c.05,0-.19.43-.52.89A3,3,0,0,1,392.71,206.85Z"></path></g><g style="opacity:0.30000000000000004"><path d="M399.36,206.52s-.26-.1-.51-.31-.41-.42-.37-.46.26.1.5.31S399.4,206.48,399.36,206.52Z"></path></g><g style="opacity:0.30000000000000004"><path d="M397,208.07s-.07.18-.22.3-.3.19-.34.14.07-.17.22-.29S397,208,397,208.07Z"></path></g><g style="opacity:0.30000000000000004"><path d="M405.67,205.19s-.23-.17-.41-.44-.3-.52-.25-.55.23.16.41.44S405.72,205.16,405.67,205.19Z"></path></g><g style="opacity:0.30000000000000004"><path d="M406,208.62s-.09.25-.37.36-.52,0-.51,0,.21-.07.44-.17S406,208.58,406,208.62Z"></path></g><g style="opacity:0.30000000000000004"><path d="M412.21,205.75s-.27-.12-.4-.42-.1-.58-.05-.58.11.24.23.5S412.25,205.71,412.21,205.75Z"></path></g><g style="opacity:0.30000000000000004"><path d="M413.1,208.1c0,.05-.17.14-.42.2s-.45.08-.46,0,.17-.14.41-.21S413.09,208,413.1,208.1Z"></path></g><g style="opacity:0.30000000000000004"><path d="M418.08,205.64c-.05,0-.22-.21-.37-.51s-.24-.58-.19-.6.21.2.37.51S418.12,205.61,418.08,205.64Z"></path></g><g style="opacity:0.30000000000000004"><path d="M420.4,208.74c0-.05.1-.22.22-.45s.17-.44.22-.44.09.26,0,.53S420.43,208.78,420.4,208.74Z"></path></g><g style="opacity:0.30000000000000004"><path d="M423.05,205.09s-.25-.19-.2-.53.3-.52.32-.47-.1.22-.13.49S423.1,205.06,423.05,205.09Z"></path></g><g style="opacity:0.30000000000000004"><path d="M428,207.73s-.15-.22-.21-.53-.07-.56,0-.57.14.23.2.53S428,207.72,428,207.73Z"></path></g><g style="opacity:0.30000000000000004"><path d="M430.35,207.18s0-.21.14-.39.26-.31.31-.28,0,.21-.14.39S430.4,207.21,430.35,207.18Z"></path></g><g style="opacity:0.30000000000000004"><path d="M430.66,197.86s0-.17.09-.32.21-.26.25-.23,0,.18-.08.33S430.71,197.89,430.66,197.86Z"></path></g><g style="opacity:0.30000000000000004"><path d="M420.84,198.44s-.21-.21-.36-.51-.24-.57-.19-.6.21.2.37.51S420.89,198.41,420.84,198.44Z"></path></g><g style="opacity:0.30000000000000004"><path d="M422.06,195.67c-.05,0-.1,0-.1-.06s.05-.05.1-.05.1,0,.1.05S422.12,195.67,422.06,195.67Z"></path></g><g style="opacity:0.30000000000000004"><path d="M413.55,198.12s.12-.31.37-.62.47-.53.51-.49-.12.31-.36.61S413.6,198.15,413.55,198.12Z"></path></g><g style="opacity:0.30000000000000004"><path d="M409.66,197c-.05,0,0-.23.07-.48s.21-.43.26-.41,0,.24-.07.48S409.71,197,409.66,197Z"></path></g><g style="opacity:0.30000000000000004"><path d="M406.67,198.22c0-.05.11-.17.29-.26s.35-.12.38-.08-.11.17-.29.26S406.7,198.27,406.67,198.22Z"></path></g><g style="opacity:0.30000000000000004"><path d="M399.9,197.67s-.16-.07-.25-.22-.13-.3-.08-.33.16.07.25.22S400,197.64,399.9,197.67Z"></path></g><g style="opacity:0.30000000000000004"><path d="M399.81,196.67s0-.14,0-.26.15-.21.2-.18,0,.14,0,.26S399.86,196.7,399.81,196.67Z"></path></g><g style="opacity:0.30000000000000004"><path d="M395.27,200s-.24-.26-.42-.62-.3-.69-.25-.71.24.25.42.62A1.71,1.71,0,0,1,395.27,200Z"></path></g><g style="opacity:0.30000000000000004"><path d="M390.17,198.33c-.05,0-.1-.15-.1-.33s.05-.34.1-.34.1.15.1.34S390.23,198.33,390.17,198.33Z"></path></g><g style="opacity:0.30000000000000004"><path d="M387,197.88s-.07-.18,0-.4.1-.38.15-.37.07.19,0,.4S387,197.89,387,197.88Z"></path></g><g style="opacity:0.30000000000000004"><path d="M399.58,199.1c0,.05-.19.17-.46.26s-.52.13-.53.07.19-.16.46-.25S399.57,199.05,399.58,199.1Z"></path></g><g style="opacity:0.8"><path d="M379.78,218.25a3.16,3.16,0,0,0,4.91-3.11,2.37,2.37,0,0,0,4.35-1.69,2.28,2.28,0,0,0,3.15-.08c.43-.47.68-1.14,1.49-1.12a1.33,1.33,0,0,1,1,.51,4,4,0,0,1,.62,2.57,3,3,0,0,0,.7,2,1.2,1.2,0,0,0,1.87-.16c.17-.39.13-1,.53-1.1s.61.17.73.47a8.78,8.78,0,0,0,.29.91,1.4,1.4,0,0,0,1.78.41,4.07,4.07,0,0,0,1.42-1.38,5.28,5.28,0,0,0,.3,3.1,2,2,0,0,0,1.38,1c1.29.23,2.16-1.06,2.41-2.25s.14-2.63.91-3.73a1.26,1.26,0,0,1,1.08-.57c1,.06,1.07,1.25,1.81,1.66s1.72-.25,2.25-1,1.17-1.86,2.28-1.8a1.88,1.88,0,0,1,1.32.71c1.06,1.26.82,3,1.93,4.26a1.82,1.82,0,0,0,1.33.64c1.08,0,1.52-1,2.07-1.75s1.34-1.2,2-.75.61,1.52,1.33,1.72c.88.25,1.34-1.16,2.22-1.41,1.23-.36,1.9,1.61,3.14,1.93,1,.27,1.95-.68,2.34-1.65.46-1.13.53-2.44,1.49-3.3a1.67,1.67,0,0,1,1.68-.34c.85.33.71,1.06,1,1.64.43.93,2.36,1,2.77.07l.25-3.31a.9.9,0,0,0-.9-1l-57.72-.15a1.65,1.65,0,0,0-1.66,1.7Z" style="fill:#fff"></path></g><g style="opacity:0.8"><path d="M386,190.08a7.83,7.83,0,0,0,3.84,4.72,7.66,7.66,0,0,0,6,0c1.63-.69,3.24-2,4.95-1.53a7.25,7.25,0,0,1,2.36,1.51,3,3,0,0,0,2.6.74c1.39-.49,1.8-2.57,3.25-2.82s2.77,1.73,4.23,1.31c1-.3,1.46-1.67,2.5-2s2,.52,3.08.43c.85-.07,1.58-.74,2.43-.78a2.73,2.73,0,0,1,2.19,1.33,16.2,16.2,0,0,0,1.52,2.2,2.1,2.1,0,0,0,2.42.57c.73-.42.93-1.36,1.18-2.16s.82-1.7,1.66-1.64,1.48,1.18,2.37,1.12a1.33,1.33,0,0,0,1.1-1.18,5.6,5.6,0,0,0,0-2Z" style="fill:#fff"></path></g><g style="opacity:0.8"><path d="M420.19,172.3a2.73,2.73,0,0,0-1.14-.18c-6-.07-11.8.27-17.76.25a1.92,1.92,0,0,0-1.75,1.11,4.81,4.81,0,0,0-.35,1,2.8,2.8,0,0,0,.27,2.2,1.72,1.72,0,0,0,2,.71c.69-.29,1.18-1.13,1.92-1.06,1,.1,1.21,1.66,2.17,1.82s1.43-.84,1.71-1.55a2.17,2.17,0,0,1,.59-.89c1.26-1.08,2.1.72,3.18.48.74-.16,1-1.12,1.58-1.55a1.74,1.74,0,0,1,2,.15,5.18,5.18,0,0,1,1.3,1.63,3.44,3.44,0,0,0,.93,1.14,1.19,1.19,0,0,0,1.38,0,1.58,1.58,0,0,0,.44-1.23,3.26,3.26,0,0,1,.14-1.32c.19-.41.72-.7,1.09-.45a2,2,0,0,0,0,1,.69.69,0,0,0,.83.47c.35-.13.43-.59.45-1C421.2,174.07,421.14,172.76,420.19,172.3Z" style="fill:#fff"></path></g><g style="opacity:0.6000000000000001"><path d="M433.08,200.49c-10.38-.41-20.79-.82-31.15-.12-4.72.31-9.5.85-14.13-.06a4.05,4.05,0,0,0-1.62-.1,1.38,1.38,0,0,0-.52.24.58.58,0,0,0,.22,1c8,1.63,16.26-.52,24.47-.15,2.75.13,5.5.53,8.25.41,1.89-.08,3.76-.4,5.65-.51,2.94-.17,5.9.19,8.83-.1.24,0,.54-.13.52-.36S433.3,200.5,433.08,200.49Z" style="fill:#fff"></path></g><path d="M343.53,188.36c0,.14-9.69-1.91-21.58-4.57s-21.51-4.94-21.48-5.08,9.7,1.9,21.59,4.57S343.56,188.22,343.53,188.36Z" style="fill:#263238"></path></g><g id="freepik--Champagne--inject-18"><circle cx="91.83" cy="255.51" r="49.64" style="fill:#fafafa"></circle><path d="M141.47,255.51s0-.27-.07-.8-.08-1.34-.14-2.36c0-.52-.06-1.1-.1-1.74s-.2-1.32-.31-2.07-.25-1.56-.38-2.42-.43-1.75-.65-2.71a47.35,47.35,0,0,0-5.49-13.18,49.3,49.3,0,0,0-12.58-14l-2.14-1.6c-.75-.49-1.54-.94-2.32-1.42s-1.56-1-2.41-1.4l-2.57-1.23-1.3-.62-1.38-.5-2.78-1c-.94-.32-1.93-.52-2.91-.78a23.13,23.13,0,0,0-3-.68,47.22,47.22,0,0,0-6.25-.73c-1.06,0-2.14-.14-3.22-.12l-3.27.17c-.55,0-1.1,0-1.65.1l-1.65.26c-1.1.18-2.22.31-3.32.54A51.43,51.43,0,0,0,75,209.11l-1.64.6-.82.31-.79.38-3.19,1.54c-1,.57-2,1.22-3.08,1.84-.51.32-1,.6-1.53,1l-1.45,1.09a55.73,55.73,0,0,0-5.6,4.76l-2.51,2.77-.64.69-.56.75-1.13,1.52-1.14,1.52-1,1.62-1,1.64-.5.82c-.15.28-.28.57-.42.86-.55,1.16-1.11,2.32-1.67,3.48L45,239.92a49.08,49.08,0,0,0,0,31.17c.45,1.22.9,2.44,1.34,3.66L48,278.23l.42.86.5.83,1,1.63,1,1.63,1.13,1.52,1.13,1.51.57.75.63.7,2.51,2.76a55.94,55.94,0,0,0,5.61,4.77L64,296.27c.48.37,1,.65,1.53,1,1,.61,2,1.27,3.08,1.84l3.19,1.54.79.38.82.31,1.64.6a51.43,51.43,0,0,0,6.59,1.93c1.1.23,2.22.36,3.32.54l1.65.25c.55.08,1.1.07,1.65.11l3.27.17c1.08,0,2.16-.09,3.22-.13a45.61,45.61,0,0,0,6.25-.72,26.5,26.5,0,0,0,3-.68c1-.27,2-.47,2.92-.78l2.78-1,1.37-.5,1.3-.62,2.57-1.23c.86-.39,1.61-.95,2.41-1.4s1.58-.93,2.33-1.43l2.13-1.59a49.33,49.33,0,0,0,12.58-14,47.23,47.23,0,0,0,5.49-13.18c.12-.47.25-.94.36-1.38a9.51,9.51,0,0,0,.29-1.32c.13-.87.26-1.67.38-2.42s.24-1.44.31-2.08.07-1.21.1-1.73c.06-1,.11-1.81.14-2.36s.07-.8.07-.8,0,.27,0,.8-.06,1.34-.1,2.37c0,.52,0,1.1-.07,1.74s-.19,1.33-.29,2.08l-.36,2.43a9.23,9.23,0,0,1-.27,1.33c-.11.45-.23.91-.35,1.39a47.34,47.34,0,0,1-5.44,13.28A49.5,49.5,0,0,1,122,295.11l-2.15,1.61c-.76.5-1.55,1-2.34,1.45s-1.56,1-2.42,1.41l-2.59,1.25-1.31.63-1.38.51L107,303c-1,.32-2,.52-2.93.79a25.43,25.43,0,0,1-3,.69,46.34,46.34,0,0,1-6.3.75c-1.08,0-2.16.14-3.25.13l-3.3-.16c-.55,0-1.11,0-1.67-.11l-1.66-.25c-1.11-.18-2.24-.31-3.36-.54a52.33,52.33,0,0,1-6.65-1.94l-1.66-.61c-.28-.1-.56-.19-.83-.31l-.8-.38-3.23-1.55c-1-.57-2.06-1.24-3.1-1.85-.52-.33-1.06-.61-1.55-1l-1.47-1.09a56.92,56.92,0,0,1-5.66-4.81L54,288l-.64-.7-.57-.76L51.64,285l-1.15-1.54-1-1.64-1-1.65-.5-.83-.43-.87c-.56-1.17-1.13-2.34-1.69-3.52s-.91-2.46-1.36-3.7a49.33,49.33,0,0,1,0-31.49c.46-1.24.91-2.47,1.36-3.7s1.13-2.35,1.7-3.52c.14-.29.27-.58.42-.87l.51-.83,1-1.65,1-1.64L51.65,226l1.14-1.52.57-.76L54,223l2.54-2.79a55.61,55.61,0,0,1,5.66-4.81l1.47-1.1c.49-.36,1-.64,1.55-1,1-.62,2-1.28,3.11-1.85L71.55,210l.8-.39.83-.31,1.66-.6a52.33,52.33,0,0,1,6.65-1.94c1.12-.23,2.25-.36,3.36-.54l1.66-.25c.55-.08,1.11-.07,1.67-.11l3.3-.16c1.09,0,2.17.09,3.25.13a48,48,0,0,1,6.3.74,27.56,27.56,0,0,1,3,.69c1,.27,2,.48,2.93.8l2.8,1,1.38.51,1.32.62,2.58,1.25c.86.4,1.63,1,2.43,1.42s1.58.94,2.34,1.44L122,215.9a49.65,49.65,0,0,1,12.6,14.18A47.34,47.34,0,0,1,140,243.36a26.9,26.9,0,0,1,.62,2.73q.2,1.29.36,2.43c.1.75.23,1.44.29,2.08s.05,1.22.07,1.74c0,1,.07,1.82.1,2.36S141.47,255.51,141.47,255.51Z" style="fill:#263238"></path><path d="M93,216.7c.07,0,.14,3.14.14,7s-.07,7-.14,7-.14-3.14-.14-7S92.92,216.7,93,216.7Z" style="fill:#263238"></path><path d="M103.12,222.45a51.09,51.09,0,0,1-2.77,4.73,52.22,52.22,0,0,1-3,4.58c-.06,0,1.18-2.16,2.78-4.73S103.06,222.41,103.12,222.45Z" style="fill:#263238"></path><path d="M82.35,223.7c.06,0,1.63,1.84,3.52,4.21a54.24,54.24,0,0,1,3.3,4.38,53.39,53.39,0,0,1-3.52-4.21A54.24,54.24,0,0,1,82.35,223.7Z" style="fill:#263238"></path><path d="M91.36,236.05s-2.79,13-4.08,19a5.53,5.53,0,0,1-3.46,4l-3.23,1.22-5.17,18.82,5.39,5.33-14.58-4.08,7.42-2,5.08-18.47-2.17-2.67a5.51,5.51,0,0,1-.82-5.61l7.48-18.08Z" style="fill:#f5f5f5"></path><path d="M91.36,236.05l-.55-.16-1.58-.47-6-1.86.08,0-4.67,11.36c-.46,1.13-1,2.31-1.45,3.52-.24.61-.5,1.22-.76,1.85s-.55,1.26-.75,1.9a5.45,5.45,0,0,0,.42,4.08A10.85,10.85,0,0,0,77.39,258q.7.89,1.44,1.77l0,.05,0,.06c-1.55,5.66-3.26,11.9-5.07,18.48l0,.07-.07,0-7.42,2v-.26l3,.85,11.54,3.23-.14.23-5.38-5.34-.06-.05,0-.08c1.89-6.84,3.64-13.18,5.19-18.81v-.06l.06,0,3-1.11a5.54,5.54,0,0,0,2.44-1.6A5.46,5.46,0,0,0,87.2,255c.19-.9.38-1.77.56-2.62l1.91-8.73c.53-2.41,1-4.3,1.23-5.6.15-.64.26-1.13.33-1.48s.13-.51.13-.51,0,.16-.1.49L91,238c-.27,1.3-.66,3.19-1.17,5.6L88,252.39c-.18.86-.37,1.74-.56,2.64a5.66,5.66,0,0,1-1.28,2.58,5.78,5.78,0,0,1-2.53,1.66l-3,1.12.07-.07-5.15,18.82,0-.13,5.4,5.33.37.37-.51-.14-11.54-3.22-3-.86-.48-.13.48-.13,7.42-2-.09.1c1.81-6.58,3.54-12.82,5.09-18.47l0,.11-1.44-1.77a11.38,11.38,0,0,1-1.34-1.82,5.65,5.65,0,0,1-.42-4.25c.21-.69.51-1.3.76-1.93l.77-1.84,1.46-3.51,4.73-11.35,0-.05.06,0,6,1.93,1.56.5Z" style="fill:#263238"></path><path d="M88.16,246.3c.06.27-1.63,8.57-2.66,9.76s-3.82,3.44-5.81,2.72c-1.06-.39-2.12-1.89-2.88-3.2a4.29,4.29,0,0,1-.15-4l1.75-4.26s5,.67,5.9-.2,3.41-2.87,3.92-2.65S88.16,246.3,88.16,246.3Z" style="fill:#90CAF9"></path><path d="M87.65,240.86a.65.65,0,0,0-.73,1.07.65.65,0,0,0,.76-1.05" style="fill:#90CAF9"></path><path d="M83.22,233.5a9.13,9.13,0,0,1,1,.93,6.55,6.55,0,0,0,2.65,1.68,8.31,8.31,0,0,0,3.16.15,10.94,10.94,0,0,1,1.33-.16,4.94,4.94,0,0,1-1.31.35,7.39,7.39,0,0,1-3.26-.07,6.17,6.17,0,0,1-2.71-1.81A4.91,4.91,0,0,1,83.22,233.5Z" style="fill:#263238"></path><path d="M94.32,237.42s2.33,13.1,3.41,19.13a5.55,5.55,0,0,0,3.32,4.14l3.19,1.32,4.51,19-5.58,5.15,14.72-3.58-7.35-2.28-4.44-18.64,2.27-2.59a5.54,5.54,0,0,0,1-5.58l-6.86-18.33Z" style="fill:#f5f5f5"></path><path d="M94.32,237.42l.52-.16,1.58-.45,6.1-1.72,0,0,0,.06,4.33,11.5,1.34,3.56c.23.61.47,1.23.7,1.87s.51,1.26.7,1.95a5.71,5.71,0,0,1-.57,4.24,12.58,12.58,0,0,1-1.4,1.76l-1.5,1.72,0-.11c1.37,5.7,2.87,12,4.46,18.64l-.1-.1,7.35,2.28.48.15-.49.12-3.07.74-11.64,2.83-.52.12.39-.35,5.58-5.14,0,.12c-1.64-6.9-3.15-13.3-4.49-19l.06.08-2.91-1.22a5.87,5.87,0,0,1-2.47-1.76,5.69,5.69,0,0,1-1.19-2.61l-.46-2.66L95.61,245c-.41-2.43-.74-4.33-1-5.64-.11-.63-.19-1.12-.25-1.47s-.07-.49-.07-.49,0,.18.1.51.16.85.28,1.49c.24,1.31.59,3.21,1,5.64l1.6,8.8c.15.85.31,1.73.47,2.63A5.48,5.48,0,0,0,99,259a5.58,5.58,0,0,0,2.39,1.69l2.92,1.21,0,0,0,.06c1.35,5.68,2.88,12.08,4.53,19v.08l0,.05c-1.82,1.67-3.67,3.39-5.57,5.15l-.13-.24,11.65-2.83,3.07-.74v.27l-7.35-2.29-.07,0,0-.08c-1.58-6.64-3.07-12.94-4.43-18.64v-.06l0-.05,1.51-1.72a11.48,11.48,0,0,0,1.37-1.72,5.46,5.46,0,0,0,.56-4.07c-.18-.65-.46-1.29-.68-1.93s-.47-1.25-.7-1.87c-.46-1.23-.9-2.42-1.33-3.56-1.69-4.58-3.14-8.48-4.27-11.53l.08.05-6.08,1.64-1.6.42Z" style="fill:#263238"></path><path d="M97.15,247.78c-.06.26,1.34,8.61,2.32,9.84s3.71,3.56,5.71,2.92c1.08-.35,2.19-1.81,3-3.09a4.33,4.33,0,0,0,.3-4l-1.61-4.32s-5,.5-5.89-.41-3.3-3-3.82-2.78S97.15,247.78,97.15,247.78Z" style="fill:#90CAF9"></path><path d="M97.85,242.35a.65.65,0,1,1-.2.92.69.69,0,0,1,.18-.9" style="fill:#90CAF9"></path><path d="M102.53,235.15a4.41,4.41,0,0,1-.86,1,6.13,6.13,0,0,1-2.77,1.71,7.37,7.37,0,0,1-3.27,0,5,5,0,0,1-1.29-.4,11.83,11.83,0,0,1,1.33.2,8,8,0,0,0,3.16,0,6.54,6.54,0,0,0,2.71-1.58A10.11,10.11,0,0,1,102.53,235.15Z" style="fill:#263238"></path><path d="M207.62,194.57c.07.13-15.82,9-35.48,19.77s-35.66,19.45-35.73,19.32,15.81-9,35.48-19.77S207.55,194.44,207.62,194.57Z" style="fill:#263238"></path></g><g id="freepik--Bouquet--inject-18"><circle cx="117.9" cy="98" r="74.38" transform="translate(-34.77 112.07) rotate(-45)" style="fill:#fafafa"></circle><path d="M192.28,98s0-.41-.06-1.2,0-2-.16-3.54a75,75,0,0,0-2.13-13.41,74,74,0,0,0-3.05-9.33,71.78,71.78,0,0,0-5.18-10.46A75.23,75.23,0,0,0,162.83,39a74.34,74.34,0,0,0-31.24-13.85,75.07,75.07,0,0,0-29.06.35,79.82,79.82,0,0,0-9.91,2.82A74.42,74.42,0,0,0,58.15,54.15a73.65,73.65,0,0,0-6,9.73c-.91,1.7-1.69,3.47-2.49,5.24s-1.45,3.61-2,5.48a74,74,0,0,0,0,46.8c.59,1.86,1.33,3.67,2,5.48s1.57,3.54,2.49,5.24a72.62,72.62,0,0,0,6,9.73,74.23,74.23,0,0,0,34.47,25.86,78.19,78.19,0,0,0,9.91,2.83,75.49,75.49,0,0,0,29.07.34A74,74,0,0,0,162.84,157a75,75,0,0,0,18.86-21.09,71.18,71.18,0,0,0,5.18-10.45,73.89,73.89,0,0,0,5.18-22.75c.14-1.55.11-2.74.16-3.53s.06-1.21.06-1.21,0,.41,0,1.21,0,2-.11,3.54a72.77,72.77,0,0,1-5.06,22.83A70.49,70.49,0,0,1,182,136.09a75.11,75.11,0,0,1-18.89,21.23,74.45,74.45,0,0,1-31.38,14,75.77,75.77,0,0,1-29.24-.31,78.77,78.77,0,0,1-10-2.84,74.65,74.65,0,0,1-34.72-26,72,72,0,0,1-6.09-9.79c-.92-1.71-1.71-3.5-2.51-5.28s-1.46-3.64-2.06-5.52a74.5,74.5,0,0,1,0-47.13c.59-1.88,1.34-3.7,2.06-5.51s1.58-3.57,2.5-5.28a74,74,0,0,1,6.09-9.79,74.79,74.79,0,0,1,34.72-26,78.71,78.71,0,0,1,10-2.83,75.73,75.73,0,0,1,29.23-.31,74.39,74.39,0,0,1,31.39,14A75.26,75.26,0,0,1,182,59.91a71.56,71.56,0,0,1,5.16,10.52,72.77,72.77,0,0,1,5.06,22.83c.12,1.55.07,2.74.11,3.54S192.28,98,192.28,98Z" style="fill:#263238"></path><path d="M103.06,113.47A23.32,23.32,0,0,0,96.59,103c-4.73-4.18-11.39-5.85-15.7-10.46a57.78,57.78,0,0,0,2.23,9.76,19.13,19.13,0,0,0,5.4,8.3c1.8,1.52,4,2.57,5.76,4.06,4.62,3.82,5.84,12.62,10.35,17.18C104.58,127.69,104.3,117.43,103.06,113.47Z" style="fill:#455a64"></path><path d="M136.17,105.62c-5.25,1.82-9.59,5.6-13.44,9.61a197.76,197.76,0,0,1-15.62,14.32A44.3,44.3,0,0,0,151,102C146.32,104,141,104,136.17,105.62Z" style="fill:#455a64"></path><path d="M103.91,138.64s-.07-.15-.16-.46-.22-.81-.36-1.35c-.31-1.18-.72-2.89-1.19-5-1-4.24-2.11-10.14-3.11-16.7s-1.63-12.55-2-16.88c-.17-2.17-.29-3.92-.35-5.14,0-.55,0-1,0-1.4a1.43,1.43,0,0,1,0-.49,2.87,2.87,0,0,1,.08.49c0,.37.1.83.16,1.39.13,1.29.3,3,.51,5.12.45,4.32,1.14,10.28,2.13,16.83s2.1,12.44,3,16.7c.42,2.07.77,3.77,1,5,.1.55.19,1,.26,1.38A1.46,1.46,0,0,1,103.91,138.64Z" style="fill:#263238"></path><path d="M107.74,71.37a2.69,2.69,0,0,1,0,.68c0,.49-.13,1.12-.22,1.91-.2,1.73-.47,4.12-.81,7-.66,6-1.42,14.18-1.88,23.29s-.52,17.38-.46,23.37c0,2.94.08,5.34.11,7.08,0,.79,0,1.43,0,1.93a2.88,2.88,0,0,1,0,.67,3.59,3.59,0,0,1-.08-.67q0-.73-.12-1.92c-.1-1.67-.2-4.09-.28-7.09-.16-6-.15-14.26.31-23.4s1.28-17.36,2-23.3c.38-3,.71-5.37,1-7,.13-.79.24-1.42.32-1.91A5.61,5.61,0,0,1,107.74,71.37Z" style="fill:#263238"></path><path d="M115,86.13a1.68,1.68,0,0,1-.12.51l-.45,1.44c-.41,1.24-1,3-1.67,5.28C111.35,97.83,109.59,104,108,111s-2.66,13.33-3.33,17.95c-.34,2.31-.6,4.19-.77,5.49-.09.6-.16,1.09-.21,1.49a2,2,0,0,1-.11.51,1.72,1.72,0,0,1,0-.52c0-.41.07-.9.12-1.51.1-1.3.31-3.19.6-5.51.59-4.64,1.62-11,3.19-18s3.4-13.18,4.87-17.63c.73-2.22,1.36-4,1.83-5.24.21-.56.39-1,.54-1.4A1.89,1.89,0,0,1,115,86.13Z" style="fill:#263238"></path><path d="M129.86,93.52s-.06.16-.24.44-.46.74-.77,1.22c-.69,1-1.66,2.59-2.83,4.5-2.35,3.83-5.33,9.26-8.53,15.32s-6.32,11.45-8.82,15.2c-1.24,1.87-2.28,3.36-3,4.36l-.88,1.15a2.44,2.44,0,0,1-.33.38s.07-.16.25-.44.48-.72.79-1.21c.72-1,1.71-2.55,2.91-4.44,2.41-3.79,5.46-9.19,8.67-15.24s6.24-11.49,8.68-15.27c1.21-1.89,2.23-3.41,3-4.42l.86-1.17A2.18,2.18,0,0,1,129.86,93.52Z" style="fill:#263238"></path><path d="M144.37,90.43a3.09,3.09,0,0,1-.33.5c-.26.37-.6.83-1,1.39-.88,1.2-2.2,2.91-3.86,5-3.32,4.18-8.08,9.82-13.65,15.77s-10.88,11.07-14.83,14.65c-2,1.8-3.6,3.23-4.74,4.19l-1.32,1.1a2.71,2.71,0,0,1-.48.36,3.26,3.26,0,0,1,.41-.44l1.26-1.17,4.62-4.31c3.88-3.65,9.14-8.8,14.7-14.74s10.35-11.53,13.74-15.64l4-4.89L144,90.87A2.17,2.17,0,0,1,144.37,90.43Z" style="fill:#263238"></path><path d="M139.49,82.35a1.35,1.35,0,0,0-1.66-.71,1.83,1.83,0,0,0-3.26-1.41,1.34,1.34,0,0,0-.73-1.61,3,3,0,0,0-1.91-.16,11.24,11.24,0,0,0-6,3.34,19.36,19.36,0,0,0-3.77,5.86,12.45,12.45,0,0,0-1.27,5.5,6.13,6.13,0,0,0,1.74,4.1l-.07-.05c2,2.2,5.8,2.33,8.63,1.44a11.46,11.46,0,0,0,6.47-5.77,21.08,21.08,0,0,0,2.12-8.57A3.71,3.71,0,0,0,139.49,82.35Z" style="fill:#90CAF9"></path><path d="M154,81.7a1.89,1.89,0,0,0-1.68-1.63,2.24,2.24,0,0,0-3.13-3.17,4.93,4.93,0,0,0-4.1-.3,10.47,10.47,0,0,0-3.56,2.26,25.06,25.06,0,0,0-6.06,8.21,12.49,12.49,0,0,0-1.27,4.62,6.24,6.24,0,0,0,1.47,4.46h0a9,9,0,0,0,7.77.63A14.26,14.26,0,0,0,150,91.7a26.74,26.74,0,0,0,3.67-7.51A5.24,5.24,0,0,0,154,81.7Z" style="fill:#90CAF9"></path><path d="M103.68,78.43c3.27,1.73,7.52.59,10.18-2s4-6.22,4.61-9.86a9.8,9.8,0,0,0,.12-3.37,4.14,4.14,0,0,0-1.72-2.8,2.65,2.65,0,0,0-3.14.17,3.61,3.61,0,0,0-3.28-2.72,4.8,4.8,0,0,1-1.78-.13c-.42-.18-.74-.56-1.15-.77a2.2,2.2,0,0,0-2.19.3,5.63,5.63,0,0,0-1.48,1.77,21,21,0,0,0-3.17,8.8,17.56,17.56,0,0,0,3,10.57" style="fill:#90CAF9"></path><path d="M123.93,77.7a4.93,4.93,0,0,0-1.22-3,2,2,0,0,0-2.87,0,3,3,0,0,0-3.5-1.21,7.74,7.74,0,0,0-3.25,2.25c-2.47,2.53-4.64,5.54-5.25,9s.42,7.85,3.5,9.58l0,.12c4,.66,8.19-1.63,10.43-5A16.93,16.93,0,0,0,123.93,77.7Z" style="fill:#90CAF9"></path><path d="M103.83,77.26c-.82-1.34-2.67-2.16-4-1.37a3.27,3.27,0,0,0-2.31-3.08,4.35,4.35,0,0,0-3.9.83,6.55,6.55,0,0,0-2.16,3.45c-.47-.94-2-.79-2.65,0a4.66,4.66,0,0,0-.66,3c.06,3,.3,6.19,1.72,8.88S95,94.4,98,94a9.4,9.4,0,0,0,5.15-5,18.92,18.92,0,0,0,1.5-7.19A8,8,0,0,0,103.83,77.26Z" style="fill:#90CAF9"></path><path d="M97.38,92A22.8,22.8,0,0,1,97,89.46a32.2,32.2,0,0,0-1.56-5.92,30.3,30.3,0,0,0-1.35-3.1,12.23,12.23,0,0,0-1.41-2.33,5.68,5.68,0,0,0-2-1.53,3.2,3.2,0,0,1,2.23,1.29,11.4,11.4,0,0,1,1.56,2.35,26.17,26.17,0,0,1,1.41,3.13,25.82,25.82,0,0,1,1.44,6.06A8.81,8.81,0,0,1,97.38,92Z" style="fill:#263238"></path><path d="M100.58,75.21a25.32,25.32,0,0,0-2.9,3.94,24.1,24.1,0,0,0-1.57,4.63,8.21,8.21,0,0,1,1.11-4.87A8.37,8.37,0,0,1,100.58,75.21Z" style="fill:#263238"></path><path d="M108.87,77.68c-.09,0,.33-1.12.76-2.93a26.82,26.82,0,0,0,.68-7.19,26.29,26.29,0,0,0-1.32-7.1c-.59-1.76-1.1-2.8-1-2.84s.19.23.44.69a14.67,14.67,0,0,1,.93,2,23.17,23.17,0,0,1,.65,14.5,15.43,15.43,0,0,1-.75,2.11A2.85,2.85,0,0,1,108.87,77.68Z" style="fill:#263238"></path><path d="M114.51,60.38c.1.11-1.08,1.22-2.07,2.91s-1.43,3.23-1.58,3.2A6.27,6.27,0,0,1,112,63,6.23,6.23,0,0,1,114.51,60.38Z" style="fill:#263238"></path><path d="M117.37,73.73s-.37,0-1,.13A5.43,5.43,0,0,0,114,75.09a14.46,14.46,0,0,0-2.63,3.09,24.21,24.21,0,0,0-2.43,4.37,12.57,12.57,0,0,0-1,4.83,9.2,9.2,0,0,0,3,7s-.1,0-.24-.12a4,4,0,0,1-.61-.47,7.38,7.38,0,0,1-1.68-2.27,9.82,9.82,0,0,1-1-4.09,12.51,12.51,0,0,1,1-5A22.2,22.2,0,0,1,111,77.91a13.9,13.9,0,0,1,2.79-3.11,5.18,5.18,0,0,1,2.59-1.14A2.25,2.25,0,0,1,117.37,73.73Z" style="fill:#263238"></path><path d="M117.39,92.27c-.08,0,.48-1,1.12-2.61A21.69,21.69,0,0,0,120,83.05a21.94,21.94,0,0,0-.67-6.74c-.44-1.69-.89-2.69-.8-2.72s.17.22.39.66a15.41,15.41,0,0,1,.77,2,19.3,19.3,0,0,1-.82,13.6,13.4,13.4,0,0,1-1,1.84C117.58,92.07,117.42,92.29,117.39,92.27Z" style="fill:#263238"></path><path d="M127.31,98.88c-.07-.06.76-.9,1.89-2.41a26.72,26.72,0,0,0,5.16-13.57c.16-1.88.11-3.06.2-3.06a2.83,2.83,0,0,1,.13.82,17.16,17.16,0,0,1,0,2.26,23.6,23.6,0,0,1-5.24,13.77A16.36,16.36,0,0,1,128,98.36C127.56,98.72,127.33,98.91,127.31,98.88Z" style="fill:#263238"></path><path d="M138.9,83.57a36.14,36.14,0,0,1-3,3.1,36.77,36.77,0,0,1-3,3.11,12.39,12.39,0,0,1,2.64-3.47A12.35,12.35,0,0,1,138.9,83.57Z" style="fill:#263238"></path><path d="M135.57,95.64a22,22,0,0,1,1.06-2.12,40.75,40.75,0,0,0,2.14-5.27c.62-2.09,1.55-4.1.94-5.37a1.9,1.9,0,0,0-1.18-1c-.37-.09-.6,0-.61,0s.2-.18.65-.15a2,2,0,0,1,1.46,1,3.77,3.77,0,0,1,.14,2.67c-.25,1-.55,2-.91,3A28,28,0,0,1,137,93.69,7.06,7.06,0,0,1,135.57,95.64Z" style="fill:#263238"></path><path d="M152.34,82.09a66.93,66.93,0,0,0-7,3.12A71.7,71.7,0,0,0,139,89.56a8.18,8.18,0,0,1,1.58-1.64,26.38,26.38,0,0,1,4.5-3.17,26,26,0,0,1,5-2.17A7.52,7.52,0,0,1,152.34,82.09Z" style="fill:#263238"></path><path d="M144.67,85.08c-.14-.07.75-1.89,1.2-4.3s.28-4.43.44-4.45a8.91,8.91,0,0,1,.07,4.54A9,9,0,0,1,144.67,85.08Z" style="fill:#263238"></path><path d="M125.91,82.28a20.28,20.28,0,0,0-3.75,5.79,20.47,20.47,0,0,0-1.1,6.8,5.6,5.6,0,0,1-.29-2.05,13.52,13.52,0,0,1,3.54-9.21A5.46,5.46,0,0,1,125.91,82.28Z" style="fill:#263238"></path><path d="M122.27,99.38a16.17,16.17,0,0,0-7.89,4.49,18.1,18.1,0,0,0-3.31,6.62c-2.15,6.79-3.81,18.42-4.83,25.47L120.6,113.6q5.3-8.25,10.58-16.5C128.27,98.06,125.21,98.52,122.27,99.38Z" style="fill:#455a64"></path><path d="M141,109.06a8.12,8.12,0,0,1-1.06,1c-.7.59-1.73,1.43-3,2.44-2.59,2-6.27,4.67-10.5,7.36s-8.2,4.9-11.13,6.39c-1.46.75-2.66,1.33-3.49,1.71a8,8,0,0,1-1.32.54,7,7,0,0,1,1.23-.72l3.41-1.85c2.87-1.58,6.8-3.83,11-6.51s7.92-5.28,10.56-7.22l3.13-2.3A6.48,6.48,0,0,1,141,109.06Z" style="fill:#263238"></path><path d="M121.75,102.44a9.33,9.33,0,0,1-.88,1.09c-.59.69-1.41,1.71-2.34,3a52.7,52.7,0,0,0-5.89,11.11,119.66,119.66,0,0,0-3.9,12l-1,3.7a7.8,7.8,0,0,1-.44,1.34,6.54,6.54,0,0,1,.24-1.39c.2-.89.49-2.17.88-3.74a96.05,96.05,0,0,1,3.77-12.11,48.13,48.13,0,0,1,6.08-11.14,30.23,30.23,0,0,1,2.49-2.94A6.23,6.23,0,0,1,121.75,102.44Z" style="fill:#263238"></path><path d="M103.1,130.61a10,10,0,0,1-.27-1.68c-.15-1.08-.34-2.65-.66-4.57a35.24,35.24,0,0,0-1.73-6.6,23.35,23.35,0,0,0-4.33-7.05c-2-2.24-4-4.15-5.92-5.94a59.52,59.52,0,0,1-4.79-5A24.53,24.53,0,0,1,82.76,96a10.09,10.09,0,0,1-.69-1.56,12,12,0,0,1,.87,1.46,28.81,28.81,0,0,0,2.74,3.69,64.69,64.69,0,0,0,4.84,4.84,79.57,79.57,0,0,1,6,6,23.42,23.42,0,0,1,4.38,7.22,33,33,0,0,1,1.64,6.71c.28,1.94.41,3.52.5,4.61A11.4,11.4,0,0,1,103.1,130.61Z" style="fill:#263238"></path><path d="M111.6,132.71l-2.85.78c.22,2.78-1.33,5.84-2,8.54a11.3,11.3,0,0,0,1.18,8.49,9.36,9.36,0,0,1,.7-4l2.61,3.29c-.33-3.54-.66-7.19.4-10.59a20,20,0,0,0,1-3.34A3.48,3.48,0,0,0,111.6,132.71Z" style="fill:#90CAF9"></path><path d="M100.05,125.55h0a14,14,0,0,1-1.31,4.77,15.51,15.51,0,0,0,5.94,3,23.85,23.85,0,0,0,6.14.36c.76-1.42,1.51-2.84,2.27-4.25A15.15,15.15,0,0,1,100.05,125.55Z" style="fill:#90CAF9"></path><path d="M110.88,132.44a22,22,0,0,0,4.76,6.49,4.23,4.23,0,0,0,3,1.47c1.33-.11,2.28-1.32,3-2.48a24,24,0,0,0,2.12-4.81c.28-.9.46-2-.22-2.68a2.76,2.76,0,0,0-2-.48q-5.19.17-10.36.64" style="fill:#90CAF9"></path><path d="M112.93,129.39a5.84,5.84,0,0,1-.84,2.27c-.6,1.2-1.19,2.11-1.31,2a5.73,5.73,0,0,1,.84-2.27A5.85,5.85,0,0,1,112.93,129.39Z" style="fill:#263238"></path><path d="M116.75,137c-.13.08-1-1.24-2.35-2.62s-2.62-2.31-2.53-2.44a7.36,7.36,0,0,1,2.91,2.08A7.12,7.12,0,0,1,116.75,137Z" style="fill:#263238"></path><path d="M117.87,133.49a9.11,9.11,0,0,1-3-.51,9.16,9.16,0,0,1-2.87-1,9.11,9.11,0,0,1,3,.51A9.16,9.16,0,0,1,117.87,133.49Z" style="fill:#263238"></path><path d="M110.83,133.83a15.56,15.56,0,0,1-11.2-2.71,54.61,54.61,0,0,0,5.46,1.93A52.68,52.68,0,0,0,110.83,133.83Z" style="fill:#263238"></path><path d="M207.62,145.3c-.08.12-5.34-2.89-11.75-6.74s-11.56-7.07-11.48-7.19,5.33,2.9,11.75,6.74S207.69,145.18,207.62,145.3Z" style="fill:#263238"></path></g><g id="freepik--Rings--inject-18"><circle cx="328.61" cy="67.52" r="42.7" style="fill:#fafafa"></circle><path d="M371.32,67.52s0-.23-.06-.69-.08-1.15-.13-2c0-.44-.06-.94-.09-1.49s-.17-1.14-.27-1.78-.21-1.34-.33-2.08a21.13,21.13,0,0,0-.56-2.33,40.7,40.7,0,0,0-4.72-11.33,42.52,42.52,0,0,0-10.82-12.06l-1.84-1.37c-.64-.43-1.32-.82-2-1.23s-1.33-.86-2.07-1.2l-2.21-1.06-1.12-.53-1.18-.43L341.53,27c-.81-.27-1.66-.44-2.5-.67a22.23,22.23,0,0,0-2.57-.58,39.53,39.53,0,0,0-5.38-.62c-.91,0-1.83-.12-2.76-.11l-2.82.15c-.47,0-.94,0-1.41.09l-1.42.22c-.95.15-1.91.26-2.86.46a45.5,45.5,0,0,0-5.66,1.66,45,45,0,0,0-5.54,2.43c-.89.49-1.75,1.06-2.64,1.58-.44.28-.9.52-1.31.83l-1.25.94a46.36,46.36,0,0,0-4.82,4.09l-2.16,2.38-.54.6-.49.64-1,1.3-1,1.31-.86,1.39-.85,1.41-.43.71L291,48c-.48,1-1,2-1.45,3s-.76,2.09-1.15,3.14a45.52,45.52,0,0,0-2.19,13.4,45.45,45.45,0,0,0,2.19,13.39c.39,1,.77,2.1,1.15,3.15l1.44,3,.37.74.42.71.86,1.41.85,1.39,1,1.31,1,1.3.49.65.54.59,2.16,2.38a46.36,46.36,0,0,0,4.82,4.09l1.25.94c.41.32.87.55,1.31.83.89.53,1.75,1.09,2.64,1.58a45,45,0,0,0,5.54,2.43,43.91,43.91,0,0,0,5.66,1.67c.95.19,1.92.3,2.86.46l1.42.22c.47.06,1,.06,1.42.09l2.81.14c.93,0,1.85-.07,2.77-.1a39.39,39.39,0,0,0,5.37-.62,20.37,20.37,0,0,0,2.57-.59c.84-.22,1.69-.4,2.5-.67l2.4-.87,1.17-.43,1.13-.53,2.2-1.06c.74-.33,1.39-.81,2.08-1.2s1.35-.8,2-1.22l1.84-1.37a42.25,42.25,0,0,0,10.82-12.07,40.7,40.7,0,0,0,4.72-11.33,21.13,21.13,0,0,0,.56-2.33q.18-1.11.33-2.07c.1-.65.21-1.24.27-1.79s.06-1,.09-1.49c.05-.88.1-1.55.13-2s.06-.69.06-.69,0,.24,0,.69,0,1.16-.08,2q0,.68-.06,1.5c-.05.54-.16,1.14-.25,1.79s-.19,1.34-.3,2.09a21.55,21.55,0,0,1-.54,2.34,40.51,40.51,0,0,1-4.67,11.43,42.57,42.57,0,0,1-10.84,12.21L352.72,103c-.65.43-1.34.82-2,1.24s-1.34.88-2.08,1.22l-2.23,1.08-1.13.54-1.19.43-2.41.89c-.82.27-1.68.45-2.53.69a22.13,22.13,0,0,1-2.59.59,38.72,38.72,0,0,1-5.43.64c-.92,0-1.86.13-2.8.12l-2.84-.14c-.47,0-1,0-1.43-.09l-1.43-.22c-1-.16-1.93-.27-2.89-.46a47.85,47.85,0,0,1-5.73-1.67,45.47,45.47,0,0,1-5.61-2.46c-.91-.49-1.78-1.06-2.68-1.59-.44-.28-.91-.52-1.32-.84l-1.27-1a47.4,47.4,0,0,1-4.88-4.13l-2.18-2.41-.55-.6-.5-.65-1-1.32-1-1.32-.87-1.41-.86-1.43-.44-.71-.36-.75c-.49-1-1-2-1.46-3l-1.17-3.18a46,46,0,0,1-2.22-13.56A45.9,45.9,0,0,1,287.87,54L289,50.78l1.46-3,.37-.75.43-.71.87-1.43.86-1.41,1-1.32,1-1.32.5-.65.55-.6,2.18-2.4A47.51,47.51,0,0,1,303.11,33l1.27-1c.42-.31.89-.55,1.33-.83.89-.54,1.76-1.11,2.67-1.6a47.2,47.2,0,0,1,11.34-4.12c1-.2,1.93-.31,2.89-.46l1.43-.22c.47-.06,1-.06,1.43-.09l2.84-.14c.94,0,1.88.08,2.8.11a42,42,0,0,1,5.43.64,22.63,22.63,0,0,1,2.59.6c.85.23,1.71.41,2.53.68l2.41.89,1.19.44,1.13.54,2.22,1.07a23.8,23.8,0,0,1,2.09,1.22c.68.42,1.36.81,2,1.24l1.85,1.39a42.62,42.62,0,0,1,10.85,12.21,40.63,40.63,0,0,1,4.67,11.43,21.17,21.17,0,0,1,.54,2.35c.11.74.21,1.44.3,2.09s.2,1.24.25,1.79,0,1,.06,1.5c0,.88.06,1.56.08,2S371.32,67.52,371.32,67.52Z" style="fill:#263238"></path><path d="M339.51,53.33c0,.14-13.44,16.1-16.08,24.07l-4.18,3.68-3.61-1.46-.52-3,4.64-12.16,6.58-9.83,8.82-7.21,4.78,1.29Z" style="fill:#90CAF9"></path><path d="M339.51,53.33c0,.14-13.44,16.1-16.08,24.07l-4.18,3.68-3.61-1.46-.52-3,4.64-12.16,6.58-9.83,8.82-7.21,4.78,1.29Z" style="opacity:0.30000000000000004"></path><path d="M344.07,46.47c-5.11-3.34-15.12,2.94-22.37,14S313.07,82,318.18,85.34s14.78-1.67,22-12.75S349.18,49.81,344.07,46.47ZM333.12,66.84c-5.37,8.2-11.84,13.45-14.47,11.73s-.41-9.76,5-18,11.84-13.45,14.47-11.73S338.48,58.63,333.12,66.84Z" style="fill:#90CAF9"></path><path d="M344.07,46.47c-5.11-3.34-15.12,2.94-22.37,14S313.07,82,318.18,85.34s14.78-1.67,22-12.75S349.18,49.81,344.07,46.47ZM333.12,66.84c-5.37,8.2-11.84,13.45-14.47,11.73s-.41-9.76,5-18,11.84-13.45,14.47-11.73S338.48,58.63,333.12,66.84Z" style="fill:none"></path><path d="M333.12,66.84a3.44,3.44,0,0,1,.38-.71c.27-.45.66-1.11,1.14-2a43.4,43.4,0,0,0,3.42-7.64,20.83,20.83,0,0,0,.68-2.67,9.3,9.3,0,0,0,.15-2.94l-.06-.37-.11-.35a2.52,2.52,0,0,0-.32-.66,1.64,1.64,0,0,0-1.23-.7,5.27,5.27,0,0,0-3.08.93,25.88,25.88,0,0,0-5.49,4.76A52.6,52.6,0,0,0,320,67.64a25.25,25.25,0,0,0-2.16,6.94,5.25,5.25,0,0,0,.38,3.2,1.69,1.69,0,0,0,1.13.84,2.23,2.23,0,0,0,.73,0l.37,0,.37-.1a9,9,0,0,0,2.63-1.31,22.81,22.81,0,0,0,2.18-1.69,45.15,45.15,0,0,0,5.62-6.2c.6-.79,1.05-1.42,1.36-1.84a3.31,3.31,0,0,1,.49-.63,6.64,6.64,0,0,1-.41.69c-.27.44-.7,1.09-1.28,1.9a40.91,40.91,0,0,1-5.54,6.35,21.14,21.14,0,0,1-2.2,1.75,9.44,9.44,0,0,1-2.74,1.4l-.39.11-.42,0a2.5,2.5,0,0,1-.86,0,2.09,2.09,0,0,1-1.43-1,5.6,5.6,0,0,1-.46-3.49,25.41,25.41,0,0,1,2.16-7.1,53.07,53.07,0,0,1,3.83-7,51.72,51.72,0,0,1,4.85-6.3,25,25,0,0,1,5.62-4.83,5.77,5.77,0,0,1,3.39-1,2.16,2.16,0,0,1,1.52.9,2.73,2.73,0,0,1,.37.77l.13.41.06.4a9.69,9.69,0,0,1-.18,3.07,20.72,20.72,0,0,1-.73,2.72,40.29,40.29,0,0,1-3.6,7.62c-.5.86-.92,1.51-1.22,1.94A7.13,7.13,0,0,1,333.12,66.84Z" style="fill:#263238"></path><path d="M344.07,46.47s.09.05.24.16l.68.53A7,7,0,0,1,346.61,50c.88,2.74.68,7-.93,11.84A48.1,48.1,0,0,1,337,77.28a32.49,32.49,0,0,1-7.9,7,17,17,0,0,1-5.17,2.15,8,8,0,0,1-5.72-.73,7.07,7.07,0,0,1-3.1-4.84,16,16,0,0,1,.05-5.6,34.57,34.57,0,0,1,3.49-9.93,49.51,49.51,0,0,1,10.72-14.13c3.76-3.4,7.61-5.31,10.47-5.59a6.94,6.94,0,0,1,3.24.35l.75.41c.16.09.25.14.24.15l-.27-.11L343,46a7.08,7.08,0,0,0-3.18-.25c-2.78.34-6.55,2.26-10.25,5.67A50,50,0,0,0,319.08,65.5a34.4,34.4,0,0,0-3.42,9.79,15.66,15.66,0,0,0,0,5.42,6.54,6.54,0,0,0,2.86,4.49,7.39,7.39,0,0,0,5.34.67,16.21,16.21,0,0,0,5-2.08A32,32,0,0,0,336.63,77a48.29,48.29,0,0,0,8.7-15.26c1.64-4.76,1.89-9,1.09-11.67a7.19,7.19,0,0,0-1.51-2.81l-.63-.55Z" style="fill:#263238"></path><path d="M333.17,66.53l-8.8-4.87-9.58-2.76a11.07,11.07,0,0,0-5.88-.07h0l-1.16,3.71,4,3.86c4.18,1,10.21,4.41,15.58,7.72A38.34,38.34,0,0,0,333.17,66.53Z" style="fill:#e0e0e0"></path><path d="M340.28,72.47l-5.22,6.61c2.76,1.8,2.9,1.63,2.94,1.64l4.65,0,.88-4.87Z" style="fill:#e0e0e0"></path><path d="M340.62,72l-.81,1.09c2.4,2.47,3.26,4.44,2.51,5.84-1,1.91-5.26,1.76-10.61,0h0A49,49,0,0,1,324,75.49c-8.62-4.66-14.4-10.67-12.91-13.43s9.69-1.23,18.31,3.42a37.65,37.65,0,0,1,3.19,2.14l1-1.5a39.13,39.13,0,0,0-4.21-2.54c-11.65-6.29-22.16-6.79-25.06-1.42S307.22,76.75,318.87,83s23.45,7,26.35,1.65C347,81.42,345,76.64,340.62,72Z" style="fill:#f5f5f5"></path><path d="M340.62,72l.31.32c.21.21.53.54.9,1a21.64,21.64,0,0,1,2.88,4.21A11.5,11.5,0,0,1,345.86,81a5.65,5.65,0,0,1-.92,4.23,7.19,7.19,0,0,1-4.22,2.66,17.69,17.69,0,0,1-5.64.42A39.1,39.1,0,0,1,322.57,85a44.84,44.84,0,0,1-12.51-8,25,25,0,0,1-5-6.28,13.85,13.85,0,0,1-1.45-3.93,7.35,7.35,0,0,1,.42-4.24,6.38,6.38,0,0,1,3-3.08,10.53,10.53,0,0,1,4.28-1.07,25.48,25.48,0,0,1,8.88,1.2A50,50,0,0,1,333.66,66l.13.08-.08.13-1,1.5-.08.13-.13-.08c-1.1-.72-2.08-1.57-3.2-2.15s-2.26-1.16-3.4-1.68A42.74,42.74,0,0,0,319,61.45a20.18,20.18,0,0,0-3.49-.58,7.06,7.06,0,0,0-3.35.42,2.06,2.06,0,0,0-1,2.72,8.66,8.66,0,0,0,1.65,2.79,27.29,27.29,0,0,0,4.59,4.3,47.59,47.59,0,0,0,4.89,3.29,51.42,51.42,0,0,0,9.44,4.39h-.09l0,0h.05A25.93,25.93,0,0,0,338,80.17a7.76,7.76,0,0,0,2.71-.2,3,3,0,0,0,1.1-.53,2,2,0,0,0,.63-.94,3,3,0,0,0-.18-2,7.14,7.14,0,0,0-.87-1.53,17.31,17.31,0,0,0-1.57-1.88h0v0c.62-.81.83-1.07.83-1.07l-.79,1.1v0a15.42,15.42,0,0,1,1.61,1.86,7.44,7.44,0,0,1,.9,1.54,3.12,3.12,0,0,1,.21,2.09,2.14,2.14,0,0,1-.67,1,3.14,3.14,0,0,1-1.14.57,8.37,8.37,0,0,1-2.77.23A26.1,26.1,0,0,1,331.68,79l.09,0h0l-.07,0-.06,0h0l0,0a52,52,0,0,1-9.49-4.38,49.13,49.13,0,0,1-4.93-3.29A28.11,28.11,0,0,1,312.61,67a8.85,8.85,0,0,1-1.7-2.88,4.57,4.57,0,0,1-.18-.85,2.4,2.4,0,0,1,.11-.88A2.17,2.17,0,0,1,312,61a7.32,7.32,0,0,1,3.5-.46,21.62,21.62,0,0,1,3.54.59,42.48,42.48,0,0,1,7,2.48c1.14.52,2.28,1.09,3.41,1.69a37,37,0,0,1,3.23,2.15l-.22.05,1-1.51,0,.21a50,50,0,0,0-13.4-6.37,25.43,25.43,0,0,0-8.77-1.19,10.42,10.42,0,0,0-4.17,1,6.07,6.07,0,0,0-2.88,2.93,7.08,7.08,0,0,0-.4,4.07,13.73,13.73,0,0,0,1.41,3.84,25.2,25.2,0,0,0,5,6.21,44.7,44.7,0,0,0,12.42,8,38.94,38.94,0,0,0,12.41,3.36,17.87,17.87,0,0,0,5.58-.39,7,7,0,0,0,4.13-2.57,5.56,5.56,0,0,0,.92-4.11,11.6,11.6,0,0,0-1.12-3.47,22.05,22.05,0,0,0-2.82-4.23c-.37-.46-.66-.78-.86-1Z" style="fill:#263238"></path><path d="M334.22,65.07a19.46,19.46,0,0,1-3.42,5.43c-1.12,1.38-2.23,2.55-3,3.37a6.32,6.32,0,0,1-1.42,1.25c-.12-.11,1.82-2.23,4.05-5S334.09,65,334.22,65.07Z" style="fill:#263238"></path><path d="M341.21,71a16.86,16.86,0,0,1-2.83,4.69,16.59,16.59,0,0,1-3.85,3.9c-.11-.12,1.61-1.85,3.44-4.22S341.07,70.91,341.21,71Z" style="fill:#263238"></path><path d="M327.35,74.12A11.44,11.44,0,0,1,325.18,73c-1.31-.74-3.13-1.77-5.16-2.84s-3.91-2-5.29-2.55a17.55,17.55,0,0,1-2.24-1,8.55,8.55,0,0,1,2.37.65,41,41,0,0,1,5.4,2.43c2.05,1.08,3.84,2.16,5.11,3A11.25,11.25,0,0,1,327.35,74.12Z" style="fill:#263238"></path><path d="M305.77,103.61a9.76,9.76,0,0,1-1.26,1.62c-.8,1-1.89,2.34-3.06,3.88-2.35,3.07-4.2,5.6-4.32,5.52a34.21,34.21,0,0,1,3.91-5.84,45.91,45.91,0,0,1,3.2-3.8A7.09,7.09,0,0,1,305.77,103.61Z" style="fill:#263238"></path></g><g id="freepik--Character--inject-18"><path d="M218.43,127.41a26.84,26.84,0,0,1,12.85-16.27c6.85-3.74,15.12-4.28,22.77-2.75s14.78,5,21.54,8.91c3.79,2.19,7.57,4.6,10.29,8,5,6.25,5.65,14.78,6.13,22.76.39,6.45.72,13.21-2,19.06A19.84,19.84,0,0,1,276.65,178" style="fill:#263238"></path><path d="M288.47,159.75a42.69,42.69,0,0,0,10.27-31.7c-.36-3.82-1.41-7.87-4.35-10.34-1.5-1.26-3.38-2-4.91-3.23-2.79-2.23-4.16-5.84-6.81-8.23a10.84,10.84,0,0,0-17.68,5c-1.39,4.84.69,9.94,2.73,14.55q4.74,10.68,9.47,21.36a28.52,28.52,0,0,0,4.35,7.58c1.95,2.18,4.78,3.79,7.69,3.53" style="fill:#263238"></path><path d="M221.66,122.63a36.75,36.75,0,0,0-3.23,45.76,308.39,308.39,0,0,1,16.42-51.2" style="fill:#263238"></path><path d="M214.87,146.44c.83-12.7,9.28-28.26,21.93-26.9L266.07,127c9.39,2.4,15.65,10.33,16.34,20,0,.49.08-.1.07.26l-2.11,76.68A22.9,22.9,0,0,1,257,246.16h0a22.89,22.89,0,0,1-22.39-22.86c0-6.18,0-13.47,0-13.44S218.35,207.13,215,186C213.39,175.43,214,160.54,214.87,146.44Z" style="fill:#ffbe9d"></path><path d="M244,139.82a22.76,22.76,0,0,1-6.13,1.26,22.27,22.27,0,0,1-6.27,0c0-.16,2.79-.17,6.21-.52S243.93,139.67,244,139.82Z" style="fill:#eb996e"></path><path d="M239.24,139.06a10.27,10.27,0,0,1-3.82.7,9.91,9.91,0,0,1-3.86-.29,26.47,26.47,0,0,1,3.84-.23A25.32,25.32,0,0,1,239.24,139.06Z" style="fill:#eb996e"></path><path d="M248.05,181c-.14,0-.33-.85-1.18-1.39s-1.7-.42-1.74-.55.18-.21.57-.26a2.2,2.2,0,0,1,1.46.37,2.25,2.25,0,0,1,.91,1.2C248.17,180.72,248.11,181,248.05,181Z" style="fill:#eb996e"></path><path d="M221.92,162.81a2.72,2.72,0,0,0,2.61,2.75,2.61,2.61,0,0,0,2.81-2.44,2.72,2.72,0,0,0-2.61-2.75A2.6,2.6,0,0,0,221.92,162.81Z" style="fill:#263238"></path><path d="M218.6,155.42c.33.36,2.39-1.16,5.32-1.15s5.05,1.48,5.37,1.13c.16-.16-.18-.8-1.12-1.48a7.44,7.44,0,0,0-4.3-1.34,7.12,7.12,0,0,0-4.23,1.36C218.74,154.62,218.43,155.26,218.6,155.42Z" style="fill:#263238"></path><path d="M250,162.81a2.71,2.71,0,0,0,2.61,2.75,2.6,2.6,0,0,0,2.8-2.44,2.7,2.7,0,0,0-2.61-2.75A2.6,2.6,0,0,0,250,162.81Z" style="fill:#263238"></path><path d="M247.31,156c.34.36,2.4-1.16,5.32-1.15s5.06,1.48,5.38,1.13c.15-.16-.19-.8-1.12-1.48a7.46,7.46,0,0,0-4.3-1.34,7.16,7.16,0,0,0-4.24,1.36C247.45,155.23,247.15,155.87,247.31,156Z" style="fill:#263238"></path><path d="M236.66,177.67c0-.16-1.8-.48-4.74-.86-.75-.08-1.45-.23-1.58-.74a3.8,3.8,0,0,1,.51-2.21l2.21-5.68c3.09-8.08,5.32-14.72,5-14.84s-3.09,6.33-6.17,14.41q-1.11,3-2.12,5.71a4.25,4.25,0,0,0-.4,2.92,1.88,1.88,0,0,0,1.23,1.1,5.69,5.69,0,0,0,1.26.18C234.81,177.82,236.65,177.84,236.66,177.67Z" style="fill:#263238"></path><path d="M262.64,202.33s-6.88,14.54-28.07,12.51v-5A53.27,53.27,0,0,0,262.64,202.33Z" style="fill:#eb996e"></path><path d="M237.88,184.72a5.28,5.28,0,0,1,4.73-1.95,4.8,4.8,0,0,1,3.31,1.79,3,3,0,0,1,.22,3.48,3.52,3.52,0,0,1-3.83,1,11.09,11.09,0,0,1-3.73-2.24,3.23,3.23,0,0,1-.83-.86,1,1,0,0,1,0-1.09" style="fill:#90CAF9"></path><path d="M245.25,179.71c-.47,0-.48,3.14-3.2,5.39s-6.1,1.89-6.12,2.33c-.05.2.75.62,2.18.66a7.84,7.84,0,0,0,5.1-1.77,6.85,6.85,0,0,0,2.49-4.51C245.82,180.48,245.47,179.7,245.25,179.71Z" style="fill:#263238"></path><path d="M246.61,147.48c.28.79,3.2.42,6.63.84s6.19,1.36,6.65.65c.2-.34-.28-1.09-1.39-1.86A11.69,11.69,0,0,0,248.38,146C247.12,146.48,246.48,147.1,246.61,147.48Z" style="fill:#263238"></path><path d="M219.69,147c.51.67,2.53,0,4.95-.05s4.47.46,4.94-.23c.21-.34-.12-1-1-1.63a6.79,6.79,0,0,0-4-1.1,6.93,6.93,0,0,0-4,1.32C219.75,146,219.47,146.65,219.69,147Z" style="fill:#263238"></path><path d="M220.62,127.1c1.3-3.18,4.79-5.09,8.23-5.27a18.1,18.1,0,0,1,9.76,2.85c12.61,7.28,19.7,21.76,32.15,29.3,3.07,1.85,6.45,3.28,9.05,5.74s4.3,6.38,2.86,9.66a29.89,29.89,0,0,0,4.32-7.31,10,10,0,0,0-.35-8.25c-1.08-1.87-3-3.3-3.5-5.39-.46-1.84.26-3.76.18-5.66a12.32,12.32,0,0,0-1.94-5.4c-4.88-8.63-11.59-16.43-20.23-21.29a35.85,35.85,0,0,0-18.58-4.8,27.45,27.45,0,0,0-17.68,7c-2.78,2.6-5.71,5.29-4.27,8.81" style="fill:#263238"></path><path d="M282.5,169.44s.24-.29.66-.86a9.33,9.33,0,0,0,1.37-2.76,15.74,15.74,0,0,0-1.16-11.08c-1-2.22-2.31-4.5-3.69-7a80.42,80.42,0,0,1-3.88-8.26,58.7,58.7,0,0,0-4.43-9,35.27,35.27,0,0,0-7-8.06,37.22,37.22,0,0,0-18.58-8.56c-6.31-.94-12.23,0-16.49,2.23a17.93,17.93,0,0,0-7.93,7.91,16.06,16.06,0,0,0-1.1,2.9c-.17.69-.24,1.06-.26,1.06a1.18,1.18,0,0,1,0-.28c0-.18.06-.45.14-.8a15,15,0,0,1,1-3,18,18,0,0,1,8-8.15c4.32-2.33,10.33-3.31,16.72-2.38a37.48,37.48,0,0,1,18.85,8.64,35.57,35.57,0,0,1,7.11,8.18,59.1,59.1,0,0,1,4.44,9.06,82.37,82.37,0,0,0,3.82,8.24c1.36,2.5,2.7,4.81,3.64,7.06,2,4.48,1.94,8.72,1,11.29a8.65,8.65,0,0,1-1.48,2.76A5.28,5.28,0,0,1,282.5,169.44Z" style="fill:#455a64"></path><path d="M292.27,158.34a2.3,2.3,0,0,1,0-.6c0-.45,0-1,.06-1.73.06-1.49.13-3.66.05-6.33a54,54,0,0,0-1-9.31A24.83,24.83,0,0,0,286.82,130a57.4,57.4,0,0,0-8.13-8.09c-2.67-2.32-5.17-4.3-7.34-5.86s-4-2.72-5.3-3.48l-1.49-.86a2.85,2.85,0,0,1-.51-.33,3.87,3.87,0,0,1,.56.23c.36.17.88.43,1.54.79a56.64,56.64,0,0,1,5.41,3.35c2.21,1.53,4.74,3.49,7.45,5.8a55.62,55.62,0,0,1,8.22,8.13,25,25,0,0,1,4.59,10.59,51.31,51.31,0,0,1,.92,9.4c0,2.69-.08,4.86-.2,6.36-.06.75-.12,1.33-.17,1.72A2.41,2.41,0,0,1,292.27,158.34Z" style="fill:#455a64"></path><path d="M283,107.2a9,9,0,0,1,.59,2.4,28,28,0,0,1-.71,11.85,8.72,8.72,0,0,1-.87,2.32,61,61,0,0,0,1.34-8.24A60,60,0,0,0,283,107.2Z" style="fill:#455a64"></path><path d="M297.87,122.88a4.57,4.57,0,0,1-.72,1.77,11.41,11.41,0,0,1-7.26,5.33,4.77,4.77,0,0,1-1.9.16,14.9,14.9,0,0,1,1.81-.52,13.24,13.24,0,0,0,4-2,13.49,13.49,0,0,0,3.08-3.19A15.35,15.35,0,0,1,297.87,122.88Z" style="fill:#455a64"></path><path d="M298.91,137.11a10.42,10.42,0,0,1-8.38-.24c.05-.17,1.89.4,4.18.48S298.88,136.94,298.91,137.11Z" style="fill:#455a64"></path><path d="M289.71,174.1c-.5-.25-.25-1.65-.19-3.92a10.79,10.79,0,0,0-.44-3.71,6.1,6.1,0,0,0-.39-.86,2.4,2.4,0,0,0-.25-.37c-.07-.12-.23-.33-.35-.5a16.54,16.54,0,0,0-1.74-2,5.32,5.32,0,0,0-1.83-1.28c-.23-.08-.28,0-.18,0l-.74.15-.8.18a14.3,14.3,0,0,0-3,1.14,15.74,15.74,0,0,0-1.51.87l-.39.24-.65.39c-.45.24-.89.45-1.35.64a13.57,13.57,0,0,1-5.95,1,9.65,9.65,0,0,1-3.57-.89l-.46-.23-.36-.22c-.24-.15-.5-.29-.72-.46a11.16,11.16,0,0,1-1.31-1.05,17.29,17.29,0,0,1-3.63-4.94c-.86-1.68-1.5-3.32-2.12-4.81a55.74,55.74,0,0,0-9.09-14.94,59.8,59.8,0,0,0-10.62-9.83,33.8,33.8,0,0,0-8.34-4.79c-2.11-.79-3.48-1-3.56-1.56s1.25-1.37,4-1.45,6.68.94,10.75,3.07A49.43,49.43,0,0,1,254,133.69a53,53,0,0,1,11,16.8c.65,1.6,1.21,3,1.82,4.28a10.57,10.57,0,0,0,1.92,2.86c.17.17.34.31.51.45s.18.11.26.18l.13.09.06,0a2.3,2.3,0,0,0,.86.26,6.81,6.81,0,0,0,2.79-.3l.63-.24.27-.13.54-.29a23.45,23.45,0,0,1,2.21-1,20,20,0,0,1,4.61-1.23l1.09-.12.53,0,.6,0a6.2,6.2,0,0,1,3.35.8,10.53,10.53,0,0,1,3.39,3.14,18.85,18.85,0,0,1,1.83,3.1c.12.27.22.47.34.79a6.7,6.7,0,0,1,.32.92,8.89,8.89,0,0,1,.32,1.75,11,11,0,0,1-.9,5.15C291.38,173.38,290.15,174.34,289.71,174.1Z" style="fill:#263238"></path><path d="M279.51,162.34c.22-.61,11.26-4.59,11.41,7.14.14,11.41-11.36,9.16-11.39,8.84S279.51,162.34,279.51,162.34Z" style="fill:#ffbe9d"></path><path d="M283,174c.05,0,.2.14.54.29a2,2,0,0,0,1.48,0c1.2-.46,2.2-2.38,2.24-4.43a6.61,6.61,0,0,0-.59-2.84,2.28,2.28,0,0,0-1.51-1.51A1,1,0,0,0,284,166c-.15.32-.08.55-.14.57s-.25-.19-.16-.66a1.31,1.31,0,0,1,.44-.72,1.56,1.56,0,0,1,1.1-.3,2.77,2.77,0,0,1,2.09,1.75,6.76,6.76,0,0,1,.72,3.17c-.05,2.3-1.21,4.46-2.85,5a2.14,2.14,0,0,1-1.82-.28C283,174.24,283,174,283,174Z" style="fill:#eb996e"></path><path d="M288.3,162.17s-.13-.3-.48-.77a4.44,4.44,0,0,0-2.05-1.51,8.26,8.26,0,0,0-4-.36,19.56,19.56,0,0,0-5.12,1.84c-1.84.82-4,1.83-6.49,1.65a10.43,10.43,0,0,1-6.74-3.61,21,21,0,0,1-4-7.47c-.95-2.79-1.81-5.7-3-8.58a44,44,0,0,0-9-14.82,25.3,25.3,0,0,0-12.07-7.12,21.89,21.89,0,0,0-5.4-.69,19.56,19.56,0,0,0-4.09.49,32.81,32.81,0,0,0-3.35,1.1l.21-.12.61-.29a14.08,14.08,0,0,1,2.48-.89,19.33,19.33,0,0,1,4.14-.58,21.88,21.88,0,0,1,5.49.62,25.46,25.46,0,0,1,12.33,7.15,44.18,44.18,0,0,1,9.12,15c1.16,2.9,2,5.84,2.95,8.6a20.82,20.82,0,0,0,3.91,7.32,10,10,0,0,0,6.41,3.5c2.36.19,4.47-.76,6.31-1.55a19,19,0,0,1,5.23-1.79,8.29,8.29,0,0,1,4.15.45,4.34,4.34,0,0,1,2,1.64,2.59,2.59,0,0,1,.32.61C288.28,162.09,288.31,162.16,288.3,162.17Z" style="fill:#455a64"></path><path d="M284,156.48a4.74,4.74,0,0,1-.69-.38c-.43-.28-1.1-.65-1.91-1.22a39.42,39.42,0,0,1-6.15-5.6,108.07,108.07,0,0,1-7.53-9.78,89.47,89.47,0,0,0-9.41-11.72,35.67,35.67,0,0,0-6.07-4.79,29,29,0,0,0-6.56-3,32.49,32.49,0,0,0-12.08-1.48,30.71,30.71,0,0,0-8.09,1.58c-.94.29-1.63.6-2.11.78a5.63,5.63,0,0,1-.75.27,4.77,4.77,0,0,1,.71-.36,19.07,19.07,0,0,1,2.08-.88,29.67,29.67,0,0,1,8.13-1.76,32.17,32.17,0,0,1,12.25,1.39,29.93,29.93,0,0,1,6.68,3,36.46,36.46,0,0,1,6.18,4.86,88,88,0,0,1,9.43,11.81,116.15,116.15,0,0,0,7.41,9.81,42.92,42.92,0,0,0,6,5.69c.78.59,1.43,1,1.85,1.29A4.8,4.8,0,0,1,284,156.48Z" style="fill:#455a64"></path><path d="M284.31,176a2.31,2.31,0,0,1,2.58,1.66,2.24,2.24,0,1,1-3.12-1.49" style="fill:#fff"></path><path d="M283.77,176.15a3,3,0,0,0-1,1.53,2,2,0,0,0,.44,1.79,2.16,2.16,0,0,0,2.13.61,2.13,2.13,0,0,0,1.38-1.73,1.94,1.94,0,0,0-.67-1.72,3.05,3.05,0,0,0-1.72-.65s.17-.12.53-.13a2.39,2.39,0,0,1,2.34,2.56,2.57,2.57,0,0,1-1.7,2.16,2.54,2.54,0,0,1-2.64-.78,2.28,2.28,0,0,1-.45-2.21,2.32,2.32,0,0,1,.88-1.23C283.56,176.15,283.76,176.12,283.77,176.15Z" style="fill:#263238"></path><path d="M240.83,221.71c-2.81.69-6.24,1.59-6.24,1.59l-14.35,34.81-.62,26.68,29,25.33,36.92-34.67L289.11,237,285.21,217Z" style="fill:#ffbe9d"></path><path d="M210.25,365.67l85-6.18s36.57,15.68,36.57,88.76v24.33H174.47s-5.89-81.28,33.35-106.91" style="fill:#263238"></path><path d="M279.22,263.12,298,287.63,267.27,364l-54.44,1.21,4.81-97.45,8.31-6.45c-.79,3.59-.86,10.71,1.49,14.83s6.13,7.2,9.81,10.19,7.42,6.13,9.67,10.31c-.91-5.31,2.7-10.46,7.12-13.54s9.67-4.7,14.38-7.31,10.05-7.32,10.8-12.65" style="fill:#fafafa"></path><path d="M206.28,232.08l23.32-6.57,5.19-9.88.92,6.48s-2.74,8.8-2.49,8c1.53-5.1-8.71,36.14-8.71,36.14s-7,32.09-7,38-1.57,48.14-1.57,48.14l-10.45,99.2s-31.29-23.32-31.29-29.59c0-1.88,2.55-18.85,4.26-24.13,5.45-16.81,8-24.66,17-39.85L204,343.42,191.19,313.2l6.71-61.46Z" style="fill:#90CAF9"></path><path d="M193.91,315.23c-.78-7.05,4-63.49,4-63.49l8.38-19.66s-9.95,2-11.51,3.61-7.46,6.76-9.79,10.57c-20.76,34-19.5,77.36-19.5,77.36.61,2.25,6,34.78,5.41,31.05l15,14.58,13.59-13.4-1.17-16.05S194.7,322.27,193.91,315.23Z" style="fill:#90CAF9"></path><path d="M229.6,225.51a2.69,2.69,0,0,1-.4.21l-1.2.57-4.62,2.15c-4.06,1.84-9.87,4.49-17,7.76l.08-.29,7.32,11.23.17.25-.29.09L201.43,251l.18-.23c0,7.68,0,16.07.22,24.8.53,21.08.89,40.38,5.51,53.58,1.81,6.68,3.41,12.05,4.52,15.76.55,1.83,1,3.26,1.29,4.26.14.47.24.84.33,1.11a2,2,0,0,1,.09.39,1.73,1.73,0,0,1-.14-.37l-.38-1.1c-.33-1-.79-2.41-1.39-4.23-1.17-3.7-2.82-9.05-4.68-15.72-.9-3.34-1.93-7-2.8-11a103.88,103.88,0,0,1-1.6-12.92c-.72-9.14-1.06-19.2-1.27-29.77-.18-8.73-.22-17.13-.19-24.82v-.18l.18-.05L213.51,247l-.13.35-7.26-11.27-.13-.19.21-.09,17.09-7.6,4.67-2.05,1.22-.52Z" style="fill:#263238"></path><path d="M249.65,247s-.32.08-.84.29a4.07,4.07,0,0,0-1.8,1.48,3.44,3.44,0,0,0-.4,3.26,3.58,3.58,0,0,0,6.58.39,3.42,3.42,0,0,0,0-3.28,4.05,4.05,0,0,0-1.61-1.69c-.49-.27-.81-.34-.8-.39a1.84,1.84,0,0,1,.89.21,4,4,0,0,1,1.85,1.69,4.15,4.15,0,0,1,.53,1.69,3.64,3.64,0,0,1-.42,2,4,4,0,0,1-7.45-.44,3.71,3.71,0,0,1-.18-2,4.12,4.12,0,0,1,.73-1.61,4,4,0,0,1,2-1.46A1.61,1.61,0,0,1,249.65,247Z" style="fill:#fff"></path><path d="M234.79,224.63c.06,0,.09,1,.52,2.7a21.75,21.75,0,0,0,3.23,6.71,57.25,57.25,0,0,0,7.4,8.31,10.86,10.86,0,0,0,2.45,2,3.68,3.68,0,0,0,3.07.18,22.6,22.6,0,0,0,3.09-1.52l3.15-1.73a81.49,81.49,0,0,0,11.43-7.43,38.7,38.7,0,0,0,7.64-8,29,29,0,0,0,3.48-6.62c.29-.84.5-1.5.62-2a5.34,5.34,0,0,1,.22-.68,3.15,3.15,0,0,1-.12.71,16.54,16.54,0,0,1-.53,2,27.07,27.07,0,0,1-3.36,6.77,38.39,38.39,0,0,1-7.64,8.19A78.71,78.71,0,0,1,258,241.71l-3.16,1.73a21.62,21.62,0,0,1-3.17,1.55,4.85,4.85,0,0,1-1.77.27,4.23,4.23,0,0,1-1.69-.48,11,11,0,0,1-2.55-2.09,55.69,55.69,0,0,1-7.37-8.44,20.47,20.47,0,0,1-3.12-6.87,14.35,14.35,0,0,1-.31-2A3.45,3.45,0,0,1,234.79,224.63Z" style="fill:#fff"></path><path d="M276.66,209.61c.77.51,11,6.94,11,6.94l3.07,4.31,37,6.71-4.8,52.54-22.49,72.67s24,31.26,28.74,54.83c2.91,14.42,2.67,32.26,2.67,32.26l-81,13.29s-5.38-18.74-2.51-44.46c1.81-16.17,11.76-64.92,11.76-64.92l13.55-57s11-47.79,10.73-48.56.51-15.07.51-15.07l-5.62-10.56Z" style="fill:#90CAF9"></path><path d="M299.9,223.62a1.93,1.93,0,0,1,.31.25l.88.79,3.35,3.07,12.3,11.39.18.17-.22.12-13.84,7.76,0-.4,13.87,5.48.23.09-.09.2c-1.73,4-4,7.7-6.2,11.7s-4.6,8.06-7,12.22c-11.25,19.32-21.64,36.69-29.18,49.25-3.77,6.25-6.83,11.32-9,14.85-1.06,1.72-1.88,3.07-2.46,4l-.66,1c-.15.24-.23.35-.23.35a1.55,1.55,0,0,1,.19-.37l.61-1.07,2.38-4.07,8.83-14.93c7.45-12.61,17.79-30,29-49.32,2.4-4.17,4.74-8.26,7-12.21s4.5-7.81,6.17-11.59l.14.3-13.85-5.52-.43-.17.41-.23,13.88-7.68,0,.29L304.3,227.87,301,224.74l-.84-.83A2.27,2.27,0,0,1,299.9,223.62Z" style="fill:#263238"></path><g style="opacity:0.30000000000000004"><path d="M292.37,295.17C281.22,313,271.6,331,260.45,348.88c13.36-5.66,22.06-16.26,26.78-30a49.14,49.14,0,0,0,16.31,18.95Q297.95,316.51,292.37,295.17Z"></path></g><path d="M327.72,227.57s9,3.21,12.37,9.18c5.44,9.53,10,41.43,9.44,49.87-1.6,26.68-14.64,54.74-15.39,54.38,0,0-6.12,5-12.42,5a32.35,32.35,0,0,1-5.58-.58,18.8,18.8,0,0,1-13.37-10c-3.62-7.1-8.59-17.57-9.73-23.46-1.83-9.5-3.93-60.17-3.93-60.17l22.83-10.5L319.82,267s-1.31-10.5,0-16.54S327.72,227.57,327.72,227.57Z" style="fill:#90CAF9"></path><path d="M329.86,312.77a3.51,3.51,0,0,1,0-.71c0-.46,0-1.13,0-2a58.87,58.87,0,0,0-.69-7.35,89.1,89.1,0,0,0-2.41-10.7c-.57-2-1.21-4.05-1.91-6.19s-1.47-4.35-2.12-6.65-1.24-4.56-1.76-6.76l-.73-3.24a12.4,12.4,0,0,1-.43-3.2,7.44,7.44,0,0,1,.91-3c.45-.88.95-1.69,1.41-2.49l2.56-4.44c1.63-2.68,3.11-4.75,4.14-6.16.52-.71.93-1.25,1.22-1.61s.44-.55.46-.53a4.7,4.7,0,0,1-.38.59L328.91,250c-1,1.45-2.4,3.54-4,6.24l-2.51,4.46c-.84,1.6-2.1,3.27-2.21,5.26a11.68,11.68,0,0,0,.44,3.08l.74,3.22c.52,2.19,1.1,4.45,1.76,6.73s1.41,4.49,2.11,6.64,1.33,4.23,1.88,6.22a82.57,82.57,0,0,1,2.31,10.77,49.92,49.92,0,0,1,.53,7.41c0,.88,0,1.56-.06,2A3.2,3.2,0,0,1,329.86,312.77Z" style="fill:#263238"></path><path d="M327.72,246.57c.14.07-1.32,3.18-3,7.08s-2.56,7.2-2.71,7.16a8.09,8.09,0,0,1,.45-2.21,44,44,0,0,1,1.78-5.15c.81-2,1.65-3.7,2.29-4.93A9.05,9.05,0,0,1,327.72,246.57Z" style="fill:#263238"></path><path d="M322.56,331.92a30.33,30.33,0,0,0,.25-8.52,30,30,0,0,0-2.67-8.09,7.84,7.84,0,0,1,1.36,2.15,19.78,19.78,0,0,1,1.75,12A8.21,8.21,0,0,1,322.56,331.92Z" style="fill:#263238"></path><path d="M271.34,166.18c-.2.76-12.58,45.12-12.58,45.12v1.64l17.6,9.71,1.83-1.94,11.38-44.38-16.48-10.52Z" style="fill:#263238"></path><path d="M191.36,262.73a3.17,3.17,0,0,1-.11.69l-.43,1.93c-.4,1.67-.9,4.11-1.49,7.12s-1.15,6.63-1.54,10.67a97.06,97.06,0,0,0-.55,13.17c0,2.34.26,4.61.45,6.81.16,1.09.31,2.16.46,3.21s.41,2.05.59,3.05c.11.49.21,1,.31,1.47s.27.94.4,1.4c.27.92.5,1.82.78,2.68.66,1.67,1.14,3.29,1.85,4.64l.94,2c.31.61.67,1.16,1,1.69a25.16,25.16,0,0,0,1.67,2.63l1.16,1.6a3,3,0,0,1,.37.59,4.24,4.24,0,0,1-.46-.52L195.5,326a22.25,22.25,0,0,1-1.76-2.6c-.31-.53-.69-1.07-1-1.69l-1-2a45.28,45.28,0,0,1-1.93-4.66c-.29-.86-.54-1.77-.82-2.7-.13-.46-.28-.93-.4-1.41s-.22-1-.32-1.48c-.2-1-.49-2-.62-3.07s-.32-2.14-.48-3.23c-.2-2.21-.44-4.5-.46-6.86a94.47,94.47,0,0,1,.59-13.23c.42-4.06,1.08-7.67,1.66-10.69s1.19-5.44,1.65-7.1c.22-.79.39-1.42.53-1.91A4.26,4.26,0,0,1,191.36,262.73Z" style="fill:#263238"></path><path d="M321.72,346a6.64,6.64,0,0,1-1.65.16,19.75,19.75,0,0,1-4.72-.62,19.08,19.08,0,0,1-6.78-3.23,20.1,20.1,0,0,1-6.19-7.75c-1.63-3.31-3.4-6.94-5.24-10.87-.91-2-1.87-4-2.73-6.15a35.64,35.64,0,0,1-1.87-6.91c-.2-1.21-.36-2.44-.45-3.69s-.15-2.51-.22-3.79c-.15-2.54-.31-5.14-.46-7.79-.32-5.29-.64-10.77-1-16.39-.56-9.53-1.09-18.68-1.58-27.13v-.17l.15-.07,22.86-10.46.21-.09.06.22c2.57,8.56,4.66,15.54,6.11,20.4.71,2.4,1.26,4.28,1.64,5.59.18.62.32,1.1.42,1.46s.12.5.12.5-.07-.16-.18-.49l-.47-1.44c-.4-1.3-1-3.16-1.74-5.55-1.5-4.85-3.64-11.81-6.28-20.36l.28.12L289.21,252l.14-.24c.5,8.45,1,17.6,1.61,27.14.33,5.61.65,11.09,1,16.39q.24,4,.46,7.79c.07,1.27.14,2.53.21,3.77s.24,2.46.44,3.65a35.49,35.49,0,0,0,1.81,6.83c.85,2.13,1.8,4.16,2.7,6.13,1.82,3.93,3.58,7.57,5.18,10.89a19.89,19.89,0,0,0,6,7.68,19.23,19.23,0,0,0,6.65,3.27,21.56,21.56,0,0,0,4.67.71c.54,0,.95,0,1.23,0A4.06,4.06,0,0,1,321.72,346Z" style="fill:#263238"></path><g style="opacity:0.30000000000000004"><path d="M320,266.42c3.24,7.28,6,16.24,9.23,23.52,2.66,6,5.37,12.51,3.84,18.87-.22.92-.88,2-1.79,1.77-.63-.18-.89-.92-1.05-1.56-3.47-13.92-6.75-28.68-10.23-42.6"></path></g><g style="opacity:0.30000000000000004"><path d="M190.28,267.09c-3.24,7.42-7.65,14.12-8.64,22.15s.6,16.78,6.1,22.73C186.05,296.84,187.42,282,190.28,267.09Z"></path></g><g style="opacity:0.30000000000000004"><path d="M186.28,373.75a31.55,31.55,0,0,0,11.19,4.64c4,.65,8.4-.07,11.51-2.69,4.4-3.69,5.26-10,5.82-15.72L190.93,370.2c-1.64.7-3.49,1.64-3.89,3.38"></path></g><path d="M302.26,391a8.62,8.62,0,0,1-1.31.74c-.86.46-2.12,1.08-3.69,1.83-3.14,1.49-7.53,3.42-12.49,5.31s-9.52,3.37-12.86,4.34c-1.67.49-3,.86-4,1.09a9,9,0,0,1-1.48.32,7.44,7.44,0,0,1,1.42-.51l3.91-1.25c3.3-1.06,7.84-2.6,12.79-4.48s9.35-3.76,12.52-5.16l3.75-1.67A7.67,7.67,0,0,1,302.26,391Z" style="fill:#263238"></path><path d="M301.14,390.75a4.58,4.58,0,0,1,.76.33l2.13,1.06,7.74,3.94.31.16-.3.19a117.52,117.52,0,0,1-19.58,9.72A115.3,115.3,0,0,1,267,412.71l-.17,0,0-.17c-.24-2.37-.43-4.26-.56-5.63-.05-.62-.1-1.11-.13-1.5a2.05,2.05,0,0,1,0-.52,2.61,2.61,0,0,1,.1.51c.06.39.13.88.21,1.49.18,1.36.42,3.25.71,5.61l-.18-.14a123.48,123.48,0,0,0,44.64-16.3v.35l-7.65-4.11-2.08-1.14A4.42,4.42,0,0,1,301.14,390.75Z" style="fill:#263238"></path><g style="opacity:0.30000000000000004"><path d="M268.72,412.51c8,2.34,16.62,3.24,24.6.9s15.45-8.56,17.61-16.76A131.61,131.61,0,0,1,268.72,412.51Z"></path></g><g style="opacity:0.30000000000000004"><path d="M268.53,412.55l.19,0-.44-.12Z"></path></g><path d="M250.83,273.19c.08.07-.9,1.07-2.09,3a22.56,22.56,0,0,0-1.77,3.49,24.41,24.41,0,0,0-1.28,4.6,24.9,24.9,0,0,0-.29,4.78,22.91,22.91,0,0,0,.53,3.87c.51,2.18,1.11,3.45,1,3.49a3.91,3.91,0,0,1-.46-.87,7.77,7.77,0,0,1-.44-1.07,12.74,12.74,0,0,1-.46-1.46,19.9,19.9,0,0,1-.66-3.94,23.56,23.56,0,0,1,.25-4.88,22.76,22.76,0,0,1,1.36-4.7,20.14,20.14,0,0,1,1.9-3.51,13.15,13.15,0,0,1,.91-1.23,8.08,8.08,0,0,1,.77-.87C250.55,273.4,250.8,273.16,250.83,273.19Z" style="fill:#eb996e"></path><path d="M276.52,268.17a5.46,5.46,0,0,1-.27-.66,2.32,2.32,0,0,0-1.3-1.41,1.06,1.06,0,0,0-1.21.36,4,4,0,0,0-.58,1.6,14.47,14.47,0,0,0-.23,4.25l.11,1.22-.46-1.14a5.82,5.82,0,0,0-1.41-2.34,1.74,1.74,0,0,0-2.5,0,5.94,5.94,0,0,0-.73,3.11,10.27,10.27,0,0,0,.55,3.47l.33,1-.73-.72-2.29-2.27a15.21,15.21,0,0,0-1.18-1.12.77.77,0,0,0-1.16.08,3.43,3.43,0,0,0-.53,1.5c-.11.56-.2,1.13-.26,1.71a18.9,18.9,0,0,0,0,3.53v0l.09,1.31-.58-1.17a8.55,8.55,0,0,0-1.77-2.64,2.68,2.68,0,0,0-2.71-.66,2.53,2.53,0,0,0-1.46,2.26,9.12,9.12,0,0,0,.33,2.89l-.47.14a3.78,3.78,0,0,0-2.92-2.41,3.62,3.62,0,0,0-3.3,1.24,3.48,3.48,0,0,0-.81,3.14,3.78,3.78,0,0,0,1.68,2.42l-.22.27a2.06,2.06,0,0,0-1.78-.57,2.79,2.79,0,0,0-1.57.75,3,3,0,0,0-.77,2.63,5.47,5.47,0,0,0,.94,2.26s-.05,0-.12-.11a4.24,4.24,0,0,1-1-2.12,3.23,3.23,0,0,1,.77-2.86,3,3,0,0,1,1.72-.85,2.37,2.37,0,0,1,2.08.63l.86.91-1.08-.64a4.16,4.16,0,0,1-1.89-2.63,3.93,3.93,0,0,1,.87-3.51,4.11,4.11,0,0,1,3.71-1.42,4.24,4.24,0,0,1,3.3,2.71l-.46.14a9.32,9.32,0,0,1-.36-3.06,3.07,3.07,0,0,1,1.77-2.69,3.18,3.18,0,0,1,3.24.75,8.61,8.61,0,0,1,1.89,2.8l-.49.13v0a19,19,0,0,1,.05-3.62c.06-.6.15-1.18.26-1.76a4,4,0,0,1,.64-1.72,1.24,1.24,0,0,1,.91-.49,1.46,1.46,0,0,1,.94.32,14.12,14.12,0,0,1,1.24,1.17l2.28,2.29-.4.24a10.68,10.68,0,0,1-.55-3.63,11.16,11.16,0,0,1,.19-1.75,3.6,3.6,0,0,1,.66-1.62,1.81,1.81,0,0,1,1.59-.69,2.63,2.63,0,0,1,1.51.63,6,6,0,0,1,1.48,2.51l-.34.08a14.19,14.19,0,0,1,.32-4.34,4.08,4.08,0,0,1,.66-1.69,1.31,1.31,0,0,1,1.46-.4,2.32,2.32,0,0,1,1.33,1.56c.08.22.12.4.15.51S276.53,268.16,276.52,268.17Z" style="fill:#fff"></path><path d="M247.81,296.22s0-.22.1-.63a4.41,4.41,0,0,0-.1-1.79,2.86,2.86,0,0,0-1.83-2,1.91,1.91,0,0,0-1.65.21,1.74,1.74,0,0,0-.85,1.59h-.34a37.52,37.52,0,0,0,.39-6.25,1.63,1.63,0,0,0-.68-1.36,2,2,0,0,0-1.61-.09,2.8,2.8,0,0,0-1.33,1.14,9.78,9.78,0,0,0-.84,1.75l-.45-.17a12,12,0,0,0,.69-3.46,12.34,12.34,0,0,0-.05-1.82,5.15,5.15,0,0,0-.41-1.76,2.32,2.32,0,0,0-3.08-.87,7.25,7.25,0,0,0-2.76,2.69l-.45-.27.5-1a8.57,8.57,0,0,0,1-3.53,3.6,3.6,0,0,0-1.31-3,2.72,2.72,0,0,0-3.05.27,8.74,8.74,0,0,0-2.11,2.56l-.42-.23a38.15,38.15,0,0,0,2.23-6.52,8.1,8.1,0,0,0,.29-1.52.88.88,0,0,0-.66-1,1.5,1.5,0,0,0-1.24.27,5.46,5.46,0,0,0-.95,1l-.85,1.05.53-1.24a17.18,17.18,0,0,0,1.3-4.84,16.67,16.67,0,0,0,.11-2.06,3.29,3.29,0,0,0-.24-1.64.89.89,0,0,0-1.14-.22,1.76,1.76,0,0,0-.71.66c-.28.47-.38.75-.41.74s0-.08.06-.21a4.7,4.7,0,0,1,.26-.58,1.78,1.78,0,0,1,.73-.75,1.08,1.08,0,0,1,1.38.24,3.31,3.31,0,0,1,.33,1.76,15.23,15.23,0,0,1-.08,2.09,17.15,17.15,0,0,1-1.24,5l-.32-.19a5.34,5.34,0,0,1,1-1.06,1.86,1.86,0,0,1,1.56-.35,1.29,1.29,0,0,1,.74.5,1.5,1.5,0,0,1,.24.86,8.43,8.43,0,0,1-.28,1.62,37.33,37.33,0,0,1-2.22,6.62l-.43-.23a9.17,9.17,0,0,1,2.23-2.71,3.82,3.82,0,0,1,1.74-.7,2.66,2.66,0,0,1,1.89.42,4.12,4.12,0,0,1,1.54,3.47,9,9,0,0,1-1,3.74l-.5,1-.45-.27a7.76,7.76,0,0,1,3-2.86,3.51,3.51,0,0,1,2.1-.18,2.38,2.38,0,0,1,1.63,1.31,5.66,5.66,0,0,1,.46,1.93,12.09,12.09,0,0,1,0,1.9,12.87,12.87,0,0,1-.73,3.59l-.44-.17a9.71,9.71,0,0,1,.9-1.83,3.26,3.26,0,0,1,1.56-1.3,2.35,2.35,0,0,1,2,.15,2,2,0,0,1,.86,1.69,36.62,36.62,0,0,1-.46,6.33l-.22,1.41-.12-1.42a2.09,2.09,0,0,1,1-1.88,2.24,2.24,0,0,1,1.89-.2,3,3,0,0,1,1.92,2.19,4.1,4.1,0,0,1-.11,2.31Q247.83,296.22,247.81,296.22Z" style="fill:#fff"></path><path d="M294.08,249.5c-.32-1-.88-13.42-.88-13.42a8.31,8.31,0,0,1-4.09-5c-1.22-3.77-1.22-11.45-1.22-11.45s-2.23-3.07-2.37-4-6.85-.7-6.85-.7-4.75,4.05-6.56,3.63-1.4-2.93-1.4-2.93l5-5.45,5.45-1.82h7.92s1.21-2.51,0-3.49-6.74-6.29-6.74-6.29H273.5s-4.75,3.36-8.1.56v-1.95l5.31-2.94s-2.38-2.23.56-4.75a39.77,39.77,0,0,1,6-4.19h4.61s-5.58-3.77-5.86-4.89-2.66-4.19-.56-5.86l14.81,9.08,12,11.59s4.05,2.24,4.05,4.89,5.61,41.24,5.61,41.24Z" style="fill:#ffbe9d"></path><path d="M293.49,198.33c-.08.07-.92-1.11-2.69-2.57a17.57,17.57,0,0,0-16.8-3.1c-2.18.73-3.39,1.52-3.44,1.44a3.53,3.53,0,0,1,.82-.59,15,15,0,0,1,2.49-1.2A17,17,0,0,1,291,195.48a14.11,14.11,0,0,1,1.9,2A3.07,3.07,0,0,1,293.49,198.33Z" style="fill:#eb996e"></path><path d="M296.37,193.89c-.08.05-.79-.94-2.19-2.31a22.59,22.59,0,0,0-13.56-6.27c-1.95-.18-3.17-.09-3.17-.18a2.48,2.48,0,0,1,.85-.15,16.78,16.78,0,0,1,2.35,0,19.52,19.52,0,0,1,3.45.49,22.64,22.64,0,0,1,4,1.39,22.22,22.22,0,0,1,3.68,2.19,18.85,18.85,0,0,1,2.61,2.32,14,14,0,0,1,1.49,1.81C296.24,193.6,296.4,193.86,296.37,193.89Z" style="fill:#eb996e"></path><polygon points="166.34 338.72 130.43 318.91 131.32 314.03 193.99 314.03 263.16 355.42 260.85 360.03 206.7 361.03 166.34 338.72" style="fill:#455a64"></polygon><path d="M165.48,335.17l1.85,7.63s5.57,5.36,6.39,7.42,5.57,6.19,5.57,6.19l1.44,7.21s3.51,6,8.45,7.22,11.34,0,11.34,0,12.16-8.87,14.84-9.9,29.28-3.09,29.48-3.71,1.65-4-1-4-14.63,1.06-14.63,1.06l6.39-6.18a8.4,8.4,0,0,0-3.71-3.51c-2.27-.82-6.6,2.48-6.6,2.48l-9.07,4.74,10.92-8.25s-.41-3.91-4.12-3.71-17.54,8.46-17.54,8.46l-3.28.41s1.44-3.92,1.86-5.36,2.88-3.09,2.88-3.09-.82-5.36-3.91-5.16a10.85,10.85,0,0,0-8.25,5.36c-1.44,2.89-2.89,6.8-2.89,6.8L178.46,342S173.52,330.84,165.48,335.17Z" style="fill:#ffbe9d"></path></g></svg>