<svg xmlns="http://www.w3.org/2000/svg" viewBox="0 0 500 500"><g id="freepik--background-simple--inject-3"><path d="M250.56,125.47c-27.05,11.88-58.91,3.83-87.36,11.73A79.84,79.84,0,0,0,119.92,261c17,23.48,46.2,36.16,75.14,38s57.72-6.17,84.41-17.52c58.16-24.73,103.75-66.51,114.21-131,7.53-46.39-13.93-94.13-70.28-76.33C294.15,83.39,278.19,113.34,250.56,125.47Z" style="fill:#90CAF9"></path><path d="M250.56,125.47c-27.05,11.88-58.91,3.83-87.36,11.73A79.84,79.84,0,0,0,119.92,261c17,23.48,46.2,36.16,75.14,38s57.72-6.17,84.41-17.52c58.16-24.73,103.75-66.51,114.21-131,7.53-46.39-13.93-94.13-70.28-76.33C294.15,83.39,278.19,113.34,250.56,125.47Z" style="fill:#fff;opacity:0.9"></path></g><g id="freepik--Shadow--inject-3"><g id="freepik--Shadow--inject-340--inject-3"><ellipse id="freepik--path--inject-340--inject-3" cx="250" cy="416.24" rx="193.89" ry="11.32" style="fill:#f5f5f5"></ellipse></g></g><g id="freepik--character-2--inject-3"><path d="M189.71,157s4.34,30,13.55,38.38c0,0,14.4,0,26.49-6l10.07-1.15-2-12-11.52,7.68s-13,1.45-19.93,1.74c0,0-8.57-26-9.43-37.18Z" style="fill:#ce7a63"></path><path d="M159.4,160.2c-.45,8.08-2.52,28-12.79,26.74-9.9-1.2-25.78-14.86-26.87-15.81,1.21-2,2.6-4.41,4-6.66,12.76,7.87,20.94,10.29,20.94,10.29l2.58-16S159.86,152.13,159.4,160.2Z" style="fill:#ce7a63"></path><path d="M231.09,355.78l-10.3,7.65s-28.59-38.57-36.25-52.53-10.3-72.7-10.3-72.7c-.24,1.62-.47,9-.7,17.28-.28,11.15-.54,24-.78,27.12-2.78,37.22-1.52,104.76-1.52,104.76h-12c-4.32-17.29-10-84.12-10.63-100.08S156,203.49,156,203.49h35.58c10.31,23.28,2.33,67.84,8,85.79S231.09,355.78,231.09,355.78Z" style="fill:#90CAF9"></path><path d="M157.37,120.75s-6.61-8.34.37-15c0,0,.09-7.31,6-7.91s11,3.81,16.91,4c6.84.17,8.7,9.78,3.92,10.38s-13,16.35-17.12,16.66S157.37,120.75,157.37,120.75Z" style="fill:#263238"></path><path d="M230,375.72s-2.25-3.22-3.52-2.23S230,375.72,230,375.72Z" style="fill:none;stroke:#90CAF9;stroke-miterlimit:10"></path><path d="M230.81,376.56s-4.18,3.25-4.93,2.09S230.81,376.56,230.81,376.56Z" style="fill:none;stroke:#90CAF9;stroke-miterlimit:10"></path><path d="M160.22,403.81s.16-5.05-1.82-4.41S160.22,403.81,160.22,403.81Z" style="fill:none;stroke:#90CAF9;stroke-miterlimit:10"></path><path d="M159.74,404.16s-3.54-3.25-4.81-2.58S156.32,403.87,159.74,404.16Z" style="fill:none;stroke:#90CAF9;stroke-miterlimit:10"></path><polygon points="238.38 368.42 231.31 374.14 226.29 367.39 224.79 365.38 228.63 361.53 231.09 359.06 231.57 359.67 234.19 363.04 238.38 368.42" style="fill:#ce7a63"></polygon><polygon points="171.06 390.41 171.06 403.23 162.09 402.62 161.78 392.65 161.73 390.77 171.06 390.41" style="fill:#ce7a63"></polygon><path d="M162.21,139.25,150,140.6a285.59,285.59,0,0,0,2.16,30.61c2,14.59,3.75,32.29,3.75,32.29h35.58c-.22,4.5.51-23.91,1.85-36.84l12.33-1.95s-2.54-19.63-9.17-20.74S176.36,136.15,162.21,139.25Z" style="fill:#263238"></path><path d="M152.21,168.46l-.27-.21-1.79-1.36-10.86-8.25c2.31-18,10.67-18,10.75-18l1.42,18.27Z" style="fill:#263238"></path><path d="M186.52,121.84c-1.18,8.39-5.51,9.7-10.23,11.14,0,0,0,.9.12,2.08.21,1.9.74,4.56,2.11,5.53,0,0-1.44,6.17-9.84,5.64s-7.74-5.38-7.74-5.38,4.86-3.14,5.25-7.34a25,25,0,0,0-.79-8.26s-6.44-3.54-4.47-7.35,6,.26,6,.26l.66-13.11s12.59-2,16.53,2.1A25.29,25.29,0,0,1,186.52,121.84Z" style="fill:#ce7a63"></path><path d="M176.81,117.36c0,.65-.32,1.17-.72,1.17s-.73-.52-.73-1.17.32-1.18.73-1.18S176.81,116.71,176.81,117.36Z" style="fill:#263238"></path><path d="M184.09,117.36c0,.65-.33,1.17-.73,1.17s-.73-.52-.73-1.17.33-1.18.73-1.18S184.09,116.71,184.09,117.36Z" style="fill:#263238"></path><path d="M179.63,116.87V123a3.83,3.83,0,0,0,2.75-.83Z" style="fill:#ba4d3c"></path><path d="M172.4,123a4.85,4.85,0,0,0,4.22,2.38" style="fill:none;stroke:#263238;stroke-linecap:round;stroke-linejoin:round"></path><path d="M172.5,112.91a2.81,2.81,0,0,1,3.26-1.21" style="fill:none;stroke:#263238;stroke-linecap:round;stroke-linejoin:round"></path><path d="M182.11,111.29a2.86,2.86,0,0,1,2.49,1.88" style="fill:none;stroke:#263238;stroke-linecap:round;stroke-linejoin:round"></path><path d="M167.63,105.05s4.84,6.65-.65,13.12l-1.62-6.56Z" style="fill:#263238"></path><polygon points="151.94 168.25 150.15 166.89 151.46 158.87 151.94 168.25" style="opacity:0.2"></polygon><path d="M167.63,105.05a11.83,11.83,0,0,0,13.69.45s1.5-4.35-5.74-3.78S167.63,105.05,167.63,105.05Z" style="fill:#263238"></path><path d="M159.63,100.05s4.75-6.17,16-3.88c9,1.84,11.42-4,14.21-2.62s1.32,12.77-6.95,11S159.63,100.05,159.63,100.05Z" style="fill:#263238"></path><path d="M157.86,105.34a3.62,3.62,0,0,0-3.77-1l3.77,1.36-4.38.55s3.76.83,4.86.22S157.86,105.34,157.86,105.34Z" style="fill:#263238"></path><path d="M123.69,164.47s-1.14-5.75-6.55-7.12l-3.28-3.81-5.11,4.27,3.34,9.14,7.65,4.18Z" style="fill:#ce7a63"></path><path d="M176.41,135.06a9.48,9.48,0,0,1-5.51-2.69,21,21,0,0,0,5.39.61S176.29,133.88,176.41,135.06Z" style="opacity:0.1"></path><path d="M173.22,410.67l-.75-7.25a1.28,1.28,0,0,0-1.28-1.16h-9.74a1.26,1.26,0,0,0-.68.2c-1.3.81-6.38,3.92-9.16,4.71-3.22.9-4.4,1.18-4.4,2.31s.29,2.25,1.39,2.59c.93.29,18.24.09,23.36,0A1.28,1.28,0,0,0,173.22,410.67Z" style="fill:#263238"></path><path d="M245.57,373.25l-4.93-5.36a1.28,1.28,0,0,0-1.72-.16l-7.81,5.82a1.35,1.35,0,0,0-.43.57c-.55,1.42-2.76,7-4.53,9.25-2,2.65-2.82,3.58-2.14,4.48s1.59,1.63,2.66,1.25,14.68-10.84,18.74-14A1.29,1.29,0,0,0,245.57,373.25Z" style="fill:#263238"></path><polygon points="234.19 363.04 226.29 367.39 224.79 365.38 228.63 361.53 231.57 359.67 234.19 363.04" style="opacity:0.2;isolation:isolate"></polygon><polygon points="171.06 390.41 171.06 393.17 161.78 392.65 161.73 390.77 171.06 390.41" style="opacity:0.2;isolation:isolate"></polygon><path d="M231.09,355.78l-10.3,7.65s-28.59-38.57-36.25-52.53-10.3-72.7-10.3-72.7c-.24,1.62-.47,9-.7,17.28-.28,11.15-.54,24-.78,27.12-2.78,37.22-1.52,104.76-1.52,104.76h-12c-4.32-17.29-10-84.12-10.63-100.08S156,203.49,156,203.49h35.58c10.31,23.28,2.33,67.84,8,85.79S231.09,355.78,231.09,355.78Z" style="opacity:0.2"></path><polygon points="218.82 364.24 232.41 354.48 234.84 361.05 222.35 367.47 218.82 364.24" style="fill:#263238"></polygon><polygon points="157.38 387.36 158.57 391.42 172.28 391.95 173.07 386.42 157.38 387.36" style="fill:#263238"></polygon><path d="M237.81,176.22c.07.44,8.59,3.61,8.59,3.61l-.59,5.95-6,2.44Z" style="fill:#ce7a63"></path><path d="M174.12,239.52c-.27,1.79-.52,9.88-.77,19-.63-10.69-.37-30.18-.37-30.18Z" style="opacity:0.2"></path></g><g id="freepik--character-1--inject-3"><path d="M350.55,392.1l-14.33,1.53s-23-74.59-28.51-93S299.42,243,299.42,243c-.55,1.58-1.4,4.56-2.5,8.6-9.05,33.5-34.36,140.47-34.36,140.47l-11.51-4.5s6.9-82.38,10.12-98,24.23-89.87,24.23-89.87h38s3.68,79.73,6.9,97.84S350.55,392.1,350.55,392.1Z" style="fill:#263238"></path><path d="M280.42,154.42s-3.64,14.38-9.2,25.75c-5.8,11.86-13.59,20.8-17.08,25l-6.57,5-2.36,7.36,8.67,2.89s7.09-6.83,6.57-11l18.13-21.94L288.49,161Z" style="fill:#ffb573"></path><path d="M314.11,100.81c3.11,1.73,4.59,4,7,6.66A66.79,66.79,0,0,0,338,121.22c4.54,2.51,9.43,4.31,14.08,6.6A14,14,0,0,1,357.6,132a12.66,12.66,0,0,1,1.77,5c1.63,9.32-1,19.56-7.82,26.14a20.31,20.31,0,0,1-7.7,4.8c-5.63,1.84-11.73.6-17.61-.19A100.67,100.67,0,0,1,315,166a21,21,0,0,1-9.95-5.22,18.42,18.42,0,0,1-4.82-10.12,32.73,32.73,0,0,1,.48-11.33c.73-3.71,1.87-7.36,2.22-11.14s-.16-7.8-2.41-10.85c-1.24-1.68-5.08-3-6-4.88-2-4.07,1.33-9.37,5.3-11.61A15.29,15.29,0,0,1,314.11,100.81Z" style="fill:#263238"></path><path d="M337.62,155.09l-12.42,8.72-1.93,38c-11.94,2.26-37.87-2.15-37.87-2.15l-3-38-1.77-1.3-4.19-3.06s3.88-10.84,6.13-13.26,15-4.48,15-4.48,24,2.35,29.35,4.13S337.62,155.09,337.62,155.09Z" style="fill:#90CAF9"></path><path d="M333.53,158l8.54,15.6s7-8.87,10.59-13.58l-1.91-6.45,3.3-7.81,5.72.53a13.43,13.43,0,0,1-2.44,15.39s-5.25,14.91-14.83,20.49c-7.29,4.25-15.49-19.59-15.49-19.59Z" style="fill:#ffb573"></path><path d="M311.61,124.79c-1.66,4.73-3.92,13.52-1,17.27,0,0-2,4.75-11.1,3.43-10-1.45-4-5.64-4-5.64,5.62-.5,6.07-4.55,5.68-8.48Z" style="fill:#ffb573"></path><path d="M307.35,127.48l-6.19,3.85a15,15,0,0,1,.08,2.76c2.12,0,5.3-1.87,5.84-4A7.15,7.15,0,0,0,307.35,127.48Z" style="opacity:0.2;isolation:isolate"></path><path d="M314.79,112.83c-.17,8.23-.08,11.71-4.07,16.09-6,6.58-16,4.56-18.34-3.57-2-7.31-1.4-19.55,6.52-23.13a11.23,11.23,0,0,1,14.88,5.54A11,11,0,0,1,314.79,112.83Z" style="fill:#ffb573"></path><path d="M296.32,103.89c-.07.16,9.73,14.69,18.41,14.88,2.17-2.42,2.56-11-.41-13.21s-5.58-6.72-8.88-6.39C300.49,99.66,296.32,103.89,296.32,103.89Z" style="fill:#263238"></path><path d="M301.77,115.54c0,.67-.31,1.23-.74,1.25s-.82-.52-.86-1.15.31-1.23.74-1.25S301.76,114.88,301.77,115.54Z" style="fill:#263238"></path><path d="M294.22,115.84c0,.67-.31,1.22-.74,1.23s-.82-.51-.86-1.15.31-1.22.75-1.24S294.2,115.17,294.22,115.84Z" style="fill:#263238"></path><path d="M293.58,114.68l-1.63-.4S292.83,115.5,293.58,114.68Z" style="fill:#263238"></path><path d="M296.6,117a18.29,18.29,0,0,1-2.22,4.36,2.91,2.91,0,0,0,2.4.35Z" style="fill:#ed893e"></path><path d="M300.52,124.14a6.66,6.66,0,0,1-1,.11.2.2,0,0,1-.2-.18.21.21,0,0,1,.19-.21,5.27,5.27,0,0,0,4.24-2.24.2.2,0,0,1,.27-.06.18.18,0,0,1,.06.26A5.42,5.42,0,0,1,300.52,124.14Z" style="fill:#263238"></path><path d="M317.31,120.3a6,6,0,0,1-3,3.48c-1.9.93-3.24-.67-3-2.65.18-1.79,1.39-4.44,3.44-4.54a2.69,2.69,0,0,1,2.59,3.71Z" style="fill:#ffb573"></path><path d="M304.76,113.89a.42.42,0,0,1-.43-.2c-.88-1.59-3.2-1.85-3.23-1.86a.4.4,0,0,1-.34-.44.39.39,0,0,1,.43-.35c.11,0,2.76.32,3.83,2.27a.39.39,0,0,1-.14.53h0Z" style="fill:#263238"></path><path d="M291.82,112.43a.37.37,0,0,1-.37-.13.38.38,0,0,1,.06-.53h0a3.88,3.88,0,0,1,3.46-1,.39.39,0,0,1,.27.47h0a.39.39,0,0,1-.48.28h0a3,3,0,0,0-2.72.8A.4.4,0,0,1,291.82,112.43Z" style="fill:#263238"></path><path d="M301.14,114.39l-1.63-.4S300.39,115.21,301.14,114.39Z" style="fill:#263238"></path><polygon points="261.17 390.56 261 391.4 260.13 395.68 258.42 404.01 250.79 401.38 252.46 392.97 253.33 388.57 256.54 389.38 256.57 389.39 261.17 390.56" style="fill:#ffb573"></polygon><polygon points="349.83 404.98 342.14 406.24 340.59 398.11 339.88 394.39 348.07 394.39 348.17 394.99 348.68 398.11 349.83 404.98" style="fill:#ffb573"></polygon><path d="M299.42,231.44V243c-.55,1.58-1.4,4.56-2.5,8.6Z" style="opacity:0.2"></path><path d="M353.3,411.94,351.57,405a1.27,1.27,0,0,0-1.41-.94l-9.44,1.34a1.25,1.25,0,0,0-.64.29c-1.15,1-5.64,4.69-8.24,5.83-3,1.32-4.1,1.76-3.94,2.86s.6,2.14,1.7,2.32c.95.15,17.71-2.44,22.67-3.22A1.26,1.26,0,0,0,353.3,411.94Z" style="fill:#263238"></path><path d="M259.84,411l1-7.07a1.28,1.28,0,0,0-1-1.4l-9.28-2.22a1.2,1.2,0,0,0-.7,0c-1.42.47-7,2.28-9.8,2.39-3.27.12-4.46.12-4.72,1.19s-.23,2.22.73,2.79,17.36,4.26,22.25,5.36A1.25,1.25,0,0,0,259.84,411Z" style="fill:#263238"></path><polygon points="348.68 398.11 340.59 398.11 339.88 394.39 343.5 394.39 348.17 394.99 348.68 398.11" style="opacity:0.2;isolation:isolate"></polygon><polygon points="334.58 391.36 352.35 391.36 352.35 396.4 335.46 395.77 334.58 391.36" style="fill:#90CAF9"></polygon><polygon points="261 391.4 260.13 395.68 252.46 392.97 253.33 388.57 256.54 389.38 256.57 389.39 261 391.4" style="opacity:0.2;isolation:isolate"></polygon><polygon points="264.24 395.63 265.86 391.3 249.9 385.26 249.65 390.05 264.24 395.63" style="fill:#90CAF9"></polygon><path d="M324.27,197.55l-1,4.29a54.32,54.32,0,0,1-7.32.7l-1,0c-2.11.06-4.6.06-7.45-.06l-1,0c-2.64-.14-5.57-.38-8.77-.77l-1-.12c-1.89-.24-3.86-.53-5.93-.88l-1-.17c-1.43-.26-2.9-.54-4.41-.85l-.33-4.28,4.94.27,1,0,5.95.33,1,.05,8.77.48,1,.06,7.44.4,1,.06Z" style="fill:#fff"></path><path d="M291,195.73l-.21,5-1-.17.2-4.86Z" style="fill:#90CAF9"></path><path d="M298,196.11l-.24,5.6-1-.12.23-5.53Z" style="fill:#90CAF9"></path><path d="M307.73,196.65l-.24,5.87-1,0,.24-5.89Z" style="fill:#90CAF9"></path><path d="M316.17,197.11l-.22,5.43-1,0,.23-5.53Z" style="fill:#90CAF9"></path></g></svg>