<svg xmlns="http://www.w3.org/2000/svg" viewBox="0 0 750 500"><g id="freepik--background-simple--inject-18"><path d="M294.27,338.5c21.54,21,65.34,27.76,94.68,34.3s61.93,1.48,85.59-17.08,36.48-51.35,28-80.19-35.44-49.36-69.38-43.63c-11.45,1.94-22.62,8.6-33.9,5.87-8.67-2.1-15.31-9.12-20.07-16.65S371,205.21,365.77,198c-12.88-17.83-36.94-26.75-58.32-21.64s-46.56,24.77-50,46.49C257.46,222.84,232.06,277.89,294.27,338.5Z" style="fill:#ebebeb"></path><circle cx="88.24" cy="227.87" r="42.47" style="fill:#ebebeb"></circle><circle cx="661.34" cy="249.17" r="33.8" style="fill:#ebebeb"></circle><circle cx="58.18" cy="154.29" r="16.48" transform="translate(-61.1 40.43) rotate(-25.67)" style="fill:#ebebeb"></circle><circle cx="680.64" cy="305.77" r="8.24" style="fill:#ebebeb"></circle></g><g id="freepik--Fireworks--inject-18"><path d="M423.23,162.4a4.43,4.43,0,0,1-.59.39l-1.76,1c-.78.43-1.71,1-2.76,1.67s-2.29,1.41-3.56,2.35l-2,1.42c-.7.5-1.39,1.08-2.13,1.64-1.49,1.11-3,2.43-4.56,3.79a90.62,90.62,0,0,0-17.3,20.8c-1.05,1.8-2.07,3.5-2.89,5.17-.42.83-.86,1.61-1.22,2.39l-1,2.26c-.69,1.42-1.18,2.76-1.66,3.92s-.85,2.18-1.13,3-.52,1.43-.69,1.91a3.45,3.45,0,0,1-.28.66,4.05,4.05,0,0,1,.18-.69c.15-.49.35-1.14.59-2s.59-1.88,1.06-3,.92-2.53,1.59-4c.33-.73.66-1.49,1-2.28s.79-1.58,1.2-2.42c.81-1.68,1.83-3.4,2.87-5.22a87.11,87.11,0,0,1,17.4-20.91c1.6-1.36,3.1-2.67,4.61-3.77.75-.56,1.45-1.13,2.16-1.62l2.05-1.41c1.29-.92,2.55-1.63,3.62-2.29s2-1.19,2.81-1.59l1.81-.95A2.83,2.83,0,0,1,423.23,162.4Z" style="fill:#FF725E"></path><path d="M427.09,144.88c-.06.05-.81-1-2.12-2.63a59.1,59.1,0,0,0-5.51-6,60.45,60.45,0,0,0-6.3-5.13c-1.7-1.2-2.8-1.88-2.76-1.95a3.34,3.34,0,0,1,.83.38c.52.27,1.25.7,2.14,1.27A45.77,45.77,0,0,1,425.26,142c.62.85,1.1,1.55,1.4,2.06A2.79,2.79,0,0,1,427.09,144.88Z" style="fill:#FF725E"></path><path d="M417,124.49a31.59,31.59,0,0,1-2.19-2.56c-1.32-1.6-3.19-3.77-5.37-6.05s-4.28-4.24-5.81-5.63a26.06,26.06,0,0,1-2.46-2.3,3.47,3.47,0,0,1,.76.5c.47.34,1.13.86,1.94,1.52a73.06,73.06,0,0,1,11.23,11.73c.63.83,1.12,1.52,1.44,2A3.08,3.08,0,0,1,417,124.49Z" style="fill:#FF725E"></path><path d="M429.73,129a5.33,5.33,0,0,1-.26-1.26c-.12-.81-.32-2-.57-3.44a106.53,106.53,0,0,0-6.39-22c-.56-1.36-1-2.46-1.36-3.22a5.28,5.28,0,0,1-.45-1.2,7.17,7.17,0,0,1,.64,1.12c.38.73.9,1.81,1.51,3.16a86,86,0,0,1,6.41,22.13c.21,1.47.35,2.65.41,3.48A6.85,6.85,0,0,1,429.73,129Z" style="fill:#FF725E"></path><path d="M446,92.6a6.15,6.15,0,0,1-.56,1.16c-.39.72-.95,1.77-1.61,3.08a82.81,82.81,0,0,0-4.45,10.55,83.88,83.88,0,0,0-2.92,11.07c-.28,1.44-.48,2.61-.61,3.42a5.69,5.69,0,0,1-.26,1.26,6.85,6.85,0,0,1,.06-1.28c.07-.83.22-2,.45-3.47a68.94,68.94,0,0,1,7.4-21.72c.71-1.3,1.32-2.33,1.77-3A6.14,6.14,0,0,1,446,92.6Z" style="fill:#FF725E"></path><path d="M463.61,104.2c.11.09-4.19,5.39-9.61,11.84s-9.91,11.61-10,11.52,4.2-5.4,9.62-11.85S463.5,104.11,463.61,104.2Z" style="fill:#FF725E"></path><path d="M479.2,108.68a8.92,8.92,0,0,1-1.3.84c-.92.57-2.13,1.3-3.59,2.18-3,1.84-7.16,4.47-11.58,7.57s-8.3,6.11-11.06,8.33l-3.26,2.64a10.09,10.09,0,0,1-1.23.94,8.46,8.46,0,0,1,1.1-1.09c.73-.68,1.8-1.63,3.16-2.77,2.7-2.3,6.55-5.36,11-8.48s8.61-5.69,11.69-7.46c1.54-.89,2.8-1.58,3.69-2A9,9,0,0,1,479.2,108.68Z" style="fill:#FF725E"></path><path d="M488.46,130.73a5.64,5.64,0,0,1-1.31.17c-.84.07-2.06.19-3.57.37a86.81,86.81,0,0,0-22.85,5.8c-1.4.56-2.53,1-3.31,1.38a6.57,6.57,0,0,1-1.23.48,5.93,5.93,0,0,1,1.15-.66c.75-.4,1.86-.93,3.25-1.54a73.88,73.88,0,0,1,23-5.83c1.51-.13,2.74-.19,3.59-.2A7.54,7.54,0,0,1,488.46,130.73Z" style="fill:#FF725E"></path><path d="M493.46,151.65A10.85,10.85,0,0,1,492,151c-.47-.23-1-.51-1.73-.78s-1.44-.65-2.32-.95a53.62,53.62,0,0,0-6.22-2,54.16,54.16,0,0,0-15.84-1.59,57.64,57.64,0,0,0-6.49.7c-.92.13-1.74.33-2.46.47s-1.35.29-1.85.43a10.53,10.53,0,0,1-1.59.34,8.69,8.69,0,0,1,1.53-.54c.5-.16,1.12-.34,1.84-.51s1.54-.4,2.47-.55a49.76,49.76,0,0,1,6.52-.82,56.7,56.7,0,0,1,8.06.17,54.79,54.79,0,0,1,7.93,1.44,48.06,48.06,0,0,1,6.23,2.09c.88.34,1.64.72,2.31,1s1.24.61,1.7.87A8.71,8.71,0,0,1,493.46,151.65Z" style="fill:#FF725E"></path><path d="M488,164.53a48.6,48.6,0,0,1-6.49-2.72,48.59,48.59,0,0,1-6.27-3.2A93.82,93.82,0,0,1,488,164.53Z" style="fill:#FF725E"></path><path d="M469,173.61c-.05.07-1.34-.79-3.52-2a58.34,58.34,0,0,0-8.85-4,57.68,57.68,0,0,0-9.42-2.42c-2.45-.41-4-.55-4-.64a5.09,5.09,0,0,1,1.09,0,29.36,29.36,0,0,1,3,.28,48.42,48.42,0,0,1,18.4,6.45c1.07.65,1.92,1.21,2.48,1.63A4.46,4.46,0,0,1,469,173.61Z" style="fill:#FF725E"></path><path d="M485.72,183.34c-.06,0-.86-1-2.25-2.71a55.82,55.82,0,0,0-12.64-11.24c-1.82-1.19-3-1.85-2.95-1.92a3.2,3.2,0,0,1,.87.36c.56.27,1.34.69,2.28,1.25a45.67,45.67,0,0,1,12.72,11.32c.67.87,1.18,1.59,1.51,2.11A3.19,3.19,0,0,1,485.72,183.34Z" style="fill:#FF725E"></path><path d="M439.84,190.1a10.69,10.69,0,0,1-1.49-2.19A40.81,40.81,0,0,1,433.73,176a10.49,10.49,0,0,1-.38-2.63,18.41,18.41,0,0,1,.73,2.54,61.6,61.6,0,0,0,2,6,58.69,58.69,0,0,0,2.61,5.78A18.14,18.14,0,0,1,439.84,190.1Z" style="fill:#FF725E"></path><path d="M452.68,182a90.87,90.87,0,0,1-7.42-6.37,92.57,92.57,0,0,1-7.07-6.75,88.93,88.93,0,0,1,7.42,6.37A92.58,92.58,0,0,1,452.68,182Z" style="fill:#FF725E"></path><path d="M454.77,201.63a20.9,20.9,0,0,1-2.14-2.65c-1.26-1.69-2.94-4.06-4.71-6.74s-3.28-5.17-4.33-7a19.7,19.7,0,0,1-1.59-3,24.46,24.46,0,0,1,1.9,2.82c1.13,1.77,2.7,4.22,4.46,6.89s3.39,5.08,4.57,6.82A24.65,24.65,0,0,1,454.77,201.63Z" style="fill:#FF725E"></path><path d="M465.82,208.68a14,14,0,0,1-1.48-2.08c-.87-1.31-2.07-3.12-3.44-5.09s-2.65-3.72-3.58-5a13.23,13.23,0,0,1-1.44-2.11,12.28,12.28,0,0,1,1.73,1.88c1,1.22,2.34,3,3.71,4.92s2.54,3.83,3.33,5.19A11.63,11.63,0,0,1,465.82,208.68Z" style="fill:#FF725E"></path><path d="M416.71,206.19a13.47,13.47,0,0,1-.34-3,39.56,39.56,0,0,1,.4-7.3,38.36,38.36,0,0,1,1.75-7.11,12.62,12.62,0,0,1,1.2-2.79,28.79,28.79,0,0,1-.85,2.9,50.9,50.9,0,0,0-1.59,7.07,52.81,52.81,0,0,0-.54,7.23A27.17,27.17,0,0,1,416.71,206.19Z" style="fill:#FF725E"></path><path d="M405.3,211.61a5.31,5.31,0,0,1,0-1.26c0-.81.15-2,.33-3.42a73.68,73.68,0,0,1,6.25-21.68c.61-1.31,1.14-2.36,1.53-3.07a5.62,5.62,0,0,1,.65-1.07,4.9,4.9,0,0,1-.47,1.16c-.34.74-.81,1.8-1.38,3.13a95.58,95.58,0,0,0-3.79,10.6A93.76,93.76,0,0,0,406,207c-.22,1.42-.39,2.58-.49,3.38A6.71,6.71,0,0,1,405.3,211.61Z" style="fill:#FF725E"></path><path d="M424,210.71a5,5,0,0,1-.29-1c-.15-.67-.34-1.64-.53-2.85a60.16,60.16,0,0,1-.65-9.51,57.88,57.88,0,0,1,.88-9.51c.21-1.2.42-2.17.59-2.83a3.7,3.7,0,0,1,.32-1c.08,0-.21,1.5-.55,3.9a74.71,74.71,0,0,0-.72,9.45,76.46,76.46,0,0,0,.5,9.46C423.8,209.21,424.05,210.69,424,210.71Z" style="fill:#FF725E"></path><path d="M396.61,219.09a11.67,11.67,0,0,1,.1-2.73A38.15,38.15,0,0,1,398,209.9a37.35,37.35,0,0,1,2.35-6.15,10.32,10.32,0,0,1,1.37-2.36,20.1,20.1,0,0,1-1,2.51,52.9,52.9,0,0,0-3.59,12.51A19.2,19.2,0,0,1,396.61,219.09Z" style="fill:#FF725E"></path><path d="M389.08,173.75c0,.08-1.17.69-3.05,1.8a59.15,59.15,0,0,0-13.26,10.6c-1.49,1.59-2.36,2.63-2.42,2.58s.15-.31.52-.8.91-1.2,1.63-2a48.33,48.33,0,0,1,13.35-10.67c1-.52,1.76-.91,2.33-1.15A3.55,3.55,0,0,1,389.08,173.75Z" style="fill:#FF725E"></path><path d="M401.7,158.78a10.23,10.23,0,0,1-1.73.15l-2,.1-2.67.25a66.08,66.08,0,0,0-15.07,3.31,79.42,79.42,0,0,0-14,6.55l-4.07,2.36a10.77,10.77,0,0,1-1.53.79,11.37,11.37,0,0,1,1.43-1c.93-.6,2.28-1.47,4-2.5a72.22,72.22,0,0,1,14-6.72,60.8,60.8,0,0,1,15.21-3.19l2.68-.17h2A12.39,12.39,0,0,1,401.7,158.78Z" style="fill:#FF725E"></path><path d="M466.46,193.05a1.11,1.11,0,1,1-1.11-1.12A1.11,1.11,0,0,1,466.46,193.05Z" style="fill:#FF725E"></path><path d="M406.65,96.24a1.35,1.35,0,1,1-1.35-1.35A1.36,1.36,0,0,1,406.65,96.24Z" style="fill:#FF725E"></path><path d="M504,146.46a1.35,1.35,0,1,1-1.35-1.34A1.35,1.35,0,0,1,504,146.46Z" style="fill:#FF725E"></path><path d="M413.54,220.26a1.35,1.35,0,1,1-1.35-1.35A1.36,1.36,0,0,1,413.54,220.26Z" style="fill:#FF725E"></path><path d="M378,146.12a1.35,1.35,0,1,1-1.35-1.35A1.35,1.35,0,0,1,378,146.12Z" style="fill:#FF725E"></path><circle cx="388.04" cy="108.43" r="0.56" style="fill:#FF725E"></circle><path d="M371.46,196.91a.56.56,0,1,1-.56-.55A.56.56,0,0,1,371.46,196.91Z" style="fill:#FF725E"></path><circle cx="429.43" cy="209.68" r="0.56" style="fill:#FF725E"></circle><circle cx="485.72" cy="154.86" r="0.56" style="fill:#FF725E"></circle><circle cx="431.65" cy="98.26" r="0.56" style="fill:#FF725E"></circle><path d="M416.88,170.82c.33.33-4.8,5.71-10,13.17s-8.58,14.09-9,13.89,2.38-7.2,7.74-14.79S416.62,170.52,416.88,170.82Z" style="fill:#FF725E"></path><path d="M422.12,180.61c-.41,0-.54-4.51,1-9.78s4.1-9,4.44-8.77-1.46,4.13-2.94,9.21S422.57,180.64,422.12,180.61Z" style="fill:#FF725E"></path><path d="M423.23,154.08c0,.25-3.73-.2-9.71-.46a119.11,119.11,0,0,0-23.26,1.24A101.65,101.65,0,0,0,367.81,161c-5.55,2.22-8.82,4-8.95,3.77a8.91,8.91,0,0,1,2.16-1.5c.71-.46,1.62-1,2.69-1.5l1.7-.89,2-.9A87.34,87.34,0,0,1,390,153.31a99.31,99.31,0,0,1,23.57-.79c3,.29,5.43.59,7.09.92A8.33,8.33,0,0,1,423.23,154.08Z" style="fill:#FF725E"></path><path d="M425.88,145.61c-.14.2-2.66-1.43-6.93-3.68-2.12-1.14-4.71-2.37-7.64-3.62a101.18,101.18,0,0,0-9.73-3.46,102.37,102.37,0,0,0-10.07-2.34c-3.14-.52-6-.88-8.39-1.07-4.8-.4-7.81-.38-7.82-.64s3-.59,7.88-.46a71.66,71.66,0,0,1,8.56.75A84,84,0,0,1,402,133.35a82.12,82.12,0,0,1,9.87,3.64,73.89,73.89,0,0,1,7.61,4C423.68,143.5,426,145.46,425.88,145.61Z" style="fill:#FF725E"></path><path d="M466.63,90.52c.15.22-3,2.17-7.2,6.24A78.12,78.12,0,0,0,445.67,115,183.49,183.49,0,0,0,436,135.83c-2.21,5.49-3.6,8.88-3.81,8.8S433,141,435,135.44a135.68,135.68,0,0,1,9.32-21.25,69.43,69.43,0,0,1,14.37-18.25,43.75,43.75,0,0,1,5.64-4.24A7.24,7.24,0,0,1,466.63,90.52Z" style="fill:#FF725E"></path><path d="M484.45,119.27c.06.24-2.92,1-7.6,2.68-2.35.81-5.09,1.88-8.09,3.19s-6.22,2.92-9.5,4.77-6.3,3.84-9,5.72-5,3.71-6.89,5.31c-3.8,3.18-6,5.34-6.19,5.16s1.8-2.56,5.46-6a83.48,83.48,0,0,1,6.77-5.65,86,86,0,0,1,18.75-10.64,81.13,81.13,0,0,1,8.32-2.93C481.33,119.51,484.42,119.09,484.45,119.27Z" style="fill:#FF725E"></path><path d="M416.5,128.33c-.33.32-4.31-3.28-9.68-7.06s-10.08-6.36-9.88-6.77,5.29,1.59,10.78,5.5S416.8,128.05,416.5,128.33Z" style="fill:#FF725E"></path><path d="M408.54,130.66c-.23.42-7.49-3.36-17-6.45s-17.62-4.38-17.55-4.85,8.33.17,18,3.37S408.75,130.34,408.54,130.66Z" style="fill:#FF725E"></path><path d="M413.84,160.24c.09.5-9.92,1.55-21.12,6.46A112,112,0,0,0,378.91,174c-3.43,2.1-5.52,3.46-5.66,3.27s1.75-1.84,5.05-4.19a77.51,77.51,0,0,1,13.8-7.79,67.28,67.28,0,0,1,15.19-4.53C411.3,160.08,413.82,160.05,413.84,160.24Z" style="fill:#FF725E"></path><path d="M435.32,213.64c-.19.06-1.25-2.6-2.44-7.06a105.18,105.18,0,0,1-3-35.81c.44-4.6,1.05-7.39,1.24-7.37s0,2.87-.14,7.44a157.77,157.77,0,0,0,.4,17.84A154.55,154.55,0,0,0,434,206.33C434.86,210.81,435.54,213.57,435.32,213.64Z" style="fill:#FF725E"></path><path d="M480.51,192.86c-.35.36-7.78-7.25-18.84-14.05s-21.14-10.15-21-10.62c.06-.18,2.66.4,6.7,1.88a86.14,86.14,0,0,1,28.44,17.62C479,190.66,480.65,192.73,480.51,192.86Z" style="fill:#FF725E"></path><path d="M505.68,182.73c-.16.21-3.39-2.32-9-5.83l-2.2-1.36c-.76-.47-1.59-.91-2.43-1.39-1.67-1-3.52-1.92-5.45-2.92A116.76,116.76,0,0,0,460,161.7c-2.13-.45-4.15-.91-6.07-1.21-.95-.15-1.87-.34-2.76-.46l-2.56-.35c-6.55-.84-10.65-.93-10.65-1.2a10.3,10.3,0,0,1,2.89-.22c.93,0,2.07,0,3.39,0s2.83.1,4.49.28l2.6.25c.9.09,1.84.25,2.81.38,1.95.25,4,.67,6.17,1.08a112.77,112.77,0,0,1,13.8,3.9A109.93,109.93,0,0,1,487.28,170c1.93,1.05,3.79,2,5.44,3.08.84.51,1.66,1,2.42,1.49l2.17,1.46c1.39.9,2.58,1.84,3.64,2.63s1.94,1.51,2.64,2.12C505,181.94,505.75,182.65,505.68,182.73Z" style="fill:#FF725E"></path><path d="M472.56,155.41c-.13.48-8.24-2.11-18.58-2.33s-18.57,1.86-18.68,1.38c-.05-.19,1.94-1,5.31-1.72a57.91,57.91,0,0,1,26.74.69C470.67,154.34,472.62,155.23,472.56,155.41Z" style="fill:#FF725E"></path><path d="M414.17,144.11c-.1.23-2.75-.88-7.23-2a88.94,88.94,0,0,0-17.8-2.46,85.32,85.32,0,0,0-17.94,1.12c-4.54.81-7.28,1.67-7.37,1.42s2.58-1.4,7.15-2.5a68.72,68.72,0,0,1,18.22-1.61,71.48,71.48,0,0,1,18,3C411.73,142.46,414.26,144,414.17,144.11Z" style="fill:#FF725E"></path><path d="M413.54,149.34c-.15.45-5.57-1.17-12.45-1.34s-12.38,1.09-12.49.63c-.06-.19,1.26-.78,3.52-1.32a36.3,36.3,0,0,1,18,.52C412.32,148.49,413.6,149.15,413.54,149.34Z" style="fill:#FF725E"></path><path d="M429.43,144.62c-.48.11-2.65-10.68-8-23.05s-11.54-21.43-11.13-21.7c.16-.12,1.93,2,4.38,5.72a101.83,101.83,0,0,1,13.62,31.9C429.32,141.84,429.62,144.59,429.43,144.62Z" style="fill:#FF725E"></path><path d="M419.87,161.57c.09.24-2.92,1.42-7.54,3.8-2.32,1.16-5,2.72-7.91,4.53a99.64,99.64,0,0,0-9,6.5,85.6,85.6,0,0,0-8.16,7.57c-1.16,1.26-2.26,2.46-3.21,3.65s-1.83,2.3-2.6,3.34c-3.05,4.19-4.53,7.07-4.78,6.95a6.87,6.87,0,0,1,.81-2.15,21.83,21.83,0,0,1,1.22-2.39c.53-.9,1.08-2,1.84-3S382,188,383,186.81s2-2.5,3.16-3.81a74,74,0,0,1,8.23-7.81,84.75,84.75,0,0,1,9.27-6.52,77,77,0,0,1,8.19-4.29C416.65,162.22,419.82,161.4,419.87,161.57Z" style="fill:#FF725E"></path><path d="M479.57,138.79c0,.25-2.62.22-6.8.55-2.09.15-4.56.45-7.29.89a76.94,76.94,0,0,0-17.22,5c-2.54,1.08-4.79,2.15-6.64,3.14-3.7,2-5.89,3.38-6,3.18s1.87-1.9,5.5-4.14a59.64,59.64,0,0,1,6.61-3.5,68.93,68.93,0,0,1,8.6-3.18,70.68,70.68,0,0,1,9-1.91,58.65,58.65,0,0,1,7.46-.58C477,138.19,479.59,138.61,479.57,138.79Z" style="fill:#FF725E"></path><path d="M283.73,162.62a.73.73,0,1,1-.72-.73A.73.73,0,0,1,283.73,162.62Z" style="fill:#FF725E"></path><path d="M332.2,142.09a.72.72,0,0,1-1.44,0,.72.72,0,1,1,1.44,0Z" style="fill:#FF725E"></path><path d="M257,128.13a.73.73,0,0,1-.73.72.72.72,0,0,1,0-1.44A.73.73,0,0,1,257,128.13Z" style="fill:#FF725E"></path><path d="M270.75,111.31a.73.73,0,1,1-.72-.72A.73.73,0,0,1,270.75,111.31Z" style="fill:#FF725E"></path><path d="M293.79,100.61a.73.73,0,1,1-.72-.73A.73.73,0,0,1,293.79,100.61Z" style="fill:#FF725E"></path><path d="M310.32,111.31a.72.72,0,1,1-.72-.72A.73.73,0,0,1,310.32,111.31Z" style="fill:#FF725E"></path><path d="M317.6,152.46a.73.73,0,1,1-.72-.72A.72.72,0,0,1,317.6,152.46Z" style="fill:#FF725E"></path><path d="M267.74,148.22a.72.72,0,1,1-.72-.72A.72.72,0,0,1,267.74,148.22Z" style="fill:#FF725E"></path><path d="M313.42,163.7a.31.31,0,0,1-.3.3.3.3,0,0,1-.3-.3.29.29,0,0,1,.3-.3A.3.3,0,0,1,313.42,163.7Z" style="fill:#FF725E"></path><path d="M260.18,141.55a.29.29,0,0,1-.3.3.3.3,0,0,1-.3-.3.31.31,0,0,1,.3-.3A.3.3,0,0,1,260.18,141.55Z" style="fill:#FF725E"></path><circle cx="269.6" cy="123.57" r="0.3" style="fill:#FF725E"></circle><path d="M323.65,133.18a.3.3,0,0,1-.3.3.31.31,0,0,1-.3-.3.3.3,0,0,1,.3-.3A.29.29,0,0,1,323.65,133.18Z" style="fill:#FF725E"></path><path d="M286.64,110.59a.29.29,0,0,1-.3.3.3.3,0,0,1-.3-.3.31.31,0,0,1,.3-.3A.3.3,0,0,1,286.64,110.59Z" style="fill:#FF725E"></path><path d="M321.71,114.88a.29.29,0,0,1-.3.3.3.3,0,1,1,0-.59A.29.29,0,0,1,321.71,114.88Z" style="fill:#FF725E"></path><path d="M298,126.41c.28,0,.36,1.9-.07,4.16s-1.17,4-1.44,3.91,0-1.89.42-4.1S297.74,126.38,298,126.41Z" style="fill:#FF725E"></path><path d="M303.87,109.53c.28.08-.42,3.54-1.56,7.73s-2.29,7.53-2.57,7.45.42-3.53,1.56-7.73S303.59,109.46,303.87,109.53Z" style="fill:#FF725E"></path><path d="M306,119.13c.26.13-.92,3.13-2.63,6.71s-3.32,6.38-3.58,6.25.92-3.12,2.64-6.7S305.74,119,306,119.13Z" style="fill:#FF725E"></path><path d="M316.16,118.05c.2.22-2.23,2.79-5.18,6s-5.33,5.82-5.56,5.64,1.81-3.12,4.8-6.34S316,117.85,316.16,118.05Z" style="fill:#FF725E"></path><path d="M306.94,131.74c.14.26-1.25,1.25-3.1,2.21s-3.45,1.53-3.58,1.28,1.26-1.24,3.1-2.21S306.81,131.49,306.94,131.74Z" style="fill:#FF725E"></path><path d="M328.34,122.46c.11.28-4,2.06-8.95,4.46s-8.92,4.49-9.07,4.23,3.6-2.76,8.62-5.17S328.25,122.2,328.34,122.46Z" style="fill:#FF725E"></path><path d="M316.87,133.18c.07.28-2.16,1.06-5,1.76s-5.15,1-5.22.74,2.16-1.06,5-1.75S316.8,132.9,316.87,133.18Z" style="fill:#FF725E"></path><path d="M326.92,139.28c0,.28-3.61.63-8.09.48s-8.07-.74-8-1,3.63-.17,8.07,0S326.91,139,326.92,139.28Z" style="fill:#FF725E"></path><path d="M308,142.09c-.09.27-1.77,0-3.76-.59s-3.53-1.3-3.45-1.58,1.76,0,3.75.59S308.05,141.81,308,142.09Z" style="fill:#FF725E"></path><path d="M329.48,148.9c-.1.28-4.12-.79-9.07-2.1s-9-2.4-8.92-2.69,4.2.35,9.19,1.68S329.56,148.64,329.48,148.9Z" style="fill:#FF725E"></path><path d="M312.77,149.76c-.11.25-2-.35-4.07-1.62s-3.47-2.68-3.29-2.9,1.82.78,3.83,2S312.9,149.49,312.77,149.76Z" style="fill:#FF725E"></path><path d="M317.6,163.34c-.22.19-3-2.59-6.23-6.2s-5.67-6.71-5.45-6.9,3,2.59,6.23,6.2S317.81,163.15,317.6,163.34Z" style="fill:#FF725E"></path><path d="M302.28,150.2c-.24.17-1.34-1-2.47-2.6s-1.86-3-1.63-3.21,1.35,1,2.48,2.61S302.51,150,302.28,150.2Z" style="fill:#FF725E"></path><path d="M313.12,172.17c-.25.14-2.44-3.3-4.6-7.84s-3.45-8.4-3.19-8.51,2,3.57,4.13,8.06S313.38,172,313.12,172.17Z" style="fill:#FF725E"></path><path d="M301.09,162.91c-.28.07-1.27-2.75-2.22-6.3s-1.5-6.5-1.22-6.57,1.27,2.75,2.22,6.3S301.37,162.83,301.09,162.91Z" style="fill:#FF725E"></path><path d="M294.82,169.72c-.29,0-.56-3.45-.61-7.71s.15-7.71.44-7.72.56,3.45.6,7.71S295.11,169.72,294.82,169.72Z" style="fill:#FF725E"></path><path d="M292.22,153.3c-.28-.06-.16-1.94.27-4.2s1-4.06,1.3-4,.16,1.94-.28,4.2S292.5,153.35,292.22,153.3Z" style="fill:#FF725E"></path><path d="M286.37,171.83c-.28-.07.34-3.64,1.38-8s2.11-7.79,2.39-7.72-.34,3.63-1.38,8S286.65,171.89,286.37,171.83Z" style="fill:#FF725E"></path><path d="M284.43,159.8c-.26-.13.64-2.59,2-5.5s2.69-5.17,2.95-5.05-.63,2.57-2,5.49S284.68,159.93,284.43,159.8Z" style="fill:#FF725E"></path><path d="M283.77,151.06c.18.22-2.16,2.41-5.09,5.05s-5.36,4.74-5.56,4.53,1.9-2.65,4.86-5.3S283.59,150.84,283.77,151.06Z" style="fill:#FF725E"></path><path d="M290.27,141.85c.17.24-1.33,1.55-3.33,2.94s-3.77,2.32-3.93,2.09,1.33-1.56,3.33-2.95S290.11,141.61,290.27,141.85Z" style="fill:#FF725E"></path><path d="M279.51,149.22c.09.28-3.43,1.64-7.71,3.42s-7.73,3.32-7.87,3.06,3.13-2.22,7.47-4S279.43,149,279.51,149.22Z" style="fill:#FF725E"></path><path d="M283.63,142.45c.1.26-2.57,1.54-6,2.64s-6.39,1.6-6.46,1.33,2.71-1.23,6.14-2.32S283.52,142.18,283.63,142.45Z" style="fill:#FF725E"></path><path d="M280.22,139.38c0,.29-3.14.57-7,.62s-7-.15-7-.44,3.13-.56,7-.61S280.21,139.1,280.22,139.38Z" style="fill:#FF725E"></path><path d="M288,138.16c0,.28-1.49.38-3.23-.06s-3-1.24-2.86-1.5,1.48.07,3.12.49S288,137.87,288,138.16Z" style="fill:#FF725E"></path><path d="M278.53,134.85c-.06.28-4.22-.36-9.17-1.84s-8.79-3.22-8.68-3.47,4.06,1,9,2.47S278.59,134.56,278.53,134.85Z" style="fill:#FF725E"></path><path d="M285.89,134.17c-.16.25-2.67-1.16-5.78-2.81s-5.68-3-5.57-3.23,2.89.62,6.06,2.31S286.05,133.94,285.89,134.17Z" style="fill:#FF725E"></path><path d="M285.67,129.16c-.2.21-3.12-2.31-6.64-5.49s-6.32-5.84-6.13-6.07,3.29,2.09,6.83,5.29S285.87,129,285.67,129.16Z" style="fill:#FF725E"></path><path d="M292,135.75c-.25.13-1.4-1.54-2.37-3.83s-1.37-4.27-1.1-4.35,1.11,1.71,2.06,4S292.23,135.61,292,135.75Z" style="fill:#FF725E"></path><path d="M292.9,131c-.28.09-1.48-2.85-2.69-6.57s-2-6.79-1.69-6.88,1.47,2.85,2.68,6.56S293.17,130.87,292.9,131Z" style="fill:#FF725E"></path><path d="M295.09,124.43c-.28,0-.59-3.51-.69-7.84s.07-7.87.36-7.87.59,3.5.69,7.84S295.38,124.42,295.09,124.43Z" style="fill:#FF725E"></path><path d="M288.25,125.3c-.26.13-2.78-4.06-5.65-9.37s-5-9.72-4.73-9.86,2.78,4.06,5.65,9.37S288.5,125.16,288.25,125.3Z" style="fill:#FF725E"></path></g><g id="freepik--Characters--inject-18"><path d="M400.82,324.59l-32.89,21.56,19,82.23,1,19.54L392,466.23H492s2.75-26.77-3.57-36.54c-3.85-6-12.07-22.06-12.07-22.06l-2.55-30.82-9-49.3-20.47-5.12h-11Z" style="fill:#455a64"></path><path d="M367.93,346.15s-8.41,6.12-9.32,13.36-1.81,68-1.81,68,3.93,22.65,15.4,28.39,19,2.72,19,2.72l-5.43-69.78Z" style="fill:#455a64"></path><path d="M464.78,327.51s11.16,9.27,14,16.26,20.73,45.88,20.73,52.63c0,1.89-.12,4.18-.28,6.51a11.13,11.13,0,0,1-13.08,10.17h0c-4.62-.83-14.9-.47-15.7-5.09l-6.58-80.48" style="fill:#455a64"></path><path d="M387.33,410.71a2,2,0,0,1,.26.49c.16.38.37.85.62,1.42.52,1.25,1.28,3.05,2.13,5.31a79.67,79.67,0,0,1,2.59,8.09,43.83,43.83,0,0,1,1.45,10.31A37.84,37.84,0,0,1,393,446.65a83.31,83.31,0,0,0-1.84,8.25,20.43,20.43,0,0,0-.09,5.65,13.43,13.43,0,0,0,.27,1.52,2,2,0,0,1,.08.54,2.32,2.32,0,0,1-.18-.51,9.1,9.1,0,0,1-.37-1.52,19.16,19.16,0,0,1-.07-5.73,72.57,72.57,0,0,1,1.74-8.32,38.86,38.86,0,0,0,1.37-10.19,44.7,44.7,0,0,0-1.4-10.2,82.43,82.43,0,0,0-2.47-8.08c-.8-2.27-1.5-4.1-2-5.36-.21-.59-.39-1.07-.53-1.46A2.72,2.72,0,0,1,387.33,410.71Z" style="fill:#263238"></path><path d="M484.13,425.44a4.39,4.39,0,0,1-.29-.6l-.73-1.74c-.65-1.58-1.54-3.77-2.63-6.45L472,395.29c-3.26-8.36-6.39-15.85-9-21.13-1.27-2.65-2.37-4.76-3.14-6.21-.36-.69-.66-1.24-.89-1.67a2.62,2.62,0,0,1-.28-.6,3.75,3.75,0,0,1,.37.55c.23.37.57.91,1,1.62.83,1.42,2,3.51,3.29,6.14,2.66,5.26,5.85,12.75,9.11,21.11s6.18,15.88,8.33,21.41c1,2.71,1.87,4.92,2.47,6.52.27.73.49,1.32.65,1.78A2.92,2.92,0,0,1,484.13,425.44Z" style="fill:#263238"></path><path d="M472.28,429.33a3.91,3.91,0,0,1-.5.44c-.35.27-.84.71-1.54,1.18a41.89,41.89,0,0,1-6.13,3.61,60.05,60.05,0,0,1-9.89,3.7A115.84,115.84,0,0,1,441.59,441l-12.75,2c-3.9.64-7.4,1.33-10.31,2s-5.22,1.44-6.8,2c-.8.25-1.4.5-1.82.64a5.21,5.21,0,0,1-.65.2,3.63,3.63,0,0,1,.61-.3c.41-.17,1-.45,1.79-.73a60.94,60.94,0,0,1,6.78-2.15c2.91-.78,6.41-1.5,10.32-2.17s8.24-1.28,12.75-2a120.75,120.75,0,0,0,12.58-2.67,63.51,63.51,0,0,0,9.86-3.57,45.93,45.93,0,0,0,6.17-3.45c.72-.44,1.22-.85,1.59-1.09A3.17,3.17,0,0,1,472.28,429.33Z" style="fill:#263238"></path><path d="M470.31,417.2a4.44,4.44,0,0,1-.51,1,17.88,17.88,0,0,1-1.84,2.57,27.76,27.76,0,0,1-8.18,6.43,55.47,55.47,0,0,1-9.64,3.91c-1.27.4-2.31.7-3,.9a5.33,5.33,0,0,1-1.13.25,5.11,5.11,0,0,1,1.07-.45l3-1.05a66.88,66.88,0,0,0,9.51-4,30.06,30.06,0,0,0,8.15-6.21C469.45,418.61,470.23,417.15,470.31,417.2Z" style="fill:#263238"></path><path d="M389.05,416a18.43,18.43,0,0,1-3.85-1.88,17.49,17.49,0,0,1-3.6-2.33,17,17,0,0,1,3.86,1.88A17.58,17.58,0,0,1,389.05,416Z" style="fill:#263238"></path><path d="M393.67,436.61c0,.05-.5-.24-1.45-.48a10.13,10.13,0,0,0-4.12-.07c-1.75.24-3.76.89-6.11,1.24a27,27,0,0,1-7.69.05,28,28,0,0,1-12.8-5.29,24.16,24.16,0,0,1-3.14-2.83,7.81,7.81,0,0,1-1-1.2,45.79,45.79,0,0,0,4.34,3.73,28.79,28.79,0,0,0,12.65,5.07,27.24,27.24,0,0,0,7.55,0c2.3-.32,4.34-.93,6.13-1.13a9.68,9.68,0,0,1,4.23.23,5.65,5.65,0,0,1,1.06.46A1.19,1.19,0,0,1,393.67,436.61Z" style="fill:#fafafa"></path><path d="M459.23,427.28a5.07,5.07,0,0,1-.65.14c-.44.06-1.07.2-1.9.27a42.91,42.91,0,0,1-7,.2,80.08,80.08,0,0,1-10.37-1.22c-3.87-.67-8.09-1.59-12.53-2.43a86.72,86.72,0,0,0-12.62-1.53,44.57,44.57,0,0,0-10.32.73,30.82,30.82,0,0,0-6.66,2.07c-1.51.67-2.31,1.12-2.33,1.08a2.64,2.64,0,0,1,.56-.36,17.38,17.38,0,0,1,1.69-.9,29,29,0,0,1,6.67-2.25,43.69,43.69,0,0,1,10.41-.85,84.65,84.65,0,0,1,12.7,1.5c4.45.84,8.66,1.77,12.51,2.47a87.19,87.19,0,0,0,10.31,1.32,50.65,50.65,0,0,0,7,0c.83,0,1.47-.15,1.9-.18A2.83,2.83,0,0,1,459.23,427.28Z" style="fill:#fafafa"></path><path d="M482.24,419.13s-.14.23-.46.6a10.25,10.25,0,0,1-1.5,1.38,14.24,14.24,0,0,1-2.58,1.62,16.82,16.82,0,0,1-3.51,1.25,17.08,17.08,0,0,1-3.71.4,15,15,0,0,1-3-.35,10.61,10.61,0,0,1-2-.6,2.41,2.41,0,0,1-.67-.34c0-.09,1,.3,2.7.58a16.91,16.91,0,0,0,3,.23,18.84,18.84,0,0,0,3.59-.43,18.39,18.39,0,0,0,3.43-1.17,17.21,17.21,0,0,0,2.56-1.48C481.44,419.84,482.17,419.06,482.24,419.13Z" style="fill:#fafafa"></path><path d="M492,448.05a15.63,15.63,0,0,1-2.16,3.52,24.24,24.24,0,0,1-8.9,6.82,34.66,34.66,0,0,1-16.37,2.83c-6.32-.24-13.11-1.81-20.14-3.51-3.52-.83-7-1.62-10.32-2.19a70.59,70.59,0,0,0-37,3.8c-1.24.47-2.19.87-2.83,1.15l-.74.3a.84.84,0,0,1-.26.09l.24-.14.71-.34c.63-.31,1.57-.75,2.8-1.25a66.16,66.16,0,0,1,10.74-3.37,69.19,69.19,0,0,1,16.61-1.67,69.91,69.91,0,0,1,9.83.93c3.38.56,6.84,1.35,10.36,2.19,7,1.69,13.78,3.27,20,3.53a34.77,34.77,0,0,0,16.2-2.68,24.67,24.67,0,0,0,8.89-6.61A23.32,23.32,0,0,0,491.4,449l.4-.68A1.74,1.74,0,0,1,492,448.05Z" style="fill:#fafafa"></path><path d="M465,377.83a2.13,2.13,0,0,1-.2.45c-.14.29-.34.73-.65,1.26a30.11,30.11,0,0,1-3,4.32,32.82,32.82,0,0,1-30.89,11.72,30.08,30.08,0,0,1-5.07-1.26c-.59-.19-1-.39-1.33-.51a2,2,0,0,1-.45-.21,17.56,17.56,0,0,1,1.84.53,35.42,35.42,0,0,0,5.06,1.09,33.48,33.48,0,0,0,30.56-11.6,35.25,35.25,0,0,0,3.06-4.18A16.36,16.36,0,0,1,465,377.83Z" style="fill:#fafafa"></path><path d="M483.27,358.75c0,.1-1.4.18-3.62.64a29.89,29.89,0,0,0-15.27,8.42c-1.57,1.63-2.39,2.78-2.47,2.73a3.65,3.65,0,0,1,.51-.86,21.29,21.29,0,0,1,1.7-2.12,25.72,25.72,0,0,1,2.92-2.78,27.9,27.9,0,0,1,4.1-2.77,28.53,28.53,0,0,1,4.52-2,25.27,25.27,0,0,1,3.92-1,19.35,19.35,0,0,1,2.7-.3A4,4,0,0,1,483.27,358.75Z" style="fill:#fafafa"></path><path d="M493.69,391.48c0,.09-1.2-.13-3.12-.24a29.7,29.7,0,0,0-7.45.52,30.11,30.11,0,0,0-7.08,2.39c-1.73.85-2.73,1.5-2.78,1.43s.21-.22.65-.54a18,18,0,0,1,2-1.21,25.69,25.69,0,0,1,14.73-3,18.76,18.76,0,0,1,2.27.37A3.06,3.06,0,0,1,493.69,391.48Z" style="fill:#fafafa"></path><path d="M374.52,395.54a9.87,9.87,0,0,1-2.47-.27,51.22,51.22,0,0,1-5.85-1.37,52.8,52.8,0,0,1-5.66-2,11,11,0,0,1-2.23-1.12,13.74,13.74,0,0,1,2.37.78c1.44.51,3.43,1.2,5.67,1.86s4.28,1.17,5.77,1.51A14.36,14.36,0,0,1,374.52,395.54Z" style="fill:#fafafa"></path><path d="M443.82,324.05a4,4,0,0,1-.56.86,19.3,19.3,0,0,1-1.82,2.13,25.36,25.36,0,0,1-3.15,2.73,28.1,28.1,0,0,1-4.39,2.6,29.33,29.33,0,0,1-4.82,1.69,25.86,25.86,0,0,1-4.12.65,18.83,18.83,0,0,1-2.8,0,4.29,4.29,0,0,1-1-.13c0-.1,1.47,0,3.79-.26a28.59,28.59,0,0,0,4-.75,29.43,29.43,0,0,0,4.72-1.7,30.45,30.45,0,0,0,4.33-2.51,28.37,28.37,0,0,0,3.17-2.6C442.87,325.16,443.74,324,443.82,324.05Z" style="fill:#fafafa"></path><path d="M357.36,302.64s2.45.16,12.75,8,27.8,50.87,27.8,50.87l45-30.67,22.84,15.33-45.85,51.39A30,30,0,0,1,397.16,408h0a30,30,0,0,1-23-10.75l-22.75-38Z" style="fill:#FF725E"></path><g style="opacity:0.30000000000000004"><path d="M372.69,341.67c2.87,2.78,2.51,7.55.95,11.22s-4.1,6.95-5.1,10.81a14.53,14.53,0,0,0,14.13,18.17c3.18,0,6.75-1,9.3.93,2,1.5,2.54,4.22,3.61,6.49a14.26,14.26,0,0,0,15.28,7.55,15.36,15.36,0,0,0,11.79-12.56,3.83,3.83,0,0,0,4.17.48,7.94,7.94,0,0,0,3.17-3.05c4.72-7.26,3.55-17.26-1.11-24.57s-12.22-12.29-20.06-16"></path></g><path d="M443,330.82c0-.18.16-2.41.36-4.6a10.2,10.2,0,0,1,3.79-7l4.38-3.5,2.63,3.73s1.24-3.48,4.38-2.86c1.36.26,2.26,2.57,2.26,2.57s2.06-2.08,4-.46a6.79,6.79,0,0,1,2.12,4.3s1.69-2.24,2.77.16a15.21,15.21,0,0,1,1.27,4.43s2.2-.55,2.25,2.36-5.93,10.75-5.93,10.75l-4.34,4L442,331.57" style="fill:#ffbe9d"></path><path d="M459.26,325.89c0-.08.45-.13.87-.64a3,3,0,0,0,.58-2.43,12.23,12.23,0,0,1-.18-2.78c.09-.75.4-1.14.45-1.1s-.09.44-.09,1.12.22,1.61.34,2.72a4.24,4.24,0,0,1-.12,1.6,2.53,2.53,0,0,1-.71,1.13C459.8,326,459.24,326,459.26,325.89Z" style="fill:#eb996e"></path><path d="M464.44,329.46a9.35,9.35,0,0,0,2.16-7.36c.06,0,.28.4.41,1.14a6.78,6.78,0,0,1-1.61,5.48C464.89,329.27,464.48,329.51,464.44,329.46Z" style="fill:#eb996e"></path><path d="M468.62,333.21a13.55,13.55,0,0,0,1.55-3.84,14.2,14.2,0,0,0-.17-4.14,2.44,2.44,0,0,1,.54,1.15,7.06,7.06,0,0,1,.14,3.08,7.14,7.14,0,0,1-1.16,2.85C469.06,333,468.66,333.25,468.62,333.21Z" style="fill:#eb996e"></path><path d="M383.52,342.18l32.55-5.86-8.77-28.75s2.64.73.77-11.37-4.74-32.73-4.74-32.73h0A42.56,42.56,0,0,0,362,275.82l-1.56,1.67Z" style="fill:#ffbe9d"></path><path d="M366.73,291.72c-.22-.05-8.71-1.07-7.07,7.15s9.55,4.87,9.52,4.63S366.73,291.72,366.73,291.72Z" style="fill:#ffbe9d"></path><path d="M405.23,283.52c.2-.12,7.23-3.34,8.34,5s-7.45,7.71-7.5,7.47S405.23,283.52,405.23,283.52Z" style="fill:#ffbe9d"></path><path d="M379.3,253.2S368,255,364.42,257.81c-6,4.7-9.31,15.18-7.13,26.91s10.6,26.58,20.73,32.75,17.2,6.3,17.2,6.3,16.26-13.49,15.46-28.4-2.14-29.17-9.2-35.11S383.47,252.58,379.3,253.2Z" style="fill:#263238"></path><path d="M360.28,292c-2.1-7.31-4.23-14.88-3.28-22.43s5.8-15.16,13.21-16.9c2.38-.55,4.9-.49,7.18-1.36a31.37,31.37,0,0,0,5.39-3.27A15.37,15.37,0,0,1,393,245.35c3.57.51,7,3.05,7.77,6.56.33,1.44.25,3,1,4.28s2.3,1.94,3.45,2.93a9.46,9.46,0,0,1,2.95,6.36,27.79,27.79,0,0,1-.57,7.15q-1.45,8.78-2.92,17.55" style="fill:#263238"></path><path d="M379.85,292.49a15.07,15.07,0,0,1,23.49,7.57c1.47,4.77,1.63,5.55,5.51,8.68,2.39,1.94,4.23,1.44,6.9,3A9.29,9.29,0,0,1,419.91,322c5.83-1.43,11.46-4.74,14.55.4-9.14-.1-16.54,11.68-25.68,11.58-2.89,0-5.89-.09-8.49-1.36-3-1.45-5-4.29-6.89-7l-10.21-14.7c-2.29-3.3-4.64-6.73-5.34-10.69s.75-8.59,4.38-10.32" style="fill:#263238"></path><path d="M377.35,298.56c-2.59-4.75-1.93-10.87,1.6-14.53s9.63-4.61,14.52-2.24c3.62,1.75,6.52,5.33,6.91,9.22s-2.06,7.82-5.83,8.64" style="fill:#FF725E"></path><path d="M395.07,286.83A13.35,13.35,0,0,0,378.15,291c-3.38,5-2.11,13.75.29,19.3,2.59,6,7.57,11.26,7.53,17.77,0,4-1.88,8.34.33,11.63,1.79,2.66,5.48,3.26,7.83,5.44,3.47,3.2,3.13,8.71,2.13,13.31s-2.38,9.64-.23,13.83c1.67,3.26,5.06,5.18,7.91,7.47s5.47,5.78,4.55,9.32A9.34,9.34,0,0,0,421.15,377a11.16,11.16,0,0,1,4.46,6.45,15.06,15.06,0,0,0,6.75-24.83c-2.59-2.73-6.29-4.63-7.67-8.12-1.65-4.17.66-9-.6-13.31-1.13-3.86-4.83-6.34-8.46-8.07S408,326,405.33,323c-4.38-4.8-4.2-12.05-4.13-18.55s-.76-14-6.13-17.66" style="fill:#263238"></path><path d="M376.86,294.35c-3.86,3.86-2.9,10.28-1.25,15.49s3.67,11,1.23,15.89c-1.65,3.29-5.19,5.69-5.65,9.35-.55,4.44,3.7,8,4.95,12.28.9,3.11.17,6.45-.81,9.54s-2.23,6.15-2.37,9.39,1.11,6.79,4,8.32a11.66,11.66,0,0,0,6,.91,70.4,70.4,0,0,0,21.38-4.24c.42-9.12.83-18.34-.92-27.29-3.49-17.78-15.19-33.1-18.88-50.84" style="fill:#263238"></path><path d="M407.12,383.13s-.09-.05-.23-.16l-.64-.53-2.42-2a110.74,110.74,0,0,1-8.71-7.72,27.49,27.49,0,0,1-4.8-6.48,14.4,14.4,0,0,1-1.56-9.05c.46-3.26,1.71-6.47,2.78-9.82a34.32,34.32,0,0,0,1.25-5.18,12.41,12.41,0,0,0-.36-5.38,15,15,0,0,0-2.62-4.75,39.77,39.77,0,0,1-3.11-4.44,10.74,10.74,0,0,1-1-2.5,7.88,7.88,0,0,1-.09-2.65,13.66,13.66,0,0,1,1.95-4.66,23.93,23.93,0,0,0,2.16-4.16,8.46,8.46,0,0,0,.37-4.3,23.13,23.13,0,0,0-2.92-7.35,25.89,25.89,0,0,1-2.63-6.11,10,10,0,0,1,0-5,6.6,6.6,0,0,1,1.51-2.78,4.32,4.32,0,0,1,.85-.71s-.3.24-.77.78a6.94,6.94,0,0,0-1.4,2.76,10,10,0,0,0,.06,4.89,26,26,0,0,0,2.67,6,23.36,23.36,0,0,1,3,7.47,9,9,0,0,1-.37,4.51A23.75,23.75,0,0,1,388,318a12.82,12.82,0,0,0-1.87,4.48,7.09,7.09,0,0,0,.08,2.47,10.18,10.18,0,0,0,.94,2.37,38.49,38.49,0,0,0,3.07,4.37,15.25,15.25,0,0,1,2.7,4.91,12.65,12.65,0,0,1,.38,5.59,32.05,32.05,0,0,1-1.28,5.28c-1.08,3.36-2.33,6.55-2.79,9.73a14,14,0,0,0,1.48,8.79,27.2,27.2,0,0,0,4.68,6.41c3.39,3.53,6.52,6,8.57,7.82,1,.91,1.83,1.61,2.36,2.1l.6.57A1,1,0,0,1,407.12,383.13Z" style="fill:#455a64"></path><path d="M377.58,324.7c-.05,0,.16-.6.37-1.69a20.06,20.06,0,0,0,.29-4.65,40.13,40.13,0,0,0-1-6.87c-.56-2.56-1.31-5.37-1.72-8.4a20,20,0,0,1,.43-8.58,12.74,12.74,0,0,1,3.84-5.87,8.86,8.86,0,0,1,4.27-2.05,6.35,6.35,0,0,1,1.29-.07,1.27,1.27,0,0,1,.45.05c0,.06-.63,0-1.71.22a9.08,9.08,0,0,0-4.06,2.12,12.74,12.74,0,0,0-3.62,5.74A20.16,20.16,0,0,0,376,303c.41,3,1.14,5.79,1.68,8.37a38.93,38.93,0,0,1,.92,7,18,18,0,0,1-.47,4.71,9.39,9.39,0,0,1-.38,1.23A1.49,1.49,0,0,1,377.58,324.7Z" style="fill:#455a64"></path><path d="M436,373s0-.37,0-1a15.87,15.87,0,0,0-.57-2.94,34.41,34.41,0,0,0-1.59-4.47A35.2,35.2,0,0,0,430.8,359c-1.32-1.88-3.16-3.72-4.72-6a16.26,16.26,0,0,1-2-3.81,14.62,14.62,0,0,1-.8-4.5c-.07-1.56,0-3.14-.11-4.74a15.87,15.87,0,0,0-1-4.75,16.26,16.26,0,0,0-6.38-7.81c-3-1.92-6.58-2.35-9.51-4.2a15.66,15.66,0,0,1-6-7.64,32.51,32.51,0,0,1-2-8.59c-.32-2.74-.49-5.3-.8-7.61a30.87,30.87,0,0,0-1.3-6.13,8.45,8.45,0,0,0-2.57-3.87,5.72,5.72,0,0,0-2.67-1.22c-.67-.1-1,0-1-.07a3.31,3.31,0,0,1,1.06,0,5.67,5.67,0,0,1,2.78,1.18,8.63,8.63,0,0,1,2.72,3.92,31.43,31.43,0,0,1,1.39,6.18c.33,2.32.52,4.88.86,7.61a32.11,32.11,0,0,0,2,8.46,15.18,15.18,0,0,0,5.79,7.39c2.8,1.78,6.43,2.2,9.52,4.19A16.77,16.77,0,0,1,422.6,335a16.21,16.21,0,0,1,1,4.9c.1,1.63,0,3.22.1,4.75a14.2,14.2,0,0,0,.75,4.37,16,16,0,0,0,1.95,3.71c1.52,2.28,3.32,4.1,4.67,6.06a37.1,37.1,0,0,1,4.43,10.16,14.49,14.49,0,0,1,.47,3A5.31,5.31,0,0,1,436,373Z" style="fill:#455a64"></path><path d="M420.76,328.88a10.22,10.22,0,0,0,.37-2.13,10.82,10.82,0,0,0-1.39-5.62,11.41,11.41,0,0,0-6.76-5.06c-.77-.22-1.64-.36-2.47-.68a8.35,8.35,0,0,1-2.39-1.31,11.72,11.72,0,0,1-1.95-2c-.57-.76-1.15-1.47-1.71-2.28a17.65,17.65,0,0,1-2.26-5.18c-.49-1.76-.79-3.49-1.11-5.11a24.14,24.14,0,0,0-2.71-8.27,10.43,10.43,0,0,0-4.2-4,11.46,11.46,0,0,0-2-.71,5.25,5.25,0,0,1,2.12.53,10.25,10.25,0,0,1,4.43,4,23.61,23.61,0,0,1,2.87,8.36c.67,3.23,1.23,6.93,3.33,10.1a24.11,24.11,0,0,0,3.54,4.2,8.17,8.17,0,0,0,2.25,1.25c.79.3,1.61.44,2.43.68a11.67,11.67,0,0,1,6.95,5.34,10.71,10.71,0,0,1,1.27,5.82,5.86,5.86,0,0,1-.33,1.6A2,2,0,0,1,420.76,328.88Z" style="fill:#455a64"></path><path d="M373.92,293a4.49,4.49,0,0,1-1-.28,9.46,9.46,0,0,1-1.14-.45,13.79,13.79,0,0,1-1.47-.71,21.38,21.38,0,0,1-3.54-2.35,24.91,24.91,0,0,1-3.65-3.73,25.42,25.42,0,0,1-2.73-4.43,22.05,22.05,0,0,1-1.43-4,13.07,13.07,0,0,1-.33-1.6,8,8,0,0,1-.16-1.22,3.93,3.93,0,0,1,0-1c.1,0,.21,1.48.87,3.77a24.7,24.7,0,0,0,1.51,3.89,24.85,24.85,0,0,0,6.25,8,24.94,24.94,0,0,0,3.41,2.4C372.54,292.39,374,292.86,373.92,293Z" style="fill:#455a64"></path><path d="M372.85,295.45a31.28,31.28,0,0,1-11.76-5.18c.08-.13,2.58,1.3,5.82,2.72S372.89,295.3,372.85,295.45Z" style="fill:#455a64"></path><path d="M403.86,267.54a2.6,2.6,0,0,1,.1.8,19.24,19.24,0,0,1,0,2.17A27.64,27.64,0,0,1,399.61,284a21.5,21.5,0,0,1-1.26,1.76c-.33.39-.52.6-.55.58s.59-1,1.5-2.54a32.65,32.65,0,0,0,4.29-13.34C403.77,268.68,403.77,267.55,403.86,267.54Z" style="fill:#455a64"></path><path d="M407.71,273.42a8.78,8.78,0,0,1-.09,2.41,43.66,43.66,0,0,1-1,5.75,42.87,42.87,0,0,1-1.78,5.56,9.57,9.57,0,0,1-1.05,2.18,13.18,13.18,0,0,1,.7-2.31c.47-1.41,1.08-3.36,1.62-5.55s.92-4.21,1.16-5.68A14,14,0,0,1,407.71,273.42Z" style="fill:#455a64"></path><path d="M399.88,253.37c-.08,0-.74-1.13-2.05-2.82a10.23,10.23,0,0,0-2.73-2.48,5.9,5.9,0,0,0-4.29-.74,8.61,8.61,0,0,0-3.95,2.07,15.72,15.72,0,0,0-2.43,2.83c-1.2,1.78-1.85,3-1.93,2.91a3.53,3.53,0,0,1,.37-.87c.27-.54.68-1.31,1.25-2.24a15.48,15.48,0,0,1,2.41-3,9,9,0,0,1,4.17-2.22,6.33,6.33,0,0,1,2.49,0,6.73,6.73,0,0,1,2.15.86,10.23,10.23,0,0,1,2.79,2.66,20.22,20.22,0,0,1,1.36,2.19A3.25,3.25,0,0,1,399.88,253.37Z" style="fill:#455a64"></path><path d="M401.1,254a14.47,14.47,0,0,0-.72-2.65,10,10,0,0,0-9.85-6.43,9.78,9.78,0,0,0-2.78.51,12.13,12.13,0,0,0-2.7,1.34c-1.76,1.12-3.4,2.63-5.4,3.84a11.52,11.52,0,0,1-3.28,1.38,33.51,33.51,0,0,1-3.59.57,17.56,17.56,0,0,0-3.46.73,13.49,13.49,0,0,0-3.05,1.56,16.58,16.58,0,0,0-4.5,4.66,25,25,0,0,0-3.63,10.4,68.33,68.33,0,0,0-.54,7.51c0,.85-.05,1.53-.07,2.05a4.08,4.08,0,0,1,0,.72,3.13,3.13,0,0,1-.05-.72c0-.52,0-1.2,0-2.05a62.54,62.54,0,0,1,.38-7.56,25,25,0,0,1,3.59-10.61,17.16,17.16,0,0,1,4.62-4.82,13.34,13.34,0,0,1,3.17-1.62,17.2,17.2,0,0,1,3.57-.77,30.25,30.25,0,0,0,3.53-.55,11.18,11.18,0,0,0,3.14-1.32c1.94-1.17,3.59-2.67,5.4-3.8A13.31,13.31,0,0,1,387.6,245a10.73,10.73,0,0,1,2.92-.51,10.58,10.58,0,0,1,5.13,1.15,10.31,10.31,0,0,1,4.92,5.65A7.52,7.52,0,0,1,401.1,254Z" style="fill:#FF725E"></path><path d="M374.9,281s-.22-.17-.55-.53a15.76,15.76,0,0,1-1.26-1.66,21.2,21.2,0,0,1-2.8-6.25,21,21,0,0,1-.66-6.82,13.91,13.91,0,0,1,.27-2.06c.11-.48.18-.74.22-.73S370,264,370,265.75a24,24,0,0,0,3.4,12.86C374.29,280.09,375,280.93,374.9,281Z" style="fill:#FF725E"></path><path d="M395.08,273a26.4,26.4,0,0,0,1-6.1,26,26,0,0,0-1-6.1,4.68,4.68,0,0,1,.8,1.68,14.16,14.16,0,0,1,.7,4.43,14,14,0,0,1-.74,4.42A5.13,5.13,0,0,1,395.08,273Z" style="fill:#FF725E"></path><path d="M407.2,271.18c-.08,0,.42-1.14,1-3a11.61,11.61,0,0,0,.61-3.26,6.34,6.34,0,0,0-1.05-3.79,9.45,9.45,0,0,0-3.17-2.47,11.94,11.94,0,0,1-2.8-2,4.47,4.47,0,0,1-1.19-2,1.73,1.73,0,0,1-.06-.86,5,5,0,0,0,1.51,2.6,12.75,12.75,0,0,0,2.78,1.85,9.55,9.55,0,0,1,3.35,2.59,6.62,6.62,0,0,1,1.11,4.1,11,11,0,0,1-.74,3.37,20.21,20.21,0,0,1-.93,2.11C407.39,270.93,407.24,271.19,407.2,271.18Z" style="fill:#FF725E"></path><path d="M414.38,289a7.54,7.54,0,0,0-4-6.06c0-.06.47,0,1.12.32a5.71,5.71,0,0,1,2.09,1.91,5.63,5.63,0,0,1,.93,2.67C414.57,288.56,414.44,289,414.38,289Z" style="fill:#FF725E"></path><path d="M421.09,379.29l-.23-.13-.64-.41c-.56-.37-1.39-.91-2.41-1.69a26.39,26.39,0,0,1-3.47-3.1,12.84,12.84,0,0,1-3.1-5.33A10.11,10.11,0,0,1,411,365a19.07,19.07,0,0,1,1-3.79c.86-2.51,2-5.24,1.54-8.2a16.55,16.55,0,0,0-4.21-8.16c-2.15-2.44-4.82-4.56-7.28-7a22.78,22.78,0,0,1-5.6-8.5,37.23,37.23,0,0,1-2-9.28c-.31-3-.39-5.88-.52-8.55s-.3-5.16-.62-7.4a29.57,29.57,0,0,0-3.1-10.22,21.69,21.69,0,0,0-1.58-2.46l-.46-.61c-.1-.14-.15-.21-.14-.22a15.27,15.27,0,0,1,2.35,3.19A28.77,28.77,0,0,1,393.71,304a72.11,72.11,0,0,1,.69,7.44c.15,2.67.24,5.53.56,8.52a37.27,37.27,0,0,0,2,9.15,22.3,22.3,0,0,0,5.49,8.31c2.43,2.45,5.11,4.57,7.29,7.07A16.8,16.8,0,0,1,414,353a11.08,11.08,0,0,1-.29,4.46c-.37,1.4-.87,2.7-1.31,3.95a19,19,0,0,0-1,3.7,9.59,9.59,0,0,0,.17,3.48,12.65,12.65,0,0,0,2.95,5.23,28.51,28.51,0,0,0,3.39,3.13c1,.8,1.8,1.37,2.34,1.77l.61.45C421,379.22,421.1,379.28,421.09,379.29Z" style="fill:#455a64"></path><path d="M288.77,194.25l-10.62,13.81S273,216,277,217.71c3.54,1.49,5.83-3,5.83-3s2.25-10.14,6.65-7.65c.61.34-.46,7.54-1.05,11.19a5.22,5.22,0,0,1-2,3.35l-11.68,9a15,15,0,0,1-7.45,3l-4.15.48-3.41,6.83-18.87-7.69,15-19.43L264,201.48a4.84,4.84,0,0,1,4.42-1.07l1.87.49,1.38-1.4a3.23,3.23,0,0,1,3.17-.83L276,199l3.15-3.14c1-1,8.23-7.74,9.58-7.14C288.68,188.72,291.39,190.85,288.77,194.25Z" style="fill:#ffbe9d"></path><path d="M267.39,207.36a13.9,13.9,0,0,1,1.08-1.55,7,7,0,0,1,3.93-2.17,20.09,20.09,0,0,0,3.14-3.47,6.25,6.25,0,0,0,.95-1.67c-.05,0-.41.61-1.14,1.53a28,28,0,0,1-3.1,3.31c-.39.13-.82.22-1.24.37a7.07,7.07,0,0,0-1.14.54,6.13,6.13,0,0,0-1.58,1.4,5.09,5.09,0,0,0-.74,1.21A1.4,1.4,0,0,0,267.39,207.36Z" style="fill:#eb996e"></path><path d="M265.21,204.56a2.64,2.64,0,0,1,.64-.73,2.38,2.38,0,0,1,2.22-.39l.1,0,.07-.08.24-.25A22,22,0,0,0,271,200.2a22,22,0,0,0-2.76,2.71l-.24.25.18,0a2.5,2.5,0,0,0-2.47.54C265.2,204.11,265.15,204.57,265.21,204.56Z" style="fill:#eb996e"></path><path d="M287.9,195.39s.38-.37.88-1.16a4.39,4.39,0,0,0,.59-3.69c-.24-.72-.79-1.69-1.67-1.55s-1.63,1-2.49,1.7c-1.7,1.44-3.54,3.06-5.43,4.82-1.37,1.27-2.68,2.53-3.88,3.73l-.16.16-.17-.14a2.68,2.68,0,0,0-2.88,0,7.94,7.94,0,0,0-2.11,1.91l-.1.12-.14-.07a7.2,7.2,0,0,0-4.88-.39c-1.16.32-1.72.72-1.75.66a1.65,1.65,0,0,1,.4-.3,6.27,6.27,0,0,1,1.29-.58,7.21,7.21,0,0,1,5.11.24l-.24.06a8.26,8.26,0,0,1,2.2-2.06,3.13,3.13,0,0,1,3.41.06l-.33,0c1.19-1.21,2.5-2.48,3.88-3.77,1.89-1.75,3.75-3.37,5.47-4.8l1.27-1a3.19,3.19,0,0,1,1.47-.73,1.56,1.56,0,0,1,1.44.63,3.38,3.38,0,0,1,.64,1.23,4.16,4.16,0,0,1,0,2.35,5.1,5.1,0,0,1-.77,1.57,5,5,0,0,1-.74.82A1.32,1.32,0,0,1,287.9,195.39Z" style="fill:#FF725E"></path><path d="M289.29,210.74a6.43,6.43,0,0,1,.06-1.8c0-.54.28-1.26-.25-1.59a2.23,2.23,0,0,0-.93-.4.91.91,0,0,0-.49,0,4.11,4.11,0,0,0-.56.19,5.84,5.84,0,0,0-2.78,2.93c-.45,1-.56,1.66-.64,1.65A3.41,3.41,0,0,1,284,210a5.64,5.64,0,0,1,2.92-3.27,3.88,3.88,0,0,1,.63-.21,1.42,1.42,0,0,1,.71,0,2.61,2.61,0,0,1,1.14.53,1.34,1.34,0,0,1,.39.51,1.38,1.38,0,0,1,.07.59c0,.36-.1.64-.14.91A5.91,5.91,0,0,1,289.29,210.74Z" style="fill:#FF725E"></path><path d="M338.27,286.93l-3.56,8.68c-3.19,5.22-8.8,8.08-15.45,8-13.79-.37-19.09-8.68-18.89-17.18l.37-2.06-15.36,9.19s-23,27.85-18.91,37,27.12,21,38.29,19,28.73-24.07,28.73-24.07L345.21,298Z" style="fill:#FF725E"></path><path d="M358,370.37l.39-67.33-13.22-5L299.1,296.1s-4.27.72-10.23,1.84l2.55-4.23-14.83-.32-31.2-18.95,19.28-38.58-18.26-11.71s-22.36,23.64-26.7,28.21c0,0-22.85,27.09-16,38.77a53,53,0,0,0,9.9,11.95c6.26,7.53,14.59,17.46,22.22,26.33,6,7,11.1,12.62,14.71,16.52h0L248.7,450.22l-.64.93a12,12,0,0,0,1.26,15.08H363.37Z" style="fill:#FF725E"></path><path d="M272.9,302.85a9.64,9.64,0,0,1-.09,1.53c0,.49-.11,1.09-.23,1.77s-.22,1.48-.43,2.34a45.92,45.92,0,0,1-1.68,5.95,47.17,47.17,0,0,1-7.27,13.24,46.5,46.5,0,0,1-4.12,4.61c-.61.63-1.22,1.14-1.74,1.61s-1,.85-1.37,1.15a8.68,8.68,0,0,1-1.24.89,8.59,8.59,0,0,1,1.1-1.05c.37-.32.82-.72,1.32-1.21s1.08-1,1.67-1.65a51.67,51.67,0,0,0,4-4.65,50.05,50.05,0,0,0,7.2-13.11,49.8,49.8,0,0,0,1.77-5.86c.23-.84.36-1.63.5-2.31s.24-1.27.31-1.75A8.32,8.32,0,0,1,272.9,302.85Z" style="fill:#263238"></path><path d="M215.86,275.22a5.22,5.22,0,0,1,1-.76,11.84,11.84,0,0,1,1.21-.77,18.36,18.36,0,0,1,1.69-.9,18.93,18.93,0,0,1,2.14-.89c.78-.31,1.64-.53,2.55-.79a26.4,26.4,0,0,1,12.12-.11,25.25,25.25,0,0,1,2.56.74,19.28,19.28,0,0,1,2.15.85,17,17,0,0,1,1.71.86,11.53,11.53,0,0,1,1.23.75,5.65,5.65,0,0,1,1,.74c-.06.09-1.48-.93-4.06-2a18.39,18.39,0,0,0-2.15-.78,24.94,24.94,0,0,0-2.53-.68,27.36,27.36,0,0,0-11.9.11c-.89.24-1.75.44-2.51.73a19,19,0,0,0-2.13.82C217.33,274.26,215.92,275.31,215.86,275.22Z" style="fill:#263238"></path><path d="M231.13,262.3a11.66,11.66,0,0,1,2.94.49,18.57,18.57,0,0,1,6.58,3,11.59,11.59,0,0,1,4.21,5.85,8.06,8.06,0,0,1,.34,2.18c0,.52,0,.8-.09.8a17.81,17.81,0,0,0-.6-2.87,12.09,12.09,0,0,0-4.17-5.54,20.91,20.91,0,0,0-6.36-3A29.63,29.63,0,0,1,231.13,262.3Z" style="fill:#263238"></path><path d="M340.82,313.88a1.46,1.46,0,0,1-.12.32c-.11.24-.25.54-.42.93-.37.81-1,2-1.76,3.49a72.94,72.94,0,0,1-8.09,11.85,73.74,73.74,0,0,1-15.84,14.18A36.22,36.22,0,0,1,303.2,350a18.48,18.48,0,0,1-6.69.45,16.46,16.46,0,0,1-6.51-2.27c-4-2.42-7-6.05-9.44-9.65a51.8,51.8,0,0,1-5.78-11.19,32.66,32.66,0,0,1-2-11.2,25.94,25.94,0,0,1,.61-5.16,23.07,23.07,0,0,1,1.59-4.51,24.62,24.62,0,0,1,4.74-6.68,33.7,33.7,0,0,1,4.75-4,37.27,37.27,0,0,1,3.33-2l.89-.48a1.41,1.41,0,0,1,.31-.15s-.09.07-.28.19l-.87.53c-.78.44-1.88,1.16-3.27,2.12a36.12,36.12,0,0,0-4.65,4,24.79,24.79,0,0,0-4.62,6.64,23.66,23.66,0,0,0-1.53,4.44,25.89,25.89,0,0,0-.57,5.07,32.35,32.35,0,0,0,2.06,11A51.82,51.82,0,0,0,281,338.24c2.42,3.57,5.34,7.12,9.28,9.48a15.83,15.83,0,0,0,6.31,2.2,17.93,17.93,0,0,0,6.5-.43,35.88,35.88,0,0,0,11.25-5.24,74.71,74.71,0,0,0,15.82-14,77.57,77.57,0,0,0,8.2-11.71c.81-1.48,1.44-2.64,1.83-3.44l.47-.9Z" style="fill:#263238"></path><g style="opacity:0.4"><path d="M300.37,286.45c.09,2.41.25,5.29,1.34,7.57,1.22,2.54,5.19,6.85,9.08,8.21,3.66,1.28,18,5.51,26.33-10.58-5.39,27.75-20.26,22-35.58,24.68-4,.69-8.22,1-12.05-.39s-7.19-4.68-7.53-8.73c-.38-4.38,2.72-8.32,6.15-11.06s7.71-5.22,10.46-8.65Z"></path></g><path d="M302,349.47s-.14.06-.42.13a6.82,6.82,0,0,1-1.27.14,9.41,9.41,0,0,1-4.54-1.13,13.42,13.42,0,0,1-5.08-4.73,29.68,29.68,0,0,1-3.33-7.82,60.12,60.12,0,0,1-2.05-8.25,14.46,14.46,0,0,1,.53-6.92A9.31,9.31,0,0,1,288.4,317a6.73,6.73,0,0,1,1-.77c.26-.14.39-.21.4-.19s-.51.34-1.28,1.1a9.64,9.64,0,0,0-2.32,3.91,14.46,14.46,0,0,0-.4,6.74,64.62,64.62,0,0,0,2.06,8.16,30.94,30.94,0,0,0,3.24,7.71,13.33,13.33,0,0,0,4.85,4.66,9.89,9.89,0,0,0,4.37,1.26C301.43,349.56,302,349.42,302,349.47Z" style="fill:#263238"></path><path d="M333.74,318.84c-.08,0,.61-1.21,1.54-3.16a45,45,0,0,0,2.85-7.94,43.91,43.91,0,0,0,1.25-8.35c.11-2.16.06-3.51.15-3.51a3.53,3.53,0,0,1,.13.94,22.45,22.45,0,0,1,.09,2.58,37.27,37.27,0,0,1-1.11,8.46,36.79,36.79,0,0,1-3,8c-.51,1-1,1.73-1.3,2.24A3.32,3.32,0,0,1,333.74,318.84Z" style="fill:#263238"></path><g style="opacity:0.30000000000000004"><path d="M276.28,330.39a53.3,53.3,0,0,0,7.05,21.15c2,3.55,4.59,7.09,8.41,8.51s8.41.34,12.31-1.29a50.36,50.36,0,0,0,28.2-30.95c-5.7,5.94-11.39,11.87-18.23,16.46-4.35,2.93-9.41,6.28-14.65,6.47-5.69.2-12.06-3.39-15.68-7.78-2.49-3-4.52-8.41-7.5-13.26"></path></g><path d="M328.86,439.28a3.57,3.57,0,0,1-.63.39l-1.84,1-1.33.73-1.63.79c-1.18.55-2.5,1.23-4,1.82L317,445c-.83.34-1.71.62-2.62,1-1.8.68-3.78,1.24-5.86,1.86a91.18,91.18,0,0,1-27.89,3.24c-2.16-.13-4.22-.22-6.13-.47-1-.11-1.88-.18-2.77-.32l-2.53-.41c-1.63-.23-3.06-.59-4.34-.85-.63-.14-1.22-.26-1.76-.4l-1.47-.4-2-.58a3.28,3.28,0,0,1-.69-.24,3.57,3.57,0,0,1,.72.14l2,.48,1.47.36,1.77.35c1.28.24,2.72.58,4.34.78l2.53.37c.88.13,1.8.19,2.75.29,1.91.24,4,.3,6.11.42a94.21,94.21,0,0,0,27.75-3.23c2.06-.6,4-1.14,5.84-1.8.9-.32,1.79-.59,2.62-.91l2.38-.95c1.53-.57,2.85-1.22,4-1.75l1.65-.74,1.35-.69,1.88-.94A3.8,3.8,0,0,1,328.86,439.28Z" style="fill:#263238"></path><path d="M339.22,392.17a4.17,4.17,0,0,1-.51.66c-.39.45-.9,1.06-1.55,1.83s-1.51,1.76-2.53,2.83-2.15,2.33-3.5,3.61l-2.09,2c-.73.71-1.54,1.4-2.35,2.14-1.6,1.5-3.42,3-5.32,4.55a142.13,142.13,0,0,1-13.07,9.28,140,140,0,0,1-14.13,7.6c-2.26,1-4.39,2-6.44,2.75-1,.39-2,.8-3,1.15l-2.76,1c-1.75.64-3.38,1.09-4.79,1.53s-2.65.77-3.66,1l-2.33.58a6,6,0,0,1-.82.17,5,5,0,0,1,.79-.27l2.31-.67c1-.28,2.22-.63,3.62-1.1s3-.93,4.76-1.6l2.74-1c.95-.35,1.92-.77,2.94-1.18,2-.78,4.16-1.77,6.4-2.78a134.07,134.07,0,0,0,27.1-16.82c1.9-1.56,3.73-3,5.34-4.49.81-.73,1.62-1.41,2.35-2.11l2.11-2c1.37-1.26,2.51-2.5,3.54-3.55s1.91-2,2.6-2.76l1.62-1.77A6.2,6.2,0,0,1,339.22,392.17Z" style="fill:#263238"></path><path d="M360.23,324.4a4.14,4.14,0,0,1,0,.62c0,.47-.07,1.06-.12,1.79-.11,1.62-.27,3.85-.46,6.57-.38,5.55-.79,13.22-1,21.7s-.06,16.17.1,21.73c.08,2.73.15,5,.2,6.58,0,.73,0,1.32,0,1.79a3.15,3.15,0,0,1,0,.63,2.69,2.69,0,0,1-.09-.62c0-.47-.08-1.06-.14-1.79-.12-1.55-.25-3.8-.37-6.58-.25-5.56-.42-13.25-.25-21.75s.64-16.17,1.11-21.72c.23-2.77.45-5,.63-6.56.09-.72.16-1.31.22-1.78A2.38,2.38,0,0,1,360.23,324.4Z" style="fill:#263238"></path><path d="M317.94,305.73h0a18.6,18.6,0,0,1-17.11-21.92l1.91-10.41s-2.48-.66-1.95-14.25,1.07-36.69,1.07-36.69h0A47.24,47.24,0,0,1,349,230.84l1.93,1.65-13.66,58.88A18.59,18.59,0,0,1,317.94,305.73Z" style="fill:#ffbe9d"></path><path d="M345.81,249c.23-.09,9.47-2.28,8.7,7s-9.92,6.58-9.91,6.31S345.81,249,345.81,249Z" style="fill:#ffbe9d"></path><path d="M302.3,244.81c-.22-.11-8.38-2.77-8.56,6.53s9.19,7.56,9.22,7.29S302.3,244.81,302.3,244.81Z" style="fill:#ffbe9d"></path><path d="M348.87,248.09c-1.79,7.71-1.72,11.81-3.27,16.94-2.45,8.12-6.85,14.21-14.47,17.94s-17.63,3.14-23.71-2.77c-4.21-4.1-7.12-8.65-7.48-14.52s-.48-16.25-.23-22.13c.47-10.6.28-20.77.28-20.77l30.56-3.94L347.25,230Z" style="fill:#263238"></path><path d="M315.58,286.88c-.06.21,2.29.92,5.28.74s5.24-1.15,5.16-1.36-2.35.35-5.21.51S315.62,286.63,315.58,286.88Z" style="fill:#263238"></path><path d="M346.73,261.24c1.29-7.93,2.33-17,4-25.36.63-3.13,2-7.62,1.86-10.81s-.25-6.49-1.51-9.43a13.13,13.13,0,0,0-20.23-5.15,9.84,9.84,0,0,0-18.13,3.23A6.83,6.83,0,0,0,301.12,220a6.67,6.67,0,0,0-5,10c1.29,2.23,3.76,3.55,5.2,5.69a7.77,7.77,0,0,1,0,8.4" style="fill:#263238"></path><path d="M306.15,230.29a2.1,2.1,0,0,0,.29.89,6.22,6.22,0,0,0,1.66,2.07A6.35,6.35,0,0,0,312,234.7a6.77,6.77,0,0,0,5-2l-.63-.21a6.33,6.33,0,0,0,3.82,4.85,7.25,7.25,0,0,0,6.87-.51,10.21,10.21,0,0,0,4.09-4.84l-.73,0a8.52,8.52,0,0,0,6.66,4.11,7.93,7.93,0,0,0,5.89-2.06,8.13,8.13,0,0,0,2.27-3.45,3.33,3.33,0,0,0,.25-1.46c-.06,0-.15.5-.52,1.36a8.37,8.37,0,0,1-2.34,3.15,7.46,7.46,0,0,1-5.49,1.75,7.9,7.9,0,0,1-6-3.81l-.41-.72-.33.77a9.51,9.51,0,0,1-3.77,4.42,6.48,6.48,0,0,1-6.1.5,5.61,5.61,0,0,1-3.42-4.2l-.1-.78-.53.57a6.15,6.15,0,0,1-4.43,1.93,6.08,6.08,0,0,1-3.62-1.18A8.64,8.64,0,0,1,306.15,230.29Z" style="fill:#455a64"></path><path d="M306.39,226.61a8.5,8.5,0,0,1,1.47-3.31,5.49,5.49,0,0,1,3.29-2,5.73,5.73,0,0,1,4.57,1.12l.71.56,0-.91a6.85,6.85,0,0,1,.45-2.65,7.25,7.25,0,0,1,3.94-4.14,7.09,7.09,0,0,1,4.74-.18,10.17,10.17,0,0,1,3.83,2.42,2.72,2.72,0,0,0-.7-1.07,7.62,7.62,0,0,0-8.16-1.9,7.92,7.92,0,0,0-4.45,4.57,7.6,7.6,0,0,0-.48,3l.67-.35A6.4,6.4,0,0,0,311,220.6a5.94,5.94,0,0,0-3.59,2.37,5.84,5.84,0,0,0-1.06,2.62A2,2,0,0,0,306.39,226.61Z" style="fill:#455a64"></path><path d="M325.69,227.87c.12-.05,0-.53.09-1.28a6,6,0,0,1,1.08-2.69,29.32,29.32,0,0,1,1.88-2.37.88.88,0,0,1,1-.14s0-.21-.19-.39a1,1,0,0,0-1.14,0,6.82,6.82,0,0,0-1.1,1,11.77,11.77,0,0,0-1.13,1.38,5.13,5.13,0,0,0-1,3.16C325.25,227.46,325.59,227.91,325.69,227.87Z" style="fill:#455a64"></path><path d="M344.24,217.11c.1,0,0-.72-.48-1.72a4.58,4.58,0,0,0-1.3-1.53,3.69,3.69,0,0,0-2.44-.66,5.88,5.88,0,0,0-3.79,2.12c-.72.82-1.06,1.39-1,1.47s.6-.36,1.4-1a6.33,6.33,0,0,1,3.44-1.7,3.53,3.53,0,0,1,3.17,1.66C343.85,216.54,344.12,217.16,344.24,217.11Z" style="fill:#455a64"></path><path d="M337.52,256.24c.17.13,2.11-2.26,3.5-5.76s1.68-6.56,1.46-6.58-.87,2.88-2.25,6.26S337.31,256.1,337.52,256.24Z" style="fill:#455a64"></path><path d="M333.35,258.26c.2.11,1.4-1.68,2.46-4.11s1.56-4.52,1.34-4.59-1.08,1.87-2.12,4.25S333.14,258.14,333.35,258.26Z" style="fill:#455a64"></path><path d="M307.8,257.59c-.2-.06-.81,3.77.63,8.21s4.14,7.21,4.27,7.05-2.12-3-3.46-7.31S308.07,257.59,307.8,257.59Z" style="fill:#455a64"></path><path d="M304.08,250.61c-.18-.11-1.53,3.15-1,7.32s2.66,7,2.81,6.83-1.48-3-2-6.94S304.34,250.67,304.08,250.61Z" style="fill:#455a64"></path><path d="M353.06,223.1c-.05,0,0-.85-.15-2.39a14.81,14.81,0,0,0-2.26-6.15,14.6,14.6,0,0,0-3.06-3.41,13.3,13.3,0,0,0-4.71-2.42,14.49,14.49,0,0,0-11.9,1.84l-.22.15-.14-.23a9.82,9.82,0,0,0-6.79-4.47,9.14,9.14,0,0,0-6.9,1.71,9.77,9.77,0,0,0-3.75,5.57l-.08.34-.29-.19a7.89,7.89,0,0,0-8.93.33,8,8,0,0,0-3.07,6.68v.14l-.13,0a6.87,6.87,0,0,0-3.05,1.48,7.29,7.29,0,0,0-1.63,2,10.75,10.75,0,0,0-.79,2,5.11,5.11,0,0,1,.65-2.07,7,7,0,0,1,1.61-2.06,6.92,6.92,0,0,1,3.15-1.61l-.13.17A8.17,8.17,0,0,1,313.08,213l-.37.15a10.29,10.29,0,0,1,7.32-7.51,9.55,9.55,0,0,1,3.88-.18,10.35,10.35,0,0,1,7.15,4.73l-.37-.08A14.88,14.88,0,0,1,343,208.31a13.41,13.41,0,0,1,4.83,2.54,14.64,14.64,0,0,1,5.26,9.84A9.91,9.91,0,0,1,353.06,223.1Z" style="fill:#FF725E"></path><path d="M327.91,219.53c-.05.07-.58-.26-1.52-.52a6.45,6.45,0,0,0-3.72.12,6.35,6.35,0,0,0-3,2.24c-.58.79-.78,1.38-.86,1.35a2.78,2.78,0,0,1,.56-1.56,5.94,5.94,0,0,1,7.11-2.5C327.47,219,328,219.48,327.91,219.53Z" style="fill:#FF725E"></path><path d="M340.71,222.07c-.08,0-.16-.32-.43-.77a3,3,0,0,0-1.5-1.25,3,3,0,0,0-1.95,0c-.5.17-.77.39-.82.33s.14-.37.66-.67a2.86,2.86,0,0,1,2.28-.19,2.82,2.82,0,0,1,1.65,1.58C340.83,221.69,340.77,222.07,340.71,222.07Z" style="fill:#FF725E"></path><path d="M354.15,255.87a6.4,6.4,0,0,1-.31-1.51,8.5,8.5,0,0,0-1.26-3.33,4.68,4.68,0,0,0-2.87-1.89,11.39,11.39,0,0,0-1.49,0s.52-.41,1.53-.33a4.54,4.54,0,0,1,3.25,1.95,7.27,7.27,0,0,1,1.2,3.58A3.57,3.57,0,0,1,354.15,255.87Z" style="fill:#FF725E"></path></g><g id="freepik--Table--inject-18"><path d="M609.48,466.23c0,.14-96.92.26-216.44.26s-216.47-.12-216.47-.26S273.47,466,393,466,609.48,466.08,609.48,466.23Z" style="fill:#263238"></path></g></svg>