<svg xmlns="http://www.w3.org/2000/svg" viewBox="0 0 500 500"><g id="freepik--background-simple--inject-3"><path d="M97.67,149.33c40.91-10.59,98.9,75.39,139,62,37.63-12.54,35.82-100.61,68.57-123,23.38-16,74.54-4.24,107.09,37,31.07,39.32,59.73,167.75,20.86,199.38-29.56,24.05-115.29-36.8-150.7-22.73-16.93,6.73-71.74,94.53-124.65,100.37S52.52,368.49,44.6,312.73C32.89,230.31,56.09,160.1,97.67,149.33Z" style="fill:#407BFF"></path><path d="M97.67,149.33c40.91-10.59,98.9,75.39,139,62,37.63-12.54,35.82-100.61,68.57-123,23.38-16,74.54-4.24,107.09,37,31.07,39.32,59.73,167.75,20.86,199.38-29.56,24.05-115.29-36.8-150.7-22.73-16.93,6.73-71.74,94.53-124.65,100.37S52.52,368.49,44.6,312.73C32.89,230.31,56.09,160.1,97.67,149.33Z" style="fill:#fff;opacity:0.9"></path></g><g id="freepik--Shadow--inject-3"><ellipse id="freepik--path--inject-3" cx="245.18" cy="412.39" rx="193.89" ry="11.32" style="fill:#f5f5f5"></ellipse></g><g id="freepik--Dress--inject-3"><path d="M280.29,411a.74.74,0,0,0,.3-1.42c-5-2.21-14.1-6.6-16.1-10.11-4-7-2.9-32.38-2.9-32.38h-5.14s1.11,25.34-2.9,32.38c-2,3.51-11.09,7.9-16.1,10.11a.74.74,0,0,0,.3,1.42Z" style="fill:#263238"></path><path d="M280.29,411a.74.74,0,0,0,.3-1.42c-5-2.21-14.1-6.6-16.1-10.11-4-7-2.9-32.38-2.9-32.38h-5.14s1.11,25.34-2.9,32.38c-2,3.51-11.09,7.9-16.1,10.11a.74.74,0,0,0,.3,1.42Z" style="fill:#fff;opacity:0.8"></path><path d="M264.73,180.48c-1.77-2.31-1.56-11.55-1.56-11.55h-8.3s.21,9.24-1.56,11.55c-2.24,3-13.65,5.78-13.65,5.78l10.71,6.09h17.3l10.71-6.09S267,183.43,264.73,180.48Z" style="fill:#263238"></path><path d="M264.73,180.48c-1.77-2.31-1.56-11.55-1.56-11.55h-8.3s.21,9.24-1.56,11.55c-2.24,3-13.65,5.78-13.65,5.78l10.71,6.09h17.3l10.71-6.09S267,183.43,264.73,180.48Z" style="fill:#fff;opacity:0.8"></path><path d="M269.37,160.16c0,9.27-3.91,16.79-10.35,16.79s-10.35-7.52-10.35-16.79S252.58,146,259,146,269.37,150.88,269.37,160.16Z" style="fill:#263238"></path><path d="M269.37,160.16c0,9.27-3.91,16.79-10.35,16.79s-10.35-7.52-10.35-16.79S252.58,146,259,146,269.37,150.88,269.37,160.16Z" style="fill:#fff;opacity:0.9"></path><path d="M260.05,174.3c-6.55,0-10.72-7.08-11.3-16.22-.05.67-.08,1.35-.08,2.08,0,9.27,3.91,16.79,10.35,16.79,3.81,0,6.72-2.64,8.47-6.7A9.16,9.16,0,0,1,260.05,174.3Z" style="opacity:0.1"></path><path d="M259.53,381.53c10.82,3.51,17.35-.81,17.35-.81,14.88,2.7,18.26-2.25,18.26-2.25,11.05,1.35,15-4.74,15-4.74-.9-22.09-2.79-44.3-2.79-44.3l-47.79,8.23-47.8-8.23s-1.89,22.21-2.79,44.3c0,0,3.92,6.09,15,4.74,0,0,3.38,4.95,18.26,2.25C242.17,380.72,248.7,385,259.53,381.53Z" style="fill:#407BFF"></path><path d="M259.53,381.53c10.82,3.51,17.35-.81,17.35-.81,14.88,2.7,18.26-2.25,18.26-2.25,11.05,1.35,15-4.74,15-4.74-.9-22.09-2.79-44.3-2.79-44.3l-47.79,8.23-47.8-8.23s-1.89,22.21-2.79,44.3c0,0,3.92,6.09,15,4.74,0,0,3.38,4.95,18.26,2.25C242.17,380.72,248.7,385,259.53,381.53Z" style="fill:#fff;opacity:0.9"></path><path d="M259.49,344.74c9.79,3.17,15.7-.73,15.7-.73,13.46,2.44,16.52-2,16.52-2A22.09,22.09,0,0,0,308,337.68a260.66,260.66,0,0,0-5.3-40.07l-43.24,7.44-43.24-7.44a260.66,260.66,0,0,0-5.3,40.07A22.06,22.06,0,0,0,227.27,342s3.06,4.48,16.52,2C243.79,344,249.7,347.91,259.49,344.74Z" style="fill:#407BFF"></path><path d="M259.49,344.74c9.79,3.17,15.7-.73,15.7-.73,13.46,2.44,16.52-2,16.52-2A22.09,22.09,0,0,0,308,337.68a260.66,260.66,0,0,0-5.3-40.07l-43.24,7.44-43.24-7.44a260.66,260.66,0,0,0-5.3,40.07A22.06,22.06,0,0,0,227.27,342s3.06,4.48,16.52,2C243.79,344,249.7,347.91,259.49,344.74Z" style="fill:#fff;opacity:0.8"></path><path d="M275.6,242.65H243.38s-23,25.9-29.57,66.89c0,0,4.34,10.16,14.74,2,0,0,6.2,10.75,15.74,3,0,0,9.59,5.61,15.2,0,5.61,5.61,15.19-1,15.19-1,9.55,7.75,15.75-2,15.75-2,10.4,8.16,14.74-2,14.74-2C298.65,268.55,275.6,242.65,275.6,242.65Z" style="fill:#407BFF"></path><path d="M275.6,242.65H243.38s-23,25.9-29.57,66.89c0,0,4.34,10.16,14.74,2,0,0,6.2,10.75,15.74,3,0,0,9.59,5.61,15.2,0,5.61,5.61,15.19-1,15.19-1,9.55,7.75,15.75-2,15.75-2,10.4,8.16,14.74-2,14.74-2C298.65,268.55,275.6,242.65,275.6,242.65Z" style="fill:#fff;opacity:0.7000000000000001"></path><path d="M282.53,205.33c-1.63-11.46,0-18.77,0-18.77l-3.87-1.22c-6.93,5.71-14.22,4.9-19.17,4.9s-12.24.81-19.17-4.9l-3.88,1.22s1.64,7.31,0,18.77c-.81,5.71-4.69,8.77,6.12,35.28h33.86C287.22,214.1,283.35,211,282.53,205.33Z" style="fill:#407BFF"></path><path d="M282.53,205.33c-1.63-11.46,0-18.77,0-18.77l-3.87-1.22c-6.93,5.71-14.22,4.9-19.17,4.9s-12.24.81-19.17-4.9l-3.88,1.22s1.64,7.31,0,18.77c-.81,5.71-4.69,8.77,6.12,35.28h33.86C287.22,214.1,283.35,211,282.53,205.33Z" style="fill:#fff;opacity:0.7000000000000001"></path><path d="M259.49,243.8h17.64a7.66,7.66,0,0,0,.82-2,7.66,7.66,0,0,0-.82-2H241.85a7.66,7.66,0,0,0-.82,2,7.66,7.66,0,0,0,.82,2Z" style="fill:#263238"></path><path d="M259.49,200c-5.29,0-15.7-10-20.6,4.9,0,0,8.42-8,18.84-1.28a3.21,3.21,0,0,0,3.52,0c10.42-6.77,18.84,1.28,18.84,1.28C275.19,190,264.78,200,259.49,200Z" style="opacity:0.1"></path><path d="M254,189.67c1.48-1.43,4.29-2.06,5.56-.74s.53,4.11-1,5.53-2.56.41-3.84-.92S252.47,191.09,254,189.67Z" style="fill:#407BFF"></path><path d="M254,189.67c1.48-1.43,4.29-2.06,5.56-.74s.53,4.11-1,5.53-2.56.41-3.84-.92S252.47,191.09,254,189.67Z" style="opacity:0.2"></path><path d="M256.85,194.22s0-1.79-2.33-3.62C254.52,190.6,259.74,192.23,256.85,194.22Z" style="fill:#407BFF"></path><path d="M255.76,193.51s-1.23-1.07-.72-1.52c0,0-.92-1-1.25-.51S255.76,193.51,255.76,193.51Z" style="fill:#407BFF"></path><path d="M256.85,194.22s0-1.79-2.33-3.62C254.52,190.6,259.74,192.23,256.85,194.22Z" style="opacity:0.4"></path><path d="M255.76,193.51s-1.23-1.07-.72-1.52c0,0-.92-1-1.25-.51S255.76,193.51,255.76,193.51Z" style="opacity:0.4"></path><path d="M262.08,194.61c-1.46-1.45-2.16-4.25-.86-5.55s4.09-.63,5.55.82.46,2.56-.83,3.86S263.54,196.05,262.08,194.61Z" style="fill:#407BFF"></path><path d="M262.08,194.61c-1.46-1.45-2.16-4.25-.86-5.55s4.09-.63,5.55.82.46,2.56-.83,3.86S263.54,196.05,262.08,194.61Z" style="opacity:0.1"></path><path d="M266.56,191.6s-1.78.05-3.56,2.41C263,194,264.51,188.76,266.56,191.6Z" style="fill:#407BFF"></path><path d="M265.89,192.71s-1.05,1.26-1.51.76c0,0-1,.94-.48,1.25S265.89,192.71,265.89,192.71Z" style="fill:#407BFF"></path><path d="M266.56,191.6s-1.78.05-3.56,2.41C263,194,264.51,188.76,266.56,191.6Z" style="opacity:0.30000000000000004"></path><path d="M265.89,192.71s-1.05,1.26-1.51.76c0,0-1,.94-.48,1.25S265.89,192.71,265.89,192.71Z" style="opacity:0.30000000000000004"></path><path d="M257,193.19c.26-2,2.05-4.3,3.88-4.07s3,2.87,2.72,4.91-1.75,1.92-3.57,1.69S256.74,195.23,257,193.19Z" style="fill:#407BFF"></path><path d="M262.11,194.91s-1.13-1.38-4.08-1.36C258,193.55,263.11,191.56,262.11,194.91Z" style="fill:#407BFF"></path><path d="M260.82,195.05s-1.64-.07-1.52-.73c0,0-1.35-.22-1.29.38S260.82,195.05,260.82,195.05Z" style="fill:#407BFF"></path><path d="M262.11,194.91s-1.13-1.38-4.08-1.36C258,193.55,263.11,191.56,262.11,194.91Z" style="opacity:0.2"></path><path d="M260.82,195.05s-1.64-.07-1.52-.73c0,0-1.35-.22-1.29.38S260.82,195.05,260.82,195.05Z" style="opacity:0.2"></path><path d="M241.36,232.79c1.74,1.81,2.51,5.23.89,6.78s-5,.64-6.74-1.17-.49-3.13,1.13-4.68S239.63,231,241.36,232.79Z" style="fill:#407BFF"></path><path d="M241.36,232.79c1.74,1.81,2.51,5.23.89,6.78s-5,.64-6.74-1.17-.49-3.13,1.13-4.68S239.63,231,241.36,232.79Z" style="opacity:0.2"></path><path d="M235.81,236.31s2.18,0,4.42-2.83C240.23,233.48,238.23,239.83,235.81,236.31Z" style="fill:#407BFF"></path><path d="M236.67,235s1.32-1.5,1.85-.87c0,0,1.24-1.12.63-1.52S236.67,235,236.67,235Z" style="fill:#407BFF"></path><path d="M235.81,236.31s2.18,0,4.42-2.83C240.23,233.48,238.23,239.83,235.81,236.31Z" style="opacity:0.4"></path><path d="M236.67,235s1.32-1.5,1.85-.87c0,0,1.24-1.12.63-1.52S236.67,235,236.67,235Z" style="opacity:0.4"></path><path d="M235.54,243.22c1.76-1.77,5.17-2.62,6.76-1.05s.75,5-1,6.77-3.11.56-4.7-1S233.77,245,235.54,243.22Z" style="fill:#407BFF"></path><path d="M235.54,243.22c1.76-1.77,5.17-2.62,6.76-1.05s.75,5-1,6.77-3.11.56-4.7-1S233.77,245,235.54,243.22Z" style="opacity:0.1"></path><path d="M239.19,248.69s-.06-2.18-2.93-4.35C236.26,244.34,242.65,246.19,239.19,248.69Z" style="fill:#407BFF"></path><path d="M237.84,247.86s-1.53-1.28-.92-1.83c0,0-1.15-1.21-1.53-.59S237.84,247.86,237.84,247.86Z" style="fill:#407BFF"></path><path d="M239.19,248.69s-.06-2.18-2.93-4.35C236.26,244.34,242.65,246.19,239.19,248.69Z" style="opacity:0.30000000000000004"></path><path d="M237.84,247.86s-1.53-1.28-.92-1.83c0,0-1.15-1.21-1.53-.59S237.84,247.86,237.84,247.86Z" style="opacity:0.30000000000000004"></path><path d="M236.17,236.69c2.49.32,5.23,2.51,5,4.73s-3.5,3.63-6,3.31-2.34-2.13-2-4.35S233.68,236.37,236.17,236.69Z" style="fill:#407BFF"></path><path d="M234.06,242.92s1.69-1.38,1.66-5C235.72,237.94,238.15,244.14,234.06,242.92Z" style="fill:#407BFF"></path><path d="M233.89,241.34s.09-2,.89-1.84c0,0,.27-1.65-.46-1.57S233.89,241.34,233.89,241.34Z" style="fill:#407BFF"></path><path d="M234.06,242.92s1.69-1.38,1.66-5C235.72,237.94,238.15,244.14,234.06,242.92Z" style="opacity:0.2"></path><path d="M233.89,241.34s.09-2,.89-1.84c0,0,.27-1.65-.46-1.57S233.89,241.34,233.89,241.34Z" style="opacity:0.2"></path><path d="M240.89,236.34c2.36.85,4.57,3.57,3.82,5.68s-4.2,2.8-6.56,1.95-1.83-2.58-1.07-4.69S238.53,235.5,240.89,236.34Z" style="fill:#407BFF"></path><path d="M240.89,236.34c2.36.85,4.57,3.57,3.82,5.68s-4.2,2.8-6.56,1.95-1.83-2.58-1.07-4.69S238.53,235.5,240.89,236.34Z" style="opacity:0.1"></path><path d="M237.49,242s1.95-1,2.69-4.5C240.18,237.47,241.23,244,237.49,242Z" style="fill:#407BFF"></path><path d="M237.67,240.4s.51-1.93,1.26-1.61c0,0,.62-1.56-.11-1.64S237.67,240.4,237.67,240.4Z" style="fill:#407BFF"></path><path d="M237.49,242s1.95-1,2.69-4.5C240.18,237.47,241.23,244,237.49,242Z" style="opacity:0.30000000000000004"></path><path d="M237.67,240.4s.51-1.93,1.26-1.61c0,0,.62-1.56-.11-1.64S237.67,240.4,237.67,240.4Z" style="opacity:0.30000000000000004"></path></g><g id="freepik--character-2--inject-3"><path d="M417.73,201.52h-1.41v-6.58a4.43,4.43,0,0,1,2.3-3.93,3.66,3.66,0,0,0,1.59-1.64,3.51,3.51,0,1,0-6.66-2,.58.58,0,0,1-.58.49h-.24a.6.6,0,0,1-.58-.69,4.93,4.93,0,1,1,7.17,5.05,3,3,0,0,0-1.59,2.7Z" style="fill:#407BFF"></path><path d="M406.63,198.39c0,1.48,4.6.75,10.26.75s10.26.73,10.26-.75l-8.43,42.76h-3.65Z" style="fill:#407BFF"></path><path d="M406.63,198.39c0,1.48,4.6.75,10.26.75s10.26.73,10.26-.75l-8.43,42.76h-3.65Z" style="fill:#fff;opacity:0.8"></path><path d="M451.84,283.21v5a25.47,25.47,0,0,0-8.87-.81v-5.07Z" style="fill:#407BFF"></path><path d="M451.84,283.21v5a25.47,25.47,0,0,0-8.87-.81v-5.07Z" style="fill:#fff;opacity:0.8"></path><path d="M426.46,197.81s-11.12,37.06-11.12,57.52S423.23,294,423.23,294s11.28,3.71,16.76-2.42c0,0-3.7-40-1.45-56.88,0,0,3.22,20.14,3.06,49.63,0,0,6-2.09,11.28,1,0,0-.32-31.91-2.74-58.5S444,204.73,444,204.73Z" style="fill:#407BFF"></path><path d="M426.46,197.81s-11.12,37.06-11.12,57.52S423.23,294,423.23,294s11.28,3.71,16.76-2.42c0,0-3.7-40-1.45-56.88,0,0,3.22,20.14,3.06,49.63,0,0,6-2.09,11.28,1,0,0-.32-31.91-2.74-58.5S444,204.73,444,204.73Z" style="opacity:0.7000000000000001"></path><circle cx="449.9" cy="285.79" r="0.85" style="fill:#263238"></circle><path d="M417.17,237.16a373.37,373.37,0,0,1,9.29-39.35l1.28.5,4.76,10.29-2.74,1.86,4.35-.57Z" style="fill:#407BFF"></path><path d="M428.79,265.24l9.49,1.5c.12,2.41.25,4.77.38,7L431,272.62a3.17,3.17,0,0,1-2.69-3.54Z" style="fill:#407BFF"></path><path d="M382.22,283.21v5a25.44,25.44,0,0,1,8.86-.81v-5.07Z" style="fill:#407BFF"></path><path d="M382.22,283.21v5a25.44,25.44,0,0,1,8.86-.81v-5.07Z" style="fill:#fff;opacity:0.8"></path><path d="M407.6,197.81s11.12,37.06,11.12,57.52-7.9,38.68-7.9,38.68-11.28,3.71-16.75-2.42c0,0,3.7-40,1.45-56.88,0,0-3.23,20.14-3.07,49.63,0,0-6-2.09-11.28,1,0,0,.33-31.91,2.74-58.5S390,204.73,390,204.73Z" style="fill:#407BFF"></path><path d="M407.6,197.81s11.12,37.06,11.12,57.52-7.9,38.68-7.9,38.68-11.28,3.71-16.75-2.42c0,0,3.7-40,1.45-56.88,0,0-3.23,20.14-3.07,49.63,0,0-6-2.09-11.28,1,0,0,.33-31.91,2.74-58.5S390,204.73,390,204.73Z" style="opacity:0.7000000000000001"></path><circle cx="384.16" cy="285.79" r="0.85" style="fill:#263238"></circle><path d="M416.89,237.16a373.37,373.37,0,0,0-9.29-39.35l-1.28.5-4.76,10.29,2.74,1.86-4.35-.57Z" style="fill:#407BFF"></path><path d="M405.27,265.24l-9.49,1.5c-.12,2.41-.25,4.77-.39,7l7.67-1.12a3.17,3.17,0,0,0,2.7-3.54Z" style="fill:#407BFF"></path><circle cx="415.98" cy="251.95" r="0.91" style="fill:#407BFF"></circle><path d="M413.36,205.11a9.73,9.73,0,0,1-2,.5.81.81,0,0,1-.93-1,13.25,13.25,0,0,0,.41-2.37,13.55,13.55,0,0,0-.41-2.37.81.81,0,0,1,.93-1,11.26,11.26,0,0,1,2,.5,28.24,28.24,0,0,1,3.68,2.85A27.38,27.38,0,0,1,413.36,205.11Z" style="fill:#263238"></path><path d="M420.7,205.11a9.78,9.78,0,0,0,2,.5.8.8,0,0,0,.93-1,14.22,14.22,0,0,1-.41-2.37,14.57,14.57,0,0,1,.41-2.37.81.81,0,0,0-.93-1,11.35,11.35,0,0,0-2,.5,28.24,28.24,0,0,0-3.68,2.85A27.38,27.38,0,0,0,420.7,205.11Z" style="fill:#263238"></path><path d="M419.08,203.76a.46.46,0,0,1-.54.55,10.47,10.47,0,0,0-1.52-.21,10,10,0,0,0-1.48.21.46.46,0,0,1-.54-.53,11.83,11.83,0,0,0,.2-1.52,10.06,10.06,0,0,0-.2-1.5.47.47,0,0,1,.54-.54,10,10,0,0,0,1.48.22,12.32,12.32,0,0,0,1.52-.21.45.45,0,0,1,.53.54,9.42,9.42,0,0,0-.23,1.49A9.52,9.52,0,0,0,419.08,203.76Z" style="fill:#263238"></path><polygon points="340.36 383.2 338.11 399.57 329.6 397.72 330.84 382.77 340.36 383.2" style="fill:#ffc3bd"></polygon><path d="M328.21,396.44l10.88,1.49a.89.89,0,0,1,.76.8l.75,9.12a1.46,1.46,0,0,1-1.33,1.59H339c-3.91-.61-7.37-1.3-12.25-2-5.76-.79-4.39.1-11.18-.73-4.08-.51-4.19-5.25-2.43-5.24,8,.09,9.2-2.19,12.64-4.6A3.57,3.57,0,0,1,328.21,396.44Z" style="fill:#263238"></path><polygon points="340 385.78 339.16 391.91 330.18 390.81 330.59 385.84 340 385.78" style="opacity:0.1"></polygon><polygon points="379.97 382.9 380.18 399.42 371.49 398.85 370.5 383.88 379.97 382.9" style="fill:#ffc3bd"></polygon><path d="M369.93,397.8l11-.14a.87.87,0,0,1,.87.67l2.1,8.91a1.47,1.47,0,0,1-1.08,1.77,1.06,1.06,0,0,1-.31,0c-4,0-7.47-.19-12.4-.12-5.81.08-4.33.76-11.16.94-4.12.11-4.93-4.56-3.19-4.81,8-1.11,8.78-3.53,11.82-6.43A3.52,3.52,0,0,1,369.93,397.8Z" style="fill:#263238"></path><polygon points="380 385.5 380.08 391.69 371.03 391.93 370.7 386.96 380 385.5" style="opacity:0.1"></polygon><path d="M350.6,125.31s-2.52,1.57-5.74-.87c0,0,1,6.06,6.53,4.56l.45-2.76Z" style="fill:#263238"></path><path d="M332.73,232.59l-3.33,72.25-.85,83.65L341,389.9s5.1-28.85,6.86-54.84c.69-10.15,0-19.86-.05-27.24-.07-14.8,7.67-36.5,9.55-58.43l.29-16.8Z" style="fill:#407BFF"></path><path d="M352.81,255.2H347.9s-.67,23.94,1.34,39c1.66-9.41,4.39-20.18,6.32-31.39Z" style="opacity:0.2"></path><path d="M344.36,233.65l13.39,81.53,11.57,74.72h11.93s.8-27.61-.84-52.14c-.55-8.27-2.16-16.19-3.12-22.58-3.12-20.77.67-63.2-5-83.88Z" style="fill:#407BFF"></path><path d="M302.39,191.79c4.68,4,13.79,11.23,17.77,10.43,5.48-1.1,13-15.82,13-15.82s10.64-22.26,5.32-21.94c0,0-4.38-1.87-20.36,26.48a51.78,51.78,0,0,1-12.3-5.1Z" style="fill:#263238"></path><path d="M331.91,233.73s-4.08-64.54,5-68.92,32.58-2.2,38.22,1.88-1.57,67-1.57,67S346.63,238.11,331.91,233.73Z" style="fill:#263238"></path><path d="M305.45,186c-.85-.48-1.72-1-2.59-1.6L298.47,181l-7-2.53L289,181.41l.8,3.86.95,1.88,3.31.78,3.47,1.6,2.53-.66s1,.89,2.47,2.18Z" style="fill:#ffc3bd"></path><polygon points="305.36 184.36 301.07 192.06 303.06 193.59 307.47 185.71 305.36 184.36" style="fill:#407BFF"></polygon><path d="M408,192.41c-5.18,3.73-15.32,10.64-19.4,10.68-5.94.06-12.21-14.41-12.21-14.41s-9.71-24.54-4.23-23.35c3.07.67,2.5-1.87,18.48,26.48a55.16,55.16,0,0,0,14.14-5.12Z" style="fill:#263238"></path><path d="M405.08,187c.88-.48,1.77-1,2.62-1.58l4.4-3.38s5.23-3,7-2.53c.91.25,2.18,2,2.41,2.93s-.8,3.86-.8,3.86l-.95,1.88-3.31.78-3.46,1.6-2.53-.66s-1.05.8-2.68,2Z" style="fill:#ffc3bd"></path><polygon points="405.29 185.08 409.57 192.77 407.58 194.3 403.17 186.43 405.29 185.08" style="fill:#407BFF"></polygon><path d="M362.2,146.92c-1.11,5-2.12,13.12,1.9,15.92,2.58,1.79,5.87,3-11.73,6-7.65-2.75-4.77-6.34-4.77-6.34,5.7-1.22,5.6-3.52,4.71-7.49Z" style="fill:#ffc3bd"></path><path d="M358.18,150.16,352.37,155a15.52,15.52,0,0,1,.42,2.8c2.18-.26,5.62-2,6.14-4.36A6.85,6.85,0,0,0,358.18,150.16Z" style="opacity:0.2;isolation:isolate"></path><path d="M367.54,139.34c-2.32,7.79-3.14,11.13-8.07,14.25-7.43,4.7-16.48.13-16.54-8.19,0-7.49,3.78-19,12.25-20.3a11.08,11.08,0,0,1,12.36,14.24Z" style="fill:#ffc3bd"></path><path d="M354.47,138.47c-.16.64-.62,1.09-1,1s-.65-.7-.5-1.34.62-1.09,1-1S354.58,137.85,354.47,138.47Z" style="fill:#263238"></path><path d="M347.2,136.79c-.15.66-.62,1.09-1,1s-.64-.71-.5-1.35.62-1.08,1-1S347.35,136.15,347.2,136.79Z" style="fill:#263238"></path><path d="M349.17,138.48a17.29,17.29,0,0,1-3.26,3.57,2.89,2.89,0,0,0,2.2,1Z" style="fill:#ed893e"></path><path d="M351,146.35a6.31,6.31,0,0,1-1-.15.2.2,0,0,1-.15-.23h0a.19.19,0,0,1,.24-.14,5.24,5.24,0,0,0,4.62-1,.19.19,0,0,1,.27,0,.18.18,0,0,1,0,.27A5.38,5.38,0,0,1,351,146.35Z" style="fill:#263238"></path><path d="M357.73,137.69a.38.38,0,0,1-.35-.29,4.6,4.6,0,0,0-2.58-2.61.39.39,0,0,1-.23-.5.38.38,0,0,1,.49-.23h0a5.32,5.32,0,0,1,3.06,3.15.38.38,0,0,1-.29.46h0A.17.17,0,0,1,357.73,137.69Z" style="fill:#263238"></path><path d="M345.8,132.93a.4.4,0,0,1-.33-.22.4.4,0,0,1,.18-.52,3.81,3.81,0,0,1,3.58,0,.37.37,0,0,1,.15.5l0,0a.39.39,0,0,1-.52.14h0a3.12,3.12,0,0,0-2.81,0A.37.37,0,0,1,345.8,132.93Z" style="fill:#263238"></path><path d="M347.88,162s.16,5.64,4.31,6.18,11.51-2.89,13.16-5.4l2,.55s-1.65,6.73-10.89,8.93l-4-3.06-4.93,2s-2.58-2.82-1.33-9.16Z" style="fill:#407BFF"></path><path d="M363.9,144.1a14.56,14.56,0,0,1,0-9.78s-16.23-4.41-16.72-12.73a7.3,7.3,0,0,0,4,1.88s-2.4-5.4,1.1-8.07c0,0-.49,4.73,3.58,5.79,0,0-.55-3.51,2.19-4.81,0,0,.17,4.24,2.61,4.89s9.38,4.73,8.65,8.48c0,0,3.59,6.52-2.37,14.35Z" style="fill:#263238"></path><path d="M368.05,130.26s4.73-1.26,4.33-4.8C372.38,125.46,375.82,132.38,368.05,130.26Z" style="fill:#263238"></path><path d="M368.28,145.92a5.84,5.84,0,0,1-3.63,2.56c-2,.42-2.89-1.4-2.23-3.23.61-1.65,2.37-3.86,4.33-3.49a2.62,2.62,0,0,1,2,3.12A2.67,2.67,0,0,1,368.28,145.92Z" style="fill:#ffc3bd"></path><path d="M296.21,164.65c-.44,3-3.17,6.37-5.88,6s-4.39-4.36-3.95-7.4,2.66-2.83,5.37-2.44S296.66,161.61,296.21,164.65Z" style="fill:#407BFF"></path><path d="M288.62,162s1.66,2.09,6.07,2.13C294.69,164.08,287.05,166.94,288.62,162Z" style="fill:#407BFF"></path><path d="M290.56,161.77s2.44.15,2.24,1.13c0,0,2,.36,1.94-.54S290.56,161.77,290.56,161.77Z" style="fill:#407BFF"></path><path d="M288.62,162s1.66,2.09,6.07,2.13C294.69,164.08,287.05,166.94,288.62,162Z" style="opacity:0.2"></path><path d="M290.56,161.77s2.44.15,2.24,1.13c0,0,2,.36,1.94-.54S290.56,161.77,290.56,161.77Z" style="opacity:0.2"></path><path d="M305.17,167.61c-1.2,2.83-4.68,5.36-7.21,4.29s-3.14-5.32-1.95-8.15,3.29-2.07,5.81-1S306.36,164.78,305.17,167.61Z" style="fill:#407BFF"></path><path d="M298.51,163.07s1.07,2.45,5.33,3.6C303.84,166.67,295.72,167.51,298.51,163.07Z" style="fill:#407BFF"></path><path d="M300.42,163.4s2.33.75,1.89,1.66c0,0,1.86.85,2,0S300.42,163.4,300.42,163.4Z" style="fill:#407BFF"></path><path d="M298.51,163.07s1.07,2.45,5.33,3.6C303.84,166.67,295.72,167.51,298.51,163.07Z" style="opacity:0.2"></path><path d="M300.42,163.4s2.33.75,1.89,1.66c0,0,1.86.85,2,0S300.42,163.4,300.42,163.4Z" style="opacity:0.2"></path><polygon points="283.6 167.2 287.17 183.6 281.11 194.47 283.36 195.55 288.33 187.31 286.23 196.68 288.43 197.17 289.77 191.15 290.04 197.53 293.42 197.81 293.04 189.73 294.92 196.96 298.35 196.65 295.33 185.06 304.5 171.89 301.28 170.63 298.08 177.04 299.71 169.73 296.44 169 294.48 176.23 294.28 168.51 291.59 167.91 291.46 176.04 288.68 167.26 283.6 167.2" style="fill:#407BFF"></polygon><polygon points="283.6 167.2 287.17 183.6 281.11 194.47 283.36 195.55 288.33 187.31 286.23 196.68 288.43 197.17 289.77 191.15 290.04 197.53 293.42 197.81 293.04 189.73 294.92 196.96 298.35 196.65 295.33 185.06 304.5 171.89 301.28 170.63 298.08 177.04 299.71 169.73 296.44 169 294.48 176.23 294.28 168.51 291.59 167.91 291.46 176.04 288.68 167.26 283.6 167.2" style="fill:#fff;opacity:0.5"></polygon><path d="M286.33,183s-5,1.91-6.89.12c0,0,1.22,1.93,2.19,2l-1.56.86s3.18,1,7.1-2.34Z" style="fill:#407BFF"></path><path d="M286.33,183s-5,1.91-6.89.12c0,0,1.22,1.93,2.19,2l-1.56.86s3.18,1,7.1-2.34Z" style="opacity:0.2"></path><path d="M295.78,182.89s3.66,3.84,6.18,3.05c0,0-1.94,1.22-2.84.87l1.05,1.44s-3.31-.44-5.42-5.14Z" style="fill:#407BFF"></path><path d="M295.78,182.89s3.66,3.84,6.18,3.05c0,0-1.94,1.22-2.84.87l1.05,1.44s-3.31-.44-5.42-5.14Z" style="opacity:0.2"></path><path d="M302.82,168.56c-.83,3-4,5.91-6.61,5.17s-3.79-4.89-3-7.85,3-2.46,5.64-1.72S303.64,165.6,302.82,168.56Z" style="fill:#407BFF"></path><path d="M302.82,168.56c-.83,3-4,5.91-6.61,5.17s-3.79-4.89-3-7.85,3-2.46,5.64-1.72S303.64,165.6,302.82,168.56Z" style="opacity:0.2"></path><path d="M295.64,164.9s1.37,2.29,5.74,2.9C301.38,167.8,293.43,169.65,295.64,164.9Z" style="fill:#407BFF"></path><path d="M297.57,165s2.41.45,2.09,1.41c0,0,1.95.61,2-.29S297.57,165,297.57,165Z" style="fill:#407BFF"></path><path d="M295.64,164.9s1.37,2.29,5.74,2.9C301.38,167.8,293.43,169.65,295.64,164.9Z" style="opacity:0.4"></path><path d="M297.57,165s2.41.45,2.09,1.41c0,0,1.95.61,2-.29S297.57,165,297.57,165Z" style="opacity:0.4"></path><path d="M292.84,165.79c0,3.07-2.15,6.78-4.89,6.81s-5-3.62-5.05-6.7,2.19-3.2,4.93-3.23S292.8,162.72,292.84,165.79Z" style="fill:#407BFF"></path><path d="M292.84,165.79c0,3.07-2.15,6.78-4.89,6.81s-5-3.62-5.05-6.7,2.19-3.2,4.93-3.23S292.8,162.72,292.84,165.79Z" style="opacity:0.2"></path><path d="M284.92,164.29s2,1.82,6.32,1.17C291.24,165.46,284.13,169.47,284.92,164.29Z" style="fill:#407BFF"></path><path d="M286.8,163.82s2.44-.24,2.4.77c0,0,2,0,1.83-.83S286.8,163.82,286.8,163.82Z" style="fill:#407BFF"></path><path d="M284.92,164.29s2,1.82,6.32,1.17C291.24,165.46,284.13,169.47,284.92,164.29Z" style="opacity:0.4"></path><path d="M286.8,163.82s2.44-.24,2.4.77c0,0,2,0,1.83-.83S286.8,163.82,286.8,163.82Z" style="opacity:0.4"></path><path d="M309.92,174.91c-2.08,2.27-6.2,3.49-8.23,1.63s-1.18-6.07.9-8.34,3.79-.84,5.81,1S312,172.65,309.92,174.91Z" style="fill:#407BFF"></path><path d="M309.92,174.91c-2.08,2.27-6.2,3.49-8.23,1.63s-1.18-6.07.9-8.34,3.79-.84,5.81,1S312,172.65,309.92,174.91Z" style="opacity:0.2"></path><path d="M305.17,168.41s.18,2.66,3.81,5.17C309,173.58,301.05,171.65,305.17,168.41Z" style="fill:#407BFF"></path><path d="M306.86,169.35s1.94,1.49,1.22,2.2c0,0,1.47,1.43,1.91.64S306.86,169.35,306.86,169.35Z" style="fill:#407BFF"></path><path d="M305.17,168.41s.18,2.66,3.81,5.17C309,173.58,301.05,171.65,305.17,168.41Z" style="opacity:0.4"></path><path d="M306.86,169.35s1.94,1.49,1.22,2.2c0,0,1.47,1.43,1.91.64S306.86,169.35,306.86,169.35Z" style="opacity:0.4"></path><path d="M298.48,172.4c-.83,3-4,5.91-6.61,5.17s-3.79-4.88-3-7.84,3-2.47,5.64-1.73S299.31,169.44,298.48,172.4Z" style="fill:#407BFF"></path><path d="M298.48,172.4c-.83,3-4,5.91-6.61,5.17s-3.79-4.88-3-7.84,3-2.47,5.64-1.73S299.31,169.44,298.48,172.4Z" style="opacity:0.1"></path><path d="M291.3,168.74s1.37,2.29,5.74,2.9C297,171.64,289.09,173.49,291.3,168.74Z" style="fill:#407BFF"></path><path d="M293.24,168.82s2.4.45,2.08,1.41c0,0,1.95.61,2-.29S293.24,168.82,293.24,168.82Z" style="fill:#407BFF"></path><path d="M291.3,168.74s1.37,2.29,5.74,2.9C297,171.64,289.09,173.49,291.3,168.74Z" style="opacity:0.30000000000000004"></path><path d="M293.24,168.82s2.4.45,2.08,1.41c0,0,1.95.61,2-.29S293.24,168.82,293.24,168.82Z" style="opacity:0.30000000000000004"></path><path d="M285.55,165.7c1.34,2.77.95,7.05-1.51,8.25s-6.08-1.14-7.43-3.9.61-3.83,3.08-5S284.21,162.94,285.55,165.7Z" style="fill:#407BFF"></path><path d="M285.55,165.7c1.34,2.77.95,7.05-1.51,8.25s-6.08-1.14-7.43-3.9.61-3.83,3.08-5S284.21,162.94,285.55,165.7Z" style="opacity:0.1"></path><path d="M277.75,167.73s2.55.8,6.22-1.64C284,166.09,279.25,172.74,277.75,167.73Z" style="fill:#407BFF"></path><path d="M279.25,166.5s2.1-1.25,2.5-.33c0,0,1.86-.83,1.29-1.53S279.25,166.5,279.25,166.5Z" style="fill:#407BFF"></path><path d="M277.75,167.73s2.55.8,6.22-1.64C284,166.09,279.25,172.74,277.75,167.73Z" style="opacity:0.30000000000000004"></path><path d="M279.25,166.5s2.1-1.25,2.5-.33c0,0,1.86-.83,1.29-1.53S279.25,166.5,279.25,166.5Z" style="opacity:0.30000000000000004"></path><path d="M307.09,174.15c-1,2.91-4.28,5.69-6.88,4.81s-3.52-5.09-2.53-8,3.12-2.3,5.72-1.41S308.07,171.24,307.09,174.15Z" style="fill:#407BFF"></path><path d="M300.12,170.11s1.24,2.36,5.57,3.2C305.69,173.31,297.66,174.73,300.12,170.11Z" style="fill:#407BFF"></path><path d="M302.05,170.29s2.37.59,2,1.52c0,0,1.92.72,2-.18S302.05,170.29,302.05,170.29Z" style="fill:#407BFF"></path><path d="M300.12,170.11s1.24,2.36,5.57,3.2C305.69,173.31,297.66,174.73,300.12,170.11Z" style="opacity:0.2"></path><path d="M302.05,170.29s2.37.59,2,1.52c0,0,1.92.72,2-.18S302.05,170.29,302.05,170.29Z" style="opacity:0.2"></path><polygon points="292.49 182.31 298.04 183.55 296.61 185.91 291.29 183.38 292.49 182.31" style="fill:#407BFF"></polygon><polygon points="292.49 182.31 298.04 183.55 296.61 185.91 291.29 183.38 292.49 182.31" style="opacity:0.1"></polygon><polygon points="285.7 181.57 298.6 182.06 297.85 183.18 291.87 184.06 285.08 184.34 285.7 181.57" style="fill:#407BFF"></polygon><path d="M291.55,168.47c.24,3.06-1.7,6.91-4.43,7.12s-5.24-3.29-5.48-6.35,2-3.35,4.71-3.56S291.31,165.4,291.55,168.47Z" style="fill:#407BFF"></path><path d="M283.55,167.49s2.08,1.69,6.39.75C289.94,168.24,283.11,172.71,283.55,167.49Z" style="fill:#407BFF"></path><path d="M285.4,166.9s2.41-.4,2.44.61c0,0,2-.09,1.77-.95S285.4,166.9,285.4,166.9Z" style="fill:#407BFF"></path><path d="M283.55,167.49s2.08,1.69,6.39.75C289.94,168.24,283.11,172.71,283.55,167.49Z" style="opacity:0.2"></path><path d="M285.4,166.9s2.41-.4,2.44.61c0,0,2-.09,1.77-.95S285.4,166.9,285.4,166.9Z" style="opacity:0.2"></path></g><g id="freepik--character-1--inject-3"><polygon points="187.59 387.61 187.99 400.99 195.01 400.23 195.29 388.08 187.59 387.61" style="fill:#ffb573"></polygon><path d="M196.24,399.33l-8.89.26a.71.71,0,0,0-.68.58l-1.39,7.28a1.18,1.18,0,0,0,.93,1.4l.25,0c3.21-.16,6-.42,10-.53,4.71-.14,3.53.46,9.07.37,3.34-.05,3.83-3.86,2.41-4-6.49-.62-7.22-2.55-9.79-4.79A2.86,2.86,0,0,0,196.24,399.33Z" style="fill:#263238"></path><polygon points="187.65 389.72 187.81 394.74 195.14 394.62 195.24 390.58 187.65 389.72" style="opacity:0.2"></polygon><polygon points="151.69 387.29 150.94 400.65 157.99 400.5 159.32 388.42 151.69 387.29" style="fill:#ffb573"></polygon><path d="M159.3,399.7l-8.88-.5a.71.71,0,0,0-.73.52l-2,7.14a1.18,1.18,0,0,0,.81,1.47l.25.05c3.2.12,6.06.1,10,.33,4.71.27,3.48.77,9,1.16,3.33.23,4.16-3.53,2.75-3.79-6.41-1.18-7-3.17-9.34-5.62A2.84,2.84,0,0,0,159.3,399.7Z" style="fill:#263238"></path><polygon points="151.57 389.4 151.29 394.4 158.61 394.92 159.05 390.9 151.57 389.4" style="opacity:0.2"></polygon><path d="M172.28,228h12.37s12.65,65.22,14.14,87.27c1.3,19.28-2,77.25-2,77.25H185.53s-1.88-29.28-3.18-52.27c-.5-8.86-.06-16.78-.65-21.73-2.5-20.69-20.59-53-16.3-81.75C165.4,236.78,164.86,228.07,172.28,228Z" style="fill:#263238"></path><path d="M172.28,265.53l-5.57-1.6c4.07,20.41,13.26,40.29,15,54.6C183.36,288,172.28,265.53,172.28,265.53Z" style="opacity:0.4"></path><path d="M153.53,228,179.7,228,170,323.28l-9.5,69.25-11.42-1S151,369.09,151,346c0-10.17.94-20.08.81-27.5C151.38,295.9,142.53,267.73,153.53,228Z" style="fill:#263238"></path><path d="M157.08,142.91s-9.3-1.1-7.68,7.89-7.5,8.11-2.12,17.11-4.13,8.75,2.5,17.75c7.5,10.19,31.13-.43,30.75-6.4s-3.25-3.72-1.95-8.37c1.59-5.68,4.82-4.91,1.95-11.29-2.16-4.82-3.75-5.69-3.25-10.82S169.28,133.53,157.08,142.91Z" style="fill:#263238"></path><path d="M152.14,180.19a4.66,4.66,0,0,1,1.86-.41,134.64,134.64,0,0,1,17.69,0c.36,0,.7,0,1,0l7.08,16.88,4.25,31-20.38.06S157.81,194.58,152.14,180.19Z" style="fill:#fff"></path><path d="M155.26,163.25a5.32,5.32,0,0,0,3.15,2.62c1.8.54,2.74-1.06,2.27-2.78-.42-1.54-1.87-3.69-3.69-3.48a2.41,2.41,0,0,0-2.05,2.75A2.17,2.17,0,0,0,155.26,163.25Z" style="fill:#ffb573"></path><path d="M209.21,204.55c-3.17,3.28-9.9,9.88-13,10.18-4.18.4-12.93-14.88-12.93-14.88L179,184.19,175,180.53s7.44.58,11.23,6.56,10.83,18.64,10.83,18.64l8.86-5.47Z" style="fill:#407BFF"></path><polygon points="165.4 226.41 184.65 225.66 184.65 229.91 165.65 229.91 165.4 226.41" style="fill:#263238"></polygon><g style="opacity:0.4"><polygon points="165.4 226.41 184.65 225.66 184.65 229.91 165.65 229.91 165.4 226.41"></polygon></g><path d="M176.61,224.45a3,3,0,0,0-2.59,1.62l2.59-.1v3.94h-2.55a3,3,0,0,0,2.55,1.54,3.53,3.53,0,0,0,0-7Z" style="fill:#263238"></path><path d="M176.61,224.45a3,3,0,0,0-2.59,1.62l2.59-.1v3.94h-2.55a3,3,0,0,0,2.55,1.54,3.53,3.53,0,0,0,0-7Z" style="fill:#fff;opacity:0.7000000000000001"></path><path d="M167.48,190.28l3.48-.81.73-9.59c-.36,0-.71-.06-.9-.1-4.94-1-4.45-4.47-3.35-7.79l-7.69-7.84c.48,4.45,1.21,13.45-2.67,15.18a11.71,11.71,0,0,1-2.48.52Z" style="fill:#ffb573"></path><polygon points="154.65 179.67 169.78 189.16 171.03 179.67 172.28 179.78 173.94 192.62 170.36 190.2 167.11 193.95 153.53 179.78 154.65 179.67" style="fill:#407BFF"></polygon><polygon points="154.65 179.67 169.78 189.16 171.03 179.67 172.28 179.78 173.94 192.62 170.36 190.2 167.11 193.95 153.53 179.78 154.65 179.67" style="fill:#fff;opacity:0.8"></polygon><path d="M150.28,240.28s19.5,6,19.5-7-6-36.25-16.25-53.5c0,0-8.75,1-9.5,7.5S154.28,208,150.28,240.28Z" style="fill:#407BFF"></path><path d="M167.57,216.2c-2.61-11.74-7.45-25.32-14-36.42a16,16,0,0,0-2.32.51v9.87l5.68,2.75L154.65,197Z" style="fill:#407BFF"></path><path d="M167.57,216.2c-2.61-11.74-7.45-25.32-14-36.42a16,16,0,0,0-2.32.51v9.87l5.68,2.75L154.65,197Z" style="fill:#fff;opacity:0.5"></path><path d="M181.43,193.21l1.82,6.64a97.32,97.32,0,0,0,6,9,69.81,69.81,0,0,0-6.68-19.53Z" style="opacity:0.1"></path><path d="M172.28,179.78s8.75,25.5,9.75,45.5,6.75,16.38,6.75,16.38-3.5-8.38-3-23.88S184.78,177.78,172.28,179.78Z" style="fill:#407BFF"></path><path d="M179.28,186.81l-5.94-7.13a7.75,7.75,0,0,0-1.06.1,235.61,235.61,0,0,1,8.25,32.49V192.78l-3.13-2.87Z" style="fill:#407BFF"></path><path d="M179.28,186.81l-5.94-7.13a7.75,7.75,0,0,0-1.06.1,235.61,235.61,0,0,1,8.25,32.49V192.78l-3.13-2.87Z" style="fill:#fff;opacity:0.5"></path><path d="M206,200.26l2.76-1.71,2.45-4.77a2.92,2.92,0,0,1,2.16-1.55l3.12-.47a2.9,2.9,0,0,1,2.28.63l.7.57a2.91,2.91,0,0,1,.91,3.19l-.26.75a2.92,2.92,0,0,1-2.4,1.95,3.71,3.71,0,0,0-2.82,1.53c-1.18,2-3.92,2.35-3.92,2.35s-.66.72-1.72,1.82Z" style="fill:#ffb573"></path><polygon points="204.47 200.4 206.24 199.09 210.19 204.66 208.59 206.18 204.47 200.4" style="fill:#407BFF"></polygon><polygon points="204.47 200.4 206.24 199.09 210.19 204.66 208.59 206.18 204.47 200.4" style="fill:#fff;opacity:0.5"></polygon><path d="M162.9,167.38l4.58,4.64a14.15,14.15,0,0,0-.63,2.38c-1.84-.44-4.51-2.34-4.53-4.32A7.87,7.87,0,0,1,162.9,167.38Z" style="opacity:0.2;isolation:isolate"></path><path d="M155.84,157.23c1.86,7.11,2.49,10.15,6.84,13.13,6.56,4.48,14.88.65,15.18-6.87.28-6.77-2.8-17.24-10.4-18.72a10,10,0,0,0-11.62,12.46Z" style="fill:#ffb573"></path><path d="M172.65,164.31c.11.59.52,1,.9.93s.59-.61.48-1.19-.52-1-.9-.93S172.53,163.73,172.65,164.31Z" style="fill:#263238"></path><path d="M172.19,157.14a15.52,15.52,0,0,0,2.82,3.33,2.54,2.54,0,0,1-2,.81Z" style="fill:#ed893e"></path><path d="M165.18,154.55a.33.33,0,0,1-.14,0,.29.29,0,0,1-.1-.4h0a3.39,3.39,0,0,1,2.64-1.7.29.29,0,1,1,0,.58,2.83,2.83,0,0,0-2.16,1.43A.3.3,0,0,1,165.18,154.55Z" style="fill:#263238"></path><path d="M175.87,151.82a.33.33,0,0,1-.14,0,2.83,2.83,0,0,0-2.58-.17.28.28,0,0,1-.39-.12h0a.31.31,0,0,1,.13-.4,3.45,3.45,0,0,1,3.14.18.3.3,0,0,1,.13.39.32.32,0,0,1-.28.16Z" style="fill:#263238"></path><path d="M167.86,157c.12.58.52,1,.91.92s.6-.6.48-1.19-.52-1-.9-.93S167.75,156.4,167.86,157Z" style="fill:#263238"></path><path d="M174.48,155.69c.12.58.52,1,.9.92s.6-.61.49-1.2-.52-1-.9-.92S174.36,155.1,174.48,155.69Z" style="fill:#263238"></path><path d="M174.81,154.56l1.32-.68S175.62,155.12,174.81,154.56Z" style="fill:#263238"></path><path d="M168.19,155.86l1.32-.68S169,156.42,168.19,155.86Z" style="fill:#263238"></path><path d="M160.22,143c-1.27,2.18,1.9,6.22,8.56,5.83,5-.29,11.31,5.1,10.8-.72C179.16,142.77,166.54,140.24,160.22,143Z" style="fill:#263238"></path><path d="M164.5,144.55c4,2.59,1.34,7.31-.58,9.44s-4.89,4.11-2.6,7.25,3.87,11.8-3.46,10.28-7-11.85-4.86-16.62S159.74,141.48,164.5,144.55Z" style="fill:#263238"></path><path d="M175,142h0c-.74-2-2.77-3.3-4.53-2.84a3.07,3.07,0,0,0-2.1,3.47,1.41,1.41,0,0,0-1-.13,1.21,1.21,0,0,0-.77.6,4.38,4.38,0,0,0-1.35-1.36,3.34,3.34,0,0,0-2.67-.5A2.8,2.8,0,0,0,160.7,143a4,4,0,0,0,0,2.83,3.3,3.3,0,0,0,.19.43l-3.13,5.58c.05.38.1.81.15,1.27l3.42-6.1a4.67,4.67,0,0,0,1.22,1.17,3.62,3.62,0,0,0,1.92.59,2.66,2.66,0,0,0,.75-.1,2.72,2.72,0,0,0,1.88-1.69,3.89,3.89,0,0,0,0-2.83.72.72,0,0,1,.48-1,.9.9,0,0,1,1,.58h0a4.28,4.28,0,0,0,3.78,2.93,2.76,2.76,0,0,0,.75-.1C174.91,146.08,175.75,144.05,175,142Zm-8.48,4.63A2.26,2.26,0,0,1,165,148a2.71,2.71,0,0,1-2.15-.41,3.85,3.85,0,0,1-1.56-2,3.34,3.34,0,0,1,0-2.39,2.24,2.24,0,0,1,1.51-1.37,2.47,2.47,0,0,1,.6-.08,3,3,0,0,1,1.56.48,3.93,3.93,0,0,1,1.56,2h0A3.34,3.34,0,0,1,166.54,146.65Zm6.39-.71a3.38,3.38,0,0,1-3.72-2.39c-.61-1.7.06-3.38,1.5-3.76a2.33,2.33,0,0,1,.59-.08,3.57,3.57,0,0,1,3.13,2.47C175,143.87,174.37,145.56,172.93,145.94Z" style="fill:#407BFF"></path><path d="M156.8,144.57s-.34-6.81,2.51-6.6S158.08,140.37,156.8,144.57Z" style="fill:#263238"></path><path d="M150.28,213.74c2-15.52.2-20.87.2-20.87L148,198.53s-.14,1.39-.33,3.14A88,88,0,0,1,150.28,213.74Z" style="opacity:0.1"></path><path d="M160.1,222l-5.5,1-3.47,1.27c0,1.8,0,3.68,0,5.63C155.36,227.25,160.1,222,160.1,222Z" style="opacity:0.1"></path><path d="M248.16,165.6h-3.57v45.58h3.57a1.91,1.91,0,0,0,1.91-1.91V167.51A1.91,1.91,0,0,0,248.16,165.6Z" style="fill:#407BFF"></path><path d="M248.16,165.6h-3.57v45.58h3.57a1.91,1.91,0,0,0,1.91-1.91V167.51A1.91,1.91,0,0,0,248.16,165.6Z" style="fill:#fff;opacity:0.2"></path><rect x="214.87" y="165.6" width="34.4" height="45.58" rx="2.39" style="fill:#407BFF"></rect><rect x="214.87" y="165.6" width="34.4" height="45.58" rx="2.39" style="fill:#fff;opacity:0.5"></rect><rect x="217.64" y="167.46" width="28.2" height="39.5" style="fill:#fff"></rect><path d="M225.12,163.1H239a0,0,0,0,1,0,0v2.81a3.25,3.25,0,0,1-3.25,3.25h-7.4a3.25,3.25,0,0,1-3.25-3.25V163.1A0,0,0,0,1,225.12,163.1Z" style="fill:#263238"></path><path d="M225.12,163.1H239a0,0,0,0,1,0,0v2.81a3.25,3.25,0,0,1-3.25,3.25h-7.4a3.25,3.25,0,0,1-3.25-3.25V163.1A0,0,0,0,1,225.12,163.1Z" style="fill:#fff;opacity:0.7000000000000001"></path><circle cx="228.2" cy="165.84" r="0.87" style="fill:#263238"></circle><circle cx="235.93" cy="165.84" r="0.87" style="fill:#263238"></circle><rect x="238.71" y="172.4" width="4.85" height="4.85" style="fill:#407BFF"></rect><rect x="238.71" y="172.4" width="4.85" height="4.85" style="fill:#fff;opacity:0.5"></rect><path d="M220.84,175.42h15.09a.6.6,0,0,0,0-1.2H220.84a.6.6,0,0,0,0,1.2Z"></path><g style="opacity:0.4"><path d="M220.84,175.42h15.09a.6.6,0,0,0,0-1.2H220.84a.6.6,0,0,0,0,1.2Z" style="fill:#fff"></path></g><path d="M244.16,171.7,241,174.86l-1.95-2c-.55-.54-1.4.31-.85.85l2.38,2.38a.61.61,0,0,0,.85,0l3.58-3.58A.6.6,0,0,0,244.16,171.7Z"></path><path d="M244.16,171.7,241,174.86l-1.95-2c-.55-.54-1.4.31-.85.85l2.38,2.38a.61.61,0,0,0,.85,0l3.58-3.58A.6.6,0,0,0,244.16,171.7Z" style="fill:#fff;opacity:0.4"></path><rect x="238.71" y="179.9" width="4.85" height="4.85" style="fill:#407BFF"></rect><rect x="238.71" y="179.9" width="4.85" height="4.85" style="fill:#fff;opacity:0.5"></rect><path d="M220.84,182.92h11.89a.6.6,0,0,0,0-1.2H220.84a.6.6,0,0,0,0,1.2Z"></path><g style="opacity:0.4"><path d="M220.84,182.92h11.89a.6.6,0,0,0,0-1.2H220.84a.6.6,0,0,0,0,1.2Z" style="fill:#fff"></path></g><path d="M244.16,179.2,241,182.36l-1.95-2c-.55-.54-1.4.31-.85.85l2.38,2.38a.61.61,0,0,0,.85,0l3.58-3.58A.6.6,0,0,0,244.16,179.2Z"></path><path d="M244.16,179.2,241,182.36l-1.95-2c-.55-.54-1.4.31-.85.85l2.38,2.38a.61.61,0,0,0,.85,0l3.58-3.58A.6.6,0,0,0,244.16,179.2Z" style="fill:#fff;opacity:0.4"></path><rect x="238.71" y="187.4" width="4.85" height="4.85" style="fill:#407BFF"></rect><rect x="238.71" y="187.4" width="4.85" height="4.85" style="fill:#fff;opacity:0.5"></rect><path d="M220.84,190.42h14.29a.6.6,0,0,0,0-1.2H220.84a.6.6,0,0,0,0,1.2Z"></path><g style="opacity:0.4"><path d="M220.84,190.42h14.29a.6.6,0,0,0,0-1.2H220.84a.6.6,0,0,0,0,1.2Z" style="fill:#fff"></path></g><path d="M244.16,186.7,241,189.86l-1.95-2c-.55-.55-1.4.3-.85.84l2.38,2.38a.61.61,0,0,0,.85,0l3.58-3.58A.6.6,0,0,0,244.16,186.7Z"></path><path d="M244.16,186.7,241,189.86l-1.95-2c-.55-.55-1.4.3-.85.84l2.38,2.38a.61.61,0,0,0,.85,0l3.58-3.58A.6.6,0,0,0,244.16,186.7Z" style="fill:#fff;opacity:0.4"></path><rect x="238.71" y="194.9" width="4.85" height="4.85" style="fill:#407BFF"></rect><rect x="238.71" y="194.9" width="4.85" height="4.85" style="fill:#fff;opacity:0.5"></rect><path d="M220.84,197.92h13.49a.6.6,0,0,0,0-1.2H220.84a.6.6,0,0,0,0,1.2Z"></path><g style="opacity:0.4"><path d="M220.84,197.92h13.49a.6.6,0,0,0,0-1.2H220.84a.6.6,0,0,0,0,1.2Z" style="fill:#fff"></path></g><path d="M213.22,193s4.42-.39,5,0c.25.17.13.92,0,1.19s-.88.52-1.25.66a16.12,16.12,0,0,1-2.87.34Z" style="fill:#ffb573"></path><path d="M180.53,206.44c0,.35-1.05.63-2.33.63s-2.34-.28-2.34-.63,1-.63,2.34-.63S180.53,206.09,180.53,206.44Z" style="fill:#263238"></path><polygon points="179 205.58 176.81 205.17 161.97 205.17 161.97 207.71 176.81 207.71 179 207.3 179 205.58" style="fill:#263238"></polygon><polygon points="179 205.58 176.81 205.17 161.97 205.17 161.97 207.71 176.81 207.71 179 207.3 179 205.58" style="fill:#fff;opacity:0.5"></polygon><rect x="161.97" y="205.17" width="0.72" height="2.54" style="fill:#263238"></rect><path d="M160.1,216.09c-3.13,1.45-8,3.28-12.65,3.28,0,0,3.09-17.51,3.76-23.39.41-3.63,1-14.9-3.47-14.17,0,0-5.29.22-7.29,19.06s-3,23,0,26.16c2.53,2.67,15-1.29,22-5.4Z" style="fill:#407BFF"></path><path d="M162.41,221.63a20.19,20.19,0,0,0,3.2-2.26l3.39-2a4.44,4.44,0,0,0,1.94-3.34h0a5.38,5.38,0,0,1,1.91-3.72l.13-.11a3.52,3.52,0,0,0,.67-4.66l-.24-.35a3.54,3.54,0,0,0-3.16-1.55l-1,.07a3.54,3.54,0,0,0-2.74,1.64l-.94,1.5a3.48,3.48,0,0,0-.42,1l-1.68,6.5s-1.3.78-3.35,1.72Z" style="fill:#ffb573"></path><polygon points="158.67 216.04 160.58 215.15 163.57 221.91 161.55 222.94 158.67 216.04" style="fill:#407BFF"></polygon><polygon points="158.67 216.04 160.58 215.15 163.57 221.91 161.55 222.94 158.67 216.04" style="fill:#fff;opacity:0.5"></polygon></g></svg>